<?xml version="1.0" encoding="utf-8"?>
<!-- Generator: Adobe Illustrator 23.0.1, SVG Export Plug-In . SVG Version: 6.00 Build 0)  -->
<svg version="1.1" id="Layer_1" xmlns="http://www.w3.org/2000/svg" xmlns:xlink="http://www.w3.org/1999/xlink" x="0px" y="0px"
	 viewBox="0 0 851.8 749.9" style="enable-background:new 0 0 851.8 749.9;" xml:space="preserve">
<style type="text/css">
	.st0{fill:#157B41;stroke:#FFFFFF;stroke-width:1.5;}
	.st1{fill:#FFFFFF;}
	.st2{font-family:'Roboto-Light';}
	.st3{font-size:16px;}
	.st4{enable-background:new    ;}
	.st5{fill:#157B41;stroke:#157B41;}
</style>
<image style="overflow:visible;" width="842" height="1000" xlink:href="japanMap-sm.png"  transform="matrix(0.7669 0 0 0.7669 104.2552 -17.3303)">
</image>
<g id="circulos">
	<path class="st0" d="M579.2,124.1c-4,0-7.4,3.3-7.4,7.5c0,4.1,3.4,7.5,7.4,7.5c4.2,0,7.6-3.4,7.6-7.5
		C586.8,127.4,583.4,124.1,579.2,124.1"/>
	<path class="st0" d="M596.5,306.6c-4.1,0-7.5,3.3-7.5,7.5c0,4.1,3.4,7.5,7.5,7.5s7.5-3.4,7.5-7.5
		C604,309.9,600.6,306.6,596.5,306.6"/>
	<path class="st0" d="M504,454.3c-4.1,0-7.5,3.3-7.5,7.5c0,4.1,3.4,7.5,7.5,7.5s7.5-3.4,7.5-7.5C511.5,457.6,508.1,454.3,504,454.3"
		/>
	<path class="st0" d="M450.6,519c-4.1,0-7.5,3.3-7.5,7.5c0,4.1,3.4,7.5,7.5,7.5s7.5-3.4,7.5-7.5S454.7,519,450.6,519"/>
	<path class="st0" d="M425.3,504.4c-4.1,0-7.5,3.3-7.5,7.5c0,4.1,3.4,7.5,7.5,7.5s7.5-3.4,7.5-7.5
		C432.8,507.7,429.4,504.4,425.3,504.4"/>
	<path class="st0" d="M349.5,519c-4.1,0-7.5,3.3-7.5,7.5c0,4.1,3.4,7.5,7.5,7.5s7.5-3.4,7.5-7.5C356.9,522.3,353.5,519,349.5,519"/>
	<path class="st0" d="M370.6,528c-4,0-7.4,3.3-7.4,7.5c0,4.1,3.4,7.5,7.4,7.5c4.2,0,7.6-3.4,7.6-7.5C378,531.3,374.8,528,370.6,528"
		/>
	<path class="st0" d="M173.9,582c-4,0-7.4,3.4-7.4,7.5c0,4.2,3.4,7.5,7.4,7.5c4.2,0,7.6-3.3,7.6-7.5
		C181.5,585.4,178.1,582,173.9,582"/>
	<path class="st0" d="M193,609c-4.1,0-7.4,3.3-7.4,7.5c0,4.1,3.3,7.5,7.4,7.5c4.2,0,7.6-3.4,7.6-7.5C200.6,612.3,197.2,609,193,609"
		/>
	<path class="st0" d="M220.9,588.5c-4.1,0-7.5,3.3-7.5,7.5c0,4.1,3.4,7.5,7.5,7.5s7.5-3.4,7.5-7.5S225,588.5,220.9,588.5"/>
	<path class="st0" d="M511.8,485c-4.1,0-7.5,3.3-7.5,7.5c0,4.1,3.4,7.5,7.5,7.5c4.1,0,7.5-3.4,7.5-7.5S515.9,485,511.8,485"/>
	<path class="st0" d="M508.2,475.7c-4.1,0-7.5,3.3-7.5,7.6c0,4.2,3.4,7.6,7.5,7.6c4.1,0,7.5-3.3,7.5-7.6S512.3,475.7,508.2,475.7"/>
</g>
<g id="textos">
	<text transform="matrix(1 0 0 1 669.8813 343.3995)" class="st1 st2 st3">Kamaishi Recovery</text>
	<text transform="matrix(1 0 0 1 669.8813 363.3995)" class="st1 st2 st3">Memorial Stadium</text>
	<text transform="matrix(0.9999 -1.545596e-02 1.545596e-02 0.9999 440.5373 289.8598)" class="st1 st2 st3">Kumagaya</text>
	<text transform="matrix(0.9999 -1.545596e-02 1.545596e-02 0.9999 420.6252 310.4451)" class="st1 st2 st3"> Rugby Stadium</text>
	<text transform="matrix(1 0 0 1 605.8192 427.2513)" class="st1 st2 st3">Tokyo Stadium</text>
	<text transform="matrix(1 0 0 1 580.7031 553.3057)" class="st1 st2 st3">International </text>
	<text transform="matrix(1 0 0 1 580.7031 573.3057)" class="st1 st2 st3">Stadium Yokohama</text>
	<text transform="matrix(1 0 0 1 302.462 434.2997)" class="st1 st2 st3">Kobe Misaki</text>
	<text transform="matrix(1 0 0 1 319.712 454.2997)" class="st1 st2 st3">Stadium</text>
	<text transform="matrix(1 0 0 1 372.986 353.3997)" class="st1 st2 st3">City of Toyota</text>
	<text transform="matrix(1 0 0 1 401.425 373.3997)" class="st1 st2 st3">Stadium</text>
	<text transform="matrix(1 0 0 1 147.2249 448.2999)" class="st1 st2 st3">Fukuoka</text>
	<text transform="matrix(1 0 0 1 117.9258 468.2999)" class="st1 st2 st3">Hakatanomori</text>
	<text transform="matrix(1 0 0 1 147.2247 488.2999)" class="st1 st2 st3">Stadium</text>
	<text transform="matrix(1 0 0 1 16.8364 608.4001)" class="st1 st2 st3">Kumamoto</text>
	<text transform="matrix(1 0 0 1 28.7956 628.4001)" class="st1 st2 st3">Stadium</text>
	<text transform="matrix(1 0 0 1 408.0526 136.2653)" class="st1 st2 st3">Sapporo Dome</text>
	<text transform="matrix(1 0 0 1 228.4251 650.8223)" class="st4"><tspan x="0" y="0" class="st1 st2 st3">Oita </tspan><tspan x="0" y="19.2" class="st1 st2 st3">Stadium</tspan></text>
	<text transform="matrix(1 0 0 1 336.1599 609.4378)" class="st1 st2 st3">Hanazono</text>
	<text transform="matrix(1 0 0 1 352.6296 629.0531)" class="st1 st2 st3">Rugby</text>
	<text transform="matrix(1 0 0 1 343.29 649.4378)" class="st1 st2 st3">Stadium</text>
	<text transform="matrix(1 0 0 1 439.1856 590.5082)" class="st1 st2 st3">Shizuoka </text>
	<text transform="matrix(1 0 0 1 439.1856 610.5082)" class="st1 st2 st3">Stadium</text>
</g>
<g id="lines">
	<rect x="600.7" y="313.3" class="st5" width="61.5" height="2"/>
	<rect x="173.4" y="500" class="st5" width="1.3" height="86.4"/>
	<rect x="522" y="131.3" class="st5" width="52.9" height="1.3"/>
	<polygon class="st5" points="222.2,600.4 222.6,650.8 221.3,650.8 220.9,600.4 	"/>
	<polygon class="st5" points="99.2,616.6 188.2,616.2 188.2,617.6 99.2,618 	"/>
	<polygon class="st5" points="426.1,382.1 426.3,506 424.9,506 424.8,382.1 	"/>
	<polygon class="st5" points="371.4,539.1 371.4,594.8 370.1,594.8 370.1,539.1 	"/>
	<path class="st5" d="M512.7,495.3c13.7,65.9,32.9,63.6,60.4,62.4l0.6,1.7c-27,1.2-49.9,4-63-64L512.7,495.3z"/>
	<path class="st5" d="M510.8,481.2c13.1-68,61.3-61.3,88.6-59.4l0.2,1.2c-27.6-1.7-73.2-7.5-86.9,58.4L510.8,481.2z"/>
	<polygon class="st5" points="504.7,315.3 504.2,457.3 502.9,457.3 503.4,315.3 	"/>
	<polygon class="st5" points="451.8,529.9 452,571.4 450.7,571.4 450.5,529.9 	"/>
	<polygon class="st5" points="350,463.1 350.2,521.3 349,521.3 348.9,463.1 	"/>
</g>
</svg>
