<?xml version="1.0" encoding="utf-8"?>
<!-- Generator: Adobe Illustrator 23.0.1, SVG Export Plug-In . SVG Version: 6.00 Build 0)  -->
<svg version="1.1" xmlns="http://www.w3.org/2000/svg" xmlns:xlink="http://www.w3.org/1999/xlink" x="0px" y="0px"
	 viewBox="0 0 425 179" style="enable-background:new 0 0 425 179;" xml:space="preserve">
<style type="text/css">
	.st0{display:none;}
	.st1{display:inline;fill:#FEDDFE;}
	.st2{fill:#FFFFFF;}
	.st3{font-family:'Roboto-Bold';}
	.st4{font-size:12px;}
	.st5{fill:#24B865;}
	.st6{clip-path:url(#SVGID_3_);fill:#FFFFFF;}
	.st7{fill:none;stroke:#FFFFFF;stroke-width:1.25;stroke-linecap:round;stroke-linejoin:round;stroke-miterlimit:10;}
	.st8{fill:#FEFEFE;}
	.st9{fill:#21B765;}
	.st10{fill:#22B865;}
	.st11{fill:#20B764;}
	.st12{fill:#21B865;}
	.st13{fill:#FCFDFD;}
	.st14{fill:#23B866;}
	.st15{fill:#22B866;}
	.st16{fill:#25B968;}
	.st17{fill:#24B867;}
	.st18{fill:#25B967;}
	.st19{fill:#28BA6A;}
	.st20{fill:#26B968;}
	.st21{fill:#27B969;}
	.st22{fill:#2ABA6B;}
	.st23{fill:#2CBB6C;}
	.st24{fill:#2BBB6C;}
	.st25{fill:#F4FBF7;}
	.st26{fill:#29BA6A;}
	.st27{fill:#2EBB6D;}
	.st28{fill:#F0F9F4;}
	.st29{fill:#2BBA6B;}
	.st30{fill:#2FBC6F;}
	.st31{fill:#F0FAF4;}
	.st32{fill:#2FBC6E;}
	.st33{fill:#2CBB6D;}
	.st34{fill:#34BE72;}
	.st35{fill:#34BD71;}
	.st36{fill:#31BC70;}
	.st37{fill:#2EBC6E;}
	.st38{fill:#3ABF76;}
	.st39{fill:#36BE73;}
	.st40{fill:#44C37D;}
	.st41{fill:#40C179;}
	.st42{fill:#38BF75;}
	.st43{fill:#EFF9F4;}
	.st44{fill:#38BF74;}
	.st45{fill:#3DC078;}
	.st46{fill:#3BC076;}
	.st47{fill:#ECF8F1;}
	.st48{fill:#3EC078;}
	.st49{fill:#E3F5EB;}
	.st50{fill:#F3FAF6;}
	.st51{fill:#F7FCF9;}
	.st52{fill:#33BD71;}
	.st53{fill:#2FBB6E;}
	.st54{fill:#37BE74;}
	.st55{fill:#CBEEDA;}
	.st56{fill:#C8ECD8;}
	.st57{fill:#49C480;}
	.st58{fill:#4AC481;}
	.st59{fill:#41C17A;}
	.st60{fill:#AEE4C6;}
	.st61{fill:#47C37F;}
	.st62{fill:#39BF76;}
	.st63{fill:#50C685;}
	.st64{fill:#61CB90;}
	.st65{fill:#45C37E;}
	.st66{fill:#32BD71;}
	.st67{fill:#4DC582;}
	.st68{fill:#38BE74;}
	.st69{fill:#7ED5A5;}
	.st70{fill:#67CE95;}
	.st71{fill:#46C37E;}
	.st72{fill:#C9EDD9;}
	.st73{fill:#B8E7CD;}
	.st74{fill:#42C17B;}
	.st75{fill:#59C98B;}
	.st76{fill:#51C686;}
	.st77{fill:#61CB91;}
	.st78{fill:#3BBF76;}
	.st79{fill:#6ACE96;}
	.st80{fill:#BCE9D0;}
	.st81{fill:#4AC480;}
	.st82{fill:#A0E0BC;}
	.st83{fill:#6ED09A;}
	.st84{fill:#44C27D;}
	.st85{fill:#FDFEFE;}
	.st86{fill:#D2F0DF;}
	.st87{fill:#74D29D;}
	.st88{fill:#54C787;}
	.st89{fill:#4FC684;}
	.st90{fill:#72D19C;}
	.st91{fill:#6CCF98;}
	.st92{fill:#51C685;}
	.st93{fill:#3FC179;}
	.st94{fill:#DDF4E7;}
	.st95{fill:#30BC6F;}
	.st96{fill:#48C47F;}
	.st97{fill:#53C787;}
	.st98{fill:#3BC077;}
	.st99{fill:#92DCB3;}
	.st100{fill:#E2F5EA;}
	.st101{fill:#5AC98C;}
	.st102{fill:#C6ECD7;}
	.st103{fill:#5BC98C;}
	.st104{fill:#C4EBD5;}
	.st105{fill:#55C788;}
	.st106{fill:#7FD5A5;}
	.st107{fill:#97DDB6;}
	.st108{fill:#A9E2C2;}
	.st109{fill:#E1F5E9;}
	.st110{fill:#42C27B;}
	.st111{fill:#6DD099;}
	.st112{fill:#15B45D;}
	.st113{fill:#8FDAB0;}
	.st114{fill:#D3F0E0;}
	.st115{fill:#40C17A;}
	.st116{fill:#54C888;}
	.st117{fill:#28B969;}
	.st118{fill:#7BD4A2;}
	.st119{fill:#93DBB3;}
	.st120{fill:#6FD09A;}
	.st121{fill:#AFE4C6;}
	.st122{fill:#78D3A1;}
	.st123{fill:#87D8AB;}
	.st124{fill:#7ED5A4;}
	.st125{fill:#B9E8CE;}
	.st126{fill:#CDEEDC;}
	.st127{fill:#8CD9AF;}
	.st128{fill:#AFE4C7;}
	.st129{fill:#CAEDDA;}
	.st130{fill:#3DC077;}
	.st131{fill:#9EDFBA;}
	.st132{fill:#6BCE97;}
	.st133{fill:#81D6A7;}
	.st134{fill:#64CC93;}
	.st135{fill:#44C27C;}
	.st136{fill:#6BCF97;}
	.st137{fill:#E2F5EB;}
	.st138{fill:#5FCB8F;}
	.st139{fill:#29B969;}
	.st140{fill:#FCFEFD;}
	.st141{fill:#5CCA8C;}
	.st142{fill:#63CC92;}
	.st143{fill:#53C786;}
	.st144{fill:#D6F1E2;}
	.st145{fill:#46C37D;}
	.st146{fill:#A6E2C0;}
	.st147{fill:#B3E6C9;}
	.st148{fill:#9EDFBB;}
	.st149{fill:#5CCA8D;}
	.st150{fill:#70D09B;}
	.st151{fill:#17B45F;}
	.st152{fill:#2EBB6E;}
	.st153{fill:#CCEEDB;}
	.st154{fill:#7BD4A3;}
	.st155{fill:#D0EFDD;}
	.st156{fill:#6ECF99;}
	.st157{fill:#D0EFDE;}
	.st158{fill:#3CC077;}
	.st159{fill:#5AC98B;}
	.st160{fill:#D7F1E2;}
	.st161{fill:#92DBB2;}
	.st162{fill:#F6FBF8;}
	.st163{fill:#4CC582;}
	.st164{fill:#F6FCF9;}
	.st165{fill:#B7E7CC;}
	.st166{fill:#BDE9D0;}
	.st167{fill:#DEF3E7;}
	.st168{fill:#D9F2E4;}
	.st169{fill:#DDF3E7;}
	.st170{fill:#D8F2E3;}
	.st171{fill:#8BD9AE;}
	.st172{fill:#E7F7EE;}
	.st173{fill:#FDFEFD;}
	.st174{fill:#F5FBF8;}
	.st175{fill:#DFF4E8;}
	.st176{fill:#A1E0BC;}
	.st177{fill:#E6F6ED;}
	.st178{fill:#D3F0DF;}
	.st179{fill:#A4E1BF;}
	.st180{fill:#74D29E;}
	.st181{fill:#78D3A0;}
	.st182{fill:#DCF3E6;}
	.st183{fill:#66CD94;}
	.st184{fill:#86D8AA;}
</style>
<g id="Layer_2" class="st0">
	<rect class="st1" width="425" height="179"/>
</g>
<g id="Layer_1">
	<text transform="matrix(1 0 0 1 254.7026 155.2148)" class="st2 st3 st4">COACH:</text>
	<text transform="matrix(1 0 0 1 224.2026 169.6148)" class="st2 st3 st4">EDDIE JONES (AU)</text>
	<text transform="matrix(1 0 0 1 110.3799 155.2156)" class="st2 st3 st4">ENGLAND</text>
	<g>
		<g>
			<path id="SVGID_1_" class="st5" d="M186.5,50.4c0,0,9.1,76.1-49,88.5c-58-12.4-49-88.5-49-88.5S121.4,19.8,177,9
				C177,9,184.4,26.8,186.5,50.4z"/>
		</g>
		<g>
			<g>
				<defs>
					<path id="SVGID_2_" d="M186.5,50.4c0,0,9.1,76.1-49,88.5c-58-12.4-49-88.5-49-88.5S121.4,19.8,177,9
						C177,9,184.4,26.8,186.5,50.4z"/>
				</defs>
				<clipPath id="SVGID_3_">
					<use xlink:href="#SVGID_2_"  style="overflow:visible;"/>
				</clipPath>
				<polygon class="st6" points="190.2,60.4 150.9,60.4 150.9,2.6 124.3,2.6 124.3,60.4 84.9,60.4 84.9,87 124.3,87 124.3,144.8 
					150.9,144.8 150.9,87 190.2,87 				"/>
			</g>
		</g>
		<g>
			<path class="st7" d="M186.5,50.4c0,0,9.1,76.1-49,88.5c-58-12.4-49-88.5-49-88.5S121.4,19.8,177,9C177,9,184.4,26.8,186.5,50.4z"
				/>
		</g>
	</g>
	<g>
		<path class="st8" d="M281.3,22.7c0,0-17.7-0.8-26,13.4c-2.9,4.9-4.4,23.9-4.4,23.9s-2.4-3.1-4.8-1.4c-1.7,1.2-2.3,5.6-2,7.5
			c0.8,4.7,6.3,17.2,7.3,17.1c1.4-0.2,2.2-4.2,2.2-4.2s3.7,8.1,1.6,8.5c-1.7,0.3-8.1,11-10,14.4c-0.8,1.5,2.8,1.8,2.9,2.9
			c0.1,5.8-20.3,15.9-20.3,15.9l0.1,14.6l112.3-0.8c0,0,2.6-12.3-0.3-14.6c-12-9.6-21.4-7.6-21.4-7.6s-3.5-5.9-4.4-8.6
			c-0.9-2.6,4.3-9.1,4.3-9.1l-8-3.4l1.3-10.8l3.3-1.7L313.6,58l-1.7,0.7c0,0-1.5-17.9-4.3-23.5C302.2,24.2,281.3,22.7,281.3,22.7z"
			/>
		<path class="st9" d="M235.8,114.7c1-0.8,2.1-1.2,3.4-1.2c1.2-0.1,2.1-0.9,2.8-1.8c1.1-1.3,2.1-2.7,3-4.1c0.4-0.6,1-1.1,1.7-1.4
			c0.3-0.1,0.6-0.3,0.8-0.6c0.3-0.2,0.5-0.3,0.6,0.2c-1.8,2.6-3.6,5.2-5.6,7.7c-0.7,0.9-1.9,1.6-3.2,1.5c-0.9,0-1.5,0.3-2.2,0.8
			c-2.4,1.5-4.7,3.1-7.4,4c-0.9,0.3-1.4,0.9-2,1.7c-0.2,0.3-0.3,0.6-0.6,0.8c0-0.8,0-1.6,0-2.4c0.5-0.6,1.1-0.9,1.8-1.1
			c1.8-0.5,3.2-1.6,4.8-2.4c0.3-0.2,0.8-0.2,1-0.6C234.9,115.1,235.4,115,235.8,114.7z"/>
		<path class="st9" d="M248.2,105.7c-0.2-0.2-0.4-0.2-0.6-0.2c-0.8-0.2-1.5-0.7-2.1-1.4c-1.2-1.6-0.9-4.7,0.8-5.9
			c2.1-1.5,3.1-3.6,4.1-5.8c0.9-2.1,2.1-4.1,4-5.4c0.5-0.3,0.6-0.7,0.4-1.3c-0.3-1.1-0.4-2.1-0.6-3.2c-0.5-0.6-0.4-1.4-0.4-2.1
			c0-0.5,0.1-1-0.1-1.6c-0.2-1.1-0.4-2.3-0.5-3.4c0.2-0.2,0-0.5,0-0.7c0,0,0-0.1,0-0.1c0,0,0,0,0,0c0,0.2-0.2,0.3-0.3,0.4
			c-0.4,0.2-0.3-0.2-0.4-0.3c-0.1-0.5,0-0.9,0.1-1.4c0.2-0.8,0.2-1.6-0.6-2.2c-0.8-0.6-0.6-2.9,0.4-3.8c0.4-0.4,0.3-0.6,0-1
			c-0.7-0.8-1.5-1.5-2-2.4c-0.3-0.6-0.4-0.1-0.6,0.1c-0.2,0.5-0.6,0.9-0.4,1.6c-0.1,1.3-0.2,2.6,0,4c0,0.2,0,0.3,0,0.5
			c0,0.3,0.3,0.8-0.2,1c-0.3-0.4-0.4-0.9-0.4-1.4c-0.2-0.4,0.1-0.9-0.2-1.4c0-0.6-0.3-1.3,0-1.9c0.2-0.4,0-0.9,0.2-1.4
			c-0.1-0.5,0.1-0.9,0.3-1.2c0.4-1-0.1-2.1-1-2.5c-0.4-0.2-0.4,0.1-0.5,0.3c-0.9,1.4-1.5,3-1.3,4.7c0,0.3,0.3,0.7-0.2,0.9
			c-0.8-1.8-0.6-3.5,0.3-5.2c0.3-0.6,0.6-1.1,0.9-1.7c0.2-0.6,0.6-0.6,1-0.3c0.6,0.5,1.2,1,1.8,1.5c0.2,0.1,0.3,0.3,0.4,0.5
			c0.8,1.3,1.6,2.5,2.7,3.6c0.7,0.7,0.9,1.5,1.2,2.4c0.2,0.6-0.1,0.6-0.5,0.4c-0.2,0.3-0.1,0.6,0,0.9c0,0.2-0.3,0.4,0,0.6
			c0.3,0.4-0.1,0.9,0.2,1.3c0.1,1.6,0.1,3.2,0.4,4.8c0.6,4.6,1.5,9.2,3,13.6c0.8,2.4,1.6,4.8,2.9,7c1.3,2.2,3.2,3.9,4.9,5.8
			c2.3,2.6,5,4.8,7.8,6.8c2.5,1.8,5.3,3.1,7.9,4.6c0.1,0.4-0.3,0.2-0.4,0.3c-0.3,0.4,0.2,0.5,0.3,0.6c1.2,0.8,1.8,2.1,2.5,3.4
			c1,1.9,2.2,3.7,2.3,5.9c0.1,2.5,0.9,4.3,3.1,5.6c1.4,0.8,2.5,2.1,3.8,3.2c-0.1-2.3,1.1-4,2.2-5.6c0.7-1,1.8-1.6,2.6-2.5
			c1-1.2,1.3-2.8,2.1-4.1c0.4-0.7,0.7-1.4,1.1-2.1c0.2-0.2,0.5-0.2,0.7,0c-0.9,1.9-1.7,3.9-2.6,5.8c-0.4,0.9-1.2,1.6-2,2.2
			c-1.6,1.3-2.6,3.1-3.4,5c-0.2,0.6,0,1.1-0.1,1.7c0,0.3,0.1,0.6-0.3,0.7c-0.3,0.1-0.6,0-0.9-0.2c-1.6-1.5-3.2-2.9-4.9-4.3
			c-1-0.8-2-1.6-2.3-2.8c-0.1-0.4-0.4-0.8,0.1-1.2c0.2,0.1,0.3,0,0.2-0.2c-0.2-1-0.5-2.1-0.8-3.1c-0.6-1.9-1.7-3.6-2.7-5.3
			c-0.7-1.1-1.8-2.2-3.1-2.7c-0.8-0.3-2.5,0.3-3.2,1.3c-0.5,0.7-0.9,1.5-1,2.5c-0.1,1.4-0.2,2.9-0.3,4.3c0,0.6,0.2,1.2,0.3,1.9
			c-0.6-0.2-0.7-0.7-0.8-1c-0.4-2.3-0.4-4.6,0.2-6.8c0.5-1.7,1.9-2.7,3.7-3.4c-1.2-0.8-2.5-1.3-3.7-2c-2.5-1.6-4.9-3.4-7.1-5.5
			c-2.1-2.1-4.2-4.3-6.1-6.5c-0.9-1.1-1.4-2.3-2.1-3.5c-0.3-0.5-0.4-0.3-0.6,0c-0.1,0.1-0.2,0.1-0.2,0c0-1.8-1-3.3-1.3-4.9
			c-0.1-0.5-0.3-1.1-0.5-1.6c-0.3-0.9-0.4-1-1.1-0.2c-1,1.1-1.7,2.4-2.4,3.7c-0.5,1.1-1,2.3-1.5,3.4c-0.5,1.2-1.3,2.2-2.4,3
			c-0.8,0.6-1.4,1.3-1.9,2.2c-0.8,1.6-0.2,2.9,1.4,3.5c0.3,0.1,0.6,0.2,0.9,0.2c1.5,0.4,2.9,1,4.3,1.6c2.4,1.1,4.7,2.6,7.2,3.3
			c1.2,0.4,2.2,1.2,3.1,2.1c0.4,0.3,0.7,0.7,1.1,1c0.2,0.1,0.4,0.3,0.6,0.5c2.9,1.9,5.5,4,7.5,6.8c-0.8-0.1-1.5-0.5-2.1-1.1
			c-1.8-2.1-4-3.7-6.3-5.1c-0.6-0.4-1.2-0.8-1.8-1.4c-0.9-0.9-1.9-1.5-3.1-1.9c-0.9-0.2-1.7-0.7-2.6-1.1c-2.6-1.3-5.2-2.9-8.1-3.6
			C248.4,105.8,248.3,105.7,248.2,105.7z"/>
		<path class="st9" d="M309.8,44c0,0-0.1-0.1,0-0.1c-0.2-0.4,0.1-0.8-0.2-1.2l0,0l0,0c-0.2-0.6-0.2-1.3-0.4-2
			c-0.2-0.6-0.3-1.2-0.5-1.8c-0.1-0.8-0.4-1.6-0.9-2.3c-0.2-0.4-0.4-0.9-0.6-1.2c0-0.1-0.1-0.1-0.1-0.2c-0.2-0.3-0.4-0.6-0.5-0.8
			c0-0.1-0.1-0.1-0.1-0.2c-1.1-2-2.6-3.6-4.7-4.7c-0.1-0.1-0.2-0.3-0.2-0.5c1.3,0,2.2,0.8,3.2,1.5c2.5,1.8,3.6,4.4,4.9,7
			c0.2,0.4,0,0.9,0.2,1.3c0.2,0.6,0.4,1.2,0.6,1.8c0.3,0.4-0.1,0.9,0.2,1.3l0,0c0.2,0.5-0.1,1,0.2,1.5c0.1,0.7-0.2,1.5,0.2,2.2
			c0.2,0.8-0.1,1.7,0.1,2.5c0,0.1,0,0.2,0,0.3c0.1,0.5,0.1,1,0,1.4c0,0.1,0,0.2,0,0.2c0.2,0.6-0.1,1.3,0.2,2c0,0.1,0,0.2,0,0.4
			c0.1,0.3,0.1,0.5,0.2,0.8c0,0.5,0.2,1,0.4,1.4c0,0.2,0,0.5,0.1,0.7c0.1,0.4,0,0.8,0.1,1.2c0,0.1,0,0.2,0,0.3c-0.1,0.7,0,1.3-0.1,2
			c0,0.1-0.1,0.2-0.1,0.3c-0.4,0.6,0,1.4-0.4,2c0.2,0,0.1-0.5,0.5-0.4c0.3,0.1,0.2,0.4,0.2,0.7c-0.1,0.5-0.1,1-0.3,1.5
			c-0.2,0.7-0.1,1.4-0.1,2.1c0,0.3,0,0.5-0.1,0.8c-0.1,0.4-0.1,0.8-0.1,1.2c0,0.3,0,0.6-0.1,0.9c-0.2,0.6-0.2,1.2,0,1.8
			c0.1,0.4,0.1,0.7,0,1.1c-0.2,0.6-0.1,1.2-0.1,1.8c0.4,2.7,0.5,5.4,0.3,8.1c-0.2,0.5,0,1.2-0.4,1.7c-0.1,2.7-0.2,5.4-1.3,8
			c-0.1,0.4,0,0.5,0.3,0.6c1,0.4,1.9,0.9,2.8,1.4c0.9,0.5,1.8,0.5,2.8,0.5c0.7,0,1.4,0,2,0.5c1.2,0.9,2,1.8,0.7,3.6
			c-0.7,1-1.6,1.8-2.4,2.8c-0.6,0.8-0.9,1.7-1.3,2.6c-0.2,0.5-0.4,1.1-0.6,1.6c0,0.3-0.1,0.7-0.2,1c-0.2,1.6-0.7,3.2-1.5,4.7
			c-0.2,0-0.3,0-0.2-0.2c0.1-2.7,0.7-5.3,1.5-7.9c0.6-1.9,2.1-3.2,3.3-4.7c0.1-0.2,0.3-0.3,0.4-0.5c0.3-0.5,0.8-0.9,0.5-1.5
			c-0.3-0.7-0.9-1-1.7-1c-1.5,0-2.9-0.2-4.2-1c-0.7-0.5-1.4-0.9-2.1-1.4c-0.4-0.3-0.6-0.2-0.9,0.2c-0.6,1.1-1.2,2.3-1.9,3.4
			c-1.7,2.7-3.8,5-6.3,7c-0.7,0.6-1.4,1.2-2.2,1.7c-0.4,0.2-0.7,0.6-0.9,1c-0.9,1.5-2.8,2.9-4.5,3.3c0.8-0.8,1.6-1.5,2.3-2.2
			c0.1-0.1,0.2-0.1,0.3-0.3c1.6-2.8,4.6-4,6.7-6.3c2.2-2.3,4.1-4.7,5.3-7.6c0.3-0.8,0.9-1.4,1.2-2.2c1-2.7,1.1-5.5,1.2-8.4
			c0.1-2.6,0-5.2,0-7.7c0-0.2,0.1-0.4,0.1-0.5c0.2-0.6,0-1.2,0.2-1.7c0-0.1,0-0.3,0-0.4c-0.1-1.1-0.1-2.1,0-3.2
			c-0.1-0.4-0.1-0.8,0-1.2c0.2-0.4,0-0.8,0.2-1.1l0,0c0.3-0.4,0-0.8,0.2-1.2c0-0.3,0-0.5,0-0.8c-0.1-0.6-0.1-1.2,0-1.8l0,0
			c-0.2-1.7,0-3.4-0.1-5.1c0-0.3,0.1-0.7-0.1-1c0,0,0-0.1,0-0.1c-0.2-0.5,0.1-1.1-0.2-1.6c-0.2-0.4-0.2-0.7-0.2-1.1
			c-0.2-0.3,0-0.6-0.3-0.9c0-0.1,0-0.2,0-0.3c0.1-0.4,0-0.7-0.1-1.1c-0.1-0.4-0.1-0.8-0.1-1.2c0-0.2,0.1-0.5,0.1-0.7
			c0-0.3,0-0.7-0.1-1c-0.1-0.5-0.2-0.9-0.2-1.4C310,45,309.9,44.5,309.8,44z"/>
		<path class="st9" d="M254.2,45.7c0.5-0.3,0.9-1,1.7-1.2c-0.2,0.8-0.7,1.2-1.1,1.7c-1,1.2-2,2.5-2.8,3.9c-0.4,0.7-0.7,1.5-0.6,2.3
			c0.1,0.3-0.2,0.5-0.1,0.8c0,0.1,0.2,0,0,0c0,0,0,0,0-0.1c0-0.3,0.2-0.5,0.4-0.8c0.9-1.9,2-3.7,3.9-4.8c-0.2,0.9-0.8,1.5-1.3,2.2
			c-1.1,1.5-2,3.1-2.7,4.8c-0.1,0.1,0,0.3-0.1,0.5c-0.1,0.2-0.1,0.3-0.1,0.5c0,0.3-0.1,0.6-0.1,0.9c-0.2,0.6,0,1.2,0,1.8
			c-0.1,0.2-0.2,0.3-0.4,0.4c-0.5,0-0.8-0.1-1-0.6c-0.2-3.2,0.2-6.5,0.2-9.7c0-1.2,0.7-2.3,1-3.5c0.4-1.2,0.6-2.5,1.2-3.7
			c0.1-0.2,0.1-0.4,0-0.6c-0.3-0.5-0.5-0.9,0.4-0.6c0.2,0.1,0.3-0.1,0.3-0.2c0.7-1.3,0.6-2.1-0.5-3.1c-0.1-0.1-0.2-0.2-0.3-0.3
			c-0.2-0.3-0.9-0.4-0.5-0.9c0.4-0.5,0.9,0,1.2,0.2c1,0.8,1.2,0.8,1.6-0.5c0.3-1,1-1.6,1.5-2.4c0.3-0.4,0.7-0.7,0.8-1.3
			c0-0.1,0.2-0.4,0.2-0.4c0.9,0.1,0.9-0.9,1.6-1.1c-0.2-0.5-0.7-0.5-1-0.8c0.2-0.4,0.6-0.3,0.8-0.1c1,0.6,1.3-0.3,1.8-0.8
			c0.5-0.4-0.1-0.7-0.2-1c-0.1-0.2-0.4-0.4-0.1-0.7c0.3-0.3,0.5,0,0.7,0.3c0.4,0.7,0.8,0.6,1.4,0.2c2.8-1.9,6-3.1,9.1-4.3
			c1.6-0.6,3.2-0.8,4.9-0.8c0.4,0,0.7-0.1,0.4-0.5c-0.1-0.1-0.1-0.3-0.2-0.4c-0.1-0.3-0.3-0.8,0-0.9c0.5-0.2,0.5,0.4,0.6,0.6
			c0.3,0.5,0.6,0.9,1,1.3c0.2,0.2,0.6,0.3,0.5,0.7c-0.1,0.3-0.5,0.3-0.8,0.3c-0.1,0-0.3,0-0.5,0c-1.1-0.2-2.1-0.1-3.2,0
			c-1.3,0.3-2.5,0.6-3.7,1.1c-0.6,0.3-0.9,0.7-0.9,1.3c-0.1,0.8,0,1.7,0.3,2.5c-1-0.2-1-0.4-0.7-3.2c-0.6,0.4-0.6,0.4-0.9,2.6
			c-0.5-0.5-0.5-0.5-0.3-2.1c-1.8,0.7-3.6,1.5-5.2,2.5c-0.2,0.1-0.8,0.1-0.5,0.6c0.3,0.4,0.6,1,1.2,0.7c0.8-0.3,1.6-0.6,2.7-0.6
			c-0.5,0.5-1.2,0.7-1.8,0.8c-0.6,0.2-1.3,0.2-1.3,1c-0.8,0-0.9-0.7-1.2-1.1c-0.7-0.9-0.9,0.1-1.3,0.3c-0.5,0.3-0.2,0.6,0.1,0.9
			c0.4,0.3,0.8,0.7,1.2,1.1c0.1,0.1,0.2,0.3,0.1,0.5c-0.2,0.3-0.4,0.1-0.6,0c-0.6-0.4-1.2-0.9-1.8-1.4c-0.3,0.3-0.1,0.5,0,0.8
			c0.3,0.4,0.6,0.7,0.9,1.1c0.2,0.3,0.5,0.7,0.1,0.9c-0.3,0.2-0.5,0.9-1.1,0.3c-0.7-0.7-1.4-0.4-2,0.2c-0.2,0.2-0.3,0.3-0.2,0.6
			c0,0.2,0.4,0.6,0,0.7c-0.3,0.1-0.4-0.3-0.6-0.5c-0.1-0.1,0-0.5-0.3-0.4c-0.2,0.3-0.7,0.7-0.2,1c0.6,0.3,1.1,1.2,1.9,0.4
			c0.1,0,0.1,0,0.1,0.1c0,0.6-0.3,1-0.7,1.4c-0.1,0.1-0.2,0-0.3-0.1c-0.3-0.3-0.7-0.4-1-0.6c-0.2-0.1-0.4-0.2-0.6,0
			c-0.1,0.2,0,0.4,0.2,0.5c0.3,0.2,0.6,0.4,0.5,0.9c-0.1,0.2-0.3,0.3-0.4,0.5c-0.2,0.1-0.4,0.1-0.6,0.1c-0.7,0-0.7,0.3-0.4,0.8
			c0.2,0.1,0.3,0.4,0.5,0.5c0.4,0.2,1,0.3,1.1,0.9c-0.5,0.4-0.9-0.1-1.4,0c0.3,0.1,0.7-0.1,0.8,0.4c-0.8,0.8-1.7,1.6-2.5,2.5
			c-1,1.3-1.4,2.8-1.5,4.4c0.1-0.1,0.2-0.1,0.2,0c0.1,0.2,0.1,0.4,0,0.6c0,0.1-0.2,0.2-0.1,0.2c0.1,0.1-0.1,0,0-0.1
			c0.3-0.5,0.6-1,0.9-1.4C253.1,47,253.4,46.2,254.2,45.7z"/>
		<path class="st10" d="M253.6,79c0.4,0.8,0,1.7,0.4,2.5c0.1,0.4,0.1,0.8,0.2,1.2c-0.2-0.2-0.3-0.3-0.5,0c-0.7,1.1-1.7,1.3-2.9,1.2
			c-1.2-0.1-1.3-1.3-1.8-2.1c-0.8-1.3-0.8-3-1.5-4.3c-1-1.9-1.3-4.2-2.2-6.1c-0.4-0.8-0.8-1.6-1.2-2.4c-1.8-3.3-0.7-8.5,1.7-11
			c0.5-0.6,1.9-0.7,2.8-0.3c0.3,0.2,0.7,0.4,1,0.5c0.4,0.1,0.5,0.5,0.9,0.6c0.3,0.2,0.5,0.4,0.6,0.7c-0.1,0.2-0.1,0.4-0.2,0.6
			c-0.1,0.1-0.1,0.1-0.2,0c-0.8-0.3-1.2-1.1-2-1.5c-1.3-0.6-1.8-0.5-2.7,0.6c-1.7,2.1-2.1,4.5-1.9,7c0.1,1,0.7,2,1.2,2.9
			c1.1,2,2,4,2.4,6.2c0.2,1.1,0.9,1.9,1.2,2.9c0.2,0.8,0.6,1.6,0.8,2.4c0.1,0.7,0.6,1.3,0.9,1.9c0.3,0.5,0.8,0.3,1.2,0.1
			c1.5-0.7,1.9-1.5,1.7-3.1C253.5,79.3,253.5,79.2,253.6,79z"/>
		<path class="st9" d="M305.7,101.4c0.5,1.1,0.8,2.3,1.1,3.5c0.2,0.4-0.1,0.8,0.2,1.2c0.2,1.1,0.7,2.1,1.6,2.9
			c0.9-5.7,3.5-10.5,7.6-14.4c-1,1.5-2,3-2.8,4.6c-1.8,3.3-3.5,6.7-3.7,10.6c0,0.1,0,0.2,0,0.4c0.2,3.2-1.1,5.1-4.2,6.2
			c-0.7,0.2-1.4,0.8-2.1,0.1c-0.7-0.7-0.7-1.5-0.5-2.4c0.3-1.2,1-2.2,2.1-2.9c0.4-0.3,0.8-0.3,1.2,0.1c0.3,0.3,0.4,0.6,0,1
			c-0.6-0.8-1-0.8-1.6,0.1c-0.6,0.9-1,1.8-0.9,3c0.1,0.4,0.2,0.6,0.7,0.4c1.2-0.6,2.4-1.1,3.4-1.9c1-0.7,1.2-2.7,0.4-3.9
			c-0.6-0.9-1.4-1.6-1.6-2.7c-0.2-0.3,0-0.7-0.2-1c-0.3-1.5-0.6-3.1-1-4.6C305.3,101.4,305.5,101.4,305.7,101.4z"/>
		<path class="st10" d="M314.3,104.6c0-0.3-0.1-0.7,0.2-1c1.4,0.4,2.3,1.5,2.7,2.8c0.3,0.9,0.8,1.8,1.2,2.7c0.4,0.7,0.7,1.5,0.3,2.5
			c1.1-0.4,2-1.1,3.1-0.9c0.7,0.1,1.4,0,1.9,0.4c1.3,1,2.9,1.1,4.4,1.1c0.6,0,1.1,0.2,1.5,0.7c1,1.2,2.1,1.9,3.7,2
			c1.7,0.1,3,1.2,4.2,2.2c0.6,0.5,1.1,1,1.6,1.4c0.5,0.3,0.7,0.7,0.5,1.3c-1.1-0.2-1.7-1-2.5-1.7c-1.2-1.1-2.4-2.1-4-2.3
			c-1.7-0.2-3.1-0.8-4.2-2.1c-0.5-0.6-1.2-0.5-1.8-0.5c-1.2,0.1-2.1-0.2-3.1-0.9c-1.2-0.8-2.7-0.9-4.1-0.1c-0.3,0.1-0.5,0.3-0.8,0.4
			c-0.5,0.1-0.9,0.2-1.3-0.2c-0.4-0.3-0.2-0.8-0.1-1.1c0.2-0.7,0.1-1.2-0.2-1.9c-0.5-0.9-0.9-1.9-1.2-2.9c-0.3-0.9-0.9-1.4-1.5-2.1
			C314.5,104.2,314.5,104.5,314.3,104.6z"/>
		<path class="st11" d="M296.3,83.9c1.1-0.1,2.2-0.3,3.3-0.6c0.3-0.1,0.7-0.1,0.8,0.2c0.1,0.3-0.2,0.5-0.5,0.6c-1.6,0.9-3.3,1.4-5,2
			c-2.9,0.9-5.8,1.7-8.7,2.2c-1.7,0.3-3.4-0.1-5-0.5c-2.1-0.5-4.2-1.2-6.3-1.6c-0.7-0.1-1.3-0.3-1.8-0.8c-0.2-0.2-0.3-0.4-0.1-0.7
			c0.2-0.2,0.4-0.1,0.6,0c1.3,0.6,2.7,0.8,4.1,1.2c0.4,0,0.8,0.1,1.2,0.1c0.5,0.1,1.1,0.3,1.6,0.4c1.1,0.2,1.1,0.2,0.9-0.9
			c0-0.2-0.1-0.4-0.1-0.6c0-0.3,0.1-0.6,0.5-0.5c0.6,0.5,0.6,1.3,0.8,1.9c0.1,0.5,0.4,0.8,0.9,1c0.8,0.2,1,0.1,1-0.7
			c0-0.2,0-0.4,0.1-0.6c0.1-0.3,0.2-0.6,0.5-0.6c0.4,0,0.3,0.4,0.4,0.6c0.3,1.2,0.3,1.1,1.5,1c2.7-0.4,5.2-1.3,7.8-1.9
			c0.5-0.1,0.9-0.3,1.4-0.5c-1.4,0-2.7,0-4.1,0c-0.6,0-1.2-0.1-1.8,0.1c-0.1,0-0.2,0-0.3,0.1c-1,0-2.1,0.1-3.1-0.1
			c-0.1,0-0.2-0.1-0.3-0.2c0-0.1,0-0.2,0.2-0.2c1-0.1,1.9,0.1,2.9-0.1l0,0c0.7-0.2,1.4,0.1,2.1-0.2c0.1,0,0.2,0,0.3,0
			c0.4-0.1,0.8-0.1,1.3,0c0.4,0,0.8,0,1.1,0C295.2,83.9,295.8,84.1,296.3,83.9z"/>
		<path class="st9" d="M306.6,34.1c0,0,0,0.1,0,0.1c0.1,0.3,0.2,0.6,0.5,0.8c0,0.1,0,0.1,0,0.2c0.3,0.4,0.3,0.9,0.7,1.2
			c0.5,0.8,0.9,1.6,0.8,2.5c-0.2-0.2-0.1-0.7-0.5-0.6c-1.3,0.1-1.5-0.9-1.9-1.7c-1.1-2.1-2.6-3.7-4.3-5.2c-0.6-0.6-1.2-1.2-1.7-1.8
			c-1.3-1.5-2.8-2.8-4.6-3.8c-1.4-0.8-2.9-1.3-4.4-1.8c-0.3-0.1-0.5,0.1-0.8,0.1c-0.1,0-0.3,0-0.4-0.1c-0.3-0.3-0.7-0.1-1.1-0.3
			c-0.1,0-0.1-0.1-0.2-0.1c-0.7-0.1-1.3-0.4-2-0.4c-0.1,0.1-0.3,0.1-0.4,0c-0.2-0.4-0.2-0.4,0.2-0.5c1.5-0.2,3-0.3,4.3,0.1
			c1.6,0.5,3.2,0.9,4.7,1.7c2,1,3.8,2.2,5.3,3.8c0.2,0.2,0.4,0.4,0.7,0.5c0.1,0.1,0.1,0.2,0.2,0.3c1.1,1.1,2.2,2.2,3.3,3.3
			C305.6,32.9,305.9,33.7,306.6,34.1z"/>
		<path class="st9" d="M312.1,61.2c0-0.2,0-0.4-0.1-0.7c-0.3,0.2-0.1,0.5-0.4,0.6c0,0-0.1-0.1-0.1-0.1c0.2-0.8-0.5-1.7,0.3-2.4
			c0.1,0.1,0.1,0.2,0.1,0.3c0.1,0,0-0.2,0.1-0.2c0.1-0.2,0.1-0.3,0.1-0.5c0-0.2,0-0.5,0-0.6c0-0.2-0.1-0.1-0.1-0.1
			c0.2,0.2,0,0.5,0.1,0.8c0,0.2,0,0.4-0.3,0.3c0.1-0.7-0.2-1.5,0.2-2.2c0.3-0.2-0.1-0.5,0-0.7c0-0.5,0.1-1-0.1-1.5
			c-0.2-0.3-0.3-0.6,0-1c0.9,0.4,0.8,1.3,0.9,2c0.1,0.7,0,1.5,0,2.2c1.5-0.2,2.2,0.7,2,2.5c-0.4,4-0.4,8-0.3,11.9
			c0.1,2.2,0.2,4.5,0.4,6.7c0.1,1.5-1,2.7-2,3.2c-0.3,0.2-0.7,0.2-1.1,0c-0.5-0.5-0.4-0.9,0-1.4c1.3-0.1,1.5-0.4,1.6-1.7
			c0.1-2-0.1-3.9-0.1-5.9c0-3.7-0.4-7.5,0.2-11.2c0.1-0.8,0-1.7,0.1-2.5c0-0.2,0-0.5-0.3-0.5c-0.2,0-0.3,0.2-0.4,0.4
			c-0.2,0.5-0.4,0.9-0.5,1.4C312.5,60.7,312.5,61.1,312.1,61.2z"/>
		<path class="st9" d="M270.8,97.2c1.3,1,2.3,2.3,3.3,3.5c2.2,2.8,5.2,4.3,8.6,4.9c3.2,0.5,6.4,0.2,9.3-1.7c1.8-1.2,3.7-2.4,5.2-4.1
			c0.1-0.1,0.2-0.1,0.4-0.1c-0.7,1.3-1.6,2.6-2.9,3.4c-1.7,1-3.2,2.2-5.1,2.9c-1.4,0.5-2.8,0.7-4.3,0.8c-1.8,0.1-3.5-0.2-5.1-0.8
			c-3-1-5.5-2.8-7.4-5.3c-0.8-1.1-1.7-2.1-2-3.4C270.6,97.1,270.7,97.1,270.8,97.2z"/>
		<path class="st12" d="M279.1,71.2c-0.6,0.4-0.9,1-1.1,1.6c-0.3,0.7-0.3,1.3,0.2,1.8c0.5,0.5,1.2,0.5,1.9,0.3
			c1.4-0.5,2.6-0.2,3.7,0.8c0.5,0.5,1.1,0.8,1.7,1.2c0.9,0.6,2.7,0.2,3.4-0.8c0.9-1.2,2-1.7,3.4-1.5c1.1,0.1,2.1-0.7,2.4-1.7
			c0.1-0.3,0-0.7,0.4-0.7c0.4,0,0.4,0.4,0.4,0.7c0.2,1.5-1.3,2.9-3,2.7c-1.2-0.1-2.1,0.3-2.7,1.3c-0.8,1.2-3.2,1.9-4.6,0.9
			c-0.6-0.4-1.3-0.8-1.8-1.3c-0.9-0.8-1.8-1-2.9-0.7c-1.5,0.3-2.9,0-3.2-1.7C276.9,73.1,278.1,71.2,279.1,71.2z"/>
		<path class="st9" d="M266.4,60.9c1.1-0.1,1.9-0.7,2.7-1.4c1.1-0.8,2.4-1.1,3.8-1.2c2.1-0.2,4.2-0.2,6.2,1c0.6,0.3,1,0.9,1.4,1.4
			c0.2,0.2,0.2,0.5,0,0.7c-0.2,0.2-0.4-0.1-0.6-0.2c-0.6-0.4-0.8-1.2-1.6-1.4c-0.4,0.1-0.7-0.2-1.1-0.2c-0.3-0.1-0.6-0.3-1-0.3
			c-0.3,0.1-0.9-0.3-0.7,0.5c0,0.1,0,0.2-0.1,0.2c-0.3,0.5-0.3,0.8,0.4,0.8c0.7,0,1.3,0,2,0c0.5,0,0.9,0.2,1.2,0.6
			c-0.9,0.6-1.7,0.1-2.6,0.1c-0.3,0-0.6-0.1-0.8,0c-1.9,0.8-3.7,0.1-5.5-0.1c-0.4,0-0.9-0.1-0.9-0.7c0.2-0.4,0.6-0.3,0.9-0.3
			c0.5,0,1,0.1,1.7-0.1c-1.1-0.8-1.9-0.2-2.8,0.1c-0.4,0.2-0.7,0.4-1.1,0.6C267.3,61.4,266.8,61.8,266.4,60.9z"/>
		<path class="st9" d="M300,60.9c-2.1,0.3-4.3-0.2-6.5,0c0.2-0.4,0.4-0.7,0-1.1c-0.6,0.3-1,0.8-1.4,1.3c-0.1,0.2-0.4,0.3-0.6,0.1
			c-0.2-0.2-0.2-0.4,0-0.6c1-1.4,4.4-3.3,6.3-2.7c1.7,0.5,3.4,1,4.8,2.1c0.3,0.3,0.9,0.5,0.6,1c-0.4,0.6-0.7-0.1-1.1-0.2
			c-1-0.5-2-1.2-3.1-1.5c-0.1,0.5,0.1,0.7,0.4,0.9c0.2,0.1,0.4,0.2,0.6,0.3C300.1,60.8,300.1,60.9,300,60.9z"/>
		<path class="st13" d="M280.3,20.7c0.5-0.1,0.3-0.6,0.6-0.8c0.8,0.2,0.2,1.1,0.7,1.4c0.3,0.3,0,0.7,0,1c0,0.3-0.2,0.6,0.2,0.9
			c0.4-0.6,0-1.6,0.7-2c0.4,0.1,0.5-0.2,0.6-0.5c0.1-0.3,0.3-0.3,0.5-0.2c0.2,0.1,0.5,0.2,0.2,0.5c-0.2,0.3,0,0.7-0.2,0.9l0,0
			c-0.2,0.4-0.1,0.7,0.1,1c0.1,0.2,0.1,0.4,0,0.5c-0.2,0.8,0.1,1.2,0.8,1.6c-0.2,0.4,0,0.9-0.4,1.2c-0.2-0.2-0.3-0.5-0.5,0
			c-0.2,0.3-0.3,0.9-0.8,0.7c-0.4-0.2-0.2-0.7-0.1-1c0.1-0.3,0.1-0.7,0-1.1c-0.5,1.1-0.5,2.2-1.2,3c-0.6-0.1-0.8-0.7-1-1.2
			c-0.3-0.7-0.5-1.4-0.6-2.1c0.1-1.1,0.5-2.3,0.2-3.4C280.1,20.9,280.2,20.8,280.3,20.7z"/>
		<path class="st10" d="M265.2,81c-0.3-0.8,0.3-1.3,1.2-1.8c1-0.6,2-1.2,3-1.7c0.6-0.3,1-0.9,1.4-1.4c0.4-0.5,0.7-0.9,1-1.4
			c0.9-1.6,2.8-1.6,4-2.6c0.4-0.3,0.6,0.1,0.5,0.4c-0.1,0.7-0.7,1.3-1.3,1.3c-1.8,0-2.5,1.3-3.2,2.5c-0.8,1.5-2.2,2.3-3.6,2.9
			c-0.7,0.3-1.4,0.6-1.9,1.1c-0.8,0.6-0.3,1.6-0.3,2.5c0,0.5,0.4,1.2-0.1,1.3c-0.6,0.1-0.5-0.8-0.6-1.3
			C265.3,82.2,265.2,81.7,265.2,81z"/>
		<path class="st10" d="M257.4,96.3c0.1,3.8,1.7,7,3.5,10.2c0.9,1.7,2.3,3.1,3.5,4.7c0.3,0.5,0.6,0.9,0.9,1.4
			c0.2,0.3-0.1,0.2-0.3,0.2c-0.2,0-0.4-0.1-0.5-0.2c-1.5-1.2-2.8-2.7-3.8-4.4c-1.7-2.7-3.1-5.5-3.7-8.7c-0.1-0.4-0.1-0.9-0.1-1.3
			c0-0.7,0-1.4,0-2.1c0-0.3,0.1-0.7,0.5-0.8C257.7,95.7,257.4,96,257.4,96.3z"/>
		<path class="st10" d="M296.7,71.8c0.8,1.4,2.3,1.8,3.5,2.7c1,0.7,1.9,1.5,2.5,2.6c0.1,0.2,0.2,0.3,0.2,0.5c0,1.4,0.4,2.8,0.8,4.1
			c0.1,0.2,0.3,0.5-0.1,0.7c-0.3,0.1-0.5-0.2-0.6-0.3c-0.8-0.9-1-2.1-1.1-3.3c-0.1-1.6-1.1-2.6-2.2-3.5c-0.7-0.6-1.5-1.1-2.2-1.6
			C297.1,73.2,296.6,72.7,296.7,71.8z"/>
		<path class="st10" d="M258.3,83.9c2.1,6.1,5.6,11.3,10.2,15.7c0,0.2-0.1,0.3-0.3,0.3c-1.7-1.4-3.2-3-4.5-4.8
			c-1.8-2.5-3.6-5-4.8-7.9c-0.4-1-0.7-1.9-0.9-2.9C258,84.1,257.9,83.9,258.3,83.9z"/>
		<path class="st14" d="M273.9,23.4c1.1-0.4,2.1-0.3,3.2,0c-0.4,0-0.7,0-1.1,0c-1.1,0-1.3,0.3-1,1.4c0.1,0.3,0.2,0.7,0.5,0.9
			c0.6-0.3,0.9-1.1,1.7-1.2c0.2,0.5-0.2,0.7-0.5,1c-0.9,1.1-0.9,1.7-0.1,2.8c0.2,0.3,0.8,0.4,0.6,0.8c-0.2,0.5-0.7,0.1-1.1,0.4
			c0.4,0.9,1.2,1.4,2,2c0,0.3-0.2,0.3-0.4,0.2c-1.4-0.4-2.2-1.5-2.6-2.8c-0.1-0.1-0.1-0.3,0-0.4c-0.7-1.2-0.5-2.6-0.7-3.9
			c0.1-0.3,0-0.5,0-0.8C274.6,23.1,274.1,23.5,273.9,23.4z"/>
		<path class="st9" d="M301,118.7c-0.2,0-0.5,0-0.7,0c0.4-1.1,0.7-2.3,1.1-3.4c0.6-1.6,0.7-3.3,0.5-5c-0.3-2.1,0.3-4.1,0.9-6.1
			c0.1,0,0.2,0,0.2,0c-0.1,0.7,0,1.5-0.2,2.2c-0.4,1.4-0.4,2.8-0.1,4.2c0.2,0.7,0.2,1.5,0,2.2C302.3,114.8,301.7,116.8,301,118.7z"
			/>
		<path class="st13" d="M281.8,84.4c-0.6,0-0.3,0.4-0.2,0.7c0.1,0.6,0.3,1.3,0.3,2c-1-0.5-2.1-0.4-3-0.9c-0.2-0.1-0.4-0.1-0.5-0.3
			c-0.2-0.2-0.3-0.4-0.3-0.6c-0.1-0.2-0.2-0.4-0.2-0.7c-0.1-0.2,0-0.5-0.2-0.6c0-0.1,0-0.1,0-0.2c0,0,0.1-0.1,0.1-0.1
			c1.7-0.3,3.3-0.1,4.9,0.3C282.5,84.6,282.1,84.4,281.8,84.4z"/>
		<path class="st15" d="M281.6,27.6c0.4-1.2,0.8-2.4,1.2-3.7c0.5,0.6,0.3,1,0.3,1.5c0,0.5-0.3,0.9-0.2,1.4c0.5-0.2,0.5-0.7,0.7-1.1
			c0.1-0.2,0.1-0.6,0.4-0.5c0.3,0.1,0.2,0.4,0.2,0.6c0,0.1,0,0.2,0,0.3c-0.2,0.8-0.3,1.6-0.5,2.4c-0.1,0.4,0,1.1-0.5,1.1
			c-0.5,0-1.1,0.1-1.5-0.5c-0.1-0.1-0.1-0.2-0.2-0.3C281.5,28.4,281.4,28,281.6,27.6z"/>
		<path class="st12" d="M282.6,84.2c-1.7-0.1-3.4-0.4-5.1-0.4c-0.7-0.1-1.4-0.1-2.1-0.2c-0.6-0.2-1.1,0-1.7-0.1
			c-0.2,0-0.5,0.2-0.5-0.3c2-0.3,4.1-0.2,6.2,0c2.3,0.1,4.5,0.5,6.8,0.8c0.3,0,0.6,0,0.8,0.2c0.1,0,0.1,0.1,0.1,0.1
			c0,0,0,0.1-0.1,0.1c0,0.1,0,0.1,0,0.2C285.4,84.8,284,84.9,282.6,84.2z"/>
		<path class="st15" d="M301.5,95.1c0.9-2.2,1.8-4.4,2.7-6.6c0.7-1.8,1.3-3.6,1.9-5.5c0-0.1,0.1-0.3,0.2-0.4
			c0.4,0.1,0.2,0.4,0.2,0.6c-0.4,1.7-0.9,3.4-1.6,5.1c-0.9,2-1.7,4-2.5,6c-0.2,0.4-0.3,0.8-0.7,1.1
			C301.5,95.3,301.4,95.3,301.5,95.1z"/>
		<path class="st14" d="M289.5,91.7c-2.7,0.8-7.9,0.1-8.8-1.4c2.8,0.9,5.8,0.8,8.7,1C289.4,91.5,289.6,91.5,289.5,91.7z"/>
		<path class="st16" d="M251.2,58.3c-0.3-0.6-0.3-1.2,0-1.8c0.1,0,0.1,0.1,0.1,0.1c0-0.1,0.1-0.3,0.1-0.4c0-0.3,0.2-0.5,0.4-0.6
			c0.7-1.5,1.5-2.9,2.5-4.2c0.2-0.3,0.4-0.5,0.7-0.8c0.1-0.1,0.3-0.3,0.5-0.1c0.2,0.1,0.1,0.4,0,0.5c-0.6,0.8-1.1,1.7-1.7,2.5
			c-0.8,1.3-1.9,2.4-2.2,4c-0.1,0.2-0.1,0.4-0.1,0.6C251.4,58.1,251.5,58.4,251.2,58.3z"/>
		<path class="st17" d="M276.9,64.1c-1.7,1-3.5,0.8-5.3,0.3c-1-0.3-2-0.7-2.8-1.6c2.5,1,5.1,1.5,7.8,1.2
			C276.7,63.9,276.9,63.7,276.9,64.1z"/>
		<path class="st18" d="M281.6,27.6c0,0.4,0,0.8,0,1.2c-0.1-0.4-0.2-0.7-0.8-0.8c-0.6,0-0.8-0.8-1.3-1c-0.1-0.1-0.1-0.1-0.2-0.2
			c-0.3-0.5-0.1-1.1-0.2-1.6c0.2-0.6,0-1.3,0.3-1.9c0.3-0.1,0.5,0,0.5,0.4c0,0.3-0.1,0.5,0.1,0.8c0.4,0.9,0.5,2,1.1,2.8
			C281.3,27.4,281.4,27.6,281.6,27.6z"/>
		<path class="st19" d="M284.6,25c-0.9,0.2-1-0.4-1-1c0-0.4,0.1-0.8,0.1-1.2c-0.1-0.2,0.1-0.3,0.2-0.4c0.5-0.8,0.7-1.7,1.2-2.5
			C285.3,21.6,284.9,23.3,284.6,25z"/>
		<path class="st20" d="M299.3,65.6c-2,1.5-6.5-0.6-6.4-3.6c1.3,2.7,3.4,3.6,6.1,3.4C299.1,65.3,299.3,65.3,299.3,65.6z"/>
		<path class="st21" d="M263.6,80.9c0.4,2.6,1.2,5.1,2.3,7.6c-1.6-1.6-2.4-3.6-2.5-5.8c-0.2-0.4,0.1-0.9-0.2-1.4c0-0.4,0-0.7,0-1.1
			C263.7,80.2,263.3,80.7,263.6,80.9z"/>
		<path class="st22" d="M266.4,60.9c0.4,0.6,1,0.1,1.5,0.2c0,0.3-0.1,0.4-0.4,0.5c-2.4,0.8-4.6,2.1-6.2,4.2
			c-0.1,0.2-0.3,0.3-0.5,0.2c0.5-1.3,1.5-2.3,3.3-3.3c0.2-0.1,0.5-0.3,0.7-0.4c0.1-0.2,0.3-0.3,0.5-0.5c0.2-0.2,0.5-0.3,0.4-0.6
			C266,60.9,266.2,61,266.4,60.9z"/>
		<path class="st23" d="M299.3,52.2c0.3,0,0.6,0,1,0c0.2,0,0.4,0,0.7,0.1c0.7,0.2,0.6,0.6,0.1,0.9c-0.2,0.1-0.5,0.2-0.7,0.3
			c-0.2,0.1-0.5,0.2-0.7,0.3c-0.3,0-0.6,0-0.9,0.3c-0.2,0.2-0.5,0.3-0.8,0.3c-0.4-0.1-0.8,0-1.1,0.2c-0.2,0.1-0.5,0.2-0.7,0.2
			c-0.1,0-0.2-0.1-0.3-0.2c-0.1-0.2,0.1-0.4,0.2-0.5c0.1-0.1,0.1-0.1,0.2-0.2c0.1,0,0.2,0,0.2,0c0.2,0,0.4-0.1,0.6-0.2
			c0.4-0.3,1-0.3,1.2-0.8c0.2-0.2,0.4-0.3,0.6-0.4C298.9,52.1,299.1,52.2,299.3,52.2z"/>
		<path class="st19" d="M279.6,27C279.6,27,279.5,27,279.6,27c0,0.2,0,0.3,0,0.4c0.1,0.4,0.2,0.7-0.3,0.9c-0.3,0-0.6,0-0.8-0.4
			c-0.9-1.4-0.8-3.1,0.2-3.9c0.2,0.5,0.1,1.1,0.3,1.5C279.3,26,279.3,26.6,279.6,27z"/>
		<path class="st21" d="M261.7,85.2c1,2.6,2.5,4.8,4,7.1c0.1,0.2,0,0.3-0.2,0.2c-1.7-2.1-3.1-4.3-3.9-6.9
			C261.4,85.4,261.3,85.2,261.7,85.2z"/>
		<path class="st18" d="M295.9,54.5c0.2,0,0.5,0,0.7-0.2c0.4,0,0.7-0.4,1.2-0.2c0.3,0,0.6-0.1,0.8-0.4c0.3-0.1,0.6-0.3,1-0.2
			c0.2-0.1,0.4-0.3,0.6-0.4c0.2,0.2,0.3,0,0.5,0c0.5,0,0.6,0.3,0.2,0.6c-0.2,0.2-0.5,0.3-0.8,0.4c-0.1,0.1-0.2,0.1-0.3,0.2
			c-0.2,0-0.4,0.1-0.6,0.2c-0.1,0-0.2,0-0.4,0.1c-0.4,0.2-0.8,0-1.1,0.2c-0.9,0.2-1.8,0.7-2.8,0.8c-0.1-0.2,0-0.3,0.1-0.5
			C295.2,54.9,295.5,54.5,295.9,54.5z"/>
		<path class="st18" d="M265.8,61.1c0.2,0.1,0.5,0.1,0.2,0.4c-0.2,0.2-0.4,0.3-0.6,0.4c-0.2,0.2-0.5,0.1-0.8,0.1
			c-1.7,0.3-3.3,0.8-4.8,1.6c-0.2,0.1-0.4,0.1-0.4-0.2c1.6-1.3,3.6-1.7,5.5-2.1C265.3,61.2,265.6,61.2,265.8,61.1z"/>
		<path class="st19" d="M254.9,57.5c-0.7,1.6-1.7,3.2-2.3,5c-0.5-0.5-0.4-0.8-0.2-1.2c0.5-1.5,1.5-2.8,2.4-4.1
			C255.1,57.2,255.1,57.3,254.9,57.5z"/>
		<path class="st24" d="M262.8,67.1c0.4-1.8,3.1-4.2,4.7-4.2C265.5,63.9,264.3,65.7,262.8,67.1z"/>
		<path class="st24" d="M280.1,24.5c-0.4-0.3,0.1-1.1-0.6-1.2c0.3-0.2,0.3-0.4,0.2-0.7c-0.3-1-0.4-2.1-0.1-3.2
			c0.5,0.3,0.6,0.8,0.7,1.3c0,0,0,0.1,0,0.1C280.6,22,280.5,23.3,280.1,24.5z"/>
		<path class="st24" d="M263.2,58.5c1.4-1.3,3.1-1.3,4.8-1.2c-1.3,0.9-3,0.9-4.4,1.4C263.3,58.8,263.2,58.8,263.2,58.5z"/>
		<path class="st25" d="M280.1,120.9c-0.1,0.1-0.1,0.2-0.2,0.4c-0.5,0.3-1,0.5-1.5,0c-0.2-0.2-0.3,0.1-0.5,0.1
			c-0.7-0.2-0.3-0.6-0.2-1c0.2-0.2,0.4-0.4,0.7-0.6c0.6-0.3,1.2-0.3,1.8-0.1C280.8,120.2,280.6,120.6,280.1,120.9z"/>
		<path class="st26" d="M266,58.8c-0.1,0.5-0.5,0.6-0.8,0.8c-0.9,0.5-1.9,0.7-2.9,1.1c-0.2,0.1-0.5,0.1-0.6-0.1
			c-0.1-0.2,0-0.4,0.2-0.5C263.2,59.6,264.5,59,266,58.8z"/>
		<path class="st23" d="M282.6,21.1c-0.2,0.5-0.4,1.1-0.3,1.7c0.1,0.4,0,0.7-0.4,0.8c-0.5,0-0.7-0.4-0.6-0.8c0.1-0.5,0.2-1,0.4-1.4
			c0.2-0.5,0.3-1.1,0.6-1.7C282.5,20.1,282.5,20.6,282.6,21.1z"/>
		<path class="st27" d="M253.9,56.7c-0.6,1.2-1,2.2-1.5,3.2c-0.2,0.5-0.4,1-0.6,1.5c-0.1,0.2-0.1,0.5-0.3,0.5
			c-0.3-0.1-0.3-0.4-0.2-0.6c0.3-1.2,0.9-2.4,1.6-3.4C253.1,57.4,253.3,57,253.9,56.7z"/>
		<path class="st28" d="M299.5,60.6c-0.5-0.1-0.5-0.1-0.9-1.5c1.4,0.4,2.7,0.8,3.6,1.9c-0.1,0-0.3,0-0.4,0
			C301,60.6,300.2,60.8,299.5,60.6z"/>
		<path class="st26" d="M304,61.9c1.3-0.2,2.4,0,3.4,0.8c0.2,0.2,0.5,0.4,0.3,0.7c-0.2,0.3-0.5,0.1-0.7,0
			C306,62.9,305,62.4,304,61.9z"/>
		<path class="st29" d="M255.7,60.8c-0.4,1.4-0.8,2.8-1.1,4.2c-0.1,0-0.2-0.1-0.3-0.1c0-1.6,0.5-3.1,1.2-4.5
			C255.9,60.4,255.8,60.6,255.7,60.8z"/>
		<path class="st29" d="M275.2,28.4c0,0.1,0,0.3,0,0.4c-0.2,0.1-0.5,0.1-0.7-0.1c-0.9-1-1.5-2.1-2-3.3c-0.1-0.2-0.1-0.4,0.2-0.6
			c0.6,1.1,1.2,2.1,1.8,3.2C274.8,28.1,274.7,28.5,275.2,28.4z"/>
		<path class="st27" d="M284.2,92.7c1.6,0.1,3.1-0.2,4.8-0.2C287.9,93.4,285.3,93.6,284.2,92.7z"/>
		<path class="st25" d="M269,60.5c0.7-0.9,1.7-0.8,2.6-0.7c0.5,0,0.2,0.7,0.7,0.8c-1.2,0.3-2.1-0.2-3.1,0.1
			C269.1,60.7,269.1,60.6,269,60.5z"/>
		<path class="st30" d="M280.8,30.3c0,0.2,0.4,0.4,0.2,0.7c-0.2,0.2-0.5,0-0.7-0.1c-1-0.7-1.8-1.5-2.2-2.6c0.4-0.3,0.6,0,0.8,0.2
			c0.5,0.5,1.1,1,1.7,1.5C280.6,30.1,280.7,30.2,280.8,30.3z"/>
		<path class="st31" d="M300.6,53.8c0.1-0.1,0.5-0.3,0-0.4c-0.2,0-0.4,0.1-0.5-0.2c0.3-0.1,0.5-0.2,0.8-0.3c0.7-0.2,0.2-0.4,0-0.6
			c0-0.2,0.5-0.1,0.2-0.4c0.8-0.4,0.9,0.2,0.9,0.7c0,0.4,0.2,0.6,0.3,0.9c0,0.2,0,0.4-0.1,0.5c-0.1,0.1-0.3,0.1-0.4,0.2
			c-0.3,0-0.6,0-0.9-0.1C300.7,54.1,300.6,54,300.6,53.8z"/>
		<path class="st32" d="M265.8,56c1-1.1,3.5-1.3,4.7-0.4c-0.3,0.2-0.7,0.1-1,0.1c-0.7,0.4-1.5,0.2-2.2,0.3c-0.3,0.1-0.5,0.1-0.7,0.3
			c-0.1,0-0.1,0.1-0.2,0.1C266.1,56.4,265.9,56.3,265.8,56z"/>
		<path class="st33" d="M268.1,53.1c1.1-0.3,2.3-0.3,3.4-0.2c0.3,0,0.7,0,0.9,0.4c0.1,0.2,0.2,0.4,0,0.6c-0.6-0.7-1.4-0.3-2.1-0.4
			c-0.6-0.1-1.2-0.1-1.8-0.1C268.3,53.3,268.1,53.4,268.1,53.1z"/>
		<path class="st34" d="M271.3,25.4c0.3,1.3,0.6,2.7,0.9,4c-1.2-0.8-0.9-2-1.1-3.1C271.1,26.1,270.7,25.7,271.3,25.4z"/>
		<path class="st35" d="M267,54.4c1.4-0.5,2.9-0.5,4.3,0c0.1,0.2,0.1,0.4-0.2,0.3c-1.2-0.3-2.5-0.2-3.7-0.2
			C267.2,54.6,267,54.7,267,54.4z"/>
		<path class="st36" d="M255.5,58.8c-0.5,1.2-1,2.5-1.5,3.7c-0.4,0-0.3-0.2-0.2-0.4c0.3-1.3,0.8-2.4,1.5-3.5
			C255.5,58.5,255.6,58.5,255.5,58.8z"/>
		<path class="st37" d="M301.5,95.1c0.1,0.1,0.1,0.2,0.2,0.3c-0.5,1.1-1.3,2-2.3,2.6C299.8,96.7,300.7,95.9,301.5,95.1z"/>
		<path class="st36" d="M252.6,46.6c0.7-1.2,1.5-2.4,2.6-3.3c-0.1,0.9-0.9,1.4-1.3,2.2c-0.2,0.6-0.5,1.2-1.2,1.4
			C252.6,46.8,252.5,46.7,252.6,46.6z"/>
		<path class="st38" d="M266.4,26.9c-0.4,0.7-1.2,1.1-1.9,1.5c-0.2,0.1-0.4,0.3-0.6,0c-0.2-0.3,0.1-0.5,0.3-0.6
			c0.7-0.4,1.2-1.1,2.2-1.1C266.4,26.8,266.5,26.8,266.4,26.9C266.4,26.9,266.4,26.9,266.4,26.9z"/>
		<path class="st23" d="M294.4,53.8c-0.4,0.7-0.8,1.4-1.2,2.1c-0.1,0.2-0.3,0.5-0.6,0.3c-0.2-0.2-0.1-0.5,0-0.7
			c0.5-0.7,1-1.4,1.6-2.1c0.1,0,0.2,0.1,0.3,0.2C294.5,53.7,294.5,53.7,294.4,53.8z"/>
		<path class="st39" d="M275.4,60c0-0.1,0-0.1,0-0.2c-0.2-0.4,0.1-0.5,0.4-0.6c0.5,0,0.9,0,1.3,0.2c0.4-0.1,0.8,0.1,1.1,0.4
			c0.3,0.6-0.2,0.4-0.4,0.4C277,60,276.2,59.9,275.4,60z"/>
		<path class="st33" d="M280.6,70.1c0.4,0.8,1.2,1.1,1.9,1.3c0.2,0.1,0.6,0.1,0.5,0.4c-0.1,0.4-0.5,0.2-0.7,0.2
			c-0.6-0.2-1.2-0.4-1.6-0.9C280.4,70.8,280.3,70.6,280.6,70.1z"/>
		<path class="st40" d="M297.4,63.4c1.6-0.1,3.2,0.3,4.9-0.5c-0.7,0.9-1.3,1.1-2.5,0.8c-0.5-0.2-1.1,0.1-1.6,0
			C297.9,63.7,297.5,63.9,297.4,63.4z"/>
		<path class="st21" d="M283,70.3c0,0.3-0.2,0.3-0.4,0.3c-0.5,0-1.6-1.1-1.7-1.6c0-0.2,0.1-0.5,0.2-0.4
			C281.7,69.2,282.3,69.8,283,70.3z"/>
		<path class="st36" d="M288.7,23.5c0.1,0,0.2,0,0.3,0c0.1,0.1,0.3,0.2,0.2,0.4c0.4,0.6,0.8,1.3,1.1,1.9c0.1,0.2,0.5,0.6,0.1,0.8
			c-0.3,0.1-0.5-0.3-0.6-0.5C289.4,25.3,289,24.4,288.7,23.5z"/>
		<path class="st41" d="M267,55.8c0.8-0.3,1.7-0.1,2.5-0.1c0.2,0.3,0,0.4-0.3,0.5c-0.9,0.1-1.9,0.2-2.8,0.2c0,0-0.1-0.1-0.1-0.1
			c0,0,0-0.1,0-0.1l0,0C266.5,56,266.8,56,267,55.8z"/>
		<path class="st42" d="M297.4,63.4c0.5,0.3,1,0.1,1.5,0.2c0.3,0,0.7-0.1,1,0.2c-0.2,0-0.3,0-0.5,0c-0.6,0.1-1.2,0.1-1.9,0
			c-0.9,0.1-1.8,0.1-2.6-0.5c0-0.1,0.2-0.2,0.2-0.2C295.9,63.2,296.7,63.4,297.4,63.4z"/>
		<path class="st43" d="M280.5,30.3c-0.7-0.5-1.3-1.1-1.9-1.7c-0.1-0.2-0.3-0.3-0.5-0.2c0.1-0.2,0.2-0.3,0.4-0.3
			c0.2,0.1,0.4,0.2,0.6,0.3c0.2,0.1,0.5,0,0.7,0.3c0.2,0.4,0.4,0.7,0.6,1C280.5,29.8,280.7,30,280.5,30.3z"/>
		<path class="st37" d="M287.7,25c0.5,0.6,1,1.1,1.5,1.7c0.1,0.1,0.3,0.3,0.1,0.5c-0.2,0.2-0.4,0-0.6-0.1c-0.6-0.5-0.9-1.2-1.3-1.9
			C287.4,25.1,287.5,25,287.7,25z"/>
		<path class="st44" d="M295,55.3c-0.1,0.1-0.1,0.2-0.2,0.3c-0.6-0.1-0.5,0.7-1.1,0.9c-0.1-1.1,0.8-1.7,1.3-2.5c0,0,0.1,0.1,0.1,0.1
			C295.4,54.6,295,54.9,295,55.3z"/>
		<path class="st45" d="M290.7,57.2c-0.8-0.5-0.9-1.6-0.2-2.7C290.6,55.4,290.7,56.3,290.7,57.2z"/>
		<path class="st27" d="M296.3,52.4c1.1-0.6,2.3-0.9,3.7-0.8c-0.3,0.1-0.5,0.2-0.8,0.3c-0.2,0.2-0.4,0.2-0.6,0.3
			c-0.6,0.2-1.2,0.5-1.9,0.5C296.4,52.8,296.2,52.7,296.3,52.4z"/>
		<path class="st23" d="M273.2,83.3c0.4,0.4,0.9,0.1,1.3,0.2c0.3,0,0.7-0.1,0.9,0.2c-0.8,0-1.5,0.1-2.3,0c-0.7,0-1,0.1-0.6,0.9
			c-0.6-0.1-0.7-0.4-0.7-0.8c0-0.4,0.3-0.5,0.6-0.5C272.7,83.3,272.9,83.3,273.2,83.3z"/>
		<path class="st46" d="M272.4,53.8c0-0.2,0-0.4,0-0.6c0.2,0,0.4,0,0.5,0c0.1,0.1,0.1,0.2,0,0.4c0,0.5,0.6,0.6,0.7,0.9
			c0.1,0.3,0.5,0.6,0.3,1.1C273.4,55,272.9,54.4,272.4,53.8z"/>
		<path class="st47" d="M310.6,51c0,0.1,0,0.1,0,0.2c0.1,0.1,0.1,0.3-0.1,0.4c-0.6-0.5-0.2-1.1-0.3-1.7c-0.2-0.3,0.1-0.8-0.2-1.1
			c0-0.2,0-0.4,0.2-0.6c0.5,0,0.1,0.4,0.3,0.6c0,0.4,0,0.9,0.1,1.3C310.7,50.3,310.7,50.7,310.6,51z"/>
		<path class="st45" d="M279.6,54.6c-0.6,0.7-0.9,1.6-1.4,2.4C277.8,56.1,278.4,55.2,279.6,54.6z"/>
		<path class="st48" d="M278.1,121.3c0-0.2-0.1-0.5,0.3-0.7c0.2,1.1,1,0.7,1.6,0.7c-0.8,0.9-1.2,0.9-1.9,0.2
			C278.1,121.4,278.1,121.3,278.1,121.3z"/>
		<path class="st14" d="M311.1,54.9c0.2,0.2,0.2,0.4,0.2,0.7c0,1.8,0,3.6,0,5.4c-0.3-1.3-0.1-2.6-0.2-4
			C311.1,56.3,311.1,55.6,311.1,54.9z"/>
		<path class="st40" d="M280.5,30.3c0.1-0.3-0.2-0.4-0.2-0.7c-0.1-0.2,0-0.3,0.2-0.3c0.5,0.5,1.2,0.8,1.9,1.2
			c-0.7,0.3-1.2,0-1.7-0.2C280.7,30.3,280.6,30.3,280.5,30.3z"/>
		<path class="st49" d="M252.9,46.8c0.4-0.5,0.7-0.9,1.1-1.4c0.1,0.1,0.2,0.2,0.2,0.3c-0.4,0.8-1,1.4-1.5,2.1
			c-0.2,0.1-0.2,0-0.3-0.1c0-0.1,0-0.2,0-0.2C252.5,47.2,252.6,46.9,252.9,46.8z"/>
		<path class="st50" d="M301.8,54c0.1,0,0.2,0,0.3,0c0.5,0,0.4,0.6,0.7,0.8c0.1-0.1,0.3-0.1,0.3,0c-0.1,0.3-0.2,0.7-0.7,0.6
			c-0.3-0.3-0.7-0.4-1-0.7c-0.1-0.2,0-0.3,0.1-0.5C301.6,54.1,301.7,54,301.8,54z"/>
		<path class="st44" d="M269.3,64.7c0.7,0.2,1.4,0.4,2.1,0.6c-0.9,0.4-1.8,0.1-2.6-0.4C268.9,64.5,269.1,64.6,269.3,64.7z"/>
		<path class="st51" d="M251.2,58.3c0.4-0.2,0-0.7,0.4-0.9c0,0.3,0,0.5,0.1,0.8c0.2,0.3-0.1,0.4-0.1,0.7c-0.1,0.2-0.2,0.4-0.4,0.6
			c-0.2-0.2-0.5-0.4-0.7-0.6c-0.1-0.4,0.2-0.2,0.4-0.3C250.9,58.5,251,58.4,251.2,58.3z"/>
		<path class="st52" d="M285,73.7c0.4,0.8,0.4,1.6,0.4,2.6c-0.6-0.6-0.6-1.1-0.6-1.7C285,74.4,284.8,74,285,73.7z"/>
		<path class="st53" d="M307.2,61.1c0.1,0.1,0.2,0.4,0,0.4c-0.9-0.1-1.9,0-2.6-0.7c0.4,0.1,0.7,0.1,1.1,0.2
			C306.2,61.1,306.7,60.9,307.2,61.1z"/>
		<path class="st54" d="M287.3,76.5c-0.5-0.8-0.5-0.9,0.1-1.9C287.6,75.3,287.6,75.6,287.3,76.5z"/>
		<path class="st40" d="M282.1,67.4c0.3,0.5,0.8,0.8,1.4,1.1C282.4,68.7,282.1,68.4,282.1,67.4z"/>
		<path class="st55" d="M310.5,48.7c-0.1-0.2-0.2-0.4-0.3-0.6c0-0.9-0.3-1.8-0.1-2.7c0.1,0,0.1,0,0.1,0.1c-0.1,0.5,0.1,1,0.2,1.5
			c0.2,0.3,0,0.7,0.2,1C310.6,48.2,310.5,48.5,310.5,48.7z"/>
		<path class="st17" d="M249.3,69.8c-0.3-1.3-0.3-2.6,0-4C249.3,67.1,249.3,68.5,249.3,69.8z"/>
		<path class="st56" d="M255.5,41.4c-0.2-0.4-0.7,0.1-0.9-0.2c-0.2-0.2-0.6-0.1-0.4-0.5c0.1-0.3,0.4-0.1,0.6,0
			c0.4,0.2,0.9,0.4,1.4,0.3C255.9,41.2,255.7,41.3,255.5,41.4z"/>
		<path class="st57" d="M269.3,64.7c-0.2,0-0.3,0-0.4,0.2c-0.6-0.2-1.1-0.5-1.6-1.3C268.1,64,268.7,64.4,269.3,64.7z"/>
		<path class="st58" d="M280.3,119.8c-0.6-0.1-1.2,0-1.8,0.2c-0.2,0.1-0.3,0-0.2-0.2c0.6-0.5,1.3-0.5,2.1-0.2
			C280.4,119.6,280.4,119.7,280.3,119.8C280.3,119.8,280.3,119.8,280.3,119.8z"/>
		<path class="st59" d="M255.5,58.8c-0.1-0.1-0.2-0.2-0.2-0.3c0.2-0.5,0.3-1.1,1-1.3l0,0C256.2,57.8,255.9,58.3,255.5,58.8z"/>
		<path class="st60" d="M311.9,53.2c-0.1,0.3,0.3,0.6,0.1,1c0,0.1-0.1,0.1-0.1,0.1c-0.7-0.4-0.3-1-0.4-1.5c-0.1-0.2-0.1-0.4,0-0.6
			C311.8,52.5,311.6,53,311.9,53.2z"/>
		<path class="st37" d="M272,54.5c0.4,0.4,1,0.6,1.2,1.3c-0.7-0.3-1.2-0.6-1.4-1.1C271.9,54.6,271.9,54.6,272,54.5z"/>
		<path class="st61" d="M263.2,58.5c0.1,0.2,0.2,0.2,0.4,0.2c-0.4,0.3-0.7,0.5-1.1,0.8c-0.1,0.1-0.2,0-0.3,0
			c-0.1-0.1-0.1-0.2,0.1-0.3C262.6,59,262.9,58.7,263.2,58.5z"/>
		<path class="st16" d="M286.9,84.4c0-0.1,0-0.1,0-0.2c1,0,2,0,3,0C288.9,84.7,287.9,84.3,286.9,84.4z"/>
		<path class="st62" d="M276.4,54.7C276.4,54.8,276.4,54.8,276.4,54.7c0.1,0.4,0.4,0.7,0.3,1.1c0,0-0.1,0.1-0.2,0
			c-0.4-0.3-0.5-0.7-0.4-1.1C276.1,54.6,276.2,54.6,276.4,54.7z"/>
		<path class="st14" d="M310.9,67.3c0,1.1,0,2.1,0,3.2C310.7,69.4,310.7,68.3,310.9,67.3z"/>
		<path class="st63" d="M261.3,85c-0.3-0.5-0.4-0.9-0.4-1.5c0-0.2-0.3-0.5,0.2-0.6c0.1,0.6,0.3,1.1,0.4,1.7
			C261.4,84.7,261.5,85,261.3,85z"/>
		<path class="st64" d="M266.4,56.2c0,0.1,0,0.1,0,0.2c-0.4,0.4-0.9,0.2-1.3,0.2c0,0-0.1-0.1,0-0.1c0,0,0-0.1,0-0.1
			c0.2-0.1,0.5-0.3,0.7-0.4C266,56.1,266.2,56.2,266.4,56.2z"/>
		<path class="st65" d="M254.9,57.5c-0.1-0.1-0.1-0.2-0.2-0.4c0.1-0.5,0.4-0.8,0.7-1.1c0.1,0,0.2,0,0.1,0.2
			C255.4,56.7,255.2,57.1,254.9,57.5z"/>
		<path class="st66" d="M278.1,121.3c0,0,0,0.1,0,0.1c-0.2,0-0.1,0.7-0.5,0.1c-0.3-0.5-0.3-0.8,0.1-1.2c0.1-0.1,0.2-0.1,0.2,0
			C277.9,120.7,277.2,121.1,278.1,121.3z"/>
		<path class="st67" d="M271.3,25.4c-0.3,0.3-0.1,0.7-0.2,1c-0.2-0.6-0.2-1.2-0.1-1.9C271.4,24.8,271.3,25.1,271.3,25.4z"/>
		<path class="st68" d="M268.2,99.9c0.1-0.1,0.2-0.2,0.3-0.3c0.3,0.3,0.6,0.7,0.9,1c0,0.1-0.1,0.1-0.2,0.2
			C268.8,100.6,268.5,100.2,268.2,99.9z"/>
		<path class="st69" d="M299.5,60.6c0.8,0,1.6-0.3,2.2,0.3c-0.2,0-0.5,0-0.7,0c-0.3-0.2-0.6,0-0.9-0.2
			C299.8,60.7,299.6,60.8,299.5,60.6z"/>
		<path class="st70" d="M273.5,53.4c0.4,0.2,0.8,0.3,1,0.8c-0.6,0-0.9-0.4-1.4-0.6C273.2,53.4,273.4,53.5,273.5,53.4z"/>
		<path class="st71" d="M302.8,54.7c-0.5,0-0.5-0.5-0.7-0.8c0-0.2,0-0.3,0-0.5c-0.1-0.2,0-0.3,0.2-0.2
			C302.5,53.7,302.7,54.2,302.8,54.7z"/>
		<path class="st72" d="M279.6,27c-0.4-0.4-0.5-0.9-0.5-1.4c0.1-0.1,0.1-0.3,0.2-0.4C279.3,25.8,279.4,26.4,279.6,27z"/>
		<path class="st73" d="M260.6,80.7c0.1,0.5,0.5,1,0.1,1.6C260.5,81.8,260.6,81.2,260.6,80.7z"/>
		<path class="st9" d="M311.1,47.8c-0.3-0.8-0.1-1.7-0.1-2.5C311.2,46.1,311.1,46.9,311.1,47.8z"/>
		<path class="st74" d="M255,40c-0.2,0-0.5-0.1-0.6-0.3c0.3-0.4,0.7-0.8,1.1-1c0.1,0,0.3,0.1,0.2,0.2C255.5,39.3,254.9,39.4,255,40z
			"/>
		<path class="st61" d="M251.9,57.9c0.2-0.5,0.4-0.8,0.8-1.1c0.1,0,0.2,0.1,0.2,0.2c-0.2,0.3-0.5,0.6-0.7,0.9
			C252,58,251.9,58,251.9,57.9z"/>
		<path class="st75" d="M290.4,23.8c0.3-0.2,0.5-0.2,0.8,0c-0.7,0.2,0.2,0.8-0.3,1c-0.2-0.2-0.2-0.5-0.3-0.8
			C290.6,24,290.4,24,290.4,23.8z"/>
		<path class="st76" d="M252.5,47.4c0,0.1,0,0.1,0,0.2c-0.1,0.3-0.2,0.7-0.6,0.8c-0.1,0-0.2,0-0.3,0c0.2-0.4,0.5-0.8,0.7-1.2
			C252.4,47.2,252.5,47.3,252.5,47.4z"/>
		<path class="st77" d="M263.6,80.9c-0.3-0.2-0.1-0.6-0.3-0.7c0-0.3,0-0.6,0.1-1C263.5,79.8,263.6,80.3,263.6,80.9z"/>
		<path class="st78" d="M252.9,57c-0.1-0.1-0.1-0.2-0.2-0.2c0.2-0.3,0.5-0.7,1-0.9C253.6,56.5,253.1,56.7,252.9,57z"/>
		<path class="st79" d="M301,51.9c0.1,0,0.3,0.1,0.4,0.1c-0.1,0.2-0.3,0.3-0.6,0.3c-0.2,0-0.5,0.1-0.6-0.2
			C300.4,51.8,300.7,51.9,301,51.9z"/>
		<path class="st80" d="M269.2,57.1c0.2-0.5,0.6-0.4,1-0.6C270,56.9,269.5,56.9,269.2,57.1z"/>
		<path class="st81" d="M255.7,60.8c0-0.2,0-0.3-0.2-0.4c0.1-0.3,0.2-0.8,0.8-1.1C256.1,59.9,255.9,60.4,255.7,60.8z"/>
		<path class="st82" d="M265.1,56.4c0,0.1,0,0.1,0,0.2c-0.2,0.1-0.3,0.5-0.6,0.3c0,0-0.1-0.2,0-0.2
			C264.6,56.5,264.7,56.1,265.1,56.4z"/>
		<path class="st83" d="M311.9,80.5c-0.3,0.4-0.2,0.8,0,1.3c-0.1,0.1-0.2,0.1-0.4,0.2c0-0.6-0.2-1.2,0.1-1.7
			C311.8,80.3,311.9,80.4,311.9,80.5z"/>
		<path class="st84" d="M296.3,52.4c0.1,0.2,0.3,0.2,0.5,0.3c-0.2,0.5-0.6,0.5-1,0.5c-0.1-0.1-0.3-0.1-0.2-0.3
			C295.7,52.6,296,52.5,296.3,52.4z"/>
		<path class="st85" d="M235.8,114.7c-0.3,0.4-0.7,0.6-1.1,0.8C234.7,114.8,235.3,114.9,235.8,114.7z"/>
		<path class="st21" d="M305.7,101.4c-0.1,0.1-0.1,0.2-0.2,0.3c-0.2-0.2-0.4-0.5-0.8-0.9C305.2,100.8,305.6,100.8,305.7,101.4z"/>
		<path class="st86" d="M283,60.2c0.4,0.2,0.6,0.6,0.5,1.1C283.3,60.9,283.1,60.6,283,60.2z"/>
		<path class="st9" d="M309.2,40.6c0.4,0.6,0.4,1.3,0.4,2C309.2,42,309.4,41.3,309.2,40.6z"/>
		<path class="st52" d="M252.9,74.5c0-0.2,0-0.4,0.3-0.5c0.1,0.6,0.2,1.1-0.1,1.6c0-0.1,0-0.2,0-0.4C252.9,75,253,74.8,252.9,74.5z"
			/>
		<path class="st39" d="M249.1,71.3c0.3-0.3,0.1-0.7,0.2-1c0.2,0.4,0.1,0.9,0.2,1.3c0.1,0.2,0.2,0.4-0.2,0.4
			C249.2,71.8,249.2,71.5,249.1,71.3z"/>
		<path class="st16" d="M292,84.1c-0.7,0.4-1.4,0.1-2.1,0.2C290.6,84,291.3,84.1,292,84.1z"/>
		<path class="st55" d="M289.3,23.9c-0.1-0.1-0.2-0.2-0.2-0.4c0.4,0,0.9-0.2,1.1,0.3c-0.1,0.1-0.3,0.1-0.4,0
			C289.5,23.9,289.4,23.9,289.3,23.9z"/>
		<path class="st87" d="M301.4,54.5c0.4,0.1,0.8,0.3,1,0.8c-0.4-0.1-0.8-0.3-1.1-0.6C301.2,54.6,301.3,54.6,301.4,54.5z"/>
		<path class="st88" d="M255.7,38.9c0-0.1-0.1-0.1-0.1-0.2c-0.1-0.1-0.1-0.1,0-0.2c0-0.2,0.1-0.3,0.3-0.3c0.1,0,0.2,0,0.3,0.1
			c0.1,0,0.1,0.1,0.1,0.2C256.2,38.7,255.9,38.8,255.7,38.9z"/>
		<path class="st73" d="M280.3,119.8c0-0.1,0-0.1,0-0.2c0.6,0.6,0.6,0.9-0.2,1.3C280.4,120.6,280.7,120.2,280.3,119.8z"/>
		<path class="st9" d="M311.3,51.7c-0.4-0.6-0.1-1.3-0.2-2C311.4,50.4,311.3,51.1,311.3,51.7z"/>
		<path class="st89" d="M287.7,25c-0.1,0.1-0.2,0.2-0.2,0.2c-0.3-0.2-0.4-0.5-0.5-0.8c0-0.1,0.1-0.1,0.2-0.1
			C287.3,24.5,287.5,24.7,287.7,25z"/>
		<path class="st71" d="M280.5,29.4c-0.1,0.1-0.1,0.2-0.2,0.3c-0.3-0.3-0.5-0.6-0.6-1c0.1-0.1,0.2-0.1,0.3,0
			C280.1,28.8,280.3,29.1,280.5,29.4z"/>
		<path class="st90" d="M301.4,54.5c-0.1,0.1-0.1,0.1-0.2,0.2c-0.2-0.1-0.5-0.2-0.8-0.2c0,0-0.1-0.1-0.1-0.1c0-0.1,0-0.1,0-0.1
			c0.1-0.1,0.2-0.2,0.4-0.2c0.2,0.1,0.5-0.2,0.8,0.1C301.5,54.3,301.4,54.4,301.4,54.5z"/>
		<path class="st91" d="M280,28.6c-0.1,0-0.2,0-0.3,0c-0.2-0.1-0.4-0.2-0.6-0.3c0.5-0.1,0.4-0.5,0.4-0.8
			C279.7,27.8,279.8,28.2,280,28.6z"/>
		<path class="st92" d="M249.3,72c0.1-0.1,0.1-0.3,0.2-0.4c0.2,0.4,0.3,0.8,0.4,1.3C249.4,72.7,249.4,72.3,249.3,72z"/>
		<path class="st93" d="M269.2,100.8c0.1-0.1,0.2-0.1,0.2-0.2c0.4,0.1,0.7,0.3,0.7,0.7C269.7,101.3,269.5,100.9,269.2,100.8z"/>
		<path class="st94" d="M250.8,60c0.1,0,0.1,0,0.2,0c0,0.4-0.1,0.7-0.5,1.2C250.5,60.7,250.6,60.4,250.8,60z"/>
		<path class="st75" d="M304.2,54.9c-0.3-0.2-0.4-0.5-0.6-0.9c0.5,0.1,0.6,0.4,0.8,0.7C304.4,54.9,304.4,55,304.2,54.9z"/>
		<path class="st71" d="M272,54.5c-0.1,0.1-0.1,0.1-0.2,0.2c0,0-0.1,0-0.1,0l-0.1,0c-0.3-0.1-0.2-0.4-0.4-0.6
			C271.7,53.9,271.7,53.9,272,54.5z"/>
		<path class="st95" d="M277.5,55.7c0,0.4-0.1,0.7-0.4,1C277,56.2,277.3,55.9,277.5,55.7z"/>
		<path class="st96" d="M265.4,92.5c0.1-0.1,0.2-0.2,0.2-0.2c0.3,0.3,0.5,0.6,0.5,1l0,0C265.8,93.2,265.6,92.8,265.4,92.5z"/>
		<path class="st97" d="M256.3,57.2c-0.1-0.5,0.4-0.6,0.6-0.8C256.8,56.8,256.7,57.1,256.3,57.2C256.2,57.2,256.3,57.2,256.3,57.2z"
			/>
		<path class="st39" d="M258.3,83.9c-0.2,0.1-0.2,0.3-0.2,0.4c-0.2-0.3-0.2-0.7-0.2-1.1c-0.1-0.2,0-0.3,0.2-0.2
			C258.2,83.2,258.2,83.6,258.3,83.9z"/>
		<path class="st98" d="M297.5,63.8c0.6,0,1.2,0,1.9,0C298.8,64,298.1,64,297.5,63.8z"/>
		<path class="st99" d="M250.8,58.6c-0.1,0.1-0.3,0.2-0.4,0.3c-0.3-0.2-0.5-0.5-0.8-0.7c0.1,0,0.2,0,0.2,0
			C250.1,58.4,250.4,58.6,250.8,58.6z"/>
		<path class="st9" d="M310.2,45.5c0,0-0.1,0-0.1-0.1c-0.2-0.5-0.2-1-0.2-1.4C310.1,44.5,310.1,45,310.2,45.5z"/>
		<path class="st100" d="M294.4,53.8c0-0.1,0-0.1,0-0.2c0-0.2,0.1-0.2,0.2-0.2l0,0c0.3,0.2,0.5-0.3,0.8,0c0.1,0.2,0,0.4,0,0.6
			c0,0.1-0.1,0.2-0.1,0.2c-0.1,0-0.2,0-0.2,0c0,0,0-0.1,0-0.1C294.9,53.8,294.7,53.8,294.4,53.8z"/>
		<path class="st14" d="M310.9,70.8c0,0.6,0.2,1.2-0.2,1.7C310.8,72,310.7,71.4,310.9,70.8z"/>
		<path class="st14" d="M311.3,61.1c0,0.6,0,1.2,0,1.8C311.1,62.3,311.1,61.7,311.3,61.1z"/>
		<path class="st101" d="M245.9,67.3c0.3-0.3,0.1-0.6,0.2-0.9c0.3,0.4,0.2,0.9,0.2,1.3C246,67.7,246,67.5,245.9,67.3z"/>
		<path class="st63" d="M307.2,61.1c-0.5,0-1.1,0.2-1.6-0.1C306.2,60.9,306.7,60.9,307.2,61.1z"/>
		<path class="st102" d="M278.4,85.9c0.1,0.1,0.3,0.2,0.4,0.4c-0.4,0-0.8,0-1.2-0.3c0.1-0.1,0.2-0.2,0.2-0.2
			C278.1,85.7,278.2,85.8,278.4,85.9z"/>
		<path class="st9" d="M310.9,53.2c0.4,0.5,0.1,1,0.2,1.6C310.9,54.3,310.9,53.8,310.9,53.2z"/>
		<path class="st103" d="M306.5,83.1c-0.1-0.2,0-0.4-0.2-0.6c0.1-0.2,0.1-0.5,0.2-0.7c0.3,0,0.2,0.2,0.2,0.4
			C306.6,82.5,306.7,82.9,306.5,83.1z"/>
		<path class="st9" d="M310.8,43.1c-0.3-0.5-0.1-1-0.2-1.5C310.9,42,310.8,42.6,310.8,43.1z"/>
		<path class="st104" d="M289.9,91.4c0.1,0,0.3-0.1,0.4-0.1c0.2,0,0.4-0.1,0.4,0.2c0,0.2-0.3,0.1-0.5,0.2
			C290.2,91.4,289.9,91.6,289.9,91.4z"/>
		<path class="st105" d="M253.8,62c0,0.2,0,0.3,0.2,0.4c0,0.2,0,0.5-0.3,0.6C253.5,62.7,253.6,62.3,253.8,62z"/>
		<path class="st106" d="M292.3,54.1c0.1-0.3,0.3-0.6,0.7-0.7c-0.1,0.4-0.3,0.6-0.5,0.8C292.4,54.2,292.3,54.2,292.3,54.1z"/>
		<path class="st57" d="M251.7,52.4c-0.1,0.3-0.2,0.6-0.4,0.9c-0.2-0.4-0.1-0.6,0.1-0.9C251.5,52.4,251.6,52.4,251.7,52.4z"/>
		<path class="st107" d="M297.6,54.9c0.3-0.2,0.7-0.4,1.1-0.3c0.1,0.2-0.1,0.3-0.2,0.4c-0.2,0-0.4,0.1-0.6-0.1
			C297.8,54.9,297.7,54.9,297.6,54.9z"/>
		<path class="st108" d="M267.6,58.2c0.2-0.2,0.4-0.4,0.6-0.6C268.2,58,268,58.2,267.6,58.2z"/>
		<path class="st109" d="M251.7,55.5c-0.1,0.2-0.1,0.5-0.2,0.7c-0.5-0.1-0.2-0.5-0.2-0.7c0.1-0.1,0.1-0.3,0.2-0.4
			C251.5,55.2,251.6,55.4,251.7,55.5z"/>
		<path class="st110" d="M252.5,47.4c-0.1-0.1-0.2-0.2-0.2-0.3c0.1-0.2,0.3-0.4,0.4-0.6c0.1,0.1,0.2,0.2,0.2,0.3
			C252.7,47,252.6,47.2,252.5,47.4z"/>
		<path class="st16" d="M296.3,83.9c-0.5,0.3-1.1,0.1-1.6,0.1C295.2,83.8,295.7,83.9,296.3,83.9z"/>
		<path class="st17" d="M249.7,64.3c0-0.2,0-0.6,0.3-0.6c0.3,0,0.3,0.3,0.3,0.5C250,63.9,249.8,64.1,249.7,64.3z"/>
		<path class="st88" d="M259.5,63.4c0.1,0.1,0.3,0.1,0.4,0.2c-0.2,0.1-0.5,0.5-0.7,0.2C258.9,63.6,259.3,63.5,259.5,63.4z"/>
		<path class="st111" d="M270.8,97.2c-0.1,0-0.1,0-0.2,0c-0.2-0.1-0.2-0.3-0.3-0.5c0-0.2,0-0.3,0.2-0.2
			C270.7,96.7,270.8,96.9,270.8,97.2z"/>
		<path class="st112" d="M274.5,23.7c0.3,0.2,0.3,0.5,0,0.8C274.3,24.2,274.2,24,274.5,23.7z"/>
		<path class="st113" d="M257.7,81.3c0,0.3,0.1,0.5,0.2,0.9c-0.5-0.2-0.3-0.6-0.3-0.9C257.6,81.2,257.7,81.2,257.7,81.3z"/>
		<path class="st9" d="M311.2,49.5c0-0.5,0-0.9,0-1.4C311.4,48.6,311.3,49,311.2,49.5z"/>
		<path class="st114" d="M283.9,22.4c-0.1,0.1-0.1,0.3-0.2,0.4c-0.4-0.3-0.2-0.6,0-0.9C283.7,22,283.7,22.2,283.9,22.4z"/>
		<path class="st17" d="M248.7,65.2c0,0.5,0.2,1-0.2,1.4C248.5,66.1,248.4,65.6,248.7,65.2z"/>
		<path class="st9" d="M311.5,52.3c0,0.2,0,0.4,0,0.6c-0.6-0.1-0.2-0.5-0.2-0.8C311.4,52.1,311.5,52.2,311.5,52.3z"/>
		<path class="st115" d="M263.2,81.2c0.3,0.4,0.1,0.9,0.2,1.4C263.1,82.2,263.2,81.7,263.2,81.2z"/>
		<path class="st105" d="M302.3,53.2c-0.1,0.1-0.1,0.2-0.2,0.2c-0.1-0.3-0.6-0.5-0.1-0.9C302.2,52.7,302.2,53,302.3,53.2z"/>
		<path class="st67" d="M277.9,120.4c-0.1,0-0.1,0-0.2,0c0.1-0.3,0.3-0.5,0.6-0.6c0.1,0.1,0.2,0.1,0.2,0.2
			C278.3,120.2,278.1,120.3,277.9,120.4z"/>
		<path class="st83" d="M289.9,91.4c0.1,0.1,0.3,0.1,0.4,0.2c-0.3,0.1-0.5,0.1-0.8,0.2c-0.1-0.1-0.1-0.2-0.2-0.3
			C289.5,91.4,289.7,91.4,289.9,91.4z"/>
		<path class="st32" d="M261.3,85c0-0.2,0-0.3,0.2-0.4c0.1,0.2,0.1,0.4,0.2,0.6c-0.2,0.1-0.2,0.3-0.2,0.4
			C261.3,85.5,261.3,85.2,261.3,85z"/>
		<path class="st17" d="M248.6,68.5c0.3,0.4,0.1,0.9,0.2,1.4C248.5,69.4,248.6,68.9,248.6,68.5z"/>
		<path class="st9" d="M310.6,41.6c-0.4-0.4-0.1-0.8-0.2-1.3C310.7,40.7,310.5,41.2,310.6,41.6z"/>
		<path class="st116" d="M261.1,82.9c-0.2,0.2-0.1,0.4-0.2,0.6c-0.1-0.3-0.2-0.5-0.1-0.8c0-0.1,0.1-0.1,0.2-0.1
			C261,82.7,261.1,82.8,261.1,82.9z"/>
		<path class="st52" d="M253.8,71.5c-0.4-0.4-0.1-0.8-0.2-1.3C253.9,70.6,253.8,71,253.8,71.5z"/>
		<path class="st9" d="M309.8,38.6c-0.3-0.4-0.1-0.8-0.2-1.3C309.9,37.7,309.7,38.1,309.8,38.6z"/>
		<path class="st93" d="M300.4,54.3c0,0.1,0,0.1,0,0.2c-0.2,0-0.3,0-0.5,0c-0.2,0.1-0.3,0-0.2-0.2c0.1-0.1,0.1-0.1,0.2-0.2
			C300.1,54.1,300.4,53.9,300.4,54.3z"/>
		<path class="st117" d="M271.1,101.9c-0.3,0-0.6-0.1-0.7-0.5C270.8,101.5,271,101.6,271.1,101.9L271.1,101.9z"/>
		<path class="st118" d="M271.1,101.9c0.3,0,0.5,0.1,0.8,0.5C271.4,102.4,271.2,102.3,271.1,101.9
			C271.1,101.9,271.1,101.9,271.1,101.9z"/>
		<path class="st75" d="M257,37.3c0.1,0.1,0.1,0.1,0.2,0.2c-0.1,0.2-0.1,0.5-0.3,0.6c-0.1,0.1-0.2,0.1-0.3,0
			C256.5,37.6,256.5,37.3,257,37.3z"/>
		<path class="st119" d="M266.2,59.4c0.2-0.4,0.4-0.5,0.8-0.7C266.8,59.2,266.6,59.3,266.2,59.4z"/>
		<path class="st120" d="M287.1,24.3c-0.1,0-0.1,0.1-0.2,0.1c-0.3-0.2-0.3-0.5-0.4-0.8c0.1-0.1,0.1-0.1,0.2,0
			C286.8,23.9,286.9,24.1,287.1,24.3z"/>
		<path class="st81" d="M299.7,54.4c0.1,0.1,0.2,0.1,0.2,0.2c-0.2,0.2-0.4,0.2-0.6,0.2c-0.2,0.1-0.3,0-0.2-0.2
			C299.2,54.3,299.5,54.4,299.7,54.4z"/>
		<path class="st121" d="M305.7,56.5c-0.3-0.3-0.4-0.5-0.5-1C305.6,55.9,305.7,56.1,305.7,56.5z"/>
		<path class="st122" d="M254.6,56.1c-0.1,0.2-0.2,0.4-0.5,0.5c-0.1-0.4,0.2-0.6,0.5-0.8C254.6,55.9,254.7,56,254.6,56.1z"/>
		<path class="st123" d="M277.5,84.1c0.4,0,0.3,0.3,0.4,0.6c-0.1,0.1-0.1,0.2-0.2,0.2C277.4,84.6,277.5,84.3,277.5,84.1z"/>
		<path class="st124" d="M253.6,69.6c-0.2-0.3-0.2-0.6-0.1-1c0,0,0.1,0,0.1,0c0,0,0,0,0.1,0.1C253.6,69,253.6,69.3,253.6,69.6z"/>
		<path class="st118" d="M299.3,65.6c-0.1-0.2-0.3-0.2-0.4-0.2c0.2-0.2,0.5-0.2,0.8-0.1C299.7,65.5,299.5,65.6,299.3,65.6z"/>
		<path class="st125" d="M257.7,81.3c-0.1,0-0.1,0-0.2,0c-0.1-0.2-0.2-0.4-0.1-0.6C257.9,80.7,257.7,81,257.7,81.3z"/>
		<path class="st14" d="M311.1,64.9c0,0.4,0.2,0.8-0.2,1.1C311,65.6,310.9,65.2,311.1,64.9z"/>
		<path class="st14" d="M311.3,63.7c0,0.4,0.2,0.8-0.2,1.2C311.1,64.5,311.1,64.1,311.3,63.7z"/>
		<path class="st126" d="M264.7,62c0.2-0.2,0.5-0.2,0.8-0.1c-0.1,0.3-0.3,0.3-0.5,0.4C264.8,62.2,264.7,62.1,264.7,62z"/>
		<path class="st127" d="M306.7,82.2c-0.1-0.1-0.1-0.2-0.2-0.4c0.1-0.2,0.1-0.4,0.3-0.5C306.9,81.7,306.8,81.9,306.7,82.2z"/>
		<path class="st128" d="M250.2,62.2c-0.2-0.1-0.4-0.3-0.4-0.5C250.2,61.7,250.4,61.8,250.2,62.2z"/>
		<path class="st93" d="M258.1,82.9c-0.1,0.1-0.1,0.2-0.2,0.2c-0.2-0.2-0.2-0.5-0.1-0.8C258.1,82.5,258.1,82.7,258.1,82.9z"/>
		<path class="st129" d="M281.6,59.6c0.4,0.2,0.5,0.3,0.6,0.6C281.8,60.2,281.7,60,281.6,59.6z"/>
		<path class="st130" d="M251.9,57.9c0.1,0,0.2,0,0.3,0c-0.2,0.3-0.4,0.6-0.6,0.8c-0.1-0.2,0-0.5,0.1-0.7
			C251.7,58,251.8,58,251.9,57.9z"/>
		<path class="st21" d="M307,106.1c-0.3-0.3-0.1-0.8-0.2-1.2C307,105.3,307,105.7,307,106.1z"/>
		<path class="st23" d="M257.4,96.3c-0.1-0.3,0.1-0.6-0.2-0.8c-0.1-0.1,0-0.2,0.1-0.2c0.1,0,0.2,0,0.3,0
			C257.5,95.7,257.6,96,257.4,96.3z"/>
		<path class="st111" d="M255.7,56.2c0-0.1-0.1-0.1-0.1-0.2c0-0.3,0.2-0.4,0.5-0.6C256.1,55.9,255.9,56,255.7,56.2z"/>
		<path class="st131" d="M254.6,56.1c0-0.1,0-0.2,0-0.2c0.1-0.2,0.3-0.3,0.5-0.6C255.1,55.7,254.8,55.9,254.6,56.1z"/>
		<path class="st16" d="M293.5,84c-0.4,0-0.8,0-1.3,0C292.7,83.9,293.1,83.8,293.5,84z"/>
		<path class="st132" d="M291.5,55.7c0-0.4,0.1-0.6,0.4-0.7C291.9,55.3,291.8,55.5,291.5,55.7z"/>
		<path class="st133" d="M312.6,109c0.1,0.1,0.2,0.1,0.2,0.2c0,0.2-0.1,0.5-0.3,0.4C312.3,109.6,312.4,109.2,312.6,109z"/>
		<path class="st134" d="M299.1,54.6c0.1,0.1,0.2,0.1,0.2,0.2c-0.2,0.2-0.4,0.2-0.6,0.2c-0.1,0.1-0.1,0.1-0.2,0
			c0-0.1,0.1-0.2,0.1-0.4C298.8,54.6,299,54.6,299.1,54.6z"/>
		<path class="st135" d="M267,54.4c0.1,0.2,0.3,0.2,0.4,0.2c-0.3,0.1-0.5,0.4-0.8,0C266.6,54.4,266.8,54.4,267,54.4z"/>
		<path class="st136" d="M292.3,54.1c0.1,0,0.2,0,0.2,0c-0.1,0.2-0.1,0.6-0.4,0.5C291.9,54.5,292.1,54.3,292.3,54.1z"/>
		<path class="st137" d="M271.3,54.2c0.2,0.1,0.3,0.4,0.4,0.6c-0.2,0.1-0.4,0.3-0.6,0c0.2-0.1,0.2-0.2,0.2-0.3
			C271.3,54.3,271.3,54.2,271.3,54.2z"/>
		<path class="st81" d="M277.7,84.8c0.1-0.1,0.1-0.1,0.2-0.2c0.1,0.2,0.1,0.5,0.2,0.7c-0.1,0.1-0.1,0.1-0.2,0
			C277.7,85.2,277.7,85,277.7,84.8z"/>
		<path class="st71" d="M280.3,114.3c0.1-0.1,0.2-0.2,0.4-0.3c0.2,0.1,0.4,0.1,0.6,0.2c0,0.4-0.2,0.2-0.4,0.2
			C280.7,114.3,280.5,114.3,280.3,114.3z"/>
		<path class="st138" d="M295.3,53.5c-0.2-0.1-0.5,0.3-0.7,0c0.2-0.1,0.4-0.2,0.6-0.4c0.1,0.1,0.2,0.1,0.2,0.2
			C295.4,53.3,295.4,53.4,295.3,53.5z"/>
		<path class="st91" d="M280.8,114.4c0.1-0.1,0.3-0.1,0.4-0.2c0.2,0.1,0.3,0.1,0.6,0.3C281.4,114.6,281.1,114.6,280.8,114.4z"/>
		<path class="st139" d="M294.6,53.4c-0.1,0.1-0.2,0.1-0.2,0.2c-0.1-0.1-0.1-0.1-0.2-0.2c0.1-0.2,0.1-0.4,0.3-0.5
			C294.6,53.1,294.6,53.3,294.6,53.4z"/>
		<path class="st140" d="M298.6,52.1c0.2-0.1,0.3-0.3,0.6-0.2c0.1,0.1,0.1,0.1,0.2,0.2c-0.1,0.2-0.3,0.2-0.5,0.2
			C298.6,52.4,298.5,52.3,298.6,52.1z"/>
		<path class="st114" d="M310,48.7c0.3,0.3,0.1,0.7,0.2,1.1C309.9,49.5,310.1,49.1,310,48.7z"/>
		<path class="st9" d="M309.6,42.7c0.4,0.4,0.1,0.8,0.2,1.2C309.6,43.5,309.6,43.1,309.6,42.7z"/>
		<path class="st141" d="M256.6,38c0.1,0,0.1,0,0.2,0c0,0.4-0.3,0.4-0.5,0.4c-0.1,0-0.2,0-0.2,0C256.1,37.9,256.3,37.9,256.6,38z"/>
		<path class="st142" d="M257.9,36.1C257.9,36,257.8,36,257.9,36.1c-0.1-0.4,0.1-0.5,0.4-0.7C258.3,35.7,258.2,35.9,257.9,36.1z"/>
		<path class="st143" d="M266.2,93.3c0.3,0.1,0.5,0.3,0.5,0.7C266.4,93.8,266.2,93.6,266.2,93.3C266.2,93.3,266.2,93.3,266.2,93.3z"
			/>
		<path class="st144" d="M283.7,21.8c0.1-0.3-0.1-0.7,0.2-0.9C283.8,21.2,284,21.6,283.7,21.8z"/>
		<path class="st145" d="M277.8,85.4c0.1,0,0.1,0,0.2,0c0.1,0.2,0.2,0.4,0.4,0.5c-0.2,0.1-0.4-0.1-0.5-0.2
			C277.9,85.6,277.9,85.5,277.8,85.4z"/>
		<path class="st146" d="M286.7,23.7c-0.1,0-0.1,0-0.2,0c-0.2-0.1-0.2-0.4-0.2-0.6c0.1,0,0.3,0,0.4,0
			C286.5,23.3,286.7,23.5,286.7,23.7z"/>
		<path class="st147" d="M252.9,74.5c0.3,0.2,0.2,0.4,0.1,0.7c-0.1,0-0.2,0-0.3,0C252.8,75,252.8,74.8,252.9,74.5z"/>
		<path class="st148" d="M270.5,96.5c-0.1,0.1-0.1,0.1-0.2,0.2c-0.1-0.2-0.3-0.4-0.1-0.6C270.3,96,270.4,96.3,270.5,96.5z"/>
		<path class="st149" d="M285,73.7c0,0.3,0.1,0.7-0.2,1C284.8,74.3,284.8,74,285,73.7z"/>
		<path class="st150" d="M276.9,64.1c-0.1-0.1-0.3-0.1-0.4-0.2c0.2-0.1,0.5-0.3,0.7,0C277.3,64,277,64.1,276.9,64.1z"/>
		<path class="st151" d="M295.2,63c-0.1,0.1-0.2,0.1-0.2,0.2c-0.1-0.1-0.2-0.1-0.3-0.2c0-0.2,0-0.3,0.2-0.2
			C294.9,62.9,295,62.9,295.2,63z"/>
		<path class="st138" d="M294.8,62.8c-0.1,0.1-0.1,0.1-0.2,0.2c-0.2-0.1-0.5-0.2-0.3-0.4C294.4,62.4,294.7,62.6,294.8,62.8z"/>
		<path class="st152" d="M300,60.7c0.3,0,0.7-0.1,0.9,0.2c-0.3,0-0.6,0-0.9,0C300,60.9,300,60.8,300,60.7z"/>
		<path class="st153" d="M289.7,23.9c0.1,0,0.3,0,0.4,0c0.1,0,0.2,0,0.3-0.1c0.1,0.1,0.1,0.2,0.2,0.3
			C290.3,24,289.9,24.2,289.7,23.9z"/>
		<path class="st154" d="M298.6,54.9c0.1,0,0.1,0,0.2,0c-0.3,0.1-0.6,0.5-0.9,0C298.1,54.9,298.3,54.9,298.6,54.9z"/>
		<path class="st21" d="M306.4,106.2c0.3,0.3,0.2,0.6,0.2,1C306.4,106.9,306.5,106.6,306.4,106.2z"/>
		<path class="st155" d="M305.2,55c0,0.1,0,0.2-0.1,0.2c-0.1,0-0.1-0.1-0.2-0.2c0-0.1,0-0.2,0-0.2C305.1,54.8,305.1,54.9,305.2,55z"
			/>
		<path class="st89" d="M304.2,54.9c0.1-0.1,0.1-0.1,0.2-0.2c0.2,0.1,0.4,0.4,0.2,0.5C304.3,55.4,304.3,55.1,304.2,54.9z"/>
		<path class="st156" d="M276.4,54.7c-0.1,0-0.2,0-0.3,0c0-0.2-0.2-0.4,0.1-0.4C276.3,54.3,276.3,54.5,276.4,54.7z"/>
		<path class="st157" d="M264.5,112.6c0.2,0,0.3,0.1,0.4,0.3c0,0.1,0,0.1,0,0.2c-0.2,0-0.4-0.1-0.6-0.3
			C264.3,112.7,264.4,112.7,264.5,112.6z"/>
		<path class="st158" d="M273.5,53.4c-0.1,0.2-0.2,0.2-0.4,0.2c-0.1,0-0.1,0-0.2,0c0-0.1,0-0.2,0-0.4
			C273.2,53.3,273.3,53.4,273.5,53.4z"/>
		<path class="st57" d="M268.1,53.1c0.1,0.1,0.3,0.1,0.4,0.2c-0.2,0.1-0.5,0.3-0.7,0.1C267.7,53.2,267.9,53.1,268.1,53.1z"/>
		<path class="st159" d="M295.4,53.2c-0.1-0.1-0.1-0.1-0.2-0.2c0.1-0.1,0.2-0.1,0.4-0.2c0.1,0.1,0.2,0.2,0.3,0.2
			c0.1,0.2,0,0.3-0.2,0.4C295.5,53.5,295.4,53.3,295.4,53.2z"/>
		<path class="st9" d="M310.5,51.5c0-0.1,0-0.2,0.1-0.4c0.3,0.3,0.1,0.6,0.1,0.9C310.7,51.9,310.6,51.7,310.5,51.5z"/>
		<path class="st160" d="M256.1,34.6c0-0.1,0.1-0.4,0.3-0.3c0.2,0.1,0.1,0.4,0.1,0.6C256.3,34.9,256.2,34.8,256.1,34.6z"/>
		<path class="st90" d="M277.9,31.6c0.1,0,0.3,0,0.4-0.2c0.2,0,0.4,0.2,0.3,0.3C278.3,31.9,278.1,31.8,277.9,31.6z"/>
		<path class="st91" d="M266.4,26.9c0-0.1,0-0.1,0-0.1c0.1-0.2,0.2-0.4,0.5-0.3C266.8,26.7,266.5,26.7,266.4,26.9z"/>
		<path class="st161" d="M284.8,125.2c0.2,0.2,0.2,0.4,0.2,0.6c-0.3,0-0.3-0.2-0.4-0.4C284.7,125.4,284.8,125.3,284.8,125.2z"/>
		<path class="st8" d="M264.5,112.6c-0.1,0.1-0.1,0.1-0.2,0.2c-0.5-0.2-0.9-0.7-1.3-1.1c-1.1-1.1-2.3-1.9-3.8-2.3
			c-2.2-0.6-4-1.9-6.1-2.9c-1.7-0.8-3.3-1.4-5.1-1.8c-2.3-0.5-3.1-2.3-1.8-4.3c0.5-0.8,1.1-1.5,2-2.1c1.5-1,2-2.7,2.7-4.3
			c1.1-2.4,2.1-4.8,4.2-6.6c0.6,1.1,0.8,2.3,1.3,3.5c0.3,0.9,0.5,1.9,0.9,2.8c0.3,0.6,0.2,1-0.1,1.6c0,0.1-0.1,0.1-0.1,0.2
			c-0.2,0.2-0.3,0.4-0.2,0.7c-0.1,0.8-0.1,1.6,0,2.4c0.2,2.2,1,4.1,1.9,6.1C260.2,107.7,262.1,110.3,264.5,112.6z"/>
		<path class="st162" d="M252.9,71.3c-0.8-0.7-1-1.5-0.6-2.6c0.1-0.3,0.2-0.6,0.5-0.6c0.4,0,0.2,0.4,0.2,0.7c0,0.2,0,0.3,0,0.5
			c0.1,0.6,0,1.2,0.1,1.8C253.1,71.2,253.1,71.3,252.9,71.3z"/>
		<path class="st52" d="M252.9,71.3c0.5-0.6,0-1.4,0.2-2.1c0.3,0.6,0.1,1.3,0.1,2C253.2,71.4,253,71.5,252.9,71.3z"/>
		<path class="st163" d="M285.4,126.7c-0.1,0.1-0.1,0.1-0.2,0.1c-0.1-0.1-0.1-0.2-0.1-0.2c0.1,0,0.2-0.1,0.2,0
			C285.3,126.5,285.3,126.6,285.4,126.7z"/>
		<path class="st8" d="M311.9,80.5c-0.1-0.1-0.2-0.2-0.2-0.2c0.2-2.1,0.1-4.2-0.1-6.3c0-0.6-0.1-1.1-0.2-1.7c0.2-0.6-0.1-1.3,0.2-2
			c0.1-0.4,0.1-0.8,0-1.1c-0.1-0.6-0.1-1.1,0-1.7c0.1-0.3,0.1-0.6,0-0.9c0.2-0.4,0-0.8,0.2-1.2c0.1-0.2,0.1-0.5,0-0.7
			c0.2-0.8,0-1.6,0.1-2.3c0.1-0.4,0.2-0.8,0.2-1.3c0.3-0.8,0.5-1.6,0.8-2.4c0.1-0.3,0.3-0.8,0.7-0.8c0.4,0.1,0.6,0.6,0.5,1
			c-0.1,1.4-0.2,2.7-0.4,4.1c-0.2,2.1-0.2,4.1-0.1,6.2c0.1,1.9-0.1,3.8,0.1,5.7c0.2,1.3-0.1,2.7,0,4c0,0.3-0.1,0.6-0.2,0.9
			C313.2,80.6,312.7,80.9,311.9,80.5z"/>
		<path class="st164" d="M306.6,34.1c-0.1,0.1-0.3,0.3-0.5,0c-1.4-1.7-3-3.2-4.5-4.8c-0.1-0.1,0-0.2,0.1-0.2
			C303.9,30.2,305.5,31.9,306.6,34.1z"/>
		<path class="st129" d="M311.9,54.4c0-0.1,0.1-0.1,0.1-0.1c0.4,0.5,0.3,1.1,0.2,1.7c-0.1,0.1-0.2,0-0.2,0c-0.1-0.3,0.1-0.6-0.1-0.9
			C311.8,54.7,311.8,54.5,311.9,54.4z"/>
		<path class="st14" d="M311.9,62.4c0,0.8,0.1,1.6-0.1,2.3C311.8,64,311.5,63.2,311.9,62.4z"/>
		<path class="st14" d="M311.5,70.3c0.1,0.7,0.1,1.3-0.2,1.9C311.4,71.6,311.1,71,311.5,70.3z"/>
		<path class="st14" d="M311.5,67.5c0,0.6,0,1.1,0,1.7C311.2,68.6,311.2,68.1,311.5,67.5z"/>
		<path class="st136" d="M307.9,36.3c-0.6-0.2-0.6-0.7-0.7-1.2C307.6,35.4,307.7,35.9,307.9,36.3z"/>
		<path class="st165" d="M307.2,35c-0.5,0-0.7-0.2-0.5-0.8C306.8,34.4,307,34.7,307.2,35z"/>
		<path class="st9" d="M311.9,54.9c0.3,0.3,0.1,0.6,0.2,0.9c0.1,0.1,0.1,0.3-0.1,0.4C311.7,55.8,312,55.4,311.9,54.9z"/>
		<path class="st14" d="M311.7,65.4c0,0.4,0,0.8-0.2,1.2C311.6,66.3,311.4,65.8,311.7,65.4z"/>
		<path class="st166" d="M312.1,56.2c0-0.1,0-0.3,0.1-0.4c0,0,0.1,0,0.1,0c0,0.2,0.3,0.4,0.1,0.7c-0.1,0.1-0.2,0-0.3-0.1
			C312,56.4,312.1,56.3,312.1,56.2z"/>
		<path class="st9" d="M310.6,51c0-0.3,0-0.6,0-0.9C310.8,50.3,310.8,50.7,310.6,51z"/>
		<path class="st9" d="M310.6,48c-0.2-0.3-0.2-0.6-0.2-1C310.7,47.3,310.5,47.7,310.6,48z"/>
		<path class="st25" d="M256.6,38c-0.2,0.1-0.4,0.2-0.6,0.4c-0.1-0.1-0.2-0.1-0.2-0.2c0.1-0.3-0.1-0.5-0.3-0.6
			c-0.9-0.4-0.7-0.9-0.2-1.5c0.5,0.3,1,0.7,1.6,0.8c0.2,0,0.2,0.2,0.2,0.4C256.8,37.4,256.7,37.7,256.6,38z"/>
		<path class="st28" d="M255.5,38.5c0,0.1,0,0.2,0,0.2c-0.4,0.3-0.6,0.9-1.2,1c-0.5-0.3-0.4-0.6-0.2-1.1c0.2-0.5,0.5-0.2,0.7-0.1
			C255.1,38.5,255.3,38.5,255.5,38.5z"/>
		<path class="st167" d="M253.3,41.8c0,0.7-0.6,1.1-0.9,1.6c0.2-0.7-0.2-1.7,0.9-2C253.3,41.5,253.4,41.7,253.3,41.8z"/>
		<path class="st168" d="M251.8,48.3c0.2-0.3,0.4-0.5,0.6-0.8c0.1,0.1,0.1,0.1,0.2,0.2c-0.3,0.5-0.6,1-0.9,1.6
			c-0.2-0.1-0.2-0.3-0.2-0.4C251.6,48.7,251.7,48.5,251.8,48.3z"/>
		<path class="st169" d="M258.9,32.4c-0.1,0.3-0.3,0.3-0.5,0.3c-0.2,0-0.4-0.1-0.4-0.3c0-0.3,0.3-0.4,0.5-0.5
			C258.7,32,258.7,32.2,258.9,32.4z"/>
		<path class="st170" d="M253.3,40.5c0.1-0.1,0.1-0.4,0.3-0.3c0.2,0,0.3,0.2,0.3,0.4c0,0.2-0.1,0.3-0.4,0.3
			C253.4,40.8,253.2,40.7,253.3,40.5z"/>
		<path class="st100" d="M251.5,48.9c0.2,0.1,0.2,0.3,0.2,0.4c-0.1,0.2-0.2,0.6-0.4,0.4C251.2,49.5,251.3,49.2,251.5,48.9z"/>
		<path class="st171" d="M251.3,55.5c0.1,0.2-0.1,0.6,0.2,0.7c-0.1,0.2-0.1,0.4-0.2,0.5c-0.1,0.1-0.1-0.1-0.1-0.2
			C251.2,56.1,251.1,55.7,251.3,55.5z"/>
		<path class="st146" d="M253.3,41.8c0-0.1,0-0.3,0-0.4c0.1,0.1,0.3,0.1,0.4,0.2c0.1,0.1,0.2,0.2,0.2,0.4
			C253.5,42.4,253.4,41.9,253.3,41.8z"/>
		<path class="st172" d="M253.8,41.9c-0.2-0.1-0.2-0.2-0.2-0.4c0.2-0.1,0.4-0.1,0.5,0C254.2,41.8,253.9,41.8,253.8,41.9z"/>
		<path class="st173" d="M282.6,84.2c1.4,0.1,2.9,0.3,4.3,0.4l0,0c1.1,0.2,2.3,0.1,3.4,0c0,0,0.1,0,0.1,0c0.6-0.2,1.3,0,1.9-0.1
			c1.2,0,2.4,0,3.6,0c0.2,0,0.6-0.2,0.7,0.2c-1.5,0.7-3.1,0.8-4.6,1.4c-1.8,0.7-3.8,0.6-5.6,1.3c-0.4,0.2-0.7,0-0.9-0.4
			c-0.2-0.5-0.2-1-0.2-1.5c-0.5,0.4-0.7,0.8-0.4,1.4c0.2,0.5,0,0.6-0.4,0.6c-1.3,0-1.8-0.3-2.1-1.6c-0.1-0.5-0.4-1.1-0.6-1.6
			C282,84.2,282.3,84.3,282.6,84.2z"/>
		<path class="st100" d="M296.7,84.8c-1.1-0.3-2.1-0.1-3.2-0.1c-0.4,0-0.7,0-1.1,0c0-0.1,0-0.1,0.1-0.1c1.6,0,3.2,0,4.8,0
			C297.1,84.8,296.9,84.7,296.7,84.8z"/>
		<path class="st16" d="M290.3,84.6c-1.1,0.2-2.3,0.4-3.4,0C288,84.6,289.2,84.6,290.3,84.6z"/>
		<path class="st16" d="M292.4,84.5c0,0-0.1,0.1-0.1,0.1c-0.6,0-1.2,0-1.9,0C291.1,84.2,291.8,84.5,292.4,84.5z"/>
		<path class="st104" d="M312.1,58.3c-0.1-0.3,0-0.7,0-1.1c0.3,0.5,0.1,0.8,0.1,1.1c0,0,0,0.1,0,0.1
			C312.2,58.4,312.1,58.3,312.1,58.3z"/>
		<path class="st64" d="M312.1,58.3c0,0,0.1,0,0.1,0c0,0.2,0,0.4,0,0.5c0,0.1-0.2,0.3-0.2,0.3c-0.2-0.1-0.1-0.3-0.1-0.4c0,0,0,0,0,0
			C312.1,58.6,312.1,58.4,312.1,58.3z"/>
		<path class="st174" d="M274,60c0.2,0.1,0.8-0.4,0.7,0.2c-0.1,0.7-0.8,0.4-1.2,0.5c-0.2,0-0.6,0.2-0.6-0.3
			C272.9,59.8,273.5,60,274,60z"/>
		<path class="st175" d="M275.8,59.4c-0.2,0-0.4,0.2-0.4,0.4c-0.4,0.1-0.4-0.2-0.4-0.5c0-0.3,0.3-0.3,0.5-0.3c0.2,0,0.4,0,0.7,0
			C276.2,59.5,275.9,59.3,275.8,59.4z"/>
		<path class="st176" d="M275.8,59.4c0.1-0.1,0.2-0.2,0.4-0.3c0.4-0.1,0.7,0.1,1,0.3C276.7,59.4,276.2,59.4,275.8,59.4z"/>
		<path class="st177" d="M298,59.8c0.3,1-0.4,0.8-0.9,0.7c-0.3-0.2-0.7,0-1-0.1c-0.1,0-0.2,0-0.3,0c-0.1-0.1-0.1-0.2,0-0.3
			c0.7,0.2,1.4,0.3,2.1-0.2C297.9,59.7,297.9,59.7,298,59.8z"/>
		<path class="st177" d="M294.5,60.2c-0.2-0.2-0.3-0.4-0.3-0.6c0.1-0.2,0.3-0.3,0.5-0.3c0.3,0,0.1,0.2,0.2,0.4
			c0,0.1,0.1,0.3,0.2,0.4C295.1,60.5,294.8,60.2,294.5,60.2z"/>
		<path class="st153" d="M294.5,60.2c0.2-0.1,0.5,0,0.6-0.2c0.2,0,0.4,0,0.6,0c0,0.1,0,0.2,0,0.3C295.3,60.4,294.9,60.5,294.5,60.2z
			"/>
		<path class="st178" d="M298,59.8L298,59.8c-0.1,0-0.2,0-0.2,0c-0.1-0.3-0.1-0.6,0-1C298.3,59.2,298,59.5,298,59.8z"/>
		<path class="st153" d="M296.1,60.4c0.3,0,0.7-0.1,1,0.1C296.7,60.5,296.4,60.6,296.1,60.4z"/>
		<path class="st179" d="M295.6,58.7c0.3,0,0.5-0.1,0.8,0c-0.1,0.2-0.3,0.1-0.4,0.2C295.8,59,295.6,59,295.6,58.7z"/>
		<path class="st180" d="M295.6,58.7c0.1,0.1,0.2,0.1,0.4,0.2c-0.2,0.2-0.4,0.3-0.6,0.1C295.2,58.9,295.4,58.7,295.6,58.7z"/>
		<path class="st23" d="M257,98.6c-0.3-0.8-0.3-1.6,0-2.4C257,97,257,97.8,257,98.6z"/>
		<path class="st177" d="M295.5,53.4c0.1-0.1,0.2-0.2,0.2-0.3c0.3-0.1,0.6-0.3,0.9-0.4c0.6-0.3,1.2-0.5,1.8-0.6
			c0.1,0.1,0.1,0.1,0.2,0.2c-0.2,0.1-0.4,0.2-0.6,0.4c-0.4,0.4-1,0.4-1.4,0.7c-0.2,0.1-0.5,0.2-0.8,0.3
			C295.8,53.7,295.5,53.8,295.5,53.4z"/>
		<path class="st110" d="M296.7,53.3c0.5-0.3,1-0.5,1.5-0.6c0.1,0.9-0.8,0.6-1.1,0.9c-0.1,0-0.1,0.1-0.2,0
			C296.7,53.6,296.6,53.4,296.7,53.3z"/>
		<path class="st96" d="M295,54.2c0.1,0,0.1,0,0.2-0.1c0.2,0,0.4,0.1,0.6,0.2c0.1,0.1,0.1,0.1,0.2,0.2c-0.3,0.3-0.6,0.5-1,0.8
			C295,54.9,295,54.6,295,54.2z"/>
		<path class="st142" d="M295.5,53.4c0.1,0.3,0.3,0.1,0.5,0.1c0.1,0.1,0.1,0.2,0.1,0.3l0,0.1c-0.3,0.3-0.6,0.3-1,0.1
			c0.1-0.2,0.1-0.4,0.2-0.6c0-0.1,0-0.1,0-0.2C295.4,53.3,295.5,53.4,295.5,53.4z"/>
		<path class="st181" d="M297.8,54.2c-0.4,0-0.7,0.4-1.2,0.2C297,54.1,297.3,53.7,297.8,54.2z"/>
		<path class="st182" d="M295.1,54c0.3,0,0.7-0.1,1-0.1c0.1,0.3-0.3,0.2-0.4,0.5C295.5,54.3,295.3,54.4,295.1,54
			C295.2,54.1,295.1,54,295.1,54z"/>
		<path class="st183" d="M299.5,53.6c-0.3,0.1-0.6,0.2-1,0.2C298.8,53.5,299.1,53.2,299.5,53.6z"/>
		<path class="st60" d="M296.9,53.6c0.1,0,0.1,0,0.2,0c-0.3,0.2-0.5,0.5-0.9,0.2C296.3,53.4,296.6,53.5,296.9,53.6z"/>
		<path class="st63" d="M296.9,53.6c-0.3,0-0.5,0-0.7,0.2c0,0,0,0,0,0c0-0.1-0.1-0.2-0.1-0.3c0.2-0.1,0.4-0.2,0.6-0.3
			C296.7,53.4,296.8,53.5,296.9,53.6z"/>
		<path class="st104" d="M300.4,54.3c-0.1-0.2-0.4-0.2-0.6-0.2c0.2-0.3,0.5-0.2,0.7-0.3c0.1,0.1,0.1,0.1,0.2,0.2c0,0.1,0,0.1,0,0.2
			C300.7,54.2,300.6,54.3,300.4,54.3z"/>
		<path class="st59" d="M300.8,54.2c0-0.1,0-0.1,0-0.2c0.3,0,0.6,0,1,0c-0.1,0.1-0.1,0.1-0.2,0.2C301.3,54.1,301,54.5,300.8,54.2z"
			/>
		<path class="st184" d="M267,55.8c0,0.4-0.4,0.2-0.6,0.4C266.4,55.8,266.7,55.9,267,55.8z"/>
	</g>
</g>
</svg>
