<?xml version="1.0" encoding="utf-8"?>
<!-- Generator: Adobe Illustrator 23.0.1, SVG Export Plug-In . SVG Version: 6.00 Build 0)  -->
<svg version="1.1" xmlns="http://www.w3.org/2000/svg" xmlns:xlink="http://www.w3.org/1999/xlink" x="0px" y="0px"
	 viewBox="0 0 425 179" style="enable-background:new 0 0 425 179;" xml:space="preserve">
<style type="text/css">
	.st0{display:none;}
	.st1{display:inline;fill:#D1D1D1;}
	.st2{fill:#FFFFFF;}
	.st3{font-family:'Roboto-Bold';}
	.st4{font-size:12px;}
	.st5{clip-path:url(#SVGID_3_);}
	.st6{fill:#24B865;}
	.st7{fill:#24B865;stroke:#FFFFFF;stroke-width:0.75;stroke-linecap:round;stroke-linejoin:round;}
	.st8{fill:#FFFFFF;stroke:#FFFFFF;stroke-width:0.3;stroke-linecap:round;stroke-linejoin:round;}
	.st9{fill:none;stroke:#FFFFFF;stroke-width:0.3;stroke-linecap:round;stroke-linejoin:round;}
	.st10{fill:none;stroke:#FFFFFF;stroke-width:1.25;stroke-linecap:round;stroke-linejoin:round;stroke-miterlimit:10;}
	.st11{fill:#FEFEFE;}
	.st12{fill:#21B765;}
	.st13{fill:#22B865;}
	.st14{fill:#21B865;}
	.st15{fill:#23B866;}
	.st16{fill:#24B867;}
	.st17{fill:#20B764;}
	.st18{fill:#26B968;}
	.st19{fill:#F8FCFA;}
	.st20{fill:#FBFDFC;}
	.st21{fill:#25B967;}
	.st22{fill:#29BA6A;}
	.st23{fill:#2ABA6B;}
	.st24{fill:#27B969;}
	.st25{fill:#28B969;}
	.st26{fill:#2CBB6C;}
	.st27{fill:#30BC6F;}
	.st28{fill:#2FBC6E;}
	.st29{fill:#2FBC6F;}
	.st30{fill:#2DBB6D;}
	.st31{fill:#31BD70;}
	.st32{fill:#31BC70;}
	.st33{fill:#31BC6F;}
	.st34{fill:#32BD71;}
	.st35{fill:#34BD72;}
	.st36{fill:#34BD71;}
	.st37{fill:#2EBB6E;}
	.st38{fill:#40C17A;}
	.st39{fill:#2EBC6E;}
	.st40{fill:#26B969;}
	.st41{fill:#37BE74;}
	.st42{fill:#3EC178;}
	.st43{fill:#39BF75;}
	.st44{fill:#35BD72;}
	.st45{fill:#2BBA6B;}
	.st46{fill:#1FB764;}
	.st47{fill:#3BC077;}
	.st48{fill:#38BF74;}
	.st49{fill:#28BA69;}
	.st50{fill:#E9F7EF;}
	.st51{fill:#32BD70;}
	.st52{fill:#3ABF76;}
	.st53{fill:#2BBB6C;}
	.st54{fill:#30BC70;}
	.st55{fill:#49C480;}
	.st56{fill:#EDF8F2;}
	.st57{fill:#50C685;}
	.st58{fill:#3EC179;}
	.st59{fill:#43C27C;}
	.st60{fill:#49C47F;}
	.st61{fill:#EBF8F1;}
	.st62{fill:#66CD94;}
	.st63{fill:#33BD71;}
	.st64{fill:#3FC179;}
	.st65{fill:#36BE72;}
	.st66{fill:#4BC581;}
	.st67{fill:#4DC583;}
	.st68{fill:#F3FBF6;}
	.st69{fill:#41C17A;}
	.st70{fill:#16B45E;}
	.st71{fill:#3CC077;}
	.st72{fill:#48C47F;}
	.st73{fill:#5FCB8F;}
	.st74{fill:#87D8AB;}
	.st75{fill:#DAF2E5;}
	.st76{fill:#42C27B;}
	.st77{fill:#72D19C;}
	.st78{fill:#54C887;}
	.st79{fill:#45C37D;}
	.st80{fill:#58C98A;}
	.st81{fill:#E7F7EE;}
	.st82{fill:#DEF4E8;}
	.st83{fill:#3BC076;}
	.st84{fill:#59C98A;}
	.st85{fill:#54C787;}
	.st86{fill:#42C27C;}
	.st87{fill:#9BDEB8;}
	.st88{fill:#3EC078;}
	.st89{fill:#58C88A;}
	.st90{fill:#46C37E;}
	.st91{fill:#30BC6E;}
	.st92{fill:#59C98B;}
	.st93{fill:#56C889;}
	.st94{fill:#57C889;}
	.st95{fill:#67CD94;}
	.st96{fill:#44C37D;}
	.st97{fill:#DFF4E8;}
	.st98{fill:#60CB90;}
	.st99{fill:#BEE9D1;}
	.st100{fill:#9FDFBB;}
	.st101{fill:#52C786;}
	.st102{fill:#5AC98C;}
	.st103{fill:#78D3A0;}
	.st104{fill:#5CCA8C;}
	.st105{fill:#B6E7CC;}
	.st106{fill:#F5FBF7;}
	.st107{fill:#DBF3E6;}
	.st108{fill:#CDEEDB;}
	.st109{fill:#4AC480;}
	.st110{fill:#50C684;}
	.st111{fill:#76D29F;}
	.st112{fill:#47C37F;}
	.st113{fill:#47C37E;}
	.st114{fill:#AEE4C6;}
	.st115{fill:#51C686;}
	.st116{fill:#54C788;}
	.st117{fill:#80D5A6;}
	.st118{fill:#79D3A1;}
	.st119{fill:#EEF9F3;}
	.st120{fill:#CBEDDA;}
	.st121{fill:#44C27D;}
	.st122{fill:#D3F0E0;}
	.st123{fill:#3DC078;}
	.st124{fill:#6DCF99;}
	.st125{fill:#C6ECD7;}
	.st126{fill:#24B967;}
	.st127{fill:#16B45D;}
	.st128{fill:#4FC684;}
	.st129{fill:#83D6A8;}
	.st130{fill:#4AC481;}
	.st131{fill:#55C888;}
	.st132{fill:#69CE96;}
	.st133{fill:#B3E6C9;}
	.st134{fill:#67CD95;}
	.st135{fill:#4DC582;}
	.st136{fill:#44C27C;}
	.st137{fill:#85D7A9;}
	.st138{fill:#57C88A;}
	.st139{fill:#C9EDD9;}
	.st140{fill:#5CCA8D;}
	.st141{fill:#D2F0DF;}
	.st142{fill:#2EBB6D;}
	.st143{fill:#63CC92;}
	.st144{fill:#61CC90;}
	.st145{fill:#1AB560;}
	.st146{fill:#76D29E;}
	.st147{fill:#15B45D;}
	.st148{fill:#B9E8CE;}
	.st149{fill:#B7E7CC;}
	.st150{fill:#C0EAD3;}
	.st151{fill:#CBEEDA;}
	.st152{fill:#6CCF98;}
	.st153{fill:#74D19E;}
	.st154{fill:#E3F5EB;}
	.st155{fill:#74D19D;}
	.st156{fill:#4EC683;}
	.st157{fill:#1BB561;}
	.st158{fill:#4EC583;}
	.st159{fill:#89D8AC;}
	.st160{fill:#4CC582;}
	.st161{fill:#6FD09A;}
	.st162{fill:#92DBB3;}
	.st163{fill:#18B45F;}
	.st164{fill:#4BC481;}
	.st165{fill:#62CC91;}
	.st166{fill:#48C37F;}
	.st167{fill:#5BC98C;}
	.st168{fill:#81D6A6;}
	.st169{fill:#C8ECD8;}
	.st170{fill:#14B35C;}
	.st171{fill:#1CB562;}
	.st172{fill:#53C786;}
	.st173{fill:#D0EFDE;}
	.st174{fill:#51C785;}
	.st175{fill:#65CD93;}
	.st176{fill:#19B55F;}
	.st177{fill:#E0F4E9;}
	.st178{fill:#D1EFDE;}
	.st179{fill:#96DCB5;}
	.st180{fill:#7BD4A2;}
	.st181{fill:#36BE73;}
	.st182{fill:#B8E7CC;}
	.st183{fill:#65CC93;}
	.st184{fill:#9ADEB8;}
	.st185{fill:#A9E2C2;}
	.st186{fill:#91DBB2;}
	.st187{fill:#64CC93;}
	.st188{fill:#70D09B;}
	.st189{fill:#3CBF77;}
	.st190{fill:#D7F1E3;}
	.st191{fill:#5FCB8E;}
	.st192{fill:#D8F2E3;}
	.st193{fill:#75D29E;}
	.st194{fill:#93DCB3;}
	.st195{fill:#9EDFBB;}
	.st196{fill:#86D7AA;}
	.st197{fill:#61CC91;}
	.st198{fill:#10B25B;}
	.st199{fill:#25B968;}
	.st200{fill:#80D6A6;}
	.st201{fill:#DFF4E9;}
	.st202{fill:#64CD93;}
	.st203{fill:#39BE75;}
	.st204{fill:#73D19D;}
	.st205{fill:#D5F1E1;}
	.st206{fill:#88D8AC;}
	.st207{fill:#BBE8CF;}
	.st208{fill:#AAE3C3;}
	.st209{fill:#68CE96;}
	.st210{fill:#F3FAF6;}
	.st211{fill:#F6FCF9;}
	.st212{fill:#B5E6CB;}
	.st213{fill:#CDEEDC;}
</style>
<g id="Layer_2" class="st0">
	<rect class="st1" width="418.9" height="179"/>
</g>
<g id="Layer_1">
	<text transform="matrix(1 0 0 1 248.7026 155.2148)" class="st2 st3 st4">COACH:</text>
	<text transform="matrix(1 0 0 1 218.2026 169.6148)" class="st2 st3 st4">WARREN GATLAND (NZ)</text>
	<text transform="matrix(1 0 0 1 111.9033 155.2156)" class="st2 st3 st4">WALES</text>
	<g>
		<g>
			<path id="SVGID_1_" class="st2" d="M180.5,50.4c0,0,9.1,76.1-49,88.5c-58-12.4-49-88.5-49-88.5S115.4,19.8,171,9
				C171,9,178.4,26.8,180.5,50.4z"/>
		</g>
		<g>
			<g>
				<defs>
					<path id="SVGID_2_" d="M180.5,50.4c0,0,9.1,76.1-49,88.5c-58-12.4-49-88.5-49-88.5S115.4,19.8,171,9
						C171,9,178.4,26.8,180.5,50.4z"/>
				</defs>
				<clipPath id="SVGID_3_">
					<use xlink:href="#SVGID_2_"  style="overflow:visible;"/>
				</clipPath>
				<g class="st5">
					<rect x="67.8" y="79.1" class="st6" width="190.6" height="64.7"/>
					<path class="st7" d="M221.9,44.4c-1,6.8,0,16.6,1.7,19.8c-2-0.7-4.3-2.5-5.4-4.7c-0.8,2.5-1.6,4.9-2.4,7.4
						c5,10.2-8.1,18.3-19,18.9c6.7,3.6,15.4,8.1,15.4,10.5c-2.6,1-4.2-1.8-6.3-2.7c2.3,5.9,0.9,10.3-0.3,16.1
						c-1.1,1.4,0,2.3,0.5,3.4c1.1,0.4,2.1,0.8,3.2,1.2c0.2,0.1,0.3,0.3,0.5,0.4c0,0,2.2,0.1,2.8,3.2c-1.5-1.8-3.5-1.2-3.5-1.2
						c-0.3,0.2-0.5,0.3-0.8,0.5c-0.6-0.3-1.2-0.7-1.8-1.1c-2-1.3-4-1.2-6.1-0.3c-1.1,0.7-2.2,0.6-3.2,0.1c-1.2-1.3-3.8-0.2-3.9-0.2
						l-2.8,1.8l-0.7-0.1c0,0-1.8-0.1-4.1,1.4c0.6-3.1,2.8-3,2.8-3c-0.2-0.6,0.3-0.5,0.4-0.8c0.8-0.8,2.3-0.7,3.5-1
						c-2.2-0.1-4.4-0.2-6.6-0.3c0-0.1,0.1-0.2,0.1-0.3c-1.4-0.1-2.6-0.2-3.4,1.2c-0.1-2.3,1.8-2.7,3-3.2c0.6-0.8,1.7-0.7,2.9-0.6
						c0,0,6.3,2.3,5.8,2.2c-0.5-0.2-7.4-3.1-7.4-3.1c-0.3-0.5,0.1-0.8,0.1-0.9c0,0-1.9-1.2-3.2,0.1c0.2-2.7,3.5-2,3.5-2
						c0.2-0.9,1-0.8,1.5-0.4c0.8,0.8,1.7,1.6,2.5,2.4c0.8,0.5,1.6,1,2.3,1.5c2.2,1,4.5,0.6,6.4-2.5c-0.7-1.6-0.4-2.3,1.1-3.2
						c-0.4-1.1-0.2-2.2,0.2-3.2c-0.6-1-1-3.6-0.4-4.3c-1.5-0.5-2-2-2.1-2c-1.3,0.3-2.5-0.2-3-0.7c-2.1,0.9-3.8,0.4-5.2-0.8
						c-2.4,0.8-4.6,0.2-5.7-0.8c-1.8,0.4-4.7-0.9-5.2-2.3c-1.1,0-2.1-1.2-3.3-1.1c-0.9,1.5-1.2,1.4-2.6,2.6c-1.4,1.5-0.9,4,0.2,5.2
						c1.8,0.7,3.6,1.4,5.3,2c4.1,0.2,5,2.6,5,4.8c-1.5-0.5-1.6-0.7-2.3-0.8c-1.1-0.4-2.1-0.8-3.2-1.1c-3.3,5.3-7.9,9-14.6,10.7
						c1.3,0.6,2.5,0.4,3.8,0.6c0.5,0.3,0.9,0.5,1.4,0.8c2,0.4,3.4,1.1,3.3,2.9c-1.3-1.5-2.6-1.4-3.6-0.7c-2.1,0.9-3.3-1.1-5-1.6
						c-1.4-1-2.8-0.6-4,0.1c-1.4-0.9-3-0.4-4.6-0.3c-2,0.2-4.2,0.7-5.2,1.8c-0.7,0.5-0.9-0.3-1-0.2c-2.3-0.8-3.3,1.3-3.3,1.3
						c-0.5-2.3,0.6-2.8,1.9-3.2c-0.9-0.5-1.7-1-2.6-1.5c-0.1-0.3-0.2-0.3,0.2-0.5c-1-0.6-2-0.1-3.1,0.9c0.1-2.1,2.7-3.4,3.8-2.7
						c0.8-0.6,2.2-0.7,3.3,0.2c1.2,0.9,3,1,4.2,0.7c-0.5-1.4-2.2-2.3-3.1-2.3c-1.3-0.3-2.8-0.8-2.4-1.6c-0.8-1.2-2-0.8-3.3,0.1
						c0.5-2.6,3.2-2.4,4-1.8c0.3-0.8,1.1-1,1.8-0.2c1.1,0.3,1.3,1.1,1.9,1.6c1.2,1.3,3.2,1.9,4.8,2.2c1.5-0.8,3.2-1,5-1
						c0.3-1.5,1.3-1.8,2.6-1.8c-0.1-1.3,0.6-1.9,1.8-2.4c0,0-1.9-0.2-2.1-1.4c-3.3,0-5.4-0.5-5.7-2.6c-3-0.9-4.8-3.2-3.6-5.6
						c-1.5,0.5-2.4,0.5-3.7,0c-2.1,1.8-5.3,4-7.2,2.8c-0.9,1-3.1,2.1-3.1,2.1c-0.3,2.3-2,5.1-2,5.1c-0.9-2.2-2.6-4.6-2.4-6.8
						c-3,3.9-4.7,5-7.1,7.5c-1.9,1.9-2.9,4.2-3.6,6.8c1.4,0.8,3.2,0.7,4.9,1c0.4,0.6,0.3,0.3,0.5,0.5c1.7,0,3,1,3,2.8
						c-1.6-1.6-3.1-0.6-3.1-0.6c-1.3,1.1-2.9,0.6-4.4,0c-1.3-1.4-3.3-2.2-4.9-1c-2,1.6-2.9-0.8-5.9,0.9c-2.2,2-5.2,2.2-6,1
						c0,0-1.5-0.6-3.7,1.7c0.6-3.7,2.9-3.3,2.9-3.3c0-0.4-0.1-0.8-0.1-1.2c-0.3-0.1-0.6-0.2-0.9-0.3c-1.5-0.7-3.5-0.5-4.3,0.2
						c0.6-2.4,2.8-2.4,4.5-2.2c0.3-0.3,0.6-0.7,0.9-1c-0.7-0.3-0.5-0.7-0.4-1.2c-0.9-0.9-1.6-1.1-2.8-0.2c0.4-2.3,2.6-2.2,4.2-1.2
						c0.8-0.5,2.7,0.5,3.9,1.2c3.6,1.2,5.9,1.4,9.5-3.3c0-2.2,0.2-3.1,2.1-4.4c-0.7-1.3-0.3-2.7,1.5-3.4c-0.7-0.6-0.2-1.5,0.3-2.5
						c-2.7-0.1-5.7,0.2-7.8,0.9c-0.7,2.1-1.6,4.3-3.1,5.7c0-5.5-3.1-9.4-7-13.6c-4.4-2.9-6.4-8.7-6.8-10.6c-0.8,2.1-1.4,2.5-1.4,2.5
						c-1,1.1-0.3,3.5-2.3,3.6c-1.9,2.3-4.2,1-4.2,1c2.2-0.3,2.5-1.2,2.9-2.6c-1.4-0.3-0.2-1.5,0.5-1.9c0.4-0.1,1.5-2.8,2.2-2.7
						c0.3-2.7,0.6-5.3,0.9-8c-1.7-0.7-2.9-1.9-2.8-3.8c-0.6-0.8-1.1-2-0.2-2.5c-0.4-1-0.8-2.1-2.3-2.5c3.3-0.6,3.8,1.4,4.6,1.6
						c1,0.6,1.7,4,2.8,5.7c-0.9-2.9-0.4-4.9,0.5-7.4c0-1.4-0.6-2.7-1.9-3.5c2.9-0.1,4,2.9,4.1,3c1.8,2.3-0.6,4,0.2,5
						c0.6-0.4,0.8-1.4,1.7-1.3c0.7-0.8,1.2-1.6,1.2-3.3c1.7,1,1.3,2.5,0.8,3.9c0.1,2.2-0.2,2.7-1.6,3.5s-1.7,1.5-1.5,2.6
						c1.7,1.9,2.1,7.6,2.1,7.6c1.7,0.5,2.4,2,2.3,3.3c1.7-0.2,3.2,1.1,3.4,2.3c1-0.9,2.3-0.1,3.3,0.9c0.3-0.5,1.1-0.7,1.8-0.5
						c0-0.9,0.5-1.5,1.3-2.2c-2-1.5-2.5-5.3-0.3-7.3c-0.4-2.8,0.4-5.4,1.8-5.7c-0.5-3,1.4-4,2.1-4.7c-0.5-1.4,1.1-4,1.9-4
						c-0.9-1.4,0.7-4.1,2-4.3l-0.9-2c0,0-4.1,0.6-4.9,4.4c-0.5-0.8-1-2-1-2s-1.6,4.4-1.7,4.3c-1.4-0.9-0.8-3-0.8-3
						c-1-1.1-0.8-2.6-1.3-3.9c-3.9-0.2-7.7-0.3-11.6-0.5l1.3,2.4c-1.4,0-8.1-5.7-9.4-10.6c3.5,2.7,7.1,3.4,11,4.2
						c-1,0.5-2.1,1-3.1,1.5c10.7,0.9,21.8-1.1,21.7-1.1c-1.2-2.5-5.1-2.5-5.1-2.5c0,0.6,0,1.1,0,1.7c-0.4-0.3-0.7-0.5-1.1-0.8
						c0,0.4,0,0.9-0.1,1.3c-0.3-0.2-0.5-0.4-0.8-0.6c-0.1,0.4-0.2,0.7-0.3,1.1c-0.3-0.2-0.5-0.4-0.8-0.6c-0.1,0.3-0.2,0.6-0.4,1
						c-0.3-0.2-0.6-0.5-0.9-0.7c0,0-0.8,0-0.8-0.1c-0.5-2.5-2.9-2.6-2.9-2.6c-2.8-0.4-5,0.2-7.5,0.3c3.7-4.6,8.7-4.2,13.6-4.7
						c0.3-2.1,2.1-2.6,4.3-2.9l9.9,0.5c1.3-1.7,5.2-2.4,5.2-2.4c1.4-0.7,2.9-0.4,4.2-2.1c-0.3,2.3-0.3,2.8-0.5,4.2
						c0.4,0,0.9,0.1,1.3,0.2c-1.1,0.7-2.7,1.8-3.8,2.5c-1.3,1.9-1,2-0.5,3c0.4,0.7,0.8,1.4,1.2,2c2,0.6,3.4,1.4,3.9,2.7
						c-2.1-0.3-3.7,0.1-3.6,1.1c0,0.7,1.7,1,2.3,1.4c1.2,1.1,1.6,2.2,1.7,3.6c-1.6-0.1-3.6-2.4-4.7-0.3c-0.5,1.1,0.1,2.5,1.4,3
						c2.5,0.7,2.7,4.1,2.7,4.1c-0.1,0-5.5-3.6-5.2-0.2c-0.1,1.5,0.6,1.8,1.2,2.3c1.6,0.6,3,1.3,2.8,3c-2.3-0.8-3.5-0.2-3.7,1.2
						c0.3,0.9,0.6,1.8,0.9,2.6c3.2-0.7,6.4-1.3,9.5-1.9c1.4-1.3,2-3.4,1.9-5.6c0.2-3.4-1-6.3,3.2-10.1c9-7.5,18.1-13.3,28.2-18.9
						c-2.1,3.4-3.5,9.8,1.9,10.3c1.7,0,20.7-8,20.7-8c-6.6,4.8-14.2,11.6-5.4,14.5c-8.1,2.5-14.8,10.7-8.9,17.3
						c-4.2-1.2-9.7,1.5-10.7,4.6c4.8,0,9.1-0.3,13.7,1.3c0,0,12.7,2.5,13.5-3.1c-6.8,1.5-11.8,0.8-12-5.3c0.1-5.3,7.9-8.2,14.6-4.3
						c0.7-1.4,1.4-2.8,2-4.3c-2.5,0.3-4.7,0.7-7.2,0.1C212.7,54.6,217.5,49.8,221.9,44.4z"/>
					<path class="st8" d="M209.4,68.5c0.1,2.2-6.5,2.7-6.9,0.3C202.4,67.5,205.8,65.4,209.4,68.5z"/>
					<path class="st9" d="M219.2,53.5c0,0-0.4,5-1,6.1"/>
					<path class="st9" d="M216.8,53.7l-2.1,5.7"/>
					<path class="st9" d="M212.7,63.7c0.4,0.3,2.1,1.2,3.1,3.2"/>
					<path class="st9" d="M209.5,68.5c0,0,2,3.8,0.6,4.8"/>
					<path class="st9" d="M187.3,78.2c3-0.4,7.3,6.3,9.5,7.6"/>
					<path class="st9" d="M209.5,114.6c0,0-1.2,0.9-0.6,2.1"/>
					<path class="st9" d="M188.5,115.7c0,0,1.5,0.4,1.3,1.7"/>
					<path class="st9" d="M185.5,111.3c0,0,1.1,1.1,0.4,2.1"/>
					<path class="st9" d="M187.2,107c0,0,1.4,0.7-0.3,1.9"/>
					<path class="st9" d="M169.2,114.5c0,0-1.3,1.1-0.3,2.2"/>
					<path class="st9" d="M147.9,114.8c0,0,2.3,0.1,1.5,1.8"/>
					<path class="st9" d="M146.2,111c0,0,0.8,1.4-0.7,1.8"/>
					<path class="st9" d="M149.1,106.3c0,0,0.7,1.5-0.7,1.7"/>
					<path class="st9" d="M147.4,114.5c0,0,2.2-1.9,3.2-0.9s5.4-0.9,5.4-0.9"/>
					<line class="st9" x1="157.5" y1="109.9" x2="153.9" y2="111.8"/>
					<path class="st9" d="M162.6,108.9c0,0,2.6,2.9,4.6-0.6"/>
					<path class="st9" d="M165.2,107.1c1.8,1.4,1.1,2.3,6.7-1.5"/>
					<path class="st9" d="M166.9,104.7c0,0,4.8,0.5,5,0.9c0.6-0.6,4.9-4.1-0.4-4.6C170.6,104.6,167,104.8,166.9,104.7z"/>
					<path class="st9" d="M109.6,115.5c0,0,1.8,0.3,0.7,1.7"/>
					<path class="st9" d="M108.8,112.1c0,0,1.3,0.8-0.2,1.9"/>
					<path class="st9" d="M110.8,108.5c0,0,0.6,1.6-1.4,1.4"/>
					<path class="st9" d="M109.5,114.3c0,0,2.5-2,3.8-0.8c1.3,0.4,1.9,0.4,1.9,0.4"/>
					<path class="st9" d="M131.7,114.2c0,0-0.7,1.5-0.1,2.2"/>
					<path class="st9" d="M109.7,111c1.6-0.1,1.9,0.6,3.3,0.6c1.6,0,3.2-0.6,5.3-1.2"/>
					<path class="st9" d="M99.2,64.2c0,0,1,0.5,2-1"/>
					<path class="st9" d="M98.6,82.9c0,0,1.6,0.5,1.3,1.7"/>
					<path class="st9" d="M104.8,61.5c0,0,0,1,2-0.5"/>
					<path class="st9" d="M106.9,66c0,0-1.5,4.1,0.3,5"/>
					<path class="st9" d="M108.7,64.8c0,0,0.8,1.7,1.9,0.7"/>
					<polyline class="st9" points="107.1,54.1 105.8,52.1 107,51.7 					"/>
					<path class="st9" d="M119.6,43.8c0,0,1.2,1.5,1.3,2.4c0,0.9-0.9,1.5-0.9,1.5"/>
					<path class="st9" d="M118.7,45.7c0,0-0.3,0.9-0.4,1.5c0,0.4-1.4,1-1.4,1"/>
					<path class="st9" d="M135.3,41.2c0,0-0.2,1.2-0.8,1.9"/>
					<path class="st9" d="M123.5,44.4c0,0,2.5-0.7,3-0.1c1.3,0.1,3.6,0.6,3.6,0.6s2.2-0.3,3-0.8"/>
					<path class="st9" d="M124.8,44.2c-0.3,1,2.1,3.9,4.2,0.4"/>
					<path class="st8" d="M125.6,44.1l2.3,0.4C127.9,44.5,126.3,46.7,125.6,44.1z"/>
					<path class="st9" d="M128.7,50.6l3.1,5.9l1.5-2.2l0.8,1.5l1.3-2.2l2.2,1.4l-0.8-2.7l1.8-0.1c0,0-0.5-1.3-2.1-1.6
						c0.4-0.3,1.9-1.3,1.9-1.3s-0.8-1-2.2-1c0.4-0.5,1-1.6,1-1.6l-1.4-0.3c0,0,3.1,1,5.5-0.4"/>
					<path class="st9" d="M118.7,54.7l4.7-0.1c1.5,0,4-2.1,6.7-1.5"/>
					<path class="st9" d="M119.4,54.6l0.3-0.9l0.3,0.8l0.4,0.1l0.9-0.8l0.3,0.8h0.4l0.5-1l0.5,1l0.9-1.6l1,1.2l0.3-1.4l0.9,0.9
						l0.4-1.2l0.9,0.8l0.4-1l0.5,1"/>
					<path class="st9" d="M139.1,45.2c0,0-2.4-0.1-2.3-1.1c0.2-1.1,2.6-1.8,2.6-1.8s3.2-2,3.6-2.7"/>
					<path class="st9" d="M139.7,41.1c0,0,0.8-0.8,2.1-0.4"/>
					<path class="st9" d="M120.3,85.1c0,0-0.3,1.5,1.8,4.5c-0.6,3.4,2.6,6,3.8,6.5"/>
					<path class="st9" d="M109.5,79c-2.4,1.3,1.3,9.8,12.7,10.6"/>
					<path class="st9" d="M118.5,85.5c0,0,0.8,2.5,0.1,3.7"/>
					<path class="st9" d="M115.3,84.6c0,0-0.9,1.8-1.2,2.7"/>
					<path class="st9" d="M111.9,82.3c0,0-0.7,1.5-1.6,1.9"/>
					<path class="st9" d="M151.9,71c0,0,3-0.1,6.1-8.3c3-11.2,26.7-23.8,27.1-26.1"/>
					<path class="st9" d="M160.6,57.7c4.5-2.5,18.2-7.5,27.3-11.2"/>
					<path class="st9" d="M206.7,39.2c0,0-42.1,19.6-42.7,20.7c7.1-2.2,37.2-7.2,38-6.7c-1.8,0.4-38.3,8.8-40,10.8
						c9.1-0.3,28.2,2.9,31.2,6c-6.5-1.4-25.9-4.3-31.8-3c4.4,1,21,11.8,21,13.5c-2.5-2.4-22.5-10.6-23.3-9.9
						c4.6,2.8,11.1,13,11.1,15.5c-1.4-2.1-12.9-14.6-13.6-13.8c1.2,1.7,3.6,16.4,2.4,17.1c0-1.8-4.5-14.6-4.9-15
						c-0.9,0.2-6.6,15.7-5.5,17.1c-0.7-5.1,0.1-15.9,1.5-15.5c-2.5,0.4-10.5,10.9-9.7,12.6c0.2-2.6,0.6-4.4,5.1-13.1
						c-5,0.3-15.4,6.9-17.2,9.2c1.4-4.2,10.2-11.2,14.1-11.7"/>
					<line class="st9" x1="128.4" y1="54.8" x2="130.9" y2="54.8"/>
					<path class="st9" d="M118.4,50.2c0,0,1.7,0.6,5.2-2.1"/>
					<path class="st9" d="M129.8,82.2c-1-1.3,0.8-21.2,4.5-26.4c-1.3,9.4,3,19,4.1,19"/>
					<path class="st9" d="M129.2,56.7c0,0,1.8,1.9,3.8,1.6"/>
					<path class="st9" d="M127.2,61.1c0,0,0.9,1.5,4.2,1.8"/>
					<path class="st9" d="M125.3,65.1c0,0,2.3,2.8,5.3,2.4"/>
					<path class="st9" d="M123.2,69.9c0,0,0.6,2,6.7,2.2"/>
					<path class="st9" d="M121.5,75.6c0,0,2.8,2.5,8.1,1.7"/>
					<path class="st9" d="M121.8,82.9c0,0,3.6,2,8-0.7"/>
					<path class="st9" d="M182.7,75c0,0-2.5,2.1-0.2,5.6c-7.8-0.1-12,3.5-12.3,5.9c-9.9-0.7-8.1,2.2-11.3,3.2
						c-4.3-3.6-10.6-1.6-10.2,2c-2.9-4.1-7.3-2.1-7.9-1.1c-0.5,1-0.3-5-0.3-5s-2.9,1.3-4.9,3.7c0-1.6,0-4.2,0-5
						c-2.4,0.5-4.8,0.5-7.2,0.5"/>
					<path class="st9" d="M130.5,84.8c0,0-4.2,6.5,2.3,8.2"/>
					<path class="st9" d="M140.4,88.6c0,0-1.1,0.5-1.4,0.4c-1.3,0.3-1,3.2,0.6,3.1c0.6-0.6,1.1-1.5,1.1-1.5"/>
					<path class="st9" d="M138.1,90.4c0,0-0.5,0.6-1.2,0c-0.4-0.7-1.7,3,0.6,3.1c0.4-1.1,1.7-1.4,1.7-1.4"/>
					<path class="st9" d="M136.2,91.7c-1.8-0.1-2.9,3.9,0.7,1.4"/>
					<path class="st9" d="M134.9,92.3c0,0-2.1-1.6-2,0.6c0,1.4,0.6,1.7,0.6,1.7c0.1,1,1,2.4,1.7,1.1c0.3-1.3-0.2-1.8-0.2-1.8"/>
					<path class="st9" d="M124.1,106.4c0,0,0.3,2.8,2.3,0.7c1.3-2.8,5.6-10.7,6.5-13.4"/>
					<path class="st9" d="M130,91.4c0,0-3,0.8-1.8,4.4c1.7,1.4,3.4,1.2,3.4,1.2"/>
					<path class="st9" d="M127.8,98.5c0,0,2,0.9,2.7,0.6"/>
					<path class="st9" d="M126.3,102c0,0,0.9,1.6,2.2,1"/>
					<path class="st9" d="M142.2,89.6c0,0,0.3,4.2-1,5.7s0.3,4.6,0.3,4.6"/>
					<path class="st9" d="M145.4,89.4c0,0.1,0.8,6.7-0.9,8.6"/>
					<path class="st9" d="M151.8,88c0,0,2.5,4.8,0,7.1"/>
					<path class="st9" d="M158.9,89.5c0,0-1.4,4.2-3.4,5.7"/>
					<path class="st9" d="M165.9,89.7c0,0-6.6,11.3,5.6,11.3"/>
					<path class="st9" d="M156.9,93.7c0,0,6.8,0,7.2,1.3"/>
					<path class="st9" d="M159.1,100.7c0.1-0.1,4.9-0.5,5.7-2.3"/>
					<path class="st9" d="M164.8,103.3c0,0,2.9-1.7,2.4-2.9"/>
					<path class="st9" d="M164.6,86.4c0.3,4.4-5.1,6.9-7.2,6.5"/>
					<path class="st9" d="M164.2,89.1c0,0,3.8,1.8,7-1.1"/>
					<path class="st9" d="M170.3,86.5c0,0,1.4,2.6,3.1,2.4c2.3-0.7,3.1,0.7,3.1,0.7"/>
					<path class="st9" d="M179.8,80.7c0,0-0.2,6.4,8.8,7.7c10,2.8,14.7,1.3,15.3,12.5c-0.4,4.3-0.9,9.1-4,7.2"/>
					<path class="st9" d="M201,104.9c0,0,1.5,1.2,2.5-0.4"/>
					<path class="st9" d="M201.2,101.6c0,0,1.8,0.3,2.7-1.4"/>
					<path class="st9" d="M200.7,97.3c0,0,2,0.5,2.6-0.8"/>
					<path class="st9" d="M200.8,92.1c0,0-1.5,2.9-2,3.2"/>
					<path class="st9" d="M196.9,90.2c0,0,0.1,3.1-1.2,4.4"/>
					<path class="st9" d="M192.7,89.5c0,0-0.1,2.6-2.2,4.4"/>
					<path class="st9" d="M184.8,93.1c0,0,3.4-3.8,2.6-4.9"/>
					<path class="st9" d="M183.6,86.7c0,0-0.4,3.6-4,4.1"/>
					<path class="st9" d="M129.5,79.7c0,0,6.9-4.2,7.3-7.2"/>
					<path class="st9" d="M129.7,76.1c0,0,4.3-1.1,6.1-5.9"/>
					<path class="st9" d="M129.9,73.4c0.4,0.2,5.1-3.3,5.2-5.8"/>
					<path class="st9" d="M130.1,70.4c1.4-0.4,3.9-3.5,4.4-5.1"/>
					<path class="st9" d="M130.8,67c0,0,2-1.4,3.5-3.5"/>
					<path class="st9" d="M131.5,63.1c0,1.1,1.8-0.4,2.5-1.4"/>
					<line class="st9" x1="135.4" y1="75.1" x2="136.3" y2="76.2"/>
					<line class="st9" x1="133.7" y1="76.8" x2="134.2" y2="77.6"/>
					<path class="st9" d="M131.7,78.4l0.7,1"/>
					<path class="st9" d="M130.6,79c0,0,0,1.4,0.7,1.4"/>
					<path class="st9" d="M130.9,75.6c0,0,0.8,2.6,1.4,2.1"/>
					<path class="st9" d="M132.8,74.4c0,0.1,0.8,2.4,0.8,2.4"/>
					<line class="st9" x1="134.5" y1="72.9" x2="135.5" y2="74.9"/>
					<path class="st9" d="M133.3,70.9c0,0,1.1,1.6,1.4,1.4"/>
					<path class="st9" d="M131.8,72.3c0,0,0.6,2.3,1.1,2.1"/>
					<line class="st9" x1="129.8" y1="74.1" x2="130.9" y2="75.7"/>
					<path class="st9" d="M131.4,69.6c0,0,0.4,2.4,0.7,2.3"/>
					<path class="st9" d="M132.8,68.2c0,0.1,1.1,2.1,1.1,2.1"/>
					<path class="st9" d="M130.6,67.9l1.2,1.3"/>
					<path class="st9" d="M132.3,65.9l1,1.6"/>
					<path class="st9" d="M132.8,63.1c0,0,0,1.8,0.4,1.8"/>
					<line class="st9" x1="131.9" y1="61.7" x2="132.8" y2="63.1"/>
				</g>
			</g>
		</g>
		<g>
			<path class="st10" d="M180.5,50.4c0,0,9.1,76.1-49,88.5c-58-12.4-49-88.5-49-88.5S115.4,19.8,171,9C171,9,178.4,26.8,180.5,50.4z
				"/>
		</g>
	</g>
	<g>
		<path class="st11" d="M280.3,25.8c-15-2.6-25.5,6.2-30.1,13c-2.7,3.9-0.7,19.7-0.7,19.7s-7.2-5.3-4.2,12c2.8,16.5,6.1,7.3,6.1,7.3
			s0.9,7.6-0.7,6.9c-5.7-2.6-0.8,5.2-4.7,14.5c-1.5,3.6,0.6,6.3-6.9,12c-3.6,2.7-13.7,0.7-17.7,8c-0.3,0.5-0.3,16.2-0.3,16.2
			l105.8-0.2c0,0-1.2-8-19.3-16.3c-1.4-0.7,1.4-3.5-1.7-4.5c-9.3-3-2.6-3.1,0-7.6c1.6-2.8-13.9-9.7-13.9-9.7s4.9-13.7,6.1-14
			c4.6-1,6.4-19.3,6.4-19.3s-1.1,0.4-2.6,0.3c-1.1-0.1,2.6-19.3,1.3-23.7C300.8,32,287,26.9,280.3,25.8z"/>
		<path class="st12" d="M256.3,95c-0.5-1.2-1.4-2-2.2-3c-1-1.3-1.2-2.9-2-4.3c-0.3-0.2,0-0.6-0.2-0.8c-0.1-0.8-0.3-1.5-0.6-2.3
			c-0.2-0.3-0.2-0.6-0.2-0.9c-0.2-1-0.3-1.9-0.5-2.9c-0.6,0.1-1,0.8-1.7,0.3c-0.5-0.4-0.8-0.9-1.1-1.5c-1.2-2-2.2-4-2.8-6.3
			c-0.7-2.8-0.7-5.5-0.6-8.3c0.1-1.9,0.3-3.7,0.7-5.6c0.4-2.1,1.6-2.9,3.6-2.3c0.1,0,0.2,0.1,0.3,0.1c0.2,0.1,0.3,0.3,0.4,0.5
			c0.2,0.2,0.5,0.2,0.6,0.5c0.1,0.2,0.5,0.3,0.5,0.6c0.2,0.2,0.3,0.4,0.5,0c0.4-0.8,0.7-1.6,1.5-2.1c0.1,0.1,0.1,0.2,0.1,0.4
			c-0.1,0.4-0.4,0.6-0.6,0.8c-0.4,0.9-1,1.8-1.3,2.9c-0.3-1.3-1.4-1.5-2.1-2.1c-1.3-1-2.2-0.6-2.7,1c-0.9,2.6-1,5.3-0.8,8
			c0.2,2.6,0.6,5.2,1.7,7.6c0.7,1.6,1.8,2.9,2.6,4.3c0.3,0.6,0.6,0.1,0.8-0.2c0.4-0.7,0.8-1.3,1.3-1.8c0.2,0.9-0.1,1.7,0.2,2.6
			c0.7,3.3,1.2,6.8,2.9,9.8c1.4,2.4,2.9,4.9,5.4,6.5c0.9,0.6,1.9,1.2,2.9,1.3c1.2,0.2,1.8,1.1,2.4,1.9c0.6,0.7,1.2,1.2,2.1,1.3
			c2.3,0.3,4.6,0.7,6.9,1c1.4,0.2,2.8,0.1,4.2-0.3c2.2-0.7,4.5-1.1,6.8-1.1c2.4,0,4.2-1.3,5.5-3.1c1-1.4,2-2.8,2.7-4.5
			c1-2.4,1.7-4.8,2.5-7.2c0.8-2.5,1.4-5.1,2.2-7.6c0.1-0.3,0.1-0.6,0.6-0.4c0.1,0.1,0.2,0.3,0.2,0.4c0.1,0.6-0.3,1.1-0.4,1.7
			c-0.2,1-0.1,2.1-0.6,3c-0.2,0.3-0.1,0.7-0.4,1c-0.6,2.3-1.2,4.5-1.9,6.7c-0.6,1.8-1.4,3.4-2.2,5c-0.1,0.2-0.5,0.5,0,0.7
			c1.4,0.7,2.5,1.8,3.7,2.7c2.9,2.2,6.2,3.7,9.3,5.7c0.4,0.2,0.8,0.5,1,1c0.2,0.4,0.1,0.8-0.3,1.1c-1.7,1.4-3.3,2.9-4.8,4.7
			c1.9,0.7,3.5,1.8,4.6,3.5c0.6,0.9,1,1.9,1.2,3c0,0.4,0.1,0.8,0.6,0.8c2.4,0.3,4.2,1.8,6.1,2.9c1.7,0.9,3.4,1.8,4.9,3.1
			c1.6,1.4,2.9,2.9,4,4.7c1,1.7,2.4,3.1,3.1,5c0.1,0.2,0.3,0.5,0,0.6c-0.3,0.1-0.7,0.2-0.8-0.2c-0.5-2.1-2.3-3.3-3.4-4.9
			c-1.6-2.1-3.2-4.1-5.4-5.5c-1.6-1-3.3-1.9-4.9-2.9c-1.3-0.8-2.6-1.7-4.2-1.9c-0.9-0.1-1-0.9-1-1.6c-0.1-1.6-0.7-2.9-2-3.8
			c-0.6-0.6-1.4-1-2-1.6c-0.7-0.6-1.2-0.4-1.9,0.2c-1.5,1.5-3.1,2.7-4.8,4c-2.6,1.8-4.6,4.2-6.2,6.9c-0.3,0-0.3-0.2-0.2-0.4
			c1.5-3.2,3.6-5.8,6.5-7.9c2.1-1.6,4.2-3.2,5.8-5.3c1-1.3,2.3-2.5,3.6-3.5c0.7-0.5,0.6-1-0.1-1.3c-1.8-0.8-3.3-2-5-2.9
			c-2.3-1.2-4.3-2.9-6.4-4.6c-0.1-0.1-0.2-0.2-0.3-0.2c-1.2-1.2-1.9-0.7-2.2,0.9c-0.6,2.4-0.4,4.8-0.6,7.3c-0.2,2.4-0.1,4.8-0.8,7.1
			c-0.6,2.1-1.2,4.1-1.8,6.2c-0.2,0-0.3,0-0.2-0.2c0.8-3.9,1.1-7.9,1.5-11.9c0.1-1.8,0.5-3.6,0.5-5.5c0-0.6,0.2-1.2,0.3-1.9
			c-0.7,0.2-1,0.8-1.7,1.1c-1.8,0.7-3.6,0.8-5.5,1.1c-1.5,0.2-2.9,0.5-4.4,0.9c-2,0.6-3.9,0.8-6,0.3c-1.9-0.4-3.8-0.6-5.7-0.9
			c-0.8-0.1-1.6-0.2-2-1c-1-1.7-2.8-2.2-4.5-2.8c-1.4-0.5-2.4-1.6-3.6-2.4c-0.1-0.1-0.2-0.2-0.3-0.1c-0.1,0.1-0.2,0.2-0.1,0.3
			c0,0.2,0,0.3,0,0.5c0.2,0.4,0,0.8,0.2,1.2c0.1,1.4,0.8,2.6,1.2,3.9c0.6,2,1.8,3.7,3.2,5.3c0.7,0.9,1.8,1.5,2.7,2.2
			c3,1.9,5.2,4.4,7,7.5c0.4,0.7,0.9,1.3,1.2,2.1c0.1,0.2,0.1,0.4-0.2,0.3c-1.1-1.2-2.1-2.6-3-3.9c-0.1-0.3-0.4-0.5-0.6-0.8
			c-2-2.6-4.8-4.2-7.2-6.2c-2.1-1.7-3.3-3.9-3.9-6.6c-0.2-1.1-0.6-2.2-0.9-3.3c-0.1-0.3-0.2-0.7-0.2-1
			C256.1,96.5,256.6,95.7,256.3,95z"/>
		<path class="st12" d="M250.7,84.6c-2-0.4-2.7,0.3-2.6,2.3c0.2,2.8,0.1,5.6-0.3,8.4c-0.2,1.2-0.6,2.3-1.1,3.4
			c-0.6,1.1-1,2.3-1.4,3.5c-0.1,0.6-0.1,1.3-0.3,1.9c0,0.2,0,0.3,0,0.5c0,0.2,0,0.4,0.1,0.6c0,0.1,0,0.2,0,0.2
			c0,0.1-0.1,0.2-0.2,0.3c-0.2,0.2,0,0.6-0.5,0.6c0,0-0.1-0.1-0.1-0.1c-1,1.3-2.4,2.3-3.1,3.8c-0.1,0.2-0.1,0.5-0.1,0.7
			c-0.1,0.4-0.2,0.8-0.6,0.7c-0.9-0.2-0.9,0.4-1,1c-0.2,0.9-0.6,1.1-1.4,0.5c-0.9-0.7-1.8-0.8-2.7-0.3c-1.7,1-3.5,1.1-5.4,1.1
			c-2.1,0-3.6,1-5.1,2.3c-1.2,1-2.4,2.1-3.6,3.2c-0.2-0.8-0.1-1.2,0.4-1.7c1.5-1.5,3-3,4.9-3.9c1-0.5,2.1-0.7,3.3-0.7
			c1.7,0,3.3-0.1,4.8-0.9c0.9-0.5,2-0.3,2.9,0c0.6,0.2,0.8,0,0.8-0.5c0-0.3,0.1-0.6,0.2-0.9c0.1-0.3,0.1-0.6,0.4-0.7
			c2.1-0.9,3-3.1,4.8-4.3c0.3-0.2,0.2-0.5,0.2-0.8c-0.1-1.9,0.3-3.7,1-5.5c1.3-2.9,1.7-6,1.8-9.2c0-1.3,0.1-2.5,0-3.8
			c-0.1-1.4,1.5-2.7,2.9-2.5c0.3,0,0.6,0,0.9,0C251.3,84.1,251.2,84.4,250.7,84.6z"/>
		<path class="st13" d="M297.6,84c0-0.4,0.1-0.7,0.4-1c0,0.3,0.2,0.4,0.5,0.2c0.4-0.2,0.8-0.5,1-0.9c0.6-1.3,1.3-2.6,1.7-4
			c0.4-1.4,0.9-2.8,1.2-4.3c0.3-1.3,0.4-2.6,0.4-3.9c0-1.6,0.3-3.1,0.7-4.7c0.1-0.3,0.1-0.6,0.2-0.9c0.1-0.4-0.1-0.5-0.4-0.4
			c-1.8,0.2-1.8,0.2-1.7-1.5c0-0.5,0.1-1,0.1-1.5c0.3-0.5,0-1.1,0.2-1.6c0-0.1,0-0.1,0.1-0.1c0.5-0.4,0.2-0.9,0.2-1.4
			c0.1-0.4-0.1-0.7,0.1-1.1c0-0.3-0.1-0.5,0.1-0.8c0.4,0,0.3,0.3,0.3,0.5c0,0.8,0,1.7,0,2.5c0,0.3-0.1,0.5-0.2,0.8
			c0,0.2,0,0.3,0,0.5c-0.1,0.9,0,1.8-0.3,2.6c0.2,0.5,0.5,0.2,0.9,0.1c1-0.4,1.6,0.1,1.4,1.1c-0.4,2.1-0.6,4.2-0.6,6.4
			c0,1.9-0.5,3.7-1.1,5.5c-0.3,0.8-0.6,1.6-0.7,2.4c-0.2,1.6-1.1,2.8-1.8,4.2C299.7,83.9,298.8,84.2,297.6,84z"/>
		<path class="st12" d="M252.3,102.7c-0.8,0-1.2-0.6-1.6-1.2c-0.7-1.3-0.9-2.7-0.8-4.2c0.1-2.2,0.3-4.3,0.7-6.4c0.2-1.1,0.6-2,1-3
			c0.5,0.2,0.2,0.5,0.2,0.8c-0.5,3.2-0.7,6.4-0.8,9.6c0,1,0.3,1.8,0.6,2.7c0.2,0.6,0.7,1.1,1.4,1.2c0.4,0.2,0.4,0.2,1.1,0
			c2,0.2,3.4,1.4,4,3.2c0.6,1.8,1.5,3.3,2.7,4.8c0.1,0.1,0.1,0.2,0.1,0.4c-1.6-0.4-2.4-1.4-3-2.7c-0.3-0.6-0.5-1.2-0.6-1.9
			c-0.3-1.6-2.1-3-3.7-3c-0.3,0-0.7,0.1-1-0.1c0.4-0.2,0.8-0.1,1.2-0.1C253.2,102.7,252.7,102.5,252.3,102.7z"/>
		<path class="st13" d="M248.5,63.9c-0.2-0.6,0.3-1.3-0.3-1.8c-0.2-0.2-0.3-0.5-0.6-0.4c-0.3,0-0.3,0.4-0.3,0.6
			c-0.3,1.4-0.6,2.8-0.9,4.2c-0.6-0.2-0.1-0.8-0.3-1.1c-0.2-1.4-0.1-2.8,0.3-4.2c0.3-1,1.1-1.4,1.9-0.8c1.5,1.2,2.7,2.6,2.8,4.6
			c0.1,1.5-0.1,2.9-0.1,4.4c-0.1,1-0.1,2.1,0.6,2.9c0.1,0.2,0.3,0.4,0.1,0.6c-0.2,0.2-0.5,0.1-0.7-0.1c-0.8-0.8-1-1.8-0.9-2.8
			c0.2-1.5,0.2-2.9,0.3-4.4c0-0.4-0.1-0.7-0.4-1.1c-0.4-0.4-0.6-0.8-1-1.3c-0.4,0.5,0,1.2-0.3,1.7C248.5,64.8,248.8,64.3,248.5,63.9
			z"/>
		<path class="st13" d="M283.7,63.6c-0.2-0.5,0.2-0.3,0.4-0.3c1.4-0.3,2.5,0.4,3.6,1.1c1.3,0.8,2.5,1.7,3.8,2.5
			c0.2,0.1,0.4,0.3,0.5,0.5c0.2,0.2,0.3,0.4,0.1,0.7c-0.2,0.3-0.5,0.2-0.7,0c-1.1-0.6-2.1-1.2-3.1-2c-0.1,1-0.6,1.7-1.6,1.9
			c-0.6,0-1.1,0.1-1.6-0.3c-0.4-0.3-0.6-0.7-0.8-1.1c-0.2-0.5,0-1.1-0.1-1.6c0-0.2,0-0.4,0.1-0.6C284.1,64,283.8,63.9,283.7,63.6z"
			/>
		<path class="st14" d="M281.2,77.9c-1.4,1.1-3.2,0.8-4.7,1.4c-1.4,0.5-2.8,0.1-4-0.9c-0.5-0.4-1-0.7-1.6-0.6
			c-1.3,0.1-1.7-0.3-2-1.6c-0.8,0.8-1.5,1.6-2.3,2.4c-0.2,0-0.3,0-0.2-0.2c1.2-1.4,2.4-2.9,3.5-4.3c0.1-0.1,0.2-0.2,0.4,0
			c-0.3,0.6-0.8,1.2-0.8,2c0,0.9,0.3,1.3,1.2,1.1c1.1-0.2,1.8,0.2,2.6,0.8c1.1,0.8,2.3,0.9,3.5,0.4c0.6-0.2,1-0.7,1.8-0.3
			c0.5,0.2,1.2-0.4,1.7-0.8c0.3-0.2,0.6-0.4,0.9-0.5c0.1-0.1,0.1-0.1,0.2,0c0.1,0.1,0.1,0.1,0.1,0.2c0,0.2,0,0.4,0,0.6
			C281.5,77.7,281.4,77.8,281.2,77.9z"/>
		<path class="st15" d="M252.7,35.5c-0.2-0.5-0.3-0.9,0.5-0.9c0.2,0,0.4-0.1,0.6-0.3c1.2-1.8,3.1-2.6,4.9-3.6
			c0.3-0.2,0.5-0.4,0.7-0.6c0.3-0.4,0.7-0.8,1.2-1c0.1,0,0.2-0.1,0.2-0.1c0.7-1.9,2.8-1.6,4.1-2.6c0.2-0.2,0.5-0.4,0.7-0.1
			c0.2,0.3-0.1,0.5-0.2,0.7c-0.5,0.7-1.1,1.1-1.9,1.1c-0.4,0-0.7,0.2-1,0.5c-1.4,1.3-2.8,2.4-4.4,3.4c-1.1,0.7-2.7,1.1-3.3,2.6
			c-0.2,0.6-0.9,0.7-1.5,0.6C252.9,35.2,253,35.7,252.7,35.5z"/>
		<path class="st13" d="M245,105.3c0,0,0-0.1,0-0.1c0-0.2,0-0.4,0-0.7c0-0.2,0-0.4,0-0.5c0-0.2,0.1-0.4,0.3-0.3
			c0.6,2.8,1.7,5.5,2.8,8.2c1.1,2.9,2.5,5.6,4.6,7.9c0.1,0.1,0.2,0.2,0,0.4c-1.2-0.4-1.9-1.4-2.5-2.3c-2.3-3.2-3.6-6.8-4.6-10.6
			c-0.1-0.3-0.2-0.6-0.3-1C245,106,245,105.6,245,105.3z"/>
		<path class="st16" d="M285.9,27.1c-0.3,0.3-0.7,0.3-1.1,0.2c-0.5-0.3-0.3-0.7-0.2-1.1c0.1-0.1,0.4-0.5,0.4-0.3
			c0.3,0.9,0.6,0.3,0.9,0.1c0.9-0.5,1.5-0.1,1.6,1.3c0.2-0.1,0.5-0.3,0.7-0.4c0.6-0.4,1.1-0.3,1.3,0.4c0.1,0.5,0.4,0.6,0.8,0.4
			c0.4-0.2,0.9-0.1,1.2,0.2c0.5,0.6,1.2,0.7,1.8,0.8c1,0.2,1.4,0.7,1.5,1.6c0,0.7,0.2,0.9,0.9,0.6c0.3-0.1,0.8-0.4,1,0.1
			c0.2,0.6-0.4,0.7-0.7,0.9c-1.2,0.5-1.9-0.1-2-1.6c-0.3-0.8-1.1-0.8-1.7-1.1c-0.8-0.4-1.5-1-2.6-0.7c-0.6,0.2-0.9-0.4-0.9-1.1
			c-0.7,0.3-1.2,1.2-2,0.5c-0.1-0.1-0.1-0.3-0.1-0.4C286.7,26.8,286.4,26.7,285.9,27.1z"/>
		<path class="st15" d="M244.4,108.9c0.9,4.5,2.5,8.7,4.5,12.9c-0.7-0.2-1.1-0.6-1.6-1.4c-1.3-2.1-1.9-4.5-2.6-6.8
			c-0.3-1-0.5-1.9-0.5-2.9C244.2,110,243.9,109.4,244.4,108.9z"/>
		<path class="st15" d="M268.4,63.8c-0.5-0.1-0.8,0-0.8,0.6c0,0.9-0.9,1.7-1.8,1.8c-0.8,0.1-1.3-0.4-1.6-1.4c-0.1-0.3-0.1-0.5-0.1-1
			c-0.5,0.7-1.8,0.3-1.8,1.5l0,0c-0.4-0.2-0.5,0.2-0.7,0.4c-0.1,0.1-0.3,0.2-0.4,0.1c-0.2-0.2-0.1-0.3,0-0.5
			c0.4-0.6,0.8-1.1,1.5-1.4c2.1-1,4.2-0.9,6.4-0.2C269,64.1,268.7,63.8,268.4,63.8z"/>
		<path class="st17" d="M268.1,85c0.5-0.1,1.2,0,1.5-0.7c0,0,0.1,0,0.1,0c0.5,0,0.9,0,1.4-0.2c1.2-0.1,2.3-0.1,3.4,0.1
			c1.6,0.3,3.2,0,4.8,0.2c0.6,0.1,1.1,0.3,1.3,0.9c0.6,0.2,1.1,0.4,1.7,0.4c0.2,0,0.5,0.1,0.5-0.2c0-0.2-0.1-0.4,0.2-0.5
			c0.3,0,0.3,0.2,0.4,0.4c0.5,0.8,0.7,1.8,0.6,2.7c0,0.4-0.2,0.6-0.6,0.3c-0.2-0.6,0-1.2-0.1-1.8c-1.7-0.4-3.1-1.7-4.9-1.6
			c-1.5,0.1-2.9-0.1-4.4-0.2c-1.5-0.2-3-0.2-4.4,0.1C269.1,85.2,268.5,85.5,268.1,85z"/>
		<path class="st18" d="M298.7,78.2c0-0.1,0-0.3,0-0.4c0.7-1.3,1.3-2.7,1.4-4.2c0.1-1.3,0.5-2.5,0.5-3.9c0-0.6,0.5-0.9,0.7-1.4
			c0.2,0,0.3,0,0.2,0.2c-1,1.7-0.5,3.5-0.7,5.3c-0.2,1.2-0.5,2.4-1.1,3.5c-0.3,0.6-0.4,1.3-0.7,1.9c-0.2-0.2-0.2-0.4-0.2-0.7
			C298.8,78.5,298.9,78.4,298.7,78.2z"/>
		<path class="st19" d="M279.5,84.9c-2.9,0.1-5.7-0.5-8.6-0.4c-0.2,0.1-0.4,0.1-0.6-0.1c0-0.5,0.5-0.4,0.7-0.7c0.1,0,0.3,0,0.4,0
			c0.3-0.2,0.6-0.4,0.9-0.5c0.1,0,0.2,0,0.3,0c1.7,0.5,3.3,0.8,5.1,0.5c0.8-0.1,1.6,0.2,2.3,0.9C279.9,84.9,279.7,84.9,279.5,84.9z"
			/>
		<path class="st18" d="M248.7,48c-0.8-0.1-0.9-0.5-0.4-1.1c0.2-0.2,0.4-0.4,0.6-0.6c0.2-0.2,0.3-0.5-0.1-0.6
			c-0.8-0.3-0.5-0.8-0.1-1.3c0.3-0.3,0.5-0.5,0.2-1c-0.3-0.6,0.2-1,0.5-1.4c0.5-0.5,0.6-0.9,0-1.3c-0.2-0.1-0.4-0.3-0.3-0.5
			c0.1-0.3,0.4-0.2,0.6-0.2c0.4,0.1,0.8,0.1,1.1,0.4c-0.5,0.8-0.6,1.8-1.4,2.4c-0.1,0.1-0.2,0.3,0,0.4c0.9,0.6,0.2,1-0.2,1.5
			c-0.3,0.3-0.6,0.5,0,0.7c0.7,0.3,0.6,0.8,0.2,1.3c-0.1,0.2-0.3,0.4-0.4,0.5c-0.7,0.5-0.2,0.6,0.2,0.8
			C249.2,48.3,248.9,48,248.7,48z"/>
		<path class="st20" d="M286.9,67.7c1-0.3,1.1-1.1,1-2.2c1.2,1,2.5,1.5,3.4,2.5c-0.1,0-0.3,0-0.4,0c-0.4-0.2-0.8,0.1-1.2,0.2
			c-0.6,0.2-1.1,0.4-1.8,0.4c-0.7,0-1.3,0-1.9-0.2l0,0c-0.2-0.2-0.4-0.2-0.6-0.5C285.9,67.6,286.5,68,286.9,67.7z"/>
		<path class="st16" d="M301.2,37c0.3-0.1,0.8-0.2,1.2-0.2c0.5,0,0.9,0.2,0.4,0.8c-0.4,0.4-0.3,0.6,0.2,0.8c0.4,0.2,0.8,0.5,1.2,0.8
			c0.2,0.2,0.2,0.5,0.1,0.7c-0.1,0.3-0.4,0.1-0.6,0.1c-0.9-0.3-1.8-0.8-2.2-1.8c-0.1-0.3-0.4-0.2-0.6-0.3c-0.3-0.1-0.7-0.2-0.7-0.6
			C300.4,36.8,300.8,37,301.2,37z"/>
		<path class="st21" d="M275.4,42.2c2.1-1.1,3.7-2.9,5.8-4C280.7,40,277.1,42.6,275.4,42.2z"/>
		<path class="st18" d="M273,40.5c1.9-1.4,3.6-3,5.6-4.4c0.1-0.1,0.2-0.1,0.4,0c-1.5,2-3.4,3.5-5.6,4.6
			C273.2,40.7,273,40.8,273,40.5z"/>
		<path class="st15" d="M279.9,84.7c-1.1-0.5-2.2-1-3.4-0.6c-1.4,0.4-2.5-0.3-3.7-0.6c-0.2,0-0.4-0.1-0.5,0c-0.1-0.1-0.1-0.2,0-0.3
			c0.5,0,1,0,1.6,0.1c1,0.4,2.1,0.4,3.1,0.2c1.7-0.3,3,0.6,4.5,1.3c-0.3,0.3-0.5,0.2-0.7,0.2C280.4,85.1,280.1,84.9,279.9,84.7z"/>
		<path class="st22" d="M278.4,88.8L278.4,88.8l-0.2,0c-0.8-0.2-1.7,0-2.5-0.2c-1.1-0.3-2.3-0.2-3.3-0.8c0.1-0.2,0.3-0.1,0.4-0.2
			c1.9,0.2,3.8,0.3,5.6,0.5c0.5,0.1,0.9-0.3,1.4-0.2c0.2,0,0.5-0.2,0.6,0.1c0.1,0.3-0.2,0.4-0.5,0.5c-0.1,0-0.3,0.1-0.4,0.2
			C279.2,88.9,278.8,88.9,278.4,88.8z"/>
		<path class="st18" d="M278.2,34.7c-2.1,1.5-4.1,3-6.1,4.4C272.2,37.8,276.1,34.9,278.2,34.7z"/>
		<path class="st23" d="M255.2,54c0,0.9-0.5,1.6-1,2.4c-0.8,1.3-1.6,2.6-2.3,4c-0.4-0.1-0.2-0.4-0.2-0.6c0.2-0.5,0.4-1.1,0.6-1.6
			c0.1-0.3,0.1-0.6,0.2-0.8c0.1-0.2,0.2-0.4,0.5-0.5c0.6-0.9,1.3-1.9,1.9-2.8C255,53.9,255.1,53.9,255.2,54z"/>
		<path class="st24" d="M281.3,42.5c1.7-1.1,3.1-2.7,4.7-4c0.2-0.2,0.4-0.4,0.9-0.5c-1.6,2-2.9,3.8-5.2,4.7
			C281.5,42.8,281.3,42.9,281.3,42.5z"/>
		<path class="st23" d="M271.9,24.7c0.5-0.1,0.7,0.2,0.9,0.5c0.3,0.4,0.6,0.5,0.8,0c0.3-0.5,0.7-0.6,1.1-0.2c0.3,0.3,0.6,0.2,1,0.2
			c0.2,0,0.4,0.1,0.4,0.3c0.1,0.3-0.1,0.5-0.3,0.5c-1-0.1-1.9,0.3-2.9,0.2c-0.2,0-0.3-0.3-0.5-0.4c-0.2-0.2-0.3-0.4-0.5-0.7
			C271.8,25,271.8,24.8,271.9,24.7z"/>
		<path class="st25" d="M284.6,59.4c-0.4,0-0.8,0-1.1,0c-0.1-0.2,0.1-0.3,0.2-0.3c0.4,0,0.7,0,1.1-0.1c0.4-0.1,0.8-0.1,1.2,0
			c1.6,0.5,3.4,0.1,4.8,1.1c0.4,0.3,0.4,0.3,0.2,0.6c-0.1,0-0.2,0.3-0.4,0.2c-0.5-0.5-1.1-0.9-1.9-0.9c-0.2,0.1-0.4,0.1-0.6,0
			c-0.8-0.2-1.5-0.4-2.3-0.6C285.5,59.3,285.1,59.3,284.6,59.4z"/>
		<path class="st24" d="M249.3,48.7c-0.1,0.2-0.6,0.5-0.1,0.7c0.9,0.3,0.6,0.9,0.2,1.3c-0.5,0.6-0.6,0.8,0.3,1.2
			c0.8,0.4-0.1,0.9-0.2,1.3c-0.2,0-0.3,0-0.2-0.2c0.2-0.5,0.4-0.8-0.4-1c-0.6-0.1-0.7-0.6-0.5-1.2c0.3-0.5,0.4-0.9,0-1.4
			c-0.1-0.6,0.3-0.9,0.7-1.2C249.4,48.3,249.4,48.4,249.3,48.7z"/>
		<path class="st24" d="M278.6,76.5c0.3-0.8,0.5-1.6,0.5-2.5c0-0.9-0.4-1.6-1-2.2c0.8,0.1,1.3,0.6,1.5,1.3c0.4,1.4,0.4,2.7-0.8,3.7
			C278.6,76.8,278.5,76.7,278.6,76.5z"/>
		<path class="st26" d="M298.7,47.2c0.1,1.2-0.1,2.4,0.2,3.6c0.1,0.2,0,0.2-0.2,0.2c-1.2-1.9-0.8-4-0.4-6c0.4,0.1,0.2,0.4,0.2,0.7
			C298.7,46.2,298.6,46.7,298.7,47.2z"/>
		<path class="st27" d="M249.3,53c0.1,0.1,0.1,0.2,0.2,0.2c0,0.2-0.1,0.4,0,0.5c0.6,0.8,0.2,1.6,0,2.4c-0.1,0.4-0.2,0.7,0.4,0.6l0,0
			c-0.1,0.2-0.1,0.3-0.2,0.5c-0.2,0.2-0.5,0.2-0.7,0c-0.1-0.1-0.1-0.1-0.2-0.2c0-0.4-0.1-0.8,0-1.1c0.2-0.7,0.5-1.4,0.2-2.2
			C248.8,53.5,249,53.2,249.3,53z"/>
		<path class="st28" d="M261.6,38.5c-1.1-1.2,0-4.6,1.7-5.5C262.5,34.9,261.2,36.4,261.6,38.5z"/>
		<path class="st23" d="M283.6,38.5c-1,1.7-2.5,2.7-4,3.8C280.8,40.8,282,39.4,283.6,38.5z"/>
		<path class="st29" d="M267.7,67.2c-0.9,0-1.8,0-2.7-0.1c-0.4,0-0.8-0.3-1-0.6c-0.1-0.1-0.1-0.2,0-0.2c1.5,0.7,3,0.3,4.5,0
			c0.2,0,0.6-0.4,0.7,0c0.1,0.3-0.3,0.4-0.5,0.5c-0.2,0.1-0.5,0.2-0.7,0.3C267.8,67.2,267.8,67.2,267.7,67.2z"/>
		<path class="st30" d="M271.9,24.7c0.1,0.1,0.1,0.2,0.2,0.3c0,0.4-0.5,0.5-0.7,0.8c-0.1,0.1-0.3,0.2-0.4,0.2
			c-0.9-0.6-1.6,0.1-2.4,0.4c-0.4,0.2-0.8,0.2-1,0.7c-0.1,0.3-0.3,0.3-0.5,0.2c-0.2-0.1-0.2-0.3,0-0.5c0.1-0.2,0.3-0.3,0.5-0.4
			c0.6-0.4,1.5-0.4,1.9-1.1c0-0.1,0.2-0.1,0.3-0.1C270.6,25.9,271.1,24.9,271.9,24.7z"/>
		<path class="st31" d="M297.8,50.2c0,1.8,0.8,3.4,1.4,5c0.2,0.5,0.4,1,0.3,1.6c-0.3,0.1-0.4-0.2-0.5-0.3c-0.2-0.4-0.4-0.7-0.6-1.1
			c-0.1-0.3-0.2-0.6-0.2-0.8c-0.2-1.2-0.5-2.5-0.7-3.7c0-0.2-0.1-0.4,0.1-0.6C297.6,50.1,297.7,50.1,297.8,50.2z"/>
		<path class="st30" d="M253.7,59.2c-0.7,1.7-1.4,3.3-2.1,5c-0.1,0-0.1-0.1-0.2-0.1c0.4-1.8,0.8-3.6,2.1-5
			C253.6,59.2,253.7,59.2,253.7,59.2z"/>
		<path class="st30" d="M267.3,85.4c-0.6,0.4-0.7,1.1-1.4,1.7c0.5-1.7,1.3-3.1,2.1-4.3c0.1-0.1,0.3-0.2,0.4,0c0.2,0.1,0.2,0.3,0,0.5
			c-0.4,0.6-0.8,1.2-1.2,1.8C267.4,85.1,267.4,85.2,267.3,85.4z"/>
		<path class="st23" d="M252.1,65c0.3-1.5,0.7-2.9,2-3.9c-0.3,1.5-1.2,2.7-1.9,4.1C252.1,65.3,252,65.2,252.1,65z"/>
		<path class="st27" d="M265.4,38.2c0.9-1.3,1.7-2.7,3.1-3.6c0.1,0.1,0.2,0.1,0.2,0.2c-1,1.3-2.1,2.5-3.1,3.8
			C265.3,38.5,265.4,38.3,265.4,38.2z"/>
		<path class="st26" d="M264.5,58.7c-0.6-0.3-1-0.9-1.9-0.6c0.7-0.8,3.1,0.2,4.3,1.8c-0.4,0.2-0.7-0.2-1.1-0.2
			c-0.3,0-0.6-0.3-0.8-0.4C264.8,59.1,264.6,58.9,264.5,58.7z"/>
		<path class="st22" d="M289.9,40.6c-0.9,0.6-1.5,1.8-2.7,2c-0.1,0-0.3,0-0.6,0c1.3-0.8,2.3-1.8,3.2-2.9c0.2-0.3,0.5-0.4,0.8-0.3
			c0.1,0.1,0.1,0.2,0,0.3c-0.1,0.1-0.2,0.2-0.2,0.3C290.3,40.3,290.2,40.6,289.9,40.6z"/>
		<path class="st32" d="M299.3,57.2c0.3,0.9,0.9,1.7,0.9,2.7c-0.8-1.4-1.7-2.8-2.2-4.4c-0.1-0.2-0.1-0.3,0.1-0.4
			c0.2,0,0.3,0.2,0.4,0.3c0.2,0.3,0.4,0.7,0.5,1C299.2,56.6,299.2,56.9,299.3,57.2z"/>
		<path class="st33" d="M277.7,39.3c1-1,2.1-1.9,3.4-2.5c-0.7,1.3-2,2-3.2,2.8C277.7,39.6,277.6,39.5,277.7,39.3z"/>
		<path class="st30" d="M304.1,44.3c-0.8-0.1-1.6-0.6-1.5-1.1c0.1-0.3,0.3-0.4,0.5-0.3c0.5,0.3,1.5,0.1,1.6,1
			C304.8,44.4,304.4,44.3,304.1,44.3z"/>
		<path class="st29" d="M250.8,57.5c0.5-1.4,1.2-2.7,2.2-3.8c0.1,0.1,0.2,0.1,0.3,0.2c-0.8,1.3-1.5,2.6-2.3,3.8
			C250.8,57.8,250.7,57.7,250.8,57.5z"/>
		<path class="st32" d="M281.2,77.9c0.1-0.1,0.1-0.3,0.2-0.4c0-0.2,0.2-0.4,0-0.6c0-0.1,0-0.1,0-0.2c0.1-0.2,0.2-0.5,0-0.8
			c-0.2-0.6-0.6-1.1-0.9-1.6c0.9,0.2,1.4,0.8,1.6,2.3c0.1,0.7-0.1,1.6-0.9,2.1C281,78.4,281.4,78.1,281.2,77.9z"/>
		<path class="st34" d="M272,76.9c-1.3-0.7-1.2-2.6,0.2-3.5C271.7,74.5,271.8,75.6,272,76.9z"/>
		<path class="st35" d="M267.7,67.2c0.1,0,0.2,0,0.3,0c-0.4,1.1-1.5,1.1-2.4,1.3c-0.5,0.1-1.1,0-1.6-0.3c0-0.4,0.2-0.3,0.4-0.2
			C265.6,68.1,266.6,67.7,267.7,67.2z"/>
		<path class="st28" d="M300.2,62.6c-0.4-1.3-1.4-2.1-1.8-3.4c1,0.7,1.8,1.7,2,3C300.5,62.4,300.6,62.6,300.2,62.6z"/>
		<path class="st27" d="M300.1,36.6c-0.3,0-0.7,0-0.7-0.4c0-0.4,0.3-0.4,0.6-0.5c0.1,0,0.2-0.1,0.4-0.1c0.4-0.1,1.1-0.4,1.2,0.2
			c0.1,0.5-0.5,0.7-1,0.7C300.4,36.5,300.2,36.5,300.1,36.6z"/>
		<path class="st26" d="M303.4,41.4c0.4,0.2,0.7,0.4,1.1,0.6c0.3,0.2,0.4,0.6,0.2,0.9c-0.2,0.4-0.5,0-0.7-0.1
			c-0.5-0.3-1.3-0.5-1.2-1.4C303.1,41.2,303.2,41.3,303.4,41.4z"/>
		<path class="st36" d="M279,26c0,0.3-0.1,0.6,0.2,0.8c0.3,0.1,0.3,0.3,0.1,0.5c-0.1,0.2-0.3,0.3-0.5,0.3c-0.3,0-0.5-0.2-0.5-0.5
			c0-0.4,0-0.7,0-1.1c0-0.3,0-0.6,0.3-0.7c0.3,0,0.2,0.4,0.4,0.6C279,25.8,279.1,25.9,279,26C279,25.9,279,26,279,26z"/>
		<path class="st37" d="M296.7,33.3c-0.3,0-0.5-0.1-0.5-0.5c0.1-0.4,1.2-1.2,1.6-1.1c0.2,0,0.4,0.1,0.3,0.3
			C297.7,32.6,297.3,33.1,296.7,33.3z"/>
		<path class="st38" d="M279.8,66.9c0,0.6,0.1,1.2-0.3,1.7c-0.4-0.7-0.4-2.1,0.1-3.9C280.1,65.4,279.7,66.1,279.8,66.9z"/>
		<path class="st33" d="M297.8,41.3c-0.2,1.6-0.2,3-0.2,4.5C297,44.9,297,42.5,297.8,41.3z"/>
		<path class="st27" d="M283.5,26.2c-0.3,0.3-0.5,0.9-1,0.5c-0.8-0.6-0.1-1.3-0.1-2c0.5,0.2,0.2,1.5,1.2,0.9
			C283.7,25.8,283.7,26,283.5,26.2z"/>
		<path class="st28" d="M303.3,47.8c-0.1-0.3-0.4-0.6,0-0.8c0.3-0.2,0.5,0.1,0.7,0.3c0.1,0.1,0.2,0.2,0.3,0.2
			c0.3,0.3,0.9,0.4,0.6,0.9c-0.3,0.4-0.8,0-1.2-0.2C303.4,48.1,303.3,47.9,303.3,47.8z"/>
		<path class="st39" d="M276.9,71.7c-1-0.1-1.9-0.2-2.8-0.2c-0.1,0-0.2-0.1-0.3-0.2c0,0,0.1-0.2,0.1-0.2
			C274.6,70.6,276.4,70.9,276.9,71.7z"/>
		<path class="st23" d="M302.7,59.5c0-0.8,0-1.6,0-2.4c0-0.3,0.1-0.6-0.2-0.9c0.3-0.3,0-0.7,0.2-1.1c0.1-0.2,0.2-0.4,0.5-0.4
			c0.3,0,0.3,0.3,0.3,0.5c0,0.1,0,0.3,0,0.4c-0.9,1.2-0.4,2.5-0.5,3.8C302.8,59.5,302.8,59.5,302.7,59.5z"/>
		<path class="st30" d="M303.9,46.4c-0.5,0-0.8-0.2-0.9-0.7c0-0.3,0.1-0.6,0.4-0.5c0.5,0.2,1.1,0.1,1.2,0.8
			C304.6,46.4,304.2,46.4,303.9,46.4z"/>
		<path class="st40" d="M276.7,69.8c-0.9,0.2-1.7-0.1-2.6-0.3c-0.1,0-0.3-0.1-0.3-0.3c0-0.1,0.1-0.2,0.2-0.2
			C274.5,68.8,276.3,69.3,276.7,69.8z"/>
		<path class="st30" d="M286.7,41.4c-0.8,0.9-1.6,1.8-2.7,2.4c-0.1-0.1-0.1-0.2-0.2-0.2c0.9-0.8,1.8-1.6,2.6-2.5
			C286.7,41.1,286.8,41.2,286.7,41.4z"/>
		<path class="st41" d="M285.8,61.7c0.4,0.2,0.8,0.4,1.2,0.6c0.2,0.1,0.5,0,0.8,0.1c0.1,0.2,0,0.3-0.2,0.4c-0.8,0.1-1.7,0-2.4-0.4
			c0-0.2,0.3-0.2,0.4-0.4c0,0,0-0.1,0-0.1C285.5,61.7,285.6,61.6,285.8,61.7z"/>
		<path class="st42" d="M284.3,61c-0.1,0.4-0.4,0.5-0.7,0.6c-0.1,0.1-0.3,0.1-0.4,0c-0.5-0.1-0.9-0.2-1.4,0.4c0-0.8,0.3-1.1,0.9-1
			c0.5,0,1,0.1,1.4-0.2C284.2,60.7,284.3,60.8,284.3,61z"/>
		<path class="st28" d="M304.8,52.4c0,0.3-0.2,0.4-0.4,0.4c-0.6-0.1-0.9-0.5-1.1-1c-0.1-0.3,0.2-0.5,0.4-0.5
			C304.2,51.5,304.6,51.9,304.8,52.4z"/>
		<path class="st30" d="M251.3,37.8c-0.2,0-0.4,0-0.5-0.1c-0.3-0.2-1.1-0.2-0.9-0.7c0.2-0.6,0.7,0,1,0c0.2,0,0.4,0.1,0.5,0.1
			c0.3,0,0.8,0,0.7,0.4C252.1,37.9,251.6,37.8,251.3,37.8z"/>
		<path class="st43" d="M275,80.5c0,0.3,0.1,0.6,0.1,0.9c0.4,0,0.6-0.4,1-0.4c0,0.4-0.2,0.7-0.5,1c-0.2,0.2-0.4,0.3-0.7,0.2
			c-0.3-0.1-0.3-0.4-0.3-0.6c0.1-0.4-0.1-0.8,0.2-1.2C275,80.2,275.1,80.3,275,80.5z"/>
		<path class="st44" d="M244.4,108.9c-0.4,0.5-0.1,1.2-0.2,1.7c-0.3-1.3-0.4-2.5,0.1-3.7c0.1-0.2,0.1-0.4,0.1-0.6
			c0.1-0.2,0.2-0.5,0.3-0.7c0.3,0.2,0.3,0.5,0.2,0.9c-0.1,0.3-0.1,0.7-0.5,0.9C244.4,107.8,244.4,108.3,244.4,108.9z"/>
		<path class="st45" d="M299.4,34.6c0.3,0,0.8,0,0.7,0.4c-0.1,0.4-0.5,0.6-0.9,0.6c-0.4,0-0.8-0.1-0.7-0.5
			C298.4,34.4,299,34.7,299.4,34.6z"/>
		<path class="st46" d="M263.4,69.7c1.1,0,2.1-0.1,3.1-0.4c0,0,0.1,0.1,0,0.1c0,0,0,0.1,0,0.1c-1.2,0.7-2.4,0.7-3.7,0.4
			C262.9,69.5,263.2,69.7,263.4,69.7z"/>
		<path class="st47" d="M269.6,58.2c0,0.2,0.1,0.4,0.2,0.8c-1-0.8-1.7-1.6-2.6-2c-0.1-0.2,0-0.2,0.2-0.2c0.4,0,0.7,0.3,1.1,0.4
			c0.5,0.1,0.9,0.4,1.2,0.7C269.7,58,269.7,58.1,269.6,58.2z"/>
		<path class="st26" d="M276.5,25.7c0.1-0.3,0-0.9,0.4-0.8c0.6,0.1,0.3,0.9,0.7,1.3c0.2,0.2-0.1,0.4-0.4,0.4
			C276.7,26.6,276.5,26.2,276.5,25.7z"/>
		<path class="st41" d="M280.3,25.8c0.3-0.4-0.1-1.2,0.4-1.2c0.6,0,0.3,0.8,0.4,1.2c0.1,0.3,0.2,0.6-0.2,0.7
			c-0.4,0.1-0.5-0.3-0.6-0.5C280.2,25.9,280.2,25.9,280.3,25.8C280.3,25.8,280.3,25.8,280.3,25.8z"/>
		<path class="st26" d="M300.8,41.5c-0.5-0.3-1.1-0.6-1.6-1c-0.1-0.1-0.3-0.2-0.1-0.4c0.1-0.1,0.2-0.1,0.3-0.2
			C300.1,39.9,300.7,40.6,300.8,41.5z"/>
		<path class="st48" d="M267.6,58.3c-0.3,0.4,0.4,0.5,0.2,1c-0.9-0.6-1.7-1.2-2.7-1.6c0-0.4,0.2-0.2,0.4-0.2
			c0.3,0.1,0.6,0.2,0.8,0.3c0.4,0,0.7,0.2,1,0.4C267.5,58.2,267.5,58.2,267.6,58.3z"/>
		<path class="st49" d="M250.2,38.8c-0.5-0.2-0.9-0.6-1.3-1c0.3-0.3,0.6,0,0.8,0.1c0.4,0.3,0.8,0.4,1.2,0.5c0.2,0.1,0.6-0.1,0.6,0.3
			c0,0.4-0.4,0.3-0.6,0.3C250.6,38.8,250.4,38.9,250.2,38.8z"/>
		<path class="st35" d="M267.6,58.3c-0.1,0-0.2,0-0.2,0c-0.2-0.3-0.6-0.4-0.7-0.7c-0.1-0.1-0.3-0.1-0.3-0.2
			c-0.1-0.2,0.1-0.2,0.2-0.2c0.7,0,1.9,1.1,2.1,1.9C268.2,58.9,267.9,58.5,267.6,58.3z"/>
		<path class="st50" d="M283.5,26.2c0-0.2,0-0.4,0-0.6c0.2-0.3,0.4-0.5,0.7-0.6c0.3,0.3,0.1,0.6,0,0.7c-0.4,0.6,0.1,0.5,0.4,0.5
			c0,0.4-0.1,0.8,0.2,1.1c-0.1,0-0.3-0.1-0.3-0.1C284.6,26.4,284,26.3,283.5,26.2z"/>
		<path class="st51" d="M266,75.6c-0.3,1-1.1,1.6-1.8,2.2C264.6,76.9,265,76,266,75.6L266,75.6z"/>
		<path class="st52" d="M288.2,68.5c0.6-0.1,1.1-0.3,1.7-0.4c0.2,0,0.5-0.3,0.6,0.2c-1,0.5-2.1,0.8-3.2,0.6
			C287.4,68.2,287.9,68.7,288.2,68.5z"/>
		<path class="st53" d="M298,34c-0.3,0-0.5-0.1-0.5-0.4c0-0.5,0.4-0.6,0.8-0.6c0.3-0.1,0.6,0.1,0.6,0.4
			C298.8,33.9,298.3,33.9,298,34z"/>
		<path class="st31" d="M303.9,54c0.1,0.2,0,0.3-0.2,0.3c-0.6,0-0.7-0.4-0.9-0.9c-0.1-0.2,0-0.5,0.3-0.5
			C303.7,53.2,303.7,53.7,303.9,54z"/>
		<path class="st54" d="M283.7,63.6c0.3,0.1,0.5,0.5,1,0.4c0.2,0,0.1,0.2,0,0.3c-0.3-0.1-0.4,0.1-0.6,0.2c-0.6,0-1-0.3-1.3-0.7
			c0-0.2,0-0.3,0.2-0.2C283.2,63.6,283.4,64,283.7,63.6z"/>
		<path class="st55" d="M270.7,58.5c0-0.3,0-0.7,0.4-0.3c0,0,0.1,0,0.1,0.1c0.2,0.3,0.8,0.8,0.6,1c-0.4,0.5-0.7-0.2-1.1-0.3
			C270.6,58.8,270.7,58.6,270.7,58.5z"/>
		<path class="st56" d="M303.1,112.7c0.7,0.4,1.6,0.7,2,1.6C304.2,113.9,303.3,113.7,303.1,112.7z"/>
		<path class="st57" d="M301.6,68.7c-0.1-0.1-0.1-0.1-0.2-0.2c0.2-0.7,0.3-1.4,0.5-2.4C302.3,67.2,302,67.9,301.6,68.7z"/>
		<path class="st58" d="M266.4,78.4c0.1,0.1,0.2,0.2,0.2,0.2c-0.5,0.6-0.9,1.3-1.5,1.8c-0.1,0-0.1-0.1-0.2-0.1
			C265.3,79.6,265.8,78.9,266.4,78.4z"/>
		<path class="st59" d="M273.9,62.3c0,0.1,0,0.2,0,0.3c0.1,0.6,0.1,1.2,0,1.9c0.1,0.4-0.1,0.8-0.2,1.2c-0.5-0.3-0.2-0.7-0.2-1
			c0-0.3,0-0.6,0.1-0.9C273.9,63.3,273.3,62.7,273.9,62.3z"/>
		<path class="st60" d="M273.5,64.6c0.1,0.3-0.1,0.7,0.2,1c0.2,0.5,0.2,1,0,1.5c0,0.1-0.1,0.1-0.2,0.1c-0.1,0-0.2-0.1-0.2-0.1
			C273.6,66.3,273.1,65.4,273.5,64.6z"/>
		<path class="st61" d="M285.9,27.1c0.1-0.1,0.1-0.3,0.2-0.4c0.2-0.2,0.4-0.4,0.6-0.3c0.3,0.1,0.1,0.4,0.2,0.6c0,0.3,0,0.5-0.1,0.8
			C286.6,27.6,286.2,27.3,285.9,27.1z"/>
		<path class="st62" d="M251.5,80.3c-0.4-0.8-0.1-1.7-0.2-2.6c-0.2-0.4-0.3-0.7,0.2-1.2C251.5,77.9,251.5,79.1,251.5,80.3z"/>
		<path class="st63" d="M270.4,63.9c0.6,0.3,1.2,0.5,1.4,1.4c-0.7-0.5-1.2-0.9-1.8-1.3C270,63.8,270.2,63.8,270.4,63.9z"/>
		<path class="st64" d="M304,50.1c0,0.2,0,0.4-0.3,0.4c-0.4-0.1-0.6-0.3-0.6-0.7c0-0.2,0-0.4,0.2-0.4
			C303.8,49.4,303.8,49.8,304,50.1z"/>
		<path class="st38" d="M263.6,62.3c-0.6,0.5-1.2,0.8-1.9,1.1c0-0.1-0.1-0.1-0.1-0.2c0.6-0.4,1.2-0.7,1.7-1.1
			C263.6,61.9,263.6,62.1,263.6,62.3z"/>
		<path class="st65" d="M272.7,36.2c-0.6,0.7-1.1,1.2-1.6,1.8C271.4,37.3,271.8,36.6,272.7,36.2z"/>
		<path class="st66" d="M288.1,61.2c0.7,0.1,1.1,0.6,1.5,1.3C288.8,62.2,288.4,61.8,288.1,61.2z"/>
		<path class="st61" d="M292.3,29.2c0.4,0.1,0.8,0.1,1.2,0.2c0.5,0.1,0.7,0.4,0.5,0.9C293.5,29.9,292.9,29.6,292.3,29.2z"/>
		<path class="st67" d="M267.5,38.2c0.2-0.7,0.8-1,1.3-1.4c0.1,0,0.2,0.1,0.2,0.2C268.6,37.5,268.2,38.1,267.5,38.2L267.5,38.2z"/>
		<path class="st39" d="M288.4,118.8c0.1,0.1,0.1,0.1,0.2,0.2c-0.1,0.6-0.1,1.2-0.4,1.8c-0.1,0-0.1-0.1-0.2-0.1
			C288,120.1,288.1,119.4,288.4,118.8z"/>
		<path class="st64" d="M289.9,123.3c0,0.2,0,0.3,0.2,0.4c-0.2,0.6-0.5,1-0.8,1.5c-0.3,0-0.3-0.2-0.2-0.4
			C289.3,124.3,289.5,123.8,289.9,123.3z"/>
		<path class="st59" d="M282.7,64.8c0.6,0,0.9,0.6,1.3,0.8c0.1,0,0.1,0.1,0.1,0.1c0,0.1,0,0.1,0,0.1c-0.7,0-1.2-0.3-1.5-0.9
			C282.6,64.8,282.6,64.8,282.7,64.8z"/>
		<path class="st68" d="M302.3,60.1c0-0.1,0-0.2,0.1-0.3c0.3-0.2,0.3,0,0.4,0.2c0.1,0.3-0.1,0.7,0.1,1c-0.1,0.5,0,1.1-0.4,1.5
			C302.2,61.8,302.5,60.9,302.3,60.1z"/>
		<path class="st69" d="M298.7,47.2c-0.4-0.7,0.1-1.5-0.3-2.2c0-0.2-0.1-0.5,0.3-0.8C298.7,45.3,298.8,46.2,298.7,47.2z"/>
		<path class="st70" d="M252.8,36.1c-0.7,0.5-0.9,0.4-1.6-0.5c0.5-0.3,0.8,0.5,1.2,0.3C252.7,35.8,252.9,35.7,252.8,36.1z"/>
		<path class="st71" d="M245.3,103.6c-0.1,0.1-0.1,0.3-0.2,0.4c-0.1,0.1-0.2,0.1-0.4,0c0.3-0.6,0.1-1.3,0.6-1.9
			C245.6,102.6,245.4,103.1,245.3,103.6z"/>
		<path class="st72" d="M279.8,66.9c-0.1-0.7,0.2-1.5-0.2-2.2c0-0.2-0.1-0.5,0.1-0.5c0.3,0,0.5,0.4,0.5,0.5
			C279.6,65.4,280.1,66.2,279.8,66.9z"/>
		<path class="st73" d="M288,120.7c0.1,0,0.1,0.1,0.2,0.1c0.2,0.5-0.1,1-0.2,1.5c-0.1,0.1-0.2,0.1-0.3,0
			C287.6,121.8,287.7,121.2,288,120.7z"/>
		<path class="st64" d="M264.9,78.7c-0.3,0.4-0.6,0.9-1.1,1.3c0.1-0.7,0.5-1.1,0.9-1.5C264.9,78.4,265,78.4,264.9,78.7z"/>
		<path class="st74" d="M286.9,67.7c-0.3,0.3-0.7,0.1-1.1,0.2c0.1,0.2,0.4,0.3,0.3,0.5c-0.5-0.1-0.9-0.3-1.1-0.8
			C285.7,67.7,286.3,67.7,286.9,67.7z"/>
		<path class="st75" d="M248.3,49.5c1,0.4,0.6,0.9,0,1.4C248.4,50.4,248.4,49.9,248.3,49.5z"/>
		<path class="st76" d="M283.2,79.4c-0.4-0.3-0.4-0.8-0.6-1.2c-0.1-0.3,0.1-0.3,0.3-0.2c0.2,0.1,0.3,0.3,0.4,0.5
			c0.1,0.2,0.2,0.5,0.1,0.8C283.4,79.3,283.4,79.4,283.2,79.4z"/>
		<path class="st77" d="M264.6,35.4c0.1,0.6-0.2,1-0.6,1.3c-0.1,0-0.2-0.1-0.2-0.2c0.1-0.4,0.3-0.8,0.6-1.1
			C264.4,35.3,264.5,35.3,264.6,35.4z"/>
		<path class="st78" d="M285,72.4c0.7,0,1.4,0.5,2.1,0.4C286.3,73.1,285.4,73,285,72.4L285,72.4z"/>
		<path class="st36" d="M300.3,42.5c-0.5-0.4-0.8-0.6-1.1-0.9C299.9,41.2,300.1,41.3,300.3,42.5z"/>
		<path class="st79" d="M286.8,69.8c-0.5,0-0.9-0.1-1.3-0.4c0-0.2,0-0.3,0.2-0.2c0.6,0.1,1.1,0.3,1.7,0.4
			C287.4,70.1,287,69.8,286.8,69.8z"/>
		<path class="st80" d="M289.1,124.8c0,0.2,0,0.3,0.2,0.4c-0.2,0.4-0.3,0.9-0.8,1.3C288.5,125.8,288.9,125.3,289.1,124.8z"/>
		<path class="st81" d="M271.3,25.8c0.2-0.3,0.3-0.6,0.7-0.8c0.2,0.2,0.4,0.5,0.4,0.8C272,25.8,271.7,25.8,271.3,25.8z"/>
		<path class="st41" d="M299.6,64.2c-0.2-0.4-0.3-0.8-0.4-1.3c-0.1-0.2,0-0.3,0.2-0.2c0.2,0.4,0.5,0.8,0.4,1.3
			C299.9,64.1,299.8,64.2,299.6,64.2z"/>
		<path class="st82" d="M244.9,106.5c-0.2-0.3-0.1-0.6-0.1-1c0.1-0.1,0.1-0.1,0.2-0.2c0.3,0.3,0.4,0.6,0.3,1
			c-0.1,0.1-0.2,0.3-0.3,0.4C244.9,106.6,244.9,106.6,244.9,106.5z"/>
		<path class="st83" d="M270.7,58.5c0.2,0.1,0,0.3,0,0.5c-0.4-0.2-0.5-0.8-1.1-0.8c0-0.1,0-0.2,0-0.3c-0.2-0.1-0.3-0.2-0.3-0.4
			c0-0.1,0.1-0.2,0.1-0.2C269.8,57.7,270.3,58.1,270.7,58.5z"/>
		<path class="st26" d="M268.5,62.4c-0.7-0.1-1.4-0.4-2.1-0.4c0.8-0.3,1.5-0.1,2.1,0.2C268.5,62.3,268.6,62.3,268.5,62.4
			C268.5,62.4,268.5,62.4,268.5,62.4z"/>
		<path class="st84" d="M287.4,71.5c0.6,0,1.1,0.1,1.7,0.1c0.2,0,0.2,0,0.2,0.2c-0.8,0.2-1.5,0.2-2.3-0.2
			C287.1,71.5,287.3,71.6,287.4,71.5z"/>
		<path class="st36" d="M267.3,85.4c0-0.1,0-0.3,0-0.4c0.2,0,0.5,0,0.7,0.1c0.5,0.3,1,0.1,1.5,0.2C268.9,85.5,268.1,85.4,267.3,85.4
			z"/>
		<path class="st85" d="M264.9,78.7c-0.1-0.1-0.2-0.2-0.2-0.3c0.3-0.4,0.6-0.8,1.2-1.1C265.7,78,265.2,78.3,264.9,78.7z"/>
		<path class="st72" d="M271.1,83.7c0,0.5-0.4,0.4-0.7,0.6c-0.2,0.2-0.5,0.3-0.8,0.1c0,0,0-0.1,0-0.1C270,84,270.5,83.7,271.1,83.7z
			"/>
		<path class="st38" d="M269,37.1c-0.1-0.1-0.1-0.2-0.2-0.2c0.3-0.4,0.5-0.8,1.1-0.9C269.8,36.6,269.4,36.8,269,37.1z"/>
		<path class="st66" d="M267.7,70c-0.3,0.4-0.8,0.7-1.3,0.7c0,0-0.1-0.1-0.1-0.1c0,0,0-0.1,0-0.1c0.4-0.3,0.9-0.5,1.3-0.8
			C267.8,69.8,267.8,69.9,267.7,70z"/>
		<path class="st23" d="M302.3,60.1c0.3,0.8,0,1.7,0.2,2.5c-0.1,0.1-0.1,0.3-0.2,0.4C302.3,62.1,302.3,61.1,302.3,60.1z"/>
		<path class="st86" d="M283.5,79.7c0.2,0.5,0.5,0.9,0.3,1.5c0,0.1,0,0.1-0.1,0.1c-0.3-0.3-0.3-0.7-0.4-1.1
			C283.4,80,283.3,79.8,283.5,79.7z"/>
		<path class="st87" d="M294.4,65.3c-0.2-0.8,0.1-1.2,0.1-1.7C294.6,64.1,294.7,64.6,294.4,65.3z"/>
		<path class="st23" d="M302.3,57c0,0.6,0,1.2,0,1.8c0,0.3,0,0.6-0.3,0.6c0.3-0.5,0.1-1.1,0.2-1.6C302.2,57.5,302.1,57.2,302.3,57z"
			/>
		<path class="st88" d="M250.8,57.5c0.1,0.1,0.1,0.2,0.2,0.2c-0.1,0.4-0.5,0.7-0.4,1.1c-0.2-0.2-0.5-0.2-0.5-0.6
			C250.6,58.3,250.4,57.7,250.8,57.5z"/>
		<path class="st89" d="M263.6,62.3c-0.1-0.1-0.2-0.2-0.3-0.2c0.4-0.3,0.8-0.7,1.5-0.5C264.3,61.8,264,62.1,263.6,62.3z"/>
		<path class="st69" d="M288.2,68.5c-0.2,0.3-0.7,0-0.9,0.3c-0.4,0-0.8,0-1.1-0.4C286.8,68.5,287.5,68.5,288.2,68.5z"/>
		<path class="st55" d="M270.4,63.9c-0.1,0.1-0.3,0.1-0.4,0.2c-0.5-0.1-1-0.2-1.5-0.3c0.3-0.1,0.5,0.1,0.8-0.2
			C269.6,63.6,270,63.7,270.4,63.9z"/>
		<path class="st90" d="M262,31.6c0.2-0.4,0.4-0.9,1-0.9l0,0c0,0.5-0.4,0.8-0.7,1.1C262.1,31.8,262.1,31.7,262,31.6z"/>
		<path class="st28" d="M268.5,62.4c0-0.1,0-0.1,0-0.2c0.5,0,0.9,0.1,1.4,0.5C269.2,62.9,268.9,62.6,268.5,62.4z"/>
		<path class="st91" d="M285.6,62c-0.1,0.2-0.2,0.3-0.4,0.4c-0.3-0.1-0.7,0.2-1-0.2c0-0.4,0.2-0.3,0.4-0.2C285,62,285.3,62,285.6,62
			z"/>
		<path class="st69" d="M286.7,41.4c-0.1-0.1-0.2-0.2-0.3-0.3c0.3-0.3,0.4-0.8,1-0.7C287.4,40.9,287,41.2,286.7,41.4z"/>
		<path class="st92" d="M299.8,66.4c0.1,0.4,0.1,0.9,0.2,1.3c-0.1,0.1,0,0.3-0.2,0.4c-0.2-0.6-0.1-1.2-0.2-1.7
			C299.7,66.3,299.8,66.3,299.8,66.4z"/>
		<path class="st21" d="M256.3,95c0.4,0.8,0,1.5,0,2.3C255.9,96.5,256.5,95.7,256.3,95z"/>
		<path class="st93" d="M273.9,62.3c-0.4,0.4,0.1,1.1-0.3,1.5c0-0.7,0-1.4,0-2.1c0,0,0.1,0,0.1,0C273.7,61.8,273.8,62.1,273.9,62.3z
			"/>
		<path class="st27" d="M275.7,88.6c0.8,0,1.7-0.2,2.5,0.2C277.4,88.7,276.6,88.9,275.7,88.6z"/>
		<path class="st94" d="M252.1,52.5c-0.1,0.4-0.3,0.6-0.8,0.8c0.1-0.5,0.2-0.8,0.6-1C252.1,52.2,252.2,52.3,252.1,52.5z"/>
		<path class="st95" d="M251.8,88.6c-0.1-0.2,0.1-0.6-0.2-0.8c-0.1-0.4,0.4-0.6,0.4-1c0.3,0.2,0.2,0.5,0.2,0.8
			C251.8,87.9,252,88.3,251.8,88.6z"/>
		<path class="st96" d="M270,39.1c0.1-0.5,0.4-0.8,1-1C270.8,38.8,270.5,39.1,270,39.1L270,39.1z"/>
		<path class="st44" d="M293.8,64.1c0,0.2,0.1,0.5-0.2,0.8c-0.2-0.6-0.1-1.1,0-1.5C293.9,63.6,293.6,63.9,293.8,64.1z"/>
		<path class="st97" d="M269.4,57.6c0.1,0.1,0.1,0.2,0.2,0.3c-0.6,0.1-0.8-0.4-1.1-0.7c0.1-0.1,0.3-0.2,0.4-0.4
			C269,57.1,269.3,57.3,269.4,57.6z"/>
		<path class="st98" d="M264.4,67.9c-0.1,0-0.3,0-0.4,0.2c-0.3,0-0.6-0.2-0.9-0.5C263.6,67.4,264,67.7,264.4,67.9z"/>
		<path class="st99" d="M249.8,56.8c0-0.4,0.1-0.8,0.4-1.2C250,56,250.6,56.6,249.8,56.8C249.8,56.8,249.8,56.8,249.8,56.8z"/>
		<path class="st100" d="M261.3,58.5c0.4,0.1,0.8-0.1,1.1,0.2c0.1,0,0.1,0.1,0.1,0.1c0,0,0,0.1-0.1,0.1c-0.4,0-0.8,0.1-1.1-0.2
			C261.3,58.6,261.3,58.6,261.3,58.5C261.3,58.5,261.3,58.5,261.3,58.5z"/>
		<path class="st101" d="M285.8,69.2c-0.1,0.1-0.1,0.1-0.2,0.2c-0.4-0.1-0.8-0.2-1.1-0.6c0-0.1,0.1-0.1,0.1-0.1
			C285.1,68.7,285.4,69,285.8,69.2z"/>
		<path class="st102" d="M271.5,60.9c-0.4,0-0.8-0.1-1.1-0.4c0-0.1,0.1-0.2,0.2-0.2c0.4,0,0.7,0.2,1,0.4
			C271.6,60.8,271.5,60.9,271.5,60.9z"/>
		<path class="st103" d="M261.5,60.1c-0.4,0.2-0.8,0.8-1.3,0.1c0.1-0.1,0.2-0.1,0.4,0C260.9,60.1,261.2,60.1,261.5,60.1
			C261.5,60.1,261.5,60.1,261.5,60.1z"/>
		<path class="st93" d="M299.6,64.2c0.1-0.1,0.2-0.1,0.2-0.2c0.3,0.4,0.2,0.8,0.2,1.3C299.6,64.9,299.7,64.5,299.6,64.2z"/>
		<path class="st104" d="M298.7,78.2c0.2,0.1,0.2,0.2,0.2,0.4c0.1,0.3,0.1,0.5,0,0.8c-0.1,0.2-0.2,0.4-0.3,0.6
			C298.4,79.4,298.7,78.8,298.7,78.2z"/>
		<path class="st105" d="M295.2,64.9c-0.1-0.2-0.3-0.5,0-0.9c0.3,0.7,0.4,1.2,0.1,1.8C294.9,65.5,295.1,65.2,295.2,64.9z"/>
		<path class="st106" d="M250.7,84.6c0.4-0.2,0.3-0.5,0.2-0.9c0.1,0,0.2,0,0.2,0c0.2,0.3,0.2,0.6,0.2,0.9
			C251.1,84.6,250.9,84.6,250.7,84.6z"/>
		<path class="st107" d="M244.9,106.5c0,0.1,0.1,0.1,0.1,0.2c0,0.3,0,0.7,0,1.1c-0.2-0.2-0.4-0.3-0.5-0.5
			C244.7,107,244.9,106.8,244.9,106.5z"/>
		<path class="st55" d="M268.3,33.7c-0.2,0.3-0.5,0.5-0.9,0.5c0.2-0.5,0.4-0.6,0.8-0.7C268.3,33.5,268.4,33.5,268.3,33.7z"/>
		<path class="st108" d="M302.9,61.1c-0.5-0.3,0.2-1-0.5-1.3c0.1-0.1,0.2-0.2,0.3-0.3c0.1,0,0.1-0.1,0.2-0.1
			C302.9,60,302.9,60.6,302.9,61.1z"/>
		<path class="st109" d="M284.3,61c-0.1-0.1-0.2-0.2-0.2-0.2c0.1-0.4,0.3-0.5,0.5-0.2c0.2,0.2,0.5,0.4,0.3,0.6
			C284.6,61.4,284.5,60.9,284.3,61z"/>
		<path class="st110" d="M292.3,61.9c-0.2-0.4-0.4-0.7-0.7-1.2c0.7,0.2,0.8,0.7,0.9,1.2C292.5,62,292.4,62,292.3,61.9z"/>
		<path class="st55" d="M263.4,69.7c-0.2,0.1-0.5,0-0.6,0.2c-0.3,0-0.6-0.1-0.9-0.5C262.6,69.5,263,69.5,263.4,69.7z"/>
		<path class="st111" d="M285.6,81.3c-0.2-0.4-0.3-0.8-0.3-1.4c0.5,0.2,0.3,0.7,0.5,1C285.6,81,285.7,81.2,285.6,81.3z"/>
		<path class="st112" d="M264.7,59.4c-0.4-0.1-0.9,0.1-1.1-0.5l0,0c0.2,0,0.4,0,0.5,0c0.2,0.2,0.5-0.1,0.7,0.3
			C264.8,59.2,264.8,59.3,264.7,59.4z"/>
		<path class="st60" d="M295.2,64.9c0,0.3,0,0.6,0,0.9c-0.1,0.1-0.1,0.2-0.2,0.3c-0.1,0.1-0.2-0.1-0.2-0.2
			C294.8,65.6,294.8,65.2,295.2,64.9z"/>
		<path class="st113" d="M246.1,65.4c0.4,0.3,0,0.8,0.3,1.1c0,0.2,0,0.4-0.1,0.5C246,66.6,246.1,66,246.1,65.4z"/>
		<path class="st101" d="M283,63.5c-0.1,0.1-0.2,0.2-0.2,0.2c-0.3-0.3-0.6-0.5-0.7-1C282.6,62.9,282.7,63.3,283,63.5z"/>
		<path class="st89" d="M252.7,51.5c-0.1-0.5,0.3-0.7,0.7-1C253.3,51.1,253.2,51.4,252.7,51.5L252.7,51.5z"/>
		<path class="st114" d="M279.9,84.7c0.3,0.1,0.5,0.2,0.8,0.3c0,0.2,0,0.3,0,0.5c-0.3-0.4-0.8-0.4-1.2-0.6
			C279.6,84.8,279.8,84.7,279.9,84.7z"/>
		<path class="st80" d="M295.1,43.6c0.1,0.4-0.1,0.6-0.4,0.7c0,0-0.1-0.1-0.1-0.1C294.6,43.9,294.8,43.7,295.1,43.6z"/>
		<path class="st115" d="M283.7,59.1c-0.1,0.1-0.1,0.2-0.2,0.3c-0.3,0-0.7-0.1-1.2-0.4C282.9,59.1,283.3,59.1,283.7,59.1z"/>
		<path class="st116" d="M285,72.4c-0.5,0.3-0.8,0.1-1.1-0.3C284.3,72,284.7,72.2,285,72.4C285,72.4,285,72.4,285,72.4z"/>
		<path class="st98" d="M290.7,39.7c0-0.1,0-0.2,0-0.3c0.2-0.2,0.4-0.3,0.6-0.5C291.3,39.5,291.1,39.7,290.7,39.7z"/>
		<path class="st117" d="M265.1,59.1c0.3,0.1,0.6,0.2,0.8,0.5c0,0.1,0.2,0.3,0,0.3c-0.1,0-0.3-0.1-0.4-0.2c-0.1-0.2-0.3-0.2-0.4-0.4
			C265,59.3,265,59.2,265.1,59.1z"/>
		<path class="st118" d="M265.9,70.9c-0.4,0.2-0.8,0.2-1.3,0.1c0.2-0.3,0.6-0.3,0.9-0.3C265.6,70.9,265.8,70.7,265.9,70.9z"/>
		<path class="st42" d="M282.3,65.6c-0.5-0.1-0.8-0.4-1-1C281.9,64.8,282,65.3,282.3,65.6z"/>
		<path class="st101" d="M265.5,33.7c0-0.4,0.3-0.6,0.7-0.9C266.1,33.4,266,33.7,265.5,33.7C265.5,33.8,265.5,33.8,265.5,33.7z"/>
		<path class="st83" d="M284.1,65.8c0-0.1,0-0.2,0-0.2c0-0.3,0-0.6,0.1-0.8c0-0.1,0.1-0.1,0.1-0.1c0,0.6,0,1.3,0,1.9
			C284,66.4,284.1,66.1,284.1,65.8z"/>
		<path class="st119" d="M252.7,57.4c-0.1,0.3-0.3,0.5-0.4,0.8c-0.1-0.1-0.2-0.2-0.3-0.2c0.2-0.2,0.3-0.5,0.5-0.7
			C252.6,57.2,252.7,57.3,252.7,57.4z"/>
		<path class="st120" d="M266.6,57.6c0.3,0.2,0.7,0.3,0.7,0.7c-0.4,0-0.7-0.2-1-0.5C266.4,57.7,266.5,57.6,266.6,57.6z"/>
		<path class="st121" d="M252.1,52.5c-0.1-0.1-0.1-0.1-0.2-0.2c0.2-0.3,0.3-0.7,0.8-0.7c0,0,0,0,0,0
			C252.6,51.9,252.4,52.2,252.1,52.5z"/>
		<path class="st122" d="M303.4,41.4c-0.2,0-0.4,0-0.6,0c0.2-0.3,0.1-0.8,0.3-1.2C303.3,40.6,303.2,41,303.4,41.4z"/>
		<path class="st123" d="M262.5,58.9c0-0.1,0-0.1,0-0.2c0.4,0,0.8-0.1,1.1,0.2c0,0,0,0,0,0C263.2,59.1,262.8,59,262.5,58.9z"/>
		<path class="st124" d="M289.9,40.6c0.2-0.2,0.4-0.4,0.5-0.6c0.1,0.3,0,0.6-0.3,0.8C289.9,41,289.9,40.7,289.9,40.6z"/>
		<path class="st125" d="M262.2,39.4c0,0.4-0.1,0.7-0.3,1.1C261.8,40,262.1,39.7,262.2,39.4z"/>
		<path class="st126" d="M283.3,86.9c0.3,0.6,0.1,1.2,0.1,1.8C283.2,88.1,283.4,87.5,283.3,86.9z"/>
		<path class="st61" d="M298.4,55.5c-0.1-0.1-0.1-0.2-0.2-0.3c-0.1-0.1-0.3-0.2-0.1-0.4c0.1-0.1,0.1-0.2,0.2-0.2
			c0.3,0.2,0.4,0.5,0.4,0.8C298.6,55.5,298.5,55.5,298.4,55.5z"/>
		<path class="st37" d="M273.3,60.2c-0.4,0-0.6-0.3-0.9-0.6c0.5-0.1,0.8,0.2,1.1,0.4C273.5,60.1,273.5,60.2,273.3,60.2z"/>
		<path class="st127" d="M252.3,102.7c0.5-0.3,1-0.1,1.5,0c-0.4,0-0.9,0-1.3,0C252.4,102.7,252.4,102.7,252.3,102.7L252.3,102.7z"/>
		<path class="st128" d="M249.3,48.7c0-0.2,0-0.3-0.2-0.4c-0.1-0.1-0.2-0.2-0.4-0.3c0.2-0.1,0.4,0,0.6-0.2
			C249.8,48.1,249.5,48.4,249.3,48.7z"/>
		<path class="st94" d="M272.8,64.6c-0.1,0.3-0.2,0.6-0.3,1c-0.3-0.6,0-0.8,0.1-1.1C272.6,64.5,272.7,64.6,272.8,64.6z"/>
		<path class="st129" d="M295,38c0.1,0.3,0.1,0.6-0.2,0.9C294.6,38.6,294.8,38.3,295,38z"/>
		<path class="st69" d="M286.8,60.1c0.4,0.1,0.7,0.4,1,0.8C287.2,60.8,287,60.4,286.8,60.1z"/>
		<path class="st13" d="M293.8,64.1c-0.3-0.2-0.1-0.5-0.2-0.8c0-0.3,0-0.5,0-0.8C293.9,63.1,294,63.6,293.8,64.1z"/>
		<path class="st121" d="M273.9,64.4c0-0.6,0-1.2,0-1.9C274.2,63.2,274.2,63.8,273.9,64.4z"/>
		<path class="st130" d="M252.5,49.5c0-0.5,0.3-0.7,0.7-1.1C253.2,49,252.9,49.3,252.5,49.5z"/>
		<path class="st131" d="M284,79.8c-0.1-0.3-0.2-0.5-0.4-0.8c0-0.1,0-0.2,0-0.2c0.1,0,0.2,0,0.2,0c0.2,0.2,0.3,0.5,0.3,0.8
			C284.2,79.6,284.2,79.8,284,79.8z"/>
		<path class="st132" d="M264.7,81.1c-0.2,0.3-0.3,0.5-0.7,0.7c-0.1-0.5,0.3-0.7,0.4-0.9C264.6,80.9,264.6,81,264.7,81.1z"/>
		<path class="st77" d="M261.5,60.1C261.5,60.1,261.5,60.1,261.5,60.1c0.2-0.4,0.5-0.3,0.9-0.2C262.2,60.3,261.8,60.2,261.5,60.1z"
			/>
		<path class="st66" d="M283.7,81.2C283.8,81.2,283.8,81.2,283.7,81.2c0.5,0,0.3,0.3,0.4,0.5c0,0.2,0.2,0.4-0.2,0.4
			C283.8,81.8,283.6,81.6,283.7,81.2z"/>
		<path class="st133" d="M260.9,34.6c0,0.2,0.1,0.5-0.2,0.7c-0.2-0.3-0.2-0.6,0-0.9C260.8,34.4,260.9,34.5,260.9,34.6z"/>
		<path class="st134" d="M267.5,38.2c-0.1,0.4-0.4,0.6-1,0.8C266.8,38.5,267.1,38.2,267.5,38.2C267.5,38.2,267.5,38.2,267.5,38.2z"
			/>
		<path class="st57" d="M291.2,61.3c0.2,0.2,0.4,0.4,0.3,0.7c-0.4-0.1-0.4-0.4-0.6-0.7C291,61.2,291.1,61.2,291.2,61.3z"/>
		<path class="st89" d="M291.4,38.9c0-0.5,0.1-0.7,0.5-0.9C291.9,38.3,291.8,38.6,291.4,38.9z"/>
		<path class="st135" d="M265.4,38.2c0.1,0.1,0.1,0.3,0.2,0.4c-0.1,0.2-0.2,0.4-0.5,0.5C265,38.7,265.2,38.4,265.4,38.2z"/>
		<path class="st136" d="M266,75.6c0-0.5,0.3-0.6,0.7-0.6C266.6,75.4,266.4,75.7,266,75.6C266,75.6,266,75.6,266,75.6z"/>
		<path class="st137" d="M269.9,62.8c0.5-0.1,0.7,0.1,0.8,0.4C270.4,63.3,270.1,63.2,269.9,62.8z"/>
		<path class="st76" d="M263,30.7c0-0.4,0.3-0.6,0.7-0.6C263.6,30.5,263.4,30.7,263,30.7C263,30.7,263,30.7,263,30.7z"/>
		<path class="st12" d="M272,119c0.1-0.1,0.2-0.2,0.2-0.3c0.3,0.1,0.3,0.4,0.4,0.7c0.1,0.2,0,0.2-0.2,0.2
			C272.3,119.4,272.2,119.2,272,119z"/>
		<path class="st122" d="M250.2,38.8c0.2,0,0.4,0,0.6,0.1c-0.4,0-0.6,0.2-0.6,0.7C249.9,39.3,250.1,39,250.2,38.8z"/>
		<path class="st138" d="M272.6,60.4c0.2,0.1,0.5,0.1,0.5,0.4c-0.4,0.1-0.6-0.1-0.9-0.3C272.3,60.4,272.5,60.4,272.6,60.4z"/>
		<path class="st139" d="M303.3,47.8c0.1,0.1,0.2,0.3,0.3,0.4c-0.3,0.2-0.1,0.5-0.3,0.8C303.3,48.5,303.3,48.1,303.3,47.8z"/>
		<path class="st140" d="M285.7,70.9c0.3,0.1,0.6,0.1,0.8,0.3l0,0c-0.4,0.4-0.7,0.1-1-0.1C285.5,71,285.7,71,285.7,70.9z"/>
		<path class="st112" d="M252.8,36.1c-0.1-0.1-0.3-0.1-0.4-0.2c0.1-0.1,0.2-0.2,0.2-0.4c0.1-0.1,0.3-0.2,0.4-0.4
			C252.9,35.5,253.2,35.9,252.8,36.1z"/>
		<path class="st141" d="M252.7,57.4c-0.1-0.1-0.1-0.1-0.2-0.2c0-0.1,0-0.3,0-0.4c0.2-0.2,0.3,0,0.5,0
			C252.9,57,252.8,57.2,252.7,57.4z"/>
		<path class="st142" d="M285.7,70.9c-0.1,0.1-0.1,0.1-0.2,0.2c-0.3-0.1-0.5-0.2-0.7-0.4l0,0C285.2,70.5,285.4,70.8,285.7,70.9z"/>
		<path class="st136" d="M265.9,70.9c-0.1-0.1-0.3,0-0.4-0.2c0.3-0.1,0.6-0.1,0.9-0.2c0,0.1,0,0.1,0,0.2
			C266.3,70.9,266.1,70.9,265.9,70.9z"/>
		<path class="st143" d="M298.7,51c0.1-0.1,0.1-0.1,0.2-0.2c0.2,0.3,0.3,0.6,0.4,0.9l0,0C298.8,51.7,298.9,51.3,298.7,51z"/>
		<path class="st144" d="M286.8,69.8c0.2-0.1,0.5,0,0.6-0.2c0.2,0,0.3-0.1,0.4,0.1c0.1,0.1-0.1,0.2-0.2,0.2
			C287.4,69.9,287.1,70,286.8,69.8z"/>
		<path class="st145" d="M283.5,79.7c-0.1,0.1-0.1,0.3-0.2,0.4c-0.1-0.2-0.3-0.5-0.2-0.8c0.1,0,0.1,0,0.1-0.1c0-0.1,0.1-0.2,0.2-0.1
			C283.5,79.4,283.5,79.5,283.5,79.7z"/>
		<path class="st146" d="M250.8,52.1c0,0.4-0.1,0.7-0.5,1C250.3,52.6,250.3,52.3,250.8,52.1z"/>
		<path class="st58" d="M284,79.8c0.1-0.1,0.1-0.2,0.2-0.3c0.1,0.2,0.3,0.4,0.2,0.7c0.1,0.2,0,0.2-0.2,0.2
			C284.2,80.3,284.1,80,284,79.8z"/>
		<path class="st147" d="M254,102.1c-0.4,0.3-0.8,0.2-1.2,0.1c-0.3-0.1,0.1-0.1,0.1-0.2C253.3,102.1,253.6,102.1,254,102.1z"/>
		<path class="st148" d="M285.9,81.8c0.3,0.3,0.2,0.6,0.2,1C285.6,82.5,285.9,82.1,285.9,81.8L285.9,81.8z"/>
		<path class="st92" d="M290.3,62c-0.3-0.2-0.5-0.4-0.5-0.8C290.2,61.4,290.4,61.6,290.3,62C290.4,62,290.4,62.1,290.3,62z"/>
		<path class="st149" d="M261.3,58.5c0,0.1,0,0.1,0,0.2c-0.3-0.3-0.3-0.3,0.3-0.7C261.5,58.2,261.4,58.3,261.3,58.5z"/>
		<path class="st150" d="M265.1,59.1c0,0.1,0,0.2,0,0.3c-0.2,0.1-0.2-0.1-0.4-0.1c-0.1-0.3-0.4-0.2-0.6-0.4c0.1-0.1,0.2-0.1,0.4-0.2
			C264.7,58.8,264.9,58.9,265.1,59.1z"/>
		<path class="st26" d="M284.6,68.7c0,0-0.1,0.1-0.1,0.1c-0.3-0.1-0.6-0.2-0.8-0.5l0,0C284.1,68.1,284.4,68.4,284.6,68.7z"/>
		<path class="st151" d="M296.2,41.6c0,0.4-0.1,0.6-0.4,0.9C295.8,42.1,295.9,41.9,296.2,41.6z"/>
		<path class="st152" d="M299.8,66.4c-0.1,0-0.1,0-0.2,0c-0.2-0.3-0.1-0.6,0-1C299.7,65.7,299.8,66.1,299.8,66.4z"/>
		<path class="st153" d="M273.3,68.4c-0.1,0.3-0.1,0.5-0.5,0.7c0-0.4,0-0.8,0.3-1.1C273.3,68.1,273.2,68.3,273.3,68.4z"/>
		<path class="st154" d="M260.6,60.2c-0.1,0-0.3,0-0.4,0c0.2-0.3,0.2-0.7,0.7-1C260.7,59.6,260.7,59.9,260.6,60.2z"/>
		<path class="st23" d="M301.9,59.5c0,0.5,0.2,1.1-0.2,1.6C301.7,60.6,301.6,60,301.9,59.5z"/>
		<path class="st155" d="M282.9,77.5c-0.1-0.4-0.3-0.7-0.4-1.1c0.1-0.1,0.1-0.1,0.2,0c0.1,0.3,0.4,0.5,0.4,0.9c0,0.1,0.1,0.2,0,0.2
			C283.1,77.5,283,77.5,282.9,77.5z"/>
		<path class="st156" d="M272.2,83.1c0,0.1,0,0.2,0,0.3c-0.2,0.2-0.5,0.4-0.8,0.3C271.5,83.2,271.9,83.2,272.2,83.1z"/>
		<path class="st157" d="M265.5,33.7C265.5,33.7,265.6,33.8,265.5,33.7c0,0.3-0.1,0.5-0.2,0.7c-0.2,0-0.3,0-0.2-0.2
			C265.2,34,265.4,33.9,265.5,33.7z"/>
		<path class="st158" d="M265.1,34.2c0.1,0.1,0.1,0.1,0.2,0.2c-0.1,0.2-0.2,0.4-0.4,0.6c-0.2,0-0.3,0-0.2-0.2
			C264.7,34.5,264.8,34.3,265.1,34.2z"/>
		<path class="st159" d="M260.9,34.6c-0.1-0.1-0.1-0.1-0.2-0.2c0-0.3,0-0.5,0.2-0.7c0.1,0,0.1,0.1,0.2,0.2
			C261.1,34.1,261,34.3,260.9,34.6z"/>
		<path class="st160" d="M284.6,59.4c0.4-0.3,0.9-0.3,1.3,0C285.5,59.4,285.1,59.4,284.6,59.4z"/>
		<path class="st45" d="M264,66.2c0,0.1,0,0.1,0,0.2c-0.3-0.1-0.6-0.2-0.7-0.5C263.6,65.8,263.7,66.1,264,66.2z"/>
		<path class="st101" d="M299.8,68.1c0.1-0.1,0.1-0.3,0.2-0.4c0,0.3,0.1,0.7,0.1,1.2C299.8,68.6,299.8,68.3,299.8,68.1z"/>
		<path class="st161" d="M290.5,68.3c-0.1-0.3-0.4-0.1-0.6-0.2c0.4-0.2,0.7-0.4,1.1,0C290.8,68.1,290.6,68.2,290.5,68.3z"/>
		<path class="st162" d="M298,54.7c0,0.1,0.1,0.3,0.1,0.4c-0.2,0.1-0.2,0.2-0.2,0.4c-0.2-0.2-0.2-0.6-0.2-0.8
			C297.9,54.4,298,54.6,298,54.7z"/>
		<path class="st115" d="M263.4,82.5c0.1-0.2,0.2-0.4,0.4-0.5c0.2,0.4-0.1,0.5-0.2,0.8C263.4,82.8,263.3,82.7,263.4,82.5z"/>
		<path class="st163" d="M268.3,33.7c-0.1-0.1-0.1-0.1-0.2-0.2c0.2-0.1,0.4-0.3,0.5-0.4c0.2-0.1,0.2,0,0.2,0.2
			C268.7,33.4,268.5,33.6,268.3,33.7z"/>
		<path class="st164" d="M292.3,61.9c0.1,0,0.1,0,0.2,0c0.2,0.2,0.2,0.4,0.2,0.7c0.1,0.2,0,0.2-0.2,0.2
			C292.5,62.5,292.4,62.2,292.3,61.9z"/>
		<path class="st165" d="M285.6,81.3c0.1-0.1,0.1-0.3,0.2-0.4c0.1,0.3,0.1,0.6,0.2,0.9c0,0,0,0,0,0
			C285.5,81.8,285.6,81.5,285.6,81.3z"/>
		<path class="st48" d="M269.7,60.2c-0.2-0.1-0.4-0.2-0.8-0.3c0.5-0.2,0.8,0,1,0.1C270,60.2,269.9,60.3,269.7,60.2z"/>
		<path class="st166" d="M264.7,81.1c-0.1-0.1-0.1-0.1-0.2-0.2c0.1-0.2,0.3-0.4,0.4-0.5c0.1,0,0.1,0.1,0.2,0.1
			C264.9,80.7,264.8,80.9,264.7,81.1z"/>
		<path class="st167" d="M251.3,53.2c0.1,0.6-0.1,0.8-0.4,0.9C250.7,53.8,251,53.6,251.3,53.2z"/>
		<path class="st168" d="M281.3,42.5c0.1,0.1,0.2,0.1,0.4,0.2c-0.2,0.2-0.5,0.3-0.8,0.3C280.8,42.7,281.1,42.6,281.3,42.5z"/>
		<path class="st169" d="M287.8,62.5c-0.3-0.1-0.5-0.1-0.8-0.2c0.3,0.1,0.6-0.4,1-0.1C288.2,62.4,288,62.5,287.8,62.5z"/>
		<path class="st107" d="M299.3,57.2c-0.2-0.2-0.3-0.5-0.3-0.8c0.1-0.1,0.1-0.1,0.2,0c0.1,0.1,0.2,0.3,0.3,0.4
			C299.7,57.1,299.3,57,299.3,57.2z"/>
		<path class="st85" d="M268.8,33.3c-0.1-0.1-0.1-0.1-0.2-0.2c0.2-0.1,0.4-0.3,0.5-0.4c0.2-0.1,0.3,0,0.2,0.2
			C269.2,33.1,269,33.2,268.8,33.3z"/>
		<path class="st69" d="M286.5,61c0.5,0,0.7,0.2,0.9,0.7C286.9,61.5,286.7,61.3,286.5,61z"/>
		<path class="st59" d="M269.7,60.2c0.1-0.1,0.1-0.1,0.2-0.2c0.2,0,0.4,0.1,0.6,0.3c-0.1,0.1-0.1,0.1-0.2,0.2
			C270.1,60.5,269.9,60.4,269.7,60.2z"/>
		<path class="st170" d="M282.7,64.8c-0.1,0-0.1,0.1-0.1,0.1c-0.2-0.1-0.3-0.2-0.3-0.4c0-0.1,0.1-0.2,0.2-0.1
			C282.6,64.5,282.7,64.6,282.7,64.8z"/>
		<path class="st101" d="M261.2,33.1c0.1-0.2,0.1-0.5,0.4-0.6c0.1,0.3-0.1,0.5-0.3,0.7C261.3,33.3,261.2,33.2,261.2,33.1z"/>
		<path class="st95" d="M287.8,62.5c0.1-0.1,0.1-0.2,0.2-0.3c0.2,0.1,0.4,0.2,0.3,0.4c-0.1,0.2-0.4,0.3-0.6,0.2
			C287.7,62.7,287.7,62.6,287.8,62.5z"/>
		<path class="st73" d="M273.3,60.2c0.1-0.1,0.1-0.1,0.2-0.2c0.2,0,0.5,0.1,0.4,0.3C273.9,60.5,273.5,60.4,273.3,60.2z"/>
		<path class="st171" d="M262,31.6c0.1,0.1,0.1,0.1,0.2,0.2c-0.1,0.2-0.2,0.4-0.5,0.6C261.7,32,261.9,31.8,262,31.6z"/>
		<path class="st172" d="M287.4,71.5c-0.1,0.1-0.3,0.1-0.4,0.2c-0.3,0-0.6,0-0.5-0.4c0,0,0,0,0,0C286.8,71.3,287.1,71.4,287.4,71.5z
			"/>
		<path class="st173" d="M283.5,79.2c-0.1,0-0.1,0-0.2,0.1c0.1-0.3-0.1-0.6-0.2-0.9c0-0.1,0.1-0.2,0.2-0.3c0.1,0,0.1,0,0.2,0.1
			c0.1,0.2,0.1,0.4,0.1,0.6c0,0.1,0,0.1,0,0.2C283.6,79.1,283.5,79.1,283.5,79.2z"/>
		<path class="st133" d="M289.3,71.8c-0.1-0.1-0.1-0.1-0.2-0.2c0.2-0.2,0.5-0.2,0.8-0.1C289.8,71.8,289.6,71.8,289.3,71.8z"/>
		<path class="st174" d="M283.7,78.8c-0.2-0.1-0.2-0.3-0.2-0.5c-0.1-0.2,0-0.3,0.2-0.3c0.1,0.2,0.2,0.5,0.3,0.7
			C283.8,78.8,283.8,78.8,283.7,78.8z"/>
		<path class="st175" d="M292.6,62.8c0.1-0.1,0.1-0.1,0.2-0.2c0.2,0.3,0.2,0.6,0.1,1.2C292.7,63.3,292.6,63.1,292.6,62.8z"/>
		<path class="st176" d="M248.5,63.9c0.3,0.3,0.1,0.8,0.2,1.2c0,0,0,0.1,0,0.1c-0.1,0.1-0.1,0.1-0.2,0
			C248.5,64.8,248.4,64.4,248.5,63.9z"/>
		<path class="st165" d="M263.6,37.1c-0.1,0.3-0.2,0.5-0.5,0.7c-0.1-0.4,0.1-0.6,0.3-0.7C263.5,37,263.6,37,263.6,37.1z"/>
		<path class="st177" d="M283.3,78.2c-0.1,0.1-0.1,0.1-0.2,0.2c-0.1-0.2-0.1-0.3-0.2-0.5c0-0.1,0-0.3,0-0.4c0.1,0,0.1,0,0.2,0
			C283.3,77.7,283.5,77.9,283.3,78.2z"/>
		<path class="st178" d="M280.3,25.8c0,0.1,0,0.1,0,0.2c-0.4,0-0.9,0-1.3,0c0-0.1,0-0.1,0-0.2C279.4,25.8,279.9,25.8,280.3,25.8z"/>
		<path class="st179" d="M272.4,63.1c-0.2,0.4-0.1,0.7-0.4,0.7C271.9,63.6,272,63.4,272.4,63.1z"/>
		<path class="st85" d="M283.3,78.2c-0.1-0.2-0.1-0.5-0.2-0.7c0-0.1,0-0.2,0-0.3c0.3,0.2,0.4,0.5,0.5,0.8c-0.1,0.1-0.1,0.2-0.2,0.3
			C283.4,78.3,283.4,78.2,283.3,78.2z"/>
		<path class="st122" d="M284.3,82.5c0.2,0.2,0.1,0.5,0.1,0.8c-0.3-0.2-0.3-0.4-0.4-0.6C284.1,82.7,284.2,82.5,284.3,82.5z"/>
		<path class="st180" d="M272.6,64.4c0.1-0.4,0.2-0.7,0.3-1C273.1,63.8,273,64,272.6,64.4z"/>
		<path class="st23" d="M272.6,60.4c-0.1,0-0.2,0.1-0.4,0.1c-0.1-0.1-0.2-0.1-0.4-0.2c0-0.2,0-0.3,0.2-0.2
			C272.2,60.3,272.4,60.3,272.6,60.4z"/>
		<path class="st181" d="M278.6,76.5c0.1,0.1,0.2,0.2,0.3,0.3c-0.1,0.2-0.3,0.5-0.5,0.3C278.1,76.8,278.4,76.7,278.6,76.5z"/>
		<path class="st85" d="M269.4,57.6c-0.3-0.2-0.6-0.3-0.5-0.7c0.2,0.2,0.4,0.3,0.5,0.5C269.4,57.4,269.4,57.5,269.4,57.6z"/>
		<path class="st45" d="M252.1,50.2c-0.1,0.2-0.2,0.5-0.5,0.5c-0.1-0.3,0.2-0.5,0.3-0.7C252.1,50,252.2,50,252.1,50.2z"/>
		<path class="st92" d="M297.8,50.2c-0.1,0-0.1,0-0.2,0c0-0.2-0.2-0.5,0.1-0.7C297.9,49.8,297.8,50,297.8,50.2z"/>
		<path class="st182" d="M282.7,76.4c-0.1,0-0.1,0-0.2,0c-0.2-0.2-0.3-0.3-0.3-0.7C282.6,75.8,282.6,76.1,282.7,76.4z"/>
		<path class="st183" d="M285.6,60.2c0.3-0.1,0.5,0.1,0.6,0.3c0,0-0.1,0.2-0.1,0.2C285.8,60.7,285.7,60.5,285.6,60.2z"/>
		<path class="st118" d="M300.4,60.8c0-0.1-0.1-0.2-0.2-0.3c0-0.1,0.1-0.2,0.2-0.2c0.1,0,0.1,0.2,0.1,0.3
			C300.6,60.7,300.6,60.8,300.4,60.8z"/>
		<path class="st25" d="M263.6,37.1c-0.1,0-0.1,0-0.2-0.1c0.1-0.2,0.2-0.4,0.3-0.6c0.1,0.1,0.1,0.1,0.2,0.2
			C263.9,36.8,263.7,37,263.6,37.1z"/>
		<path class="st90" d="M291.2,61.3c-0.1,0-0.2,0-0.3,0c-0.1-0.1-0.2-0.3-0.3-0.4c0.2,0,0.1-0.4,0.4-0.2
			C291.1,60.9,291.2,61.1,291.2,61.3z"/>
		<path class="st100" d="M284.8,78.8c-0.2-0.2-0.2-0.4-0.2-0.7c0.3,0,0.3,0.3,0.4,0.5C284.9,78.7,284.9,78.8,284.8,78.8z"/>
		<path class="st184" d="M251.7,60.7c0,0.3-0.1,0.5-0.3,0.7c-0.2-0.3-0.1-0.5,0.1-0.7C251.6,60.7,251.7,60.7,251.7,60.7z"/>
		<path class="st173" d="M261,64.4c-0.1-0.2-0.1-0.5,0.1-0.5c0.3-0.1,0.2,0.2,0.1,0.3C261.2,64.2,261.1,64.3,261,64.4z"/>
		<path class="st115" d="M270,39.1c-0.1,0.2-0.2,0.5-0.5,0.4c0,0-0.1-0.1-0.1-0.1C269.5,39.1,269.7,39.1,270,39.1
			C270,39.1,270,39.1,270,39.1z"/>
		<path class="st185" d="M271.5,60.9c0-0.1,0-0.1,0-0.2c0.2,0.1,0.4,0.1,0.6,0.2C271.9,61.2,271.7,61.2,271.5,60.9z"/>
		<path class="st12" d="M268.4,114.3c0.4,0.1,0.6,0.4,0.6,0.8C268.8,114.9,268.5,114.7,268.4,114.3z"/>
		<path class="st186" d="M264.5,57.5c-0.2,0-0.4-0.1-0.5-0.3c0.3-0.2,0.6-0.1,0.8,0.1C264.9,57.5,264.7,57.4,264.5,57.5z"/>
		<path class="st187" d="M284.8,70.7c-0.3,0-0.5-0.1-0.5-0.5C284.7,70.3,285,70.3,284.8,70.7C284.8,70.7,284.8,70.7,284.8,70.7z"/>
		<path class="st101" d="M267.7,70c0-0.1,0-0.2,0-0.3c0.2-0.1,0.4-0.3,0.5,0C268.3,70,267.9,70,267.7,70z"/>
		<path class="st118" d="M300.2,62.6c0.2-0.1,0.2-0.3,0.2-0.4c0.2,0.2,0.2,0.5,0.1,0.8C300.3,63,300.3,62.8,300.2,62.6z"/>
		<path class="st165" d="M269.4,32.9c-0.1-0.1-0.1-0.1-0.2-0.2c0.2-0.2,0.4-0.3,0.7-0.4C269.9,32.7,269.6,32.8,269.4,32.9z"/>
		<path class="st188" d="M275,80.5c-0.1-0.1-0.1-0.1-0.2-0.2c0-0.2,0.1-0.5,0.3-0.4C275.3,80,275.3,80.3,275,80.5z"/>
		<path class="st140" d="M277.7,39.3c0.1,0.1,0.2,0.2,0.2,0.2c-0.2,0.2-0.5,0.4-0.8,0.3l0,0C277.2,39.6,277.4,39.4,277.7,39.3z"/>
		<path class="st189" d="M272.1,60.2c-0.1,0.1-0.1,0.1-0.2,0.2c-0.2-0.1-0.4-0.2-0.6-0.4c-0.1,0-0.1-0.1-0.1-0.1c0-0.1,0-0.1,0-0.1
			C271.5,59.9,271.8,60,272.1,60.2z"/>
		<path class="st167" d="M253.9,47.7c-0.1,0.4-0.3,0.6-0.7,0.8C253.4,48,253.6,47.9,253.9,47.7z"/>
		<path class="st190" d="M284.3,64.7c0,0-0.1,0.1-0.1,0.1c0-0.1,0-0.2,0-0.2c0.1-0.4,0.2-0.7,0.6-0.2
			C284.5,64.4,284.4,64.6,284.3,64.7z"/>
		<path class="st191" d="M293.8,40.4c0.1-0.4,0.2-0.6,0.5-0.7C294.3,40,294.2,40.3,293.8,40.4z"/>
		<path class="st123" d="M285.8,61.7c-0.1,0.1-0.2,0.2-0.3,0.3c-0.1-0.1-0.4-0.3-0.3-0.5C285.5,61.2,285.7,61.5,285.8,61.7z"/>
		<path class="st175" d="M251.7,60.7c-0.1,0-0.1,0-0.2,0c0-0.3-0.1-0.7,0.2-1c0.1,0.2,0,0.4,0.2,0.6
			C251.8,60.5,251.8,60.6,251.7,60.7z"/>
		<path class="st192" d="M284.9,82.2c-0.2-0.1-0.3-0.2-0.2-0.4c0,0,0.1-0.1,0.2-0.1C285,81.8,285,82,284.9,82.2z"/>
		<path class="st193" d="M284.3,82.5c-0.1,0.1-0.1,0.1-0.2,0.2c-0.1-0.2-0.1-0.4-0.2-0.6c0.1-0.1,0.1-0.3,0.2-0.4
			C284.3,82,284.2,82.3,284.3,82.5z"/>
		<path class="st194" d="M277.1,39.9c-0.1,0.3-0.3,0.5-0.7,0.5C276.6,40,276.8,39.9,277.1,39.9C277.1,39.9,277.1,39.9,277.1,39.9z"
			/>
		<path class="st143" d="M263.4,82.5c0.1,0.1,0.1,0.1,0.2,0.2c-0.1,0.2-0.2,0.4-0.5,0.5C263,82.9,263.2,82.7,263.4,82.5z"/>
		<path class="st195" d="M283.1,61.5c0.1,0,0.3,0,0.4,0c0.1,0.1,0.2,0.2,0.4,0.3c0,0.1-0.1,0.1-0.2,0.2
			C283.4,62,283.3,61.7,283.1,61.5z"/>
		<path class="st75" d="M273.1,63c-0.1-0.2-0.1-0.2-0.1-0.3c0-0.2,0.1-0.3,0.3-0.3c0,0,0.1,0.2,0.1,0.2
			C273.3,62.7,273.2,62.8,273.1,63z"/>
		<path class="st96" d="M273.3,68.4c-0.2-0.1-0.2-0.2-0.2-0.4c0-0.1,0.1-0.4,0.2-0.3C273.7,68,273.3,68.2,273.3,68.4z"/>
		<path class="st73" d="M264.5,57.5c0.1-0.1,0.3-0.1,0.4-0.2c0.2,0,0.4,0,0.6,0.2c-0.1,0.1-0.3,0.1-0.4,0.2
			C264.9,57.6,264.7,57.6,264.5,57.5z"/>
		<path class="st21" d="M257,97.8c-0.3-0.4-0.1-0.8-0.2-1.2C257.1,97,257,97.4,257,97.8z"/>
		<path class="st196" d="M271.3,59.8c0,0.1,0,0.1,0,0.2c-0.2-0.1-0.4-0.3-0.7-0.4C270.9,59.4,271.1,59.5,271.3,59.8z"/>
		<path class="st131" d="M255.2,54c-0.1,0-0.1,0-0.2,0c0.1-0.2,0.2-0.6,0.4-0.5C255.6,53.6,255.3,53.9,255.2,54z"/>
		<path class="st21" d="M256.8,96.1c-0.2-0.1-0.3-0.3-0.1-0.4c0.3-0.2,0.4,0.1,0.5,0.3C257,95.9,256.9,95.9,256.8,96.1z"/>
		<path class="st77" d="M283.7,62c0.1-0.1,0.1-0.1,0.2-0.2c0.3,0,0.5-0.1,0.8,0.2c-0.2,0-0.3,0-0.4,0.2
			C284.1,62.2,283.9,62.1,283.7,62z"/>
		<path class="st69" d="M252.1,65c0.1,0.1,0.1,0.1,0.2,0.2c0,0.2-0.1,0.4-0.5,0.7C251.9,65.5,252,65.3,252.1,65z"/>
		<path class="st197" d="M264.7,59.3c0.1,0,0.2,0.1,0.4,0.1c0.2,0,0.4,0.1,0.4,0.4c-0.3-0.1-0.6-0.1-0.7-0.4
			C264.7,59.3,264.7,59.3,264.7,59.3z"/>
		<path class="st136" d="M295.1,41.3c0,0.4-0.2,0.6-0.4,0.8C294.6,41.7,294.8,41.6,295.1,41.3z"/>
		<path class="st27" d="M278.4,88.8c0.4,0,0.8,0,1.2,0C279.2,89,278.8,88.9,278.4,88.8z"/>
		<path class="st160" d="M286,59c-0.4,0-0.8,0-1.2,0C285.2,58.8,285.6,58.8,286,59z"/>
		<path class="st143" d="M272,87.6c-0.2-0.1-0.4-0.2-0.8-0.3c0.4-0.2,0.6-0.2,0.8,0C272.1,87.5,272.1,87.5,272,87.6
			C272.1,87.6,272,87.6,272,87.6z"/>
		<path class="st198" d="M272,87.6c0-0.1,0-0.2,0-0.2c0.2,0.1,0.5,0.2,0.7,0.2c-0.1,0.1-0.3,0.1-0.4,0.2
			C272.3,87.8,272.1,87.7,272,87.6z"/>
		<path class="st199" d="M262.4,65.3c0.3,0,0.4,0.1,0.5,0.4C262.6,65.7,262.5,65.5,262.4,65.3C262.5,65.3,262.4,65.3,262.4,65.3z"/>
		<path class="st38" d="M248.5,65.3c0.1,0,0.1,0,0.2,0c0.1,0.2,0.2,0.5-0.1,0.5C248.4,65.8,248.5,65.4,248.5,65.3z"/>
		<path class="st200" d="M290.3,62C290.3,62,290.4,62,290.3,62c0.3-0.1,0.4,0.1,0.4,0.3c0,0-0.1,0.1-0.1,0.1
			C290.4,62.4,290.3,62.2,290.3,62z"/>
		<path class="st62" d="M252.1,50.2c-0.1-0.1-0.1-0.1-0.2-0.2c0.1-0.2,0.2-0.5,0.4-0.4C252.6,49.9,252.3,50.1,252.1,50.2z"/>
		<path class="st201" d="M272.8,62.2c0,0.1-0.1,0.1-0.1,0.2c-0.1,0-0.2-0.1-0.2-0.1c0-0.1,0-0.2,0.1-0.2
			C272.7,62,272.7,62,272.8,62.2z"/>
		<path class="st202" d="M273,40.5c0.1,0.2,0.3,0.2,0.4,0.2c-0.2,0.2-0.4,0.2-0.6,0.2c-0.2,0-0.3-0.1-0.2-0.2
			C272.7,40.6,272.9,40.5,273,40.5z"/>
		<path class="st79" d="M261.2,33.1c0.1,0.1,0.1,0.1,0.2,0.2c-0.1,0.2-0.1,0.4-0.2,0.5c-0.1-0.1-0.1-0.1-0.2-0.2
			C261,33.5,261.1,33.3,261.2,33.1z"/>
		<path class="st203" d="M250.8,51.9c0-0.3,0.1-0.5,0.5-0.6C251.2,51.6,251.1,51.8,250.8,51.9z"/>
		<path class="st109" d="M299.5,62.6c-0.1,0.1-0.1,0.2-0.2,0.2c-0.2-0.2-0.2-0.4-0.2-0.6c-0.1-0.2,0-0.2,0.2-0.2
			C299.3,62.3,299.4,62.4,299.5,62.6z"/>
		<path class="st204" d="M299.3,62.1c-0.1,0.1-0.1,0.1-0.2,0.2c-0.1-0.2-0.3-0.5-0.1-0.6C299.2,61.5,299.2,61.9,299.3,62.1z"/>
		<path class="st118" d="M283.7,68.3c-0.2-0.1-0.4-0.1-0.4-0.4c0,0,0.1-0.1,0.1-0.1C283.7,67.9,283.8,68,283.7,68.3
			C283.7,68.3,283.7,68.3,283.7,68.3z"/>
		<path class="st195" d="M267.3,56.8c-0.1,0.1-0.1,0.1-0.2,0.2c-0.2,0-0.4,0-0.3-0.2C267,56.5,267.2,56.6,267.3,56.8z"/>
		<path class="st152" d="M264.7,34.8c0.1,0.1,0.1,0.1,0.2,0.2c-0.1,0.1-0.2,0.3-0.3,0.4c-0.1,0-0.2,0-0.3,0
			C264.5,35.2,264.6,35,264.7,34.8z"/>
		<path class="st151" d="M248.9,57.4c0.2,0,0.5,0,0.7,0c-0.1,0.1-0.1,0.3-0.2,0.4C249.2,57.7,249,57.6,248.9,57.4z"/>
		<path class="st164" d="M284.3,80.5c0.1-0.1,0.1-0.1,0.2-0.2c0.1,0.2,0.2,0.4,0.1,0.7C284.3,80.9,284.3,80.7,284.3,80.5z"/>
		<path class="st95" d="M266.6,69.6c0-0.1,0-0.1,0-0.2c0.1-0.1,0.3-0.3,0.4,0C267,69.5,266.8,69.6,266.6,69.6z"/>
		<path class="st161" d="M299.3,51.7c0.2,0.2,0.2,0.4,0.1,0.7C299.1,52.2,299.1,52,299.3,51.7C299.3,51.7,299.3,51.7,299.3,51.7z"/>
		<path class="st158" d="M285.2,79.2c0,0.2,0.4,0.4,0,0.5c-0.3,0.1-0.2-0.3-0.2-0.5C285,79.1,285.1,79.1,285.2,79.2z"/>
		<path class="st12" d="M298.9,79.4c0-0.3,0-0.5,0-0.8c0.3,0.2,0.1,0.5,0.2,0.7C299.1,79.5,299,79.5,298.9,79.4z"/>
		<path class="st118" d="M285.2,79.2c-0.1,0-0.1,0-0.2,0c-0.2-0.1-0.1-0.2-0.2-0.4c0.1-0.1,0.1-0.1,0.2-0.2
			C285.1,78.8,285.1,79,285.2,79.2z"/>
		<path class="st94" d="M288.2,60c0.2,0,0.4,0,0.6,0c0,0.1-0.1,0.3-0.1,0.3C288.4,60.4,288.3,60.2,288.2,60z"/>
		<path class="st205" d="M299.6,52.9c0.1,0.1,0.2,0.2,0.2,0.2c0,0.1,0,0.1-0.1,0.2c-0.1-0.1-0.2-0.1-0.2-0.2
			C299.5,53.1,299.6,53,299.6,52.9z"/>
		<path class="st42" d="M272.4,119.6c0.1-0.1,0.1-0.1,0.2-0.2c0.1,0.2,0.4,0.4,0.2,0.6C272.6,120.1,272.5,119.8,272.4,119.6z"/>
		<path class="st206" d="M287.7,122.4c0.1,0,0.2,0,0.3,0c-0.1,0.2-0.1,0.5-0.3,0.7C287.7,122.8,287.7,122.6,287.7,122.4z"/>
		<path class="st52" d="M281.5,76c0.2,0.3,0.2,0.5,0,0.8c-0.1,0-0.1,0-0.2,0C281.5,76.5,281.5,76.3,281.5,76z"/>
		<path class="st207" d="M272.6,40.6c0.1,0.1,0.1,0.2,0.2,0.2c-0.3,0.2-0.4,0.1-0.6-0.1C272.3,40.7,272.5,40.7,272.6,40.6z"/>
		<path class="st208" d="M245.1,104.6c0,0.2,0.1,0.4-0.2,0.6c-0.2-0.2-0.2-0.4-0.2-0.6C244.9,104.4,245,104.4,245.1,104.6z"/>
		<path class="st209" d="M245.1,104.6c-0.1,0-0.2,0-0.3,0c0-0.2,0-0.4,0-0.6c0.1,0,0.2,0,0.4,0C245.1,104.2,245.1,104.4,245.1,104.6
			z"/>
		<path class="st210" d="M284.7,64.9c0.3,0.3,0.5,0.5,0.8,0.8c0.2,0.2,0.5,0.3,0.6,0c0.2-0.4,0.4-0.5,0.7-0.3
			c0.3,0.2,0.3,0.6,0.2,0.9c-0.3,0.6-1.1,0.8-1.7,0.4c-0.2-0.2-0.4-0.4-0.6-0.5C284.5,65.8,284.4,65.3,284.7,64.9z"/>
		<path class="st83" d="M284.7,64.9c-0.2,0.4,0,0.9-0.1,1.3C284.4,65.8,284.2,65.3,284.7,64.9z"/>
		<path class="st52" d="M281.4,76.9c0.3,0.2,0.2,0.4,0,0.6C281.1,77.3,281.4,77.1,281.4,76.9z"/>
		<path class="st211" d="M264.7,63.8c0.5,0.4,0.8,0.8,1.4,0.2c0.3-0.3,0.8,0,0.7,0.6c-0.1,0.7-0.7,0.8-1.1,1
			c-0.5,0.2-0.7-0.3-0.9-0.6C264.6,64.6,264.5,64.3,264.7,63.8z"/>
		<path class="st212" d="M269.6,84.4c0.3,0.1,0.5-0.1,0.8-0.1c0.2,0.1,0.4,0.1,0.6,0.2C270.5,84.6,270,84.8,269.6,84.4z"/>
		<path class="st213" d="M299.1,56.4L299.1,56.4c-0.1,0-0.2,0-0.2,0c-0.3-0.2-0.5-0.6-0.6-0.9c0.1-0.1,0.1-0.1,0.2-0.2
			C298.8,55.6,299,56,299.1,56.4z"/>
	</g>
</g>
</svg>
