<?xml version="1.0" encoding="utf-8"?>
<!-- Generator: Adobe Illustrator 23.0.1, SVG Export Plug-In . SVG Version: 6.00 Build 0)  -->
<svg version="1.1" xmlns="http://www.w3.org/2000/svg" xmlns:xlink="http://www.w3.org/1999/xlink" x="0px" y="0px"
	 viewBox="0 0 425 179" style="enable-background:new 0 0 425 179;" xml:space="preserve">
<style type="text/css">
	.st0{fill:#FFFFFF;}
	.st1{font-family:'Roboto-Bold';}
	.st2{font-size:12px;}
	.st3{fill:#24B865;}
	.st4{clip-path:url(#SVGID_3_);}
	.st5{fill-rule:evenodd;clip-rule:evenodd;fill:#FFFFFF;}
	
		.st6{fill-rule:evenodd;clip-rule:evenodd;fill:#FFFFFF;stroke:#FFFFFF;stroke-width:2;stroke-linecap:round;stroke-linejoin:round;stroke-miterlimit:10;}
	
		.st7{fill-rule:evenodd;clip-rule:evenodd;fill:#24B865;stroke:#FFFFFF;stroke-width:2;stroke-linecap:round;stroke-linejoin:round;stroke-miterlimit:10;}
	.st8{fill:none;stroke:#FFFFFF;stroke-width:1.25;stroke-linecap:round;stroke-linejoin:round;stroke-miterlimit:10;}
	.st9{fill:#21B765;}
	.st10{fill:#FEFEFE;}
	.st11{fill:#22B865;}
	.st12{fill:#21B865;}
	.st13{fill:#22B866;}
	.st14{fill:#23B866;}
	.st15{fill:#24B867;}
	.st16{fill:#24B967;}
	.st17{fill:#DEF4E7;}
	.st18{fill:#ACE3C4;}
	.st19{fill:#D4F0E0;}
	.st20{fill:#64CC92;}
	.st21{fill:#6ACF97;}
	.st22{fill:#7ED5A5;}
	.st23{fill:#3BBF76;}
	.st24{fill:#45C27D;}
	.st25{fill:#BFEAD2;}
	.st26{fill:#43C27C;}
	.st27{fill:#68CE95;}
	.st28{fill:#6ACE97;}
	.st29{fill:#E0F4E9;}
	.st30{fill:#AAE2C3;}
	.st31{fill:#71D19B;}
	.st32{fill:#4EC683;}
	.st33{fill:#59C98B;}
	.st34{fill:#37BE74;}
	.st35{fill:#8EDAB0;}
	.st36{fill:#EBF8F0;}
	.st37{fill:#FDFEFE;}
	.st38{fill:#51C685;}
	.st39{fill:#25B967;}
	.st40{fill:#AAE3C3;}
	.st41{fill:#CCEEDB;}
	.st42{fill:#87D8AB;}
	.st43{fill:#CBEEDA;}
	.st44{fill:#A3E0BE;}
	.st45{fill:#AFE5C7;}
	.st46{fill:#D3F0E0;}
	.st47{fill:#87D7AA;}
	.st48{fill:#FDFEFD;}
	.st49{fill:#F7FCF9;}
	.st50{fill:#F9FDFB;}
	.st51{fill:#2BBB6C;}
	.st52{fill:#E8F7EF;}
	.st53{fill:#26B968;}
	.st54{fill:#2EBC6E;}
	.st55{fill:#E1F5EA;}
	.st56{fill:#A4E1BE;}
	.st57{fill:#E5F6ED;}
	.st58{fill:#97DDB6;}
	.st59{fill:#E6F6ED;}
	.st60{fill:#49C47F;}
	.st61{fill:#47C37E;}
	.st62{fill:#ACE4C5;}
	.st63{fill:#E9F7EF;}
	.st64{fill:#96DCB5;}
	.st65{fill:#D9F2E4;}
	.st66{fill:#B3E6CA;}
	.st67{fill:#31BD70;}
	.st68{fill:#8AD9AD;}
	.st69{fill:#B4E6CA;}
	.st70{fill:#DEF4E8;}
	.st71{fill:#D6F1E2;}
	.st72{fill:#F9FCFB;}
	.st73{fill:#1FB764;}
	.st74{fill:#25B968;}
	.st75{fill:#29BA6A;}
	.st76{fill:#2CBB6C;}
	.st77{fill:#2EBB6D;}
	.st78{fill:#32BD71;}
	.st79{fill:#2DBB6D;}
	.st80{fill:#38BF74;}
	.st81{fill:#14B35D;}
	.st82{fill:#27B969;}
	.st83{fill:#31BC70;}
	.st84{fill:#2FBC6E;}
	.st85{fill:#35BE73;}
	.st86{fill:#3ABF76;}
	.st87{fill:#36BE72;}
	.st88{fill:#3EC179;}
	.st89{fill:#36BE73;}
	.st90{fill:#46C37E;}
	.st91{fill:#47C37F;}
	.st92{fill:#4BC582;}
	.st93{fill:#34BE72;}
	.st94{fill:#34BD72;}
	.st95{fill:#B6E7CB;}
	.st96{fill:#3FC17A;}
	.st97{fill:#89D8AC;}
	.st98{fill:#6FD09A;}
	.st99{fill:#C8EDD8;}
	.st100{fill:#4AC481;}
	.st101{fill:#56C888;}
	.st102{fill:#58C98B;}
	.st103{fill:#63CC92;}
	.st104{fill:#1CB662;}
	.st105{fill:#42C27B;}
	.st106{fill:#49C480;}
	.st107{fill:#5ECA8E;}
	.st108{fill:#F7FCF8;}
	.st109{fill:#BFE9D2;}
	.st110{fill:#4BC481;}
	.st111{fill:#EEF9F3;}
	.st112{fill:#4CC582;}
	.st113{fill:#40C17A;}
	.st114{fill:#58C98A;}
	.st115{fill:#44C27C;}
	.st116{fill:#54C788;}
	.st117{fill:#68CD94;}
	.st118{fill:#82D6A7;}
	.st119{fill:#1EB763;}
	.st120{fill:#7BD4A3;}
	.st121{fill:#6ACE96;}
	.st122{fill:#50C685;}
	.st123{fill:#C6ECD7;}
	.st124{fill:#54C787;}
	.st125{fill:#4FC684;}
	.st126{fill:#7AD4A2;}
	.st127{fill:#90DAB1;}
	.st128{fill:#53C787;}
	.st129{fill:#66CD93;}
	.st130{fill:#9BDEB8;}
	.st131{fill:#C6EBD6;}
	.st132{fill:#CDEEDB;}
	.st133{fill:#74D29E;}
	.st134{fill:#47C47F;}
	.st135{fill:#7DD4A3;}
	.st136{fill:#5BCA8D;}
	.st137{fill:#66CD94;}
	.st138{fill:#81D6A7;}
	.st139{fill:#DBF3E5;}
	.st140{fill:#61CB90;}
	.st141{fill:#AFE4C7;}
	.st142{fill:#77D29F;}
	.st143{fill:#C5ECD6;}
	.st144{fill:#87D8AA;}
	.st145{fill:#C4EBD5;}
	.st146{fill:#4DC583;}
	.st147{fill:#76D29F;}
	.st148{fill:#F3FBF6;}
	.st149{fill:#B7E7CD;}
	.st150{fill:#C9EDD9;}
	.st151{fill:#F5FBF7;}
	.st152{fill:#CEEEDC;}
	.st153{fill:#F0F9F4;}
	.st154{fill:#E9F7F0;}
	.st155{fill:#48C37F;}
	.st156{fill:#7CD4A3;}
	.st157{fill:#EAF8F0;}
	.st158{fill:#16B45E;}
	.st159{fill:#F9FCFA;}
	.st160{fill:#33BD70;}
</style>
<g id="Layer_2">
</g>
<g id="Layer_1">
	<text transform="matrix(1 0 0 1 245.7026 155.2148)" class="st0 st1 st2">COACH:</text>
	<text transform="matrix(1 0 0 1 215.2026 169.6148)" class="st0 st1 st2">RASSIE ERASMUS (SA)</text>
	<text transform="matrix(1 0 0 1 86.4092 155.2156)" class="st0 st1 st2">SOUTH AFRICA</text>
	<g>
		<g>
			<path id="SVGID_1_" class="st3" d="M177.5,50.4c0,0,9.1,76.1-49,88.5c-58-12.4-49-88.5-49-88.5S112.4,19.8,168,9
				C168,9,175.4,26.8,177.5,50.4z"/>
		</g>
		<g>
			<g>
				<defs>
					<path id="SVGID_2_" d="M177.5,50.4c0,0,9.1,76.1-49,88.5c-58-12.4-49-88.5-49-88.5S112.4,19.8,168,9
						C168,9,175.4,26.8,177.5,50.4z"/>
				</defs>
				<clipPath id="SVGID_3_">
					<use xlink:href="#SVGID_2_"  style="overflow:visible;"/>
				</clipPath>
				<g class="st4">
					<polygon class="st5" points="259.6,59.1 158.3,59.1 80.9,7.4 259.5,7.5 					"/>
					<polygon class="st6" points="129.2,72.8 47.5,18.3 47.5,127.4 					"/>
					<polygon class="st7" points="113.3,72.8 47.5,28.9 47.5,116.8 					"/>
					<polygon class="st6" points="259.6,86.6 158.3,86.6 80.9,138.3 259.5,138.3 					"/>
					<polygon class="st7" points="259.5,94.7 162,94.7 93,140.6 255.8,140.6 					"/>
					<polygon class="st7" points="259.5,51 162,51 96.7,7.5 259.5,7.5 					"/>
				</g>
			</g>
		</g>
		<g>
			<path class="st8" d="M177.5,50.4c0,0,9.1,76.1-49,88.5c-58-12.4-49-88.5-49-88.5S112.4,19.8,168,9C168,9,175.4,26.8,177.5,50.4z"
				/>
		</g>
	</g>
	<g>
		<path class="st0" d="M218.4,112.9c-0.8,0.6,0,22.3,0,22.3h112.6c0,0,0.8-26.6-0.1-27.1c-12.4-6.2-12.6-0.7-14.1-4.1
			c-3.8-8.4-17.1-14.7-17.1-14.7l-50.2,1c0,0-11.3,7.5-15.2,17.8C233.5,110.1,232.5,101.2,218.4,112.9z"/>
		<path class="st9" d="M328.4,107.3c-0.4-0.3-1-0.4-1.5-0.5c-0.3-0.1-0.6-0.1-0.8-0.4c-2.6-0.6-5.2-1.4-7.9-1.1
			c-0.7,0.1-0.8,0.2-0.5,0.8c1.6,3.2,2.1,6.7,2.6,10.2c0.3,1.7,0.2,3.5,0.2,5.4c-0.5-0.6-0.4-1.1-0.5-1.6c-0.5-2.6-0.8-5.2-1.4-7.8
			c-0.5-2.3-0.7-4.7-2-6.8c-0.5-0.8-1-1.5-1.2-2.4c-0.9-3.6-3.4-6-6.5-7.8c-3.2-1.9-6.4-3.7-9.3-6c-0.6-0.5-0.8-0.3-0.9,0.4
			c-0.1,0.9-0.1,1.7-0.5,2.6c0,0.7-0.2,1.3-0.5,2c-0.1,0.9-0.7,1.6-1.2,2.3c-0.5,0.8-1.1,1.5-1.8,2.2c-1.2,2.1-1.7,4.5-2.9,6.6
			c-0.9,1.5-1.5,3.2-2.3,4.7c-1.1,2.3-2.7,4.2-4.3,6.2c-1.3,1.7-2.8,3.2-4.4,4.6c-0.4,0.4-0.4,0.6,0,0.9c1.7,1.2,2.9,2.8,4.2,4.4
			c0.5,0.6,0.7,1.4,0.8,2.3c0,0.2,0.1,0.6-0.3,0.6c-0.3,0.1-0.5-0.1-0.6-0.3c-0.2-0.4-0.4-0.8-0.6-1.2c-0.1-0.2-0.1-0.4-0.2-0.5
			c-0.3-0.6-0.7-1.3-1.3-1.4c-0.5,0-0.6,0.9-0.7,1.4c-0.6,1.6-1,3.4-1.8,4.9c-0.2,0.3,0.1,0.4,0.2,0.6c0.5,0.8,1.2,1.4,1.6,2.3
			c-0.9,0.3-1.6,0.1-2-0.8c-0.2-0.4-0.4-0.7-0.7-1c-0.8-0.6-0.7-1.3-0.3-2.1c0.8-1.4,1.3-3,1.9-4.6c0.1-0.2,0.1-0.4,0.2-0.5
			c0.8-1.5,0.8-1.5-0.5-2.7c-0.4-0.4-0.8-0.7-1.3-1.1c-0.1-0.1-0.4-0.2-0.5-0.2c-2.6,0.5-5.5-0.9-7.7,1.6c-0.7,0.8-1.7,1.5-2.5,2.3
			c-0.3,0.3-0.6,0.5-0.2,1.1c1.3,2,2.5,4,3.7,6c0.3,0,0.4-0.6,1.1-0.4c-0.8,0.7-1.2,1.9-2.3,2.3c0.6-0.8,0.5-1.5-0.1-2.2
			c-1.2-1.5-2-3.1-2.8-4.9c-0.1-0.2-0.2-0.4-0.4-0.7c-1.2,1.5-2.4,2.7-3.8,3.9c-1,0.9-1.5,0.9-2.2-0.3c-1.1-2.2-1.9-4.5-3.1-6.6
			c-1-1.8-2.1-3.6-3-5.5c-0.1-0.3-0.1-0.6-0.4-0.8c-0.3-0.3-0.2-0.6-0.3-1c0-0.1-0.1-0.2-0.1-0.2c-0.1-0.3-0.2-0.6-0.3-0.9
			c-0.1-0.3-0.1-0.5-0.2-0.8c-0.1-0.1-0.1-0.2-0.1-0.3c0-0.2-0.1-0.5-0.1-0.7c0-0.1,0.1-0.2,0.1-0.2c0.1,0,0.2,0,0.2,0
			c0.8,1.3,1.2,2.9,1.9,4.3c0.9,1.9,2.1,3.7,3.1,5.5c0.9,1.7,1.8,3.3,2.4,5.1c0.2,0.7,0.6,1.2,0.8,1.9c1.6-1.1,3-2.5,4.1-4.1
			c0.2-0.3,0.2-0.6,0.1-1c0-0.1,0-0.3,0-0.4c0.1-0.1,0.3,0,0.4,0.1c0.2,0.5,0.5,0.2,0.7,0c1.3-1.3,2.6-2.6,4.2-3.6
			c-0.9-0.1-1.7-0.2-2.5-0.5c-0.1-0.1-0.3,0-0.5-0.1c-3.1-1.6-6.2-3.1-8.7-5.7c-2.1-2.2-3.4-4.8-4.8-7.4c-0.7-1.3-1-2.9-1.4-4.3
			c-0.5-1.9-1.2-3.7-1-5.7c0-0.3,0.1-0.7,0.1-1c0.1-0.4,0-0.6-0.2-0.9c-2-2-3-4.5-3.5-7.2c-0.5-2.6-0.7-5.3-0.9-7.9
			c-0.1-0.6,0-1.1-0.9-0.9c-0.6,0.1-1-0.3-1.5-0.9c-1.5-1.9-1.2-4.3-1.6-6.4c-0.6-2.9-1-5.8-1.3-8.7c-0.1-1-0.5-1.9-0.9-2.8
			c-0.6-1.4-0.2-2.6,1.1-3.3c0.2-0.1,0.4,0,0.5,0.2c0.2,0.3,0.1,0.5-0.2,0.6c-0.7,0.6-1,1.3-0.6,2.1c1.2,2,1.4,4.2,1.6,6.5
			c0.2,2.6,0.8,5.2,1.3,7.8c0.1,0.5,0.2,0.9,0.2,1.4c0,0.9,0.6,1.5,1.1,2.1c0.1,0.1,0.2,0.2,0.4,0.2c0.2-0.1,0.2-0.3,0.1-0.4
			c-0.2-1.5-0.1-3-0.4-4.5c-0.1-0.6-0.2-1.2-0.3-1.8c-0.1-0.5-0.2-1-0.7-1.4c-0.2-0.2-0.4-0.5-0.5-0.8c-0.5-1.7-1-3.3-1.2-5
			c0-0.4,0-0.7,0-1.1c0-0.1,0-0.2-0.1-0.3c-0.1-0.3,0-0.7-0.2-1c-0.2-0.3,0-0.7,0-1c0-0.4,0-0.7-0.1-1.1c-0.1-0.3-0.2-0.5-0.2-0.8
			c0-0.3,0-0.6,0.1-0.9c0.1-0.1,0.2-0.2,0.3-0.2c0.4,0.4,0.3,1,0.5,1.5c0.1,0.3,0.1,0.6,0.2,1c0.1,0.4,0.1,0.7,0.2,1.1
			c0.1,0.3,0,0.7,0.1,1c0,0.1,0,0.2,0.1,0.3c0,0.3,0.1,0.6,0.2,0.9c0.1,0.2,0.1,0.4,0.1,0.6c0.1,0.3,0.1,0.5,0.2,0.8
			c0.1,0.3,0.2,0.5,0.2,0.8c0.2,0.8,0.4,1.7,0.7,2.5c2,2.3,2.1,5.1,2.4,7.9c0.2,2.1,0.3,4.1,0.5,6.2c0.1,1.2,0.3,2.5,0.4,3.7
			c0,0.1,0.1,0.3,0.1,0.4c-0.1,1.1,0.1,2.1,0.6,3c0.9,2.1,1.8,4.2,3.4,5.9c0.3,0.3,0.6,0.7,0.8,1.1c0.1,0.2,0.2,0.4,0.1,0.6
			c-0.1,0.2-0.4,0.1-0.5,0c-0.5-0.3-0.6,0-0.6,0.4c0,1.7,0.4,3.3,0.9,5c0.4,1.2,0.8,2.5,1.3,3.7c0.9,2.2,2.1,4.3,3.5,6.2
			c1.5,2,3.4,3.8,5.7,5c0.4,0.2,0.7,0.3,1.1,0.4c0.6,0.1,1.2,0.4,1.7,0.8c0.5,0.5,1.2,0.7,1.9,0.7c1.6,0.1,3.1,0.6,4.6,0.7
			c1.4,0.1,2.8-0.1,3.9-1c4.3-3.4,7.7-7.4,9.8-12.5c0.4-1,0.8-2.1,1.4-3.1c0-0.1,0.1-0.1,0.2-0.2c-0.1,0.1-0.1,0.1-0.2,0.2
			c-2.6,3.1-5.8,4.6-9.8,5c-2.7,0.2-5.4,0.3-8.1,0.4c-2.1,0.1-4.2,0-6.3-0.4c-0.4-0.1-0.8-0.3-1.2-0.5c-2.7-1.5-4.8-3.6-6.4-6.2
			c-0.5-0.8-1.2-1.3-1.8-1.9c-0.6-0.6-1-1.2-1.3-1.9c-0.1-0.2-0.2-0.5,0-0.7c0.2-0.2,0.5,0,0.7,0.2c1.2,1.3,2.5,2.4,3.7,3.8
			c1.6,1.9,3.1,3.8,5.3,5c0.7,0.4,1.4,0.6,2.1,0.7c3.8,0.1,7.7,0.2,11.5-0.2c1.8-0.2,3.7-0.4,5.4-1c1-0.4,1.9-1,2.8-1.7
			c2.8-2.4,4.9-5.4,7.4-8.1c1.6-1.7,2.3-3.9,2.8-6.2c0.6-2.2,0.8-4.5,1.2-6.7c0.3-1.4,0.4-2.9,0.3-4.4c-0.1-1.6,0.3-3.1,0.6-4.6
			c0.1-0.3,0.2-0.6,0.6-0.7c0.4-0.1,0.4,0.3,0.4,0.5c-0.3,1.7,0,3.4-0.4,5c0,1.1,0.1,2.2-0.2,3.3c-0.3,0.1-0.3,0.3-0.3,0.6
			c0,1.5-0.1,3-0.1,4.6c0,0.2-0.1,0.4,0.2,0.6c2.4,1.4,4.7,3,7.1,4.3c2.1,1.1,4.1,2.3,5.9,3.8c1.8,1.5,3.3,3.3,4,5.5
			c0.2,0.6,0.6,1,0.8,1.6c0.1,0.2,0.2,0.3,0.5,0.3c3.7-0.2,7.2,0.6,10.6,2c0.9,0.3,1.8,0.6,2.7,0.8c0,0.4,0,0.9,0,1.3
			c0,0-0.1,0-0.1,0C330,108,329.2,107.8,328.4,107.3z"/>
		<path class="st9" d="M299.9,79.4c-0.1-1.7,0-3.5,0.2-5.2c0.6,0.3,0.4,0.8,0.3,1.2c-0.1,0.7-0.1,1.5-0.1,2.2c0,0.4,0.1,0.8,0.5,0.9
			c0.4,0.2,0.8,0.1,1.1-0.1c0.4-0.3,0.8-0.7,0.9-1.3c0.7-1.8,1.1-3.7,1.2-5.6c0.2-1.9,0.7-3.8,0.8-5.7c0.1-0.4,0.1-0.9,0.3-1.3
			c0.2-0.5,0.3-1,0.3-1.5c0.1-0.9,0.3-1.7,0-2.6c-0.1-0.3-0.2-0.7-0.4-0.9c-0.2-0.3-0.4-0.5-0.8-0.4c-0.2,0-0.4,0.2-0.5,0.4
			c-0.1,0.4,0.1,0.6,0.4,0.7c0.8,0.5,1.2,1.2,1.3,2.1c0,0.7,0,1.4-0.3,2.1c0,0.1-0.1,0.2-0.1,0.3c-0.1,0.1-0.3,0.1-0.4,0
			c-0.6-0.8-0.2-1.8-0.8-2.7c-0.3,0.5-0.3,0.9-0.3,1.4c0,0.3,0,0.7,0.1,1c0,0.1,0.1,0.3,0.1,0.4c0,0.6,0,1.2,0,1.9
			c0,0.2,0,0.4-0.2,0.6c-0.3,0.2-0.4-0.1-0.6-0.3c-0.1-0.1-0.1-0.3-0.1-0.4c0-0.7,0-1.4,0-2.1c0-0.1,0-0.1-0.1-0.1c0,0,0,0,0,0.1
			c0,0.1,0,0.2-0.1,0.3c-0.1,0.3-0.2,0.7-0.3,1c-0.2,0.3-0.2,0.7-0.1,1.1c0,0.1,0.1,0.3,0.1,0.4c0.1,0.5,0.2,0.9,0.3,1.4
			c0.1,0.7,0.1,1.4,0,2c-0.3,0.7-1,0.9-1.6,1.2c-0.3,0.1-0.7,0.1-0.8-0.2c-0.2-0.3,0.2-0.5,0.4-0.6c0.3-0.2,0.7-0.4,1-0.6
			c0.4-0.6,0.3-1.3,0.1-2c-0.2-0.3-0.2-0.7-0.2-1.1c0-0.3,0-0.6,0-0.9c0-0.7,0.1-1.5-0.5-2c-0.5-3.4-2.4-6.2-3.6-9.4
			c-0.1-0.2-0.2-0.5-0.1-0.7c0.1-0.1,0.1-0.3,0.3-0.3c0.9,0.4,1.3,1.2,1.7,2c0.8,1.6,1.4,3.4,2.3,5c0.2,0.4,0.2,0.8,0.3,1.4
			c0.5-1.7,1-3.3,0.5-5.1c-0.3-1.2-0.3-2.5-0.5-3.8c0-0.3,0-0.6-0.2-0.9c-0.5-1.1-0.9-2.2-1.1-3.3c0-0.4-0.1-0.7-0.5-1
			c-0.5-0.7-0.9-1.4-1.2-2.2c0-0.2-0.1-0.4-0.2-0.6c-0.1-0.2-0.2-0.4-0.2-0.6c0-0.3-0.2-0.5-0.4-0.8c-0.5-1.2-1.3-2.3-1.6-3.6
			c0-0.2,0.1-0.4,0.3-0.4c0.9,0.5,1.2,1.4,1.6,2.2c0.3,0.4,0.5,0.9,0.6,1.4c0.1,0.3,0.2,0.7,0.4,1c0.7,2.5,2.4,4.6,3.1,7.1
			c0,0.2,0.1,0.4,0.1,0.7c0.1-0.3-0.1-0.5,0-0.7c0-0.4,0-0.7,0.1-1.1c0.4-2,0.1-3.8-0.6-5.7c-0.7-2-1.6-4-2.6-5.9
			c-0.1-0.3-0.3-0.6-0.4-0.8c-1-1.7-2.4-3.1-3.8-4.5c-0.4-0.3-1.1-0.8-0.8-1.2c0.4-0.6,1,0.1,1.4,0.4c2.4,1.6,4.3,3.7,5.6,6.3
			c0,0.1,0.1,0.2,0.2,0.1c0.1-0.2,0.1-0.4,0-0.6c-0.8-1.5-1.3-3.1-2.1-4.6c-0.8-1.3-1.6-2.5-3.1-3.2c-0.3-0.1-0.6-0.3-0.1-0.6
			c0.3-0.1,0.6-0.1,0.8,0c1.8,0.9,3.3,2,4.1,3.9c0.3,0.6,0.6,1.2,0.8,1.8c0.1,0.2,0.1,0.3,0.2,0.5c0-0.4,0-0.8-0.1-1.2
			c-0.1-0.6-0.2-1.1-0.3-1.7c-0.1-0.3-0.2-0.5-0.4-0.7c-0.7-1-1.6-1.9-2.1-3.1c-0.2-0.5-0.7-0.8-1.1-1.1c-0.8-0.6-1.4-1.3-1.5-2.4
			c0-0.5-0.2-0.6-0.7-0.5c-1.1,0.3-1.6,0-1.7-1.2c-0.1-0.6-0.2-1-0.9-1c-0.5,0-0.8-0.4-1-0.9c0-0.1-0.1-0.3,0-0.4
			c-0.1,0.1-0.1,0.2-0.1,0.2c-0.1,0.7-0.4,1.2-1.2,1.3c-0.8,0.1-1.5-0.1-1.9-0.9c-0.3-0.5-0.6-1.1-0.9-1.7c-0.2,0.1-0.2,0.3-0.2,0.4
			c-0.3,0.9-0.9,1.1-1.7,0.6c-0.5-0.3-0.8-0.8-1.1-1.3c-0.3-0.4-0.6-0.7-1.1-0.4c-0.4,0.2-0.7,0.1-1.1-0.1c-0.4-0.2-0.8-0.4-1.2-0.6
			c-1.3-0.8-1.3-0.8-1.8,0.6c-0.2,0.7-0.6,0.9-1.3,0.6c-0.5-0.2-0.9-0.5-1.3-0.8c-0.7-0.5-1.3-1-2.2-1.2c-0.5-0.1-1-0.2-1.4,0.1
			c-0.6,0.4-1.1,0.1-1.7-0.1c-1.3-0.5-2.7-0.8-4.1-0.9c-0.5,0-0.8,0.1-1,0.6c-0.2,0.7-0.7,0.8-1.3,0.7c-0.8-0.2-1.6-0.4-2.4-0.6
			c-0.2-0.1-0.5-0.2-0.7-0.2c-0.3-0.1-0.7,0-0.7,0.4c-0.1,0.4,0.3,0.5,0.6,0.5c0.7,0,1.3,0.1,1.9,0.3c0.2,0.1,0.5,0.1,0.5,0.4
			c0,0.3-0.3,0.4-0.5,0.5c-0.3,0.1-0.6,0.2-0.9,0.2c-3,0.1-5.8,1-8,3.1c-0.1,0.1-0.2,0.2-0.3,0.2c-0.1,0.1-0.3,0.2-0.5,0.3
			c0.3-0.1,0.4-0.3,0.6-0.4c2.3-1.2,4.6-1.6,7.2-1.2c0.2,0.1,0.3,0.3,0.3,0.5c-0.5,0.5-1.2,0.5-1.9,0.7c-1.5,0.3-3,0.8-4.4,1.5
			c-0.2,0.1-0.3,0.2-0.5,0.2c-1.9,1-3.4,2.6-4.8,4.2c-0.2,0.2-0.3,0.4-0.4,0.7c-0.1,0.3-0.3,0.6-0.7,0.4c-0.3-0.1-0.5-0.4-0.4-0.7
			c0-0.6,0.3-1.1,0.6-1.5c0.3-0.4,0.7-0.7,1-1.1c0.7-0.8,1.3-1.7,1.6-2.8c0.4-1.3,1.4-2.3,2.5-3.3c-0.5-0.2-1-0.2-1.4-0.3
			c-0.8-0.3-0.3,0.8-0.8,0.8c-0.3,0.1-0.4-0.1-0.6-0.3c-0.2-0.3-0.5-0.7-0.3-1.1c0.3-0.4,0.7-0.3,1.1-0.3c0.7,0,1.3,0.3,1.9,0.3
			c0.4,0,0.7,0,0.6-0.6c-0.2-0.9,0.3-1.2,1.1-1.1c0.9,0.1,1.9,0.1,2.8,0.3c0.5,0.1,1,0.1,0.9-0.7c-0.2-0.8,0.3-1.2,1.3-1.3
			c0.9,0,1.7,0.3,2.6,0.5c0.5,0.1,1.1,0.4,1.4-0.5c0.2-0.5,0.9-0.6,1.5-0.5c1.6,0.1,3.1,0.4,4.6,0.8c0.3,0.1,0.6,0.2,0.9-0.1
			c0.2-0.3,0.6-0.2,0.9-0.1c1.4,0.3,2.9,0.6,4.1,1.5c0.4,0.3,0.7,0.5,0.9-0.2c0.2-0.6,0.8-0.8,1.4-0.7c0.9,0.1,1.6,0.8,2.4,1.2
			c0.5,0.3,1,0.7,1.5-0.1c0.2-0.3,0.5-0.1,0.7,0.1c0.7,0.4,1.1,1.1,1.7,1.6c0.1-0.1,0.1-0.2,0.2-0.2c0.8-1.6,1.6-1.6,2.6,0
			c0.3,0.5,0.5,1,1,1.4c0.3-0.5,0.6-1,0.9-1.6c0.2-0.4,0.6-0.7,1.1-0.6c0.5,0,0.7,0.5,0.8,0.9c0.1,0.3,0.1,0.7,0.2,1
			c0.1,0.2,0.1,0.5,0.5,0.5c1,0,1.3,0.6,1.5,1.4c0.1,0.5,0.2,0.8,0.9,0.7c1.2-0.2,1.7,0.2,1.8,1.4c0,0.7,0.4,1.2,0.9,1.6
			c0.9,0.7,1.8,1.4,2.2,2.6c0.3,0.9,1.2,1.6,1.7,2.4c0.7,1.1,0.8,2.2,0.7,3.4c0,0.9-0.2,1.9-0.2,2.8c-0.1,2.2,0.4,4.3,1,6.4
			c0.3,1.2,0.4,2.4,0.4,3.6c0,0.6,0,1.2,0.2,1.9c0.1,0.3,0.1,0.6,0,0.8c-0.5,1.8-0.4,3.7-0.4,5.6c0,0.3-0.1,0.6,0.4,0.7
			c1.1,0.2,1.4,1.1,1.6,2c0.2,0.9,0.1,1.7,0,2.6c-0.6,3.3-1,6.5-1.3,9.8c-0.2,1.9-0.4,3.8-1.3,5.5c-0.4,0.7-0.9,1.2-1.4,1.7
			c-0.6,0.5-1.3,0.4-1.9,0C300.4,79.5,300.2,79.1,299.9,79.4z"/>
		<path class="st10" d="M285.9,128.6c-1-3.1-3.4-5.1-5.9-7.2c1.5-1.2,2.8-2.5,4-3.9c2.6-3.2,5.1-6.3,6.6-10.3
			c0.7-1.8,1.8-3.4,2.4-5.2c0.4-1.2,0.7-2.3,1.7-3.2c0.1,0.2,0.1,0.3,0.2,0.5c0.2,0.2,0.3,0.5,0.2,0.8c-0.3,3.2-0.6,6.4-1.6,9.5
			c-0.7,0.3-0.4-0.4-0.6-0.6c-0.5,2-1.5,3.9-2.1,5.8c-0.9,2.7-1.6,5.4-2.4,8.1c-0.5,1.6-1.2,3.1-1.7,4.7c-0.1,0.2-0.2,0.5-0.5,0.5
			C286.2,128.2,286.1,128.4,285.9,128.6z"/>
		<path class="st9" d="M224.2,124.4c1-4.1,2.9-7.8,5.8-10.9c0.1-0.1,0.1-0.2,0.2-0.2c1.4-0.5,1.8-1.7,2.1-3c0.1-0.4,0.2-0.7,0.3-1.1
			c0.1-0.5,0.7-1.1,0.4-1.4c-0.5-0.5-1.4-0.7-2-0.6c-2.5,0.6-5.1,0.8-7.4,2.1c-1.2,0.7-2.4,1.3-3.6,2.2c-0.6,0.4-1,1-1.5,1.4
			c-0.4-1.3-0.3-1.9,0.8-2.5c2-1.3,3.9-2.7,6.2-3.2c1.9-0.4,3.8-1.3,5.8-1.1c0.3,0,0.7,0.1,1,0.2c1.3,0.4,1.4,0.4,2-0.9
			c0.7-1.3,1.2-2.7,1.8-4c0.7-1.4,1.8-2.4,2.9-3.3c2.1-1.8,4-3.8,6.1-5.6c1-0.8,2-1.6,3.2-2.1c0.4-0.2,0.8-0.2,1.3-0.1
			c-0.6,0.5-1,1-1.5,1.3c-2.2,1.3-3.8,3.2-5.6,5c-1.6,1.6-3.2,3.2-4.5,5c-1,1.4-1.4,3-2.2,4.4c-0.4,0.7-0.8,1.4-1.4,2
			c-0.5,0.5-0.6,1.4-0.8,2.1c-0.1,0.4-0.2,0.8-0.3,1.2c-0.3,1.1-0.8,1.9-1.7,2.7c-2.7,2.3-4.4,5.3-6,8.4c-0.4,0.8-0.7,1.6-1.1,2.4
			C224.1,124.8,224.2,124.6,224.2,124.4z"/>
		<path class="st9" d="M238.5,135.1c1.3-1.2,2.4-2.4,3.5-3.5c0.4-0.4,0.4-0.6-0.1-0.8c-1.2-0.4-2-1.4-2.8-2.4
			c-0.8-0.9-1.7-1.6-2.7-2.3c-0.6-0.4-0.8-0.6-0.3-1.4c0.8-1.2,1.3-2.6,1.9-4c1-2.3,1.9-4.6,2.9-6.8c0.7-1.6,1-3.3,1.5-5
			c1-3.6,2.3-7.2,4.4-10.4c1-1.6,2.2-3,3.3-4.6c0.1-0.2,0.3-0.3,0.5-0.5c0.2-0.2,0.4-0.3,0.7-0.1c0.3,0.2,0.1,0.4-0.1,0.6
			c-1.6,2.2-3.2,4.5-4.4,7c-1,1.9-1.5,3.9-2.3,5.8c-1.1,2.7-1.4,5.7-2.6,8.4c-0.9,1.9-1.9,3.9-2.9,5.8c-0.7,1.3-1.3,2.7-2.2,3.9
			c-0.2,0.3,0,0.5,0.2,0.6c1.6,0.9,2.8,2.1,3.9,3.4c0.5,0.5,1,1,1.8,1.2c0.8,0.2,1.2,0.8,1.5,1.5c0.1,0.2,0.3,0.5,0,0.7
			c-0.3,0.2-0.5,0-0.7-0.2c-0.4-0.5-0.6-0.4-0.9,0.1c-0.6,0.7-1.2,1.4-1.8,2.1C240.1,135.1,239.5,135.3,238.5,135.1z"/>
		<path class="st11" d="M252.7,22.4c0.2,0.1,0.4,0.1,0.6,0.2c0.3,1.7-0.4,2.6-2.8,2.1c-0.1,0.4,0.1,0.7,0.2,1.1
			c0.1,0.3,0.2,0.5,0.1,0.8c-0.4,0.6-1.1,0.6-1.5,1c1.5,0.8,1.4,0.8,0.5,2.3c-0.8,1.3-1.5,2.7-2.3,4c-0.4,0.6-0.4,1.2-0.4,1.9
			c0,1.2-0.2,2.3-1,3.3c-0.2,0.3-0.3,0.6-0.4,0.9c-0.1,0.6-0.1,1.1-0.1,1.7c0,1-0.1,2-0.4,3c-0.3,1-0.3,2.1,0,3.1
			c0.2,0.6,0,1.2-0.2,1.8c-0.6,1.4-0.9,2.8-0.7,4.3c0.1,0.6,0.2,1.2,0.6,1.6c0.3,0.3,0.4,0.6,0.3,1c-0.3,0.4-0.1,1.1-0.8,1.4
			c-0.2,0-0.3,0-0.4,0c-0.5-0.4-0.3-1-0.4-1.6c-0.5-2.4-0.3-4.7,0.7-7c0.2-0.4,0.2-0.7,0-1.1c-0.5-0.9-0.5-1.9-0.4-2.8
			c0.2-1.6,0.1-3.1,0.1-4.7c0-0.8,0.1-1.5,0.6-2.2c0.7-0.9,1-1.9,0.9-3c0-1,0.2-1.9,0.8-2.7c1-1.2,1.3-2.8,2.2-4.1
			c-0.2-0.2-0.4-0.4-0.5-0.7c-0.2-0.5-0.2-0.9,0.5-1c0.2,0,0.5-0.1,0.7-0.2c0.5-0.2,0.9-0.4,0.5-1.1c-0.4-0.6-0.3-1.5-0.3-2.2
			c0-0.6,0.4-0.7,0.8-0.3c0.4,0.3,0.7,0.6,1.2,0.6c0.4,0.1,0.7,0.1,0.7-0.4C252,22.8,252.7,22.9,252.7,22.4z"/>
		<path class="st9" d="M307.8,124.3c-0.1-0.2-0.1-0.3,0-0.5c-0.2-0.3,0-0.7-0.2-1c-0.1-0.5-0.3-1-0.2-1.6c-0.2-0.6,0.1-1.2-0.2-1.8
			c-0.2-0.3-0.1-0.7,0-1c-0.2-0.4,0.1-0.8-0.2-1.2c-0.1-0.9-0.1-1.8-0.2-2.8c-0.2-0.4,0.1-0.9-0.2-1.4l0,0c-0.2-0.3,0.1-0.8-0.3-1.1
			c-0.7-3.4-2.6-6.4-3.9-9.6c-1.1-2.4-2.4-4.7-3.7-7.1c-0.1-0.3-0.3-0.5-0.4-0.8c0-0.2-0.3-0.5,0.2-0.6c0.3,0.9,0.9,1.8,1.4,2.5
			c2.3,3.4,3.8,7.2,5.8,10.7c0.7,1.3,1.1,2.7,1.7,4.1c0.2,0.3-0.1,0.7,0.2,1l0,0c0.2,0.3,0,0.7,0.2,1c0,0.1,0,0.2,0,0.3
			c0.2,0.4-0.1,0.8,0.2,1.2l0,0c0.3,0.9-0.1,1.8,0.2,2.6c0.1,0.4,0,0.8,0,1.3c0.1,0.9,0.1,1.8,0,2.8c0,0.1,0,0.2,0,0.3
			c-0.3,0.8,0,1.6-0.2,2.4c0,0.1,0,0.2,0,0.3C307.9,124.4,307.8,124.4,307.8,124.3z"/>
		<path class="st12" d="M286.3,128.1c1.4-3.6,2.6-7.2,3.6-10.9c0.6-2.2,1.4-4.5,2.3-6.6c0.3-0.6,0.4-1.3,0.6-2
			c0.5,0.5,0.2,1.1,0.3,1.7c0,0.2-0.1,0.4-0.1,0.6c-0.2,0.5-0.1,1.1-0.6,1.4c-1.2,3.3-2,6.7-3.1,10c-0.9,2.9-2.2,5.6-3.2,8.5
			c-0.1,0.2-0.1,0.5-0.4,0.3c-0.3-0.1-0.1-0.4,0-0.6C286,129.7,286.4,128.9,286.3,128.1z"/>
		<path class="st11" d="M293.5,109.6c0.6-3,1.2-6,1.5-9.1c0-0.4,0-0.8,0-1.2c0.4-0.7,0.8-0.4,1.2,0.1c0.1,0.1,0.2,0.4,0,0.4
			c-0.8-0.1-0.6,0.6-0.6,0.9c0,5.4-1.3,10.5-2.7,15.6c-0.3,0.9-0.5,1.9-0.7,2.8c-0.5-0.3-0.2-0.8-0.2-1.1c0.3-1.6,0.5-3.1,0.8-4.7
			c0.2-0.6,0-1.3,0.2-1.9C293.2,110.8,293.1,110.1,293.5,109.6z"/>
		<path class="st13" d="M307.8,124.3c0.1,0,0.1,0,0.2,0c0.3,0.3,0.3,0,0.5-0.1c0.2-0.2,0.3-0.3,0.6-0.1c0.3,0.2,0.2,0.4,0,0.7
			c-0.6,0.8-1.2,1.7-1.9,2.5c-1.1,1.2-2.1,2.6-3.6,3.3c-0.7,0.3-0.8,0.9-0.2,1.5c0.8,1,1.7,2,2.4,3.2c-0.9,0.2-1.5,0-2-0.9
			c-0.5-0.9-1.2-1.6-1.6-2.5c-0.3-0.8-0.2-1.3,0.5-1.8c1.9-1.4,3.5-3,5-4.9C307.7,124.9,307.8,124.6,307.8,124.3z"/>
		<path class="st11" d="M254.4,115c0.1,0,0.1,0.1,0.2,0.1c0.2,0.3-0.1,0.7,0.2,1c0.2,0.3,0.2,0.6,0.4,0.8l0,0
			c0.1,0.4,0.1,0.6-0.4,0.7c-1.4-2.8-2-5.8-2.3-8.9c-0.3-3.6-0.3-7.2,0-10.8c0.6,0.2,0.1,0.8,0.3,1.1c0.2,3.9,0.4,7.8,0.8,11.7
			c0.1,1.1,0.5,2.1,0.9,3.1c-0.1,0-0.1,0-0.2,0c-0.1,0.1-0.2-0.1-0.3-0.1c0.1,0.2,0.1,0.3,0.2,0.5
			C254.3,114.5,254.4,114.7,254.4,115z"/>
		<path class="st14" d="M219.6,129c0.4-3.6,2-6.7,3.5-9.9c0.5-1.1,1.2-2.1,1.8-3.1c0.3-0.5,0.6-0.9,1.2-1.3
			c-2.8,5.3-5.7,10.4-6.3,16.3C219.2,130.4,219.6,129.7,219.6,129z"/>
		<path class="st15" d="M322.6,118.8c-0.7-3.2-1.7-6.4-2.5-9.5c-0.1-0.4-0.2-0.7-0.2-1.1c0-0.2-0.2-0.5,0.2-0.6c0.2,1,0.7,1.8,1,2.7
			c1,2.9,2,5.7,1.9,8.8C322.8,119.1,322.7,119,322.6,118.8z"/>
		<path class="st16" d="M298.5,93.8c-0.2,0.1-0.2,0.4-0.2,0.6c-0.2-0.1-0.2-0.6-0.5-0.1c0-0.7,0.2-1.4,0.5-2
			C298.7,92.8,298.5,93.3,298.5,93.8z"/>
		<path class="st17" d="M328.4,107.3c0.9,0.1,1.6,0.5,2.5,0.8C330,108.3,329.2,108,328.4,107.3z"/>
		<path class="st18" d="M324,116.8c0.3,0.8,0.1,1.5,0.1,2.5c-0.3-0.8-0.5-1.5-0.2-2.2C323.8,117,323.8,116.9,324,116.8z"/>
		<path class="st19" d="M293.1,111.3c0,0.7-0.2,1.3-0.4,1.9c-0.1-0.3,0.1-0.7-0.2-1c0.1-0.5,0.2-0.9,0.4-1.4
			C293.1,111,293,111.2,293.1,111.3z"/>
		<path class="st20" d="M219.6,129c0.2,0.7-0.2,1.4,0.2,2.1c0,0.1,0,0.3,0,0.4C219.3,130.7,219.3,129.8,219.6,129z"/>
		<path class="st21" d="M252.8,99.1c-0.3-0.3,0-0.8-0.3-1.1c0-0.3-0.1-0.7,0.1-1.1C253,97.7,252.8,98.4,252.8,99.1z"/>
		<path class="st22" d="M323.7,116.4c-0.3-0.5-0.1-1.1-0.2-1.7c0-0.2-0.3-0.5,0.2-0.6c0.1,0.6,0.1,1.2,0.2,1.9
			C323.8,116.1,323.9,116.3,323.7,116.4z"/>
		<path class="st23" d="M254.8,117.7c0.2-0.2,0.3-0.5,0.4-0.7c0.4,0.3,0.1,0.8,0.2,1.1C254.7,118.5,254.9,117.8,254.8,117.7z"/>
		<path class="st12" d="M308.2,121.4c0-0.9,0-1.8,0-2.8C308.3,119.5,308.3,120.4,308.2,121.4z"/>
		<path class="st12" d="M308.2,117.3c-0.5-0.9-0.1-1.8-0.2-2.6C308.2,115.6,308.1,116.4,308.2,117.3z"/>
		<path class="st12" d="M308,124c0.1-0.8-0.3-1.6,0.2-2.4C308.1,122.4,308.2,123.2,308,124z"/>
		<path class="st24" d="M291.9,117.9c0.1,0.4-0.1,0.8,0.2,1.1c-0.1,0.3-0.1,0.5-0.2,0.8c-0.2,0-0.3,0-0.2-0.2
			C291.8,119,291.7,118.4,291.9,117.9z"/>
		<path class="st25" d="M291.8,120.7c0.1,0.4-0.1,0.6-0.3,0.9c0-0.4-0.2-0.8,0.1-1.1C291.7,120.5,291.7,120.6,291.8,120.7z"/>
		<path class="st26" d="M320.1,107.6c-0.2,0.2-0.1,0.4-0.2,0.6c-0.3-0.4-0.2-0.8-0.1-1.3C320.3,107,320.2,107.3,320.1,107.6z"/>
		<path class="st27" d="M322.6,118.8c0.1,0.1,0.2,0.1,0.3,0.2c0,0.3,0,0.7,0,1C322.8,119.6,322.6,119.3,322.6,118.8z"/>
		<path class="st12" d="M307.2,119.4c0.4,0.6,0.1,1.2,0.2,1.8C307.1,120.6,307.2,120,307.2,119.4z"/>
		<path class="st28" d="M291.8,120.7c-0.1-0.1-0.1-0.1-0.2-0.2c0.1-0.3,0-0.7,0.2-1c0.1,0.1,0.1,0.1,0.2,0.2
			C291.9,120.1,291.8,120.4,291.8,120.7z"/>
		<path class="st29" d="M326.2,106.4c0.3,0,0.6,0.1,0.8,0.4C326.6,106.9,326.2,107.2,326.2,106.4z"/>
		<path class="st30" d="M323.7,114.2c-0.2,0.1-0.1,0.4-0.2,0.6c-0.2-0.2-0.2-0.5-0.1-0.7c0-0.1,0.1-0.2,0.2-0.2
			C323.7,113.9,323.7,114,323.7,114.2z"/>
		<path class="st12" d="M306.6,113c0.4,0.4,0.1,0.9,0.2,1.4C306.6,113.9,306.6,113.5,306.6,113z"/>
		<path class="st31" d="M224.3,125.4c-0.1,0.2-0.1,0.4-0.2,0.6c-0.2,0-0.3,0-0.2-0.2c0-0.3,0-0.5,0.2-0.7
			C224.2,125.1,224.1,125.3,224.3,125.4z"/>
		<path class="st17" d="M223.9,126.5c0,0.2-0.1,0.5-0.2,0.4c-0.3-0.1-0.1-0.4,0-0.6C223.8,126.4,223.8,126.5,223.9,126.5z"/>
		<path class="st32" d="M224.3,125.4c-0.1-0.1-0.1-0.3-0.2-0.4c0-0.2,0-0.4,0.2-0.6c0.1,0.1,0.1,0.3,0.2,0.4
			C224.4,125,224.3,125.2,224.3,125.4z"/>
		<path class="st12" d="M307,117.1c0.4,0.4,0.1,0.8,0.2,1.2C307,118,307,117.6,307,117.1z"/>
		<path class="st33" d="M323.7,116.4c0.1-0.1,0.1-0.3,0.2-0.4c0,0.2,0,0.5,0.1,0.7c0,0.1,0,0.2,0,0.4
			C323.5,117,323.8,116.6,323.7,116.4z"/>
		<path class="st34" d="M299.3,83.3c-0.2-0.4-0.2-0.6,0.3-0.6C299.7,83,299.4,83.1,299.3,83.3z"/>
		<path class="st12" d="M308,114.7c-0.4-0.3-0.1-0.8-0.2-1.2C308,113.9,307.9,114.3,308,114.7z"/>
		<path class="st12" d="M306.4,111.9c0.5,0.3,0.2,0.7,0.3,1.1C306.3,112.7,306.5,112.3,306.4,111.9z"/>
		<path class="st12" d="M307.7,113.2c-0.3-0.3-0.1-0.6-0.2-1C307.8,112.5,307.8,112.9,307.7,113.2z"/>
		<path class="st12" d="M307.6,112.3c-0.4-0.3-0.2-0.7-0.2-1C307.6,111.6,307.6,111.9,307.6,112.3z"/>
		<path class="st12" d="M307.6,122.8c0.3,0.3,0.1,0.7,0.2,1C307.5,123.5,307.6,123.1,307.6,122.8z"/>
		<path class="st35" d="M223.9,126.5c-0.1-0.1-0.1-0.1-0.2-0.2c0-0.2,0-0.4,0.2-0.6c0.1,0.1,0.1,0.1,0.2,0.2
			C224,126.2,224,126.4,223.9,126.5z"/>
		<path class="st36" d="M243.8,57.8c0.1,0,0.3,0,0.4-0.1c0.1,0,0.2,0,0.2,0c0,0.2,0.1,0.4-0.2,0.3c-0.1-0.1-0.3-0.1-0.4-0.2
			C243.8,57.9,243.8,57.8,243.8,57.8z"/>
		<path class="st10" d="M244.8,56.4c0.2-0.4,0.1-0.7-0.2-0.9c-0.5-0.2-0.6-0.7-0.6-1.1c-0.3-1.7-0.2-3.4,0.6-4.9
			c0.3-0.7,0.4-1.3,0.2-2.1c-0.3-0.8-0.2-1.8,0-2.6c0.4-1.4,0.6-2.9,0.4-4.3c0-0.3,0-0.6,0.2-0.9c0.3-0.2,0.4-0.4,0.4-0.7
			c0.6-0.9,1-1.9,0.9-3c-0.1-1.8,0.9-3,1.7-4.3c0.6-0.9,0.9-2,1.7-2.8c0.5-0.5-0.1-0.7-0.5-0.8c-0.4-0.1-0.8-0.1-1.1-0.5
			c0.7-0.3,1.4-0.7,2-1c0.3-0.3,0.2-0.5-0.1-0.7c-0.1-0.5-0.3-1-0.4-1.6c0.8,0.2,1.4,0.6,2.1,0.4c0.7-0.2,1.1-0.5,0.9-1.2
			c-0.1-0.4,0-0.5,0.2-0.7c0.3-0.4-0.3-0.6-0.1-1c1-0.1,1.9,0.4,3.1,0.4c-1.1,0.8-1.8,1.6-2.4,2.5c-0.4,0.6-0.6,1.2-0.8,2
			c-0.2,1-1.2,1.6-1.8,2.4c-0.5,0.6-1.1,1.1-1.2,2c0,0.4,0,0.7,0.4,0.7c0.4,0,0.2-0.4,0.3-0.6c0.3-0.7,0.8-1.1,1.3-1.6
			c1.2-1.3,2.5-2.6,4.2-3.4c0.1,0.1,0.1,0.2,0.2,0.2c0.2-0.1,0.1-0.2,0.1-0.4c1.5-0.8,3-1.3,4.7-1.7c0.6-0.1,1.1-0.3,1.7-0.4
			c0.2-0.3-0.1-0.2-0.2-0.3c-2.5-0.3-5,0.2-7.3,1.3c-0.2,0.1-0.3,0-0.2-0.2c2.2-2.3,4.9-3.3,8-3.5c0.6,0,1.2-0.1,1.9-0.5
			c-0.9-0.4-1.8-0.5-2.7-0.5c-0.5,0-0.6-0.2-0.6-0.6c0-0.4,0-0.7,0.5-0.8c0.5-0.1,0.9,0.1,1.3,0.2c0.8,0.2,1.7,0.5,2.5,0.7
			c0.6,0.2,1,0,1-0.6c0-0.6,0.3-0.8,0.8-0.7c1.6,0,3.2,0.3,4.6,0.9c0.6,0.2,1.2,0.7,1.7-0.1c0.2-0.3,0.4-0.1,0.6,0
			c1.2,0.2,2.2,0.7,3.1,1.5c0.2,0.2,0.4,0.4,0.7,0.5c1,0.7,1.4,0.5,1.6-0.7c0.1-1.2,0.3-1.2,1.3-0.7c0.6,0.3,1.2,0.7,1.8,1
			c0.5,0.2,0.9,0.4,1.4-0.1c0.3-0.4,0.5,0,0.6,0.2c0.4,0.4,0.7,1,1.1,1.4c0.3,0.4,0.7,0.7,1.3,0.6c0.6-0.2,0.4-0.7,0.5-1.1
			c0-0.2,0.1-0.4,0.1-0.7c0.8,0.6,0.8,1.5,1.3,2.2c0.5,0.7,1.3,1,2.1,0.8c0.6-0.2,0.4-0.8,0.7-1.1c0.2-0.1,0.3,0.1,0.5,0.2
			c0.3,0.5,0.6,0.8,1.2,0.8c0.7-0.1,0.8,0.4,0.9,0.9c0.1,1.3,0.4,1.5,1.6,1.1c0.6-0.2,0.9-0.1,0.9,0.6c0,1.1,0.5,1.8,1.3,2.4
			c0.8,0.5,1.3,1.2,1.6,2c0.4,0.9,1.3,1.5,1.7,2.4c0.1,0.2,0.1,0.3,0.1,0.5c-0.1,0.3-0.2,0.6-0.5,0.8c-0.9-1.7-2.3-2.8-3.9-3.8
			c-0.3-0.1-0.7-0.1-1,0c0,0,0,0.1-0.1,0.1c2.6,0.9,3.5,3.2,4.5,5.4c0.4,0.8,0.6,1.7,1.2,2.4c0.3,0.4,0.1,0.8-0.1,1.1
			c-0.2,0.1-0.3-0.1-0.4-0.2c-1.4-2.8-3.5-5.2-6.2-6.8c-0.1-0.1-0.3-0.2-0.4-0.2c0,0-0.1,0-0.3,0.1c1.8,1.8,3.7,3.3,4.9,5.6
			c0,0.3-0.1,0.7,0.4,0.7c1.2,2.3,2.3,4.7,3.1,7.3c0.6,1.9,0.3,3.9,0.1,5.8c-0.2,0.2-0.4,0.2-0.5,0c-0.2-1.5-1-2.8-1.7-4.1
			c-0.6-1-0.9-2.1-1.3-3.2c-0.2-0.3-0.2-0.6-0.4-0.9c-0.5-1.3-1.2-2.5-2.1-3.6c-0.1-0.1-0.3-0.2-0.3-0.2c-0.1,0.2,0,0.4,0.1,0.6
			c0.5,1.2,1.1,2.4,1.6,3.5c0.3,0.1,0.2,0.3,0.2,0.5c-0.1,0.4-0.4,0.4-0.7,0.2c-0.1,0-0.2-0.1-0.2-0.2c-0.1-0.3-0.1-0.6-0.2-0.9
			c-0.1-0.2-0.2-0.4-0.2-0.6c0,0.1,0,0.1,0,0.1c0.1,0.2,0.1,0.4,0.2,0.6c0.1,0.4,0.1,0.8,0.3,1.2c0.1,1.5,0,2.9,0,4.4
			c-0.1,0.7-0.4,1.4-0.4,2.2c-0.3,0.8-0.4,1.6-0.6,2.4c0,0.1-0.1,0.1-0.2,0.2c-0.1,0.1-0.5,0-0.3,0.3c0.1,0.2,0.3-0.1,0.4-0.2
			c0.3,0.1,0.6-0.5,0.8,0.1c1,2.3,1.9,4.7,3.1,6.9c0.5,1,0.4,2.1,0.7,3.2c0.2,1,0.5,1.9,0.5,2.9c0,0.4-0.1,0.7,0.2,1
			c0.1,0.7,0.2,1.5-0.1,2.2c-0.4,0.2-0.8,0.5-1.2,0.7c-0.2,0.1-0.5,0.1-0.4,0.4c0.1,0.2,0.4,0.2,0.6,0.1c0.6-0.2,1.1-0.6,1.6-1
			c0.2-0.7,0.2-1.4,0-2.2c-0.2-0.4-0.3-0.9-0.3-1.4c0.5,0.1,0.5-0.4,0.7-0.6c0.1,0,0.2,0,0.2,0.1c0,0.1,0,0.2,0,0.3
			c0.2,0.1-0.1,0.5,0.3,0.4c0-0.2,0-0.3,0.1-0.5c0.1-0.7,0.1-1.5,0-2.2c0-0.1,0-0.2,0-0.3c-0.2-0.3,0-0.7-0.2-1
			c-0.1-0.6,0.2-1.2,0.5-1.8c0.8,1,0.6,2.1,0.8,3.1c0.2,0.1,0,0.5,0.3,0.6c0.1,0.2,0.1,0.4,0,0.6c0.1,0.8-0.1,1.6-0.3,2.4
			c-0.5,2.9-0.5,5.8-1.6,8.6c-0.3,0.7-0.7,1.3-1.2,1.9c-0.6,0.7-1.2,0.1-1.8,0c-0.5-0.1-0.2-0.6-0.3-0.9c-0.1-1.2,0.4-2.4,0.1-3.6
			c-0.6-0.3-0.5,0.2-0.6,0.5c-0.4,1.7-0.6,3.4-0.6,5.1c0.1,2.4-0.5,4.7-0.8,7c-0.3,2.2-0.9,4.2-1.5,6.3c-0.6,1.9-1.9,3.5-3.2,5
			c-1.2,1.4-2.4,2.8-3.6,4.2c-0.5,0.6-1.2,1.1-1.7,1.7c-2.3,2.5-5.2,3.4-8.5,3.7c-2.6,0.2-5.2,0.4-7.8,0.5c-1.9,0-3.8,0.1-5.7-0.3
			c-1.4-0.3-2.6-1.3-3.7-2.3c-2.2-2.3-4.1-4.8-6.4-6.9c-0.1-0.1-0.2-0.3-0.5-0.3c0.4,1.1,1,2,1.9,2.8c0.6,0.5,1,1.1,1.5,1.8
			c1.7,2.5,3.8,4.6,6.5,6c0.7,0.3,1.5,0.4,2.2,0.4c5.3,0.4,10.6,0.2,15.8-0.7c2.2-0.4,4-1.5,5.5-3.1c0.5-0.5,1-0.9,1.5-1.4
			c0.2,0,0.3,0,0.2,0.2c-1.2,2.3-1.9,4.8-3.4,7c-1,1.6-2.1,3.2-3.4,4.5c-1,0.9-1.8,2.1-2.8,3c-1.3,1.1-2.7,2.3-4.5,2.4
			c-1.1,0.1-2.2-0.2-3.2-0.4c-0.9-0.2-1.7-0.3-2.6-0.4c-0.8-0.1-1.6-0.3-2.2-0.9c-0.2-0.2-0.4-0.4-0.6-0.4c-1.5-0.2-2.6-1.2-3.8-1.9
			c-0.2-0.1-0.5-0.3-0.7-0.5c-1.7-1.8-3.4-3.4-4.7-5.6c-1.8-3-2.9-6.3-3.9-9.6c-0.4-1.2-0.4-2.5-0.4-3.7c0-0.7,0.2-0.8,0.7-0.4
			c0.2,0.1,0.4,0.2,0.7,0.3c-2.5-3.2-4.9-6.4-5.1-10.6c0.1,0,0.1-0.1,0.2-0.1c0.2-0.1,0.4-0.3,0.2-0.5c-0.1-0.1-0.2,0.2-0.4,0.3
			c-0.2-1.6-0.4-3.2-0.6-4.9c-0.2-2.3-0.2-4.6-0.5-6.9c-0.2-1.4-0.5-2.9-1-4.3c-0.3-0.8-1-1.2-1.3-1.9c-0.1-0.5-0.1-1-0.2-1.4
			c0.3-2.8,0.7-5.5,2-8c0.9-1.9,1-4,0.5-6.1c-0.6-2.2-1.3-4.5-1-6.9c0.1-0.4,0.2-0.8,0.2-1.2c0.5-0.6,0.2-1.4,0.3-2.1
			c0.4-1.2,1.1-2.3,1.7-3.4c0.6-1.2,1.3-2.3,2-3.5c0.2-0.3,0.4-0.5,0.3-0.9c-0.1-0.2-0.3-0.4-0.1-0.7c2.2-1.6,4.1-3.5,6.7-4.6
			c-0.9-0.3-1.7-0.1-2.5,0.3c-1.6,0.8-3.2,1.7-4.2,3.1c-1.5,2.2-3.6,4.1-4.7,6.6c-0.7,1.5-1.3,2.9-1.3,4.6c0,0.3-0.1,0.7,0.4,0.7
			c0.1,0,0.1,0.1,0.2,0.2c0.1,1.3-0.5,2.5-0.2,3.7c0-0.4-0.1-1.1,0.5-1.4c0.7,0.4,0.2,1.2,0.5,1.7c0.4,1.9,0.7,3.9,0.8,5.8
			c0.1,1.7-0.2,3.3-1.1,4.8c-0.5,0.8-0.5,1.8-0.8,2.7c-0.3,0.5-0.7,0.8-1.2,0.1c-0.1-0.3,0-0.6-0.1-0.9c-0.4-0.3-0.1-0.7-0.2-1.1
			c-0.3-0.3,0-0.6-0.2-0.9c-0.3-0.5-0.3-1-0.4-1.6C244.3,57.8,244.7,57.1,244.8,56.4z"/>
		<path class="st37" d="M245.1,61.6c0,0.3-0.3,0.6,0,0.9c0.4,0.3,0,0.8,0.2,1.1l0,0c0.2,0.4,0,0.8,0.2,1.2c0.2,1.9,0.4,3.9,1.4,5.3
			c1.4,2.1,1.2,4.3,1.6,6.5c0.1,0.6,0.1,1.2,0.1,1.8c0,0.2,0.2,0.6-0.2,0.7c-0.4,0.1-0.7,0-1-0.4c-0.9-1-1.1-2.3-1.3-3.5
			c-0.7-3.5-1.4-7-1.5-10.5c-0.1-1.3-0.7-2.4-1.3-3.5c-0.5-1-0.4-1.9,0.3-2.6c0.1-0.1,0.3-0.2,0.4-0.1c0.6,0.2,0.4,0.7,0.6,1.1
			c0.1,0.2,0.1,0.5,0.2,0.7C245.2,60.8,244.9,61.2,245.1,61.6z"/>
		<path class="st10" d="M245.9,62.8c0.3,0.3,0.6,0.4,0.9,0c0.4,0.5,0,1,0,1.5c-0.2,0.3-0.1,0.8-0.7,0.6c0-0.2,0-0.5,0-0.7
			c-0.2-0.3,0-0.7-0.2-1l0,0C245.8,63.1,245.8,62.9,245.9,62.8z"/>
		<path class="st10" d="M250.6,86.8c0.1-0.3-0.2-0.8,0.4-0.8c0.4,0,0.4,0.4,0.4,0.7c0,0.5-0.3,0.6-0.8,0.4
			C250.6,87,250.6,86.9,250.6,86.8z"/>
		<path class="st38" d="M247.2,67.3c0,0.5,0,1,0,1.5c-0.2-0.8-0.5-1.7-0.7-2.5c0.1-0.1,0.3-0.1,0.4,0C247.2,66.6,247,67,247.2,67.3z
			"/>
		<path class="st39" d="M244.8,56.4c-0.1,0.7,0,1.4,0.1,2.1c-0.1,0.1-0.1,0.1-0.2,0.2c-0.6-0.1-0.1-0.7-0.4-0.9
			c-0.1,0-0.1,0-0.2-0.1C244.8,57.5,244.4,56.8,244.8,56.4z"/>
		<path class="st40" d="M244.4,57.8c0.4,0.2,0.1,0.7,0.4,0.9c0,0.3,0,0.6,0,0.9c-0.2-0.4-0.4-0.7-0.6-1.1c0.2-0.1,0.1-0.3,0-0.4
			C244.4,58,244.4,57.9,244.4,57.8z"/>
		<path class="st41" d="M246.1,64.9c0.4,0,0.3-0.4,0.5-0.6c0.4,0.4,0.3,0.8,0.1,1.3c-0.1,0.2-0.3,0.2-0.4,0
			C246.3,65.4,246.2,65.1,246.1,64.9z"/>
		<path class="st42" d="M255.1,117c-0.5,0-0.4-0.5-0.5-0.8c0-0.1,0.1-0.1,0.2-0.2C255,116.3,255.1,116.6,255.1,117z"/>
		<path class="st43" d="M290.7,104.2c-0.1-0.1-0.2-0.2-0.2-0.2c0.1-0.2,0.2-0.5,0.5-0.5C291.1,103.8,290.9,104,290.7,104.2z"/>
		<path class="st44" d="M246.3,65.6c0.1,0,0.2,0,0.3,0c0.3,0.2,0.4,0.4,0.2,0.7c-0.1,0-0.2,0-0.3,0
			C246.4,66.1,246.4,65.9,246.3,65.6z"/>
		<path class="st45" d="M254.8,116c-0.1,0.1-0.1,0.1-0.2,0.2c-0.3-0.4-0.1-0.7-0.1-1.1C254.8,115.3,254.7,115.7,254.8,116z"/>
		<path class="st14" d="M245.5,64.8c-0.2-0.4-0.2-0.8-0.2-1.2C245.7,63.9,245.5,64.4,245.5,64.8z"/>
		<path class="st14" d="M245.3,63.6c-0.3-0.3-0.1-0.8-0.2-1.1C245.6,62.8,245.3,63.2,245.3,63.6z"/>
		<path class="st14" d="M245.1,61.6c-0.2-0.4-0.2-0.8-0.2-1.2C245.3,60.7,245.1,61.2,245.1,61.6z"/>
		<path class="st14" d="M245.9,62.8c0,0.1,0,0.2,0,0.4c-0.4-0.4-0.1-0.8-0.2-1.2C245.8,62.3,245.9,62.5,245.9,62.8z"/>
		<path class="st46" d="M254.4,115c-0.2-0.2-0.2-0.4-0.2-0.6c-0.1-0.2,0-0.2,0.2-0.2C254.4,114.4,254.7,114.7,254.4,115z"/>
		<path class="st47" d="M254.3,114.2c-0.1,0.1-0.1,0.1-0.2,0.2c-0.2-0.2-0.2-0.5-0.1-0.8c0.1,0.2,0.2,0.3,0.3,0.5
			C254.3,114,254.3,114.1,254.3,114.2z"/>
		<path class="st14" d="M245.9,63.2c0.2,0.3,0.1,0.6,0.2,1C245.8,63.9,245.9,63.5,245.9,63.2z"/>
		<path class="st14" d="M245.3,60.1c0.2,0.3,0.2,0.6,0.2,0.9C245.2,60.7,245.4,60.4,245.3,60.1z"/>
		<path class="st48" d="M298,44.6c0.2,0.1,0.4,0.3,0.6-0.1c0.1,0,0.2,0.1,0.2,0.2c-0.1,0.3,0,0.5,0.2,0.7c0.1,0.2,0.2,0.3,0.3,0.5
			c0.3,0.8,0.7,1.5,1.1,2.2c0.4,0.2,0.4,0.6,0.6,1c0.2,1.2,0.6,2.3,1.1,3.3c0.2,0.3,0,0.7,0.2,1c0.4,1.7,0.5,3.4,0.8,5.1
			c0.2,1.4-0.5,2.9-1.1,4.3c-0.1-0.7-0.3-1.3-0.4-2c-0.1-0.2-0.1-0.3,0.1-0.5c0.3-0.1,0.4-0.3,0.5-0.6c0.3-1.9-0.2-3.7-0.9-5.4
			c-0.6-1.5-1.3-2.8-2.3-4.1c-0.2-0.3-0.5-0.5-0.7-0.7c-0.3-0.4-0.4-0.8-0.4-1.3c0-0.9,0.1-1.8-0.1-2.7c0-0.1,0-0.2,0-0.3
			C297.8,45.1,297.8,44.8,298,44.6z"/>
		<path class="st49" d="M301.7,60.6c-0.2,0.1-0.2,0.2-0.2,0.4c-1.2-1.8-1.6-4-2.9-5.8c-0.3-0.4-0.6-0.8-0.9-1.1
			c-0.6-0.4-0.6-1-0.5-1.7c0-0.1,0.1-0.2,0.1-0.3c0.1-0.1,0.3-0.2,0.5-0.2c0.3,0.3,0.4,0.7,0.7,1c1.2,2,2.2,4.1,3,6.2
			C301.7,59.6,302,60,301.7,60.6z"/>
		<path class="st50" d="M305.3,62.3c-0.3-0.9-0.7-1.7-1.7-2c-0.4-0.1-0.2-0.4-0.1-0.6c0.1-0.3-0.1-0.7,0.5-0.8
			c0.4,0,0.8-0.2,1.1,0.2c0.6,0.9,0.9,1.9,0.8,3c0,0.3-0.1,0.6-0.2,0.9C305.2,62.9,305.6,62.4,305.3,62.3z"/>
		<path class="st10" d="M301.4,34.4c0-0.3-0.1-0.7,0.4-0.8c0.1-0.1,0.2-0.1,0.3,0c0.4,0.6,0.3,1.2,0.4,1.9c0.1,0.2,0.1,0.5,0,0.8
			c-0.1,0.1-0.3,0.1-0.4,0C301.9,35.7,301.6,35,301.4,34.4z"/>
		<path class="st10" d="M303.1,66.5c-0.1,0.3,0.1,0.7-0.1,1.1c-0.3,0-0.2-0.5-0.6-0.5c0-0.1,0-0.3-0.1-0.4c-0.1-0.4-0.1-0.8,0-1.1
			c0.3-0.2,0.1-0.7,0.4-0.9c0.3-0.1,0.4,0.1,0.4,0.3C303.1,65.5,303.2,66,303.1,66.5z"/>
		<path class="st51" d="M297.4,52.1c-0.2,0.7,0.1,1.3,0.3,1.9c-0.1,0.1-0.1,0.2-0.2,0.2c-0.2-0.3-0.5,0.2-0.7,0
			c-0.1-0.1-0.1-0.1-0.1-0.2c0-0.9,0.1-1.7,0.5-2.5C297.4,51.6,297.4,51.9,297.4,52.1z"/>
		<path class="st52" d="M259.1,20.4c-0.6,0.3-1.2,0.4-1.6,0.7c-0.2,0.1-0.4,0.1-0.5-0.1c-0.1-0.3-0.3-0.5-0.2-0.8
			c0.1-0.2,0.3-0.2,0.5-0.2C257.9,20.2,258.4,20.1,259.1,20.4z"/>
		<path class="st53" d="M301.9,67.2c0-1-0.7-1.9-0.5-2.9C302.6,65.1,301.7,66.3,301.9,67.2z"/>
		<path class="st54" d="M303.1,66.5c0-0.6,0-1.1,0-1.7c-0.1-0.2-0.1-0.4-0.3-0.5c0-0.3,0.1-0.5,0.5-0.8c0.2,1.1,0.1,2.1,0.1,3
			C303.2,66.6,303.1,66.6,303.1,66.5z"/>
		<path class="st55" d="M305.3,62.3c0.3,0.2,0.1,0.6,0.3,0.7c0.1,0.5-0.1,1-0.3,1.5c-0.1,0.1-0.1,0.1-0.2,0
			C305.4,63.8,305.3,63,305.3,62.3z"/>
		<path class="st10" d="M299.9,38.9c-0.1,0.2-0.1,0.6-0.4,0.3c-0.3-0.3-0.5-0.6,0-0.9C299.7,38.4,299.8,38.6,299.9,38.9z"/>
		<path class="st11" d="M296.8,40.5c-0.2-0.3-0.4-0.7-0.6-1.2c0.6,0.1,0.8,0.4,0.9,0.7C296.9,40.2,296.9,40.3,296.8,40.5z"/>
		<path class="st10" d="M256.4,25.9c0.2,0.1,0.4,0.3,0.3,0.5c-0.1,0.1-0.2,0.2-0.4,0.1c-0.3-0.1-0.3-0.3-0.2-0.5
			C256.2,26.1,256.3,26,256.4,25.9z"/>
		<path class="st53" d="M302,70.5c0.3-0.7,0-1.5,0.1-2.2C302.4,69,302.5,69.8,302,70.5z"/>
		<path class="st53" d="M302.7,68.5c0.3,0.7,0.3,1.4,0,2.2C302.7,70,302.7,69.2,302.7,68.5z"/>
		<path class="st54" d="M303.6,64.6c0.2,0.7,0.3,1.5,0,2.2C303.6,66.1,303.6,65.4,303.6,64.6z"/>
		<path class="st56" d="M302.5,36.3c0-0.2,0-0.5,0.1-0.7c0.3,0.5,0.1,1.1,0.1,1.6c0,0.3-0.2,0.1-0.3-0.1
			C302.5,36.8,302.3,36.5,302.5,36.3z"/>
		<path class="st57" d="M292.6,22.9c-0.2-0.1-0.3-0.1-0.5-0.2c0-0.3,0.1-0.6,0.1-0.8c0.1,0,0.1,0,0.2,0
			C292.4,22.3,292.5,22.6,292.6,22.9z"/>
		<path class="st58" d="M302.5,51.9c0.2,0,0.3,0,0.5,0c0,0.3,0.1,0.6-0.1,1C302.8,52.5,302.6,52.2,302.5,51.9z"/>
		<path class="st59" d="M305.1,64.5c0.1,0,0.1,0,0.2,0c0,0.5,0,0.9-0.2,1.3c0-0.2,0-0.4-0.2-0.6c-0.2-0.3,0-0.4,0.1-0.6
			C305.1,64.6,305.1,64.6,305.1,64.5z"/>
		<path class="st10" d="M255.1,24.6c0.1,0.1,0.2,0.2,0.2,0.2c-0.2,0.2-0.5,0.3-0.8,0.6C254.5,24.9,254.9,24.8,255.1,24.6z"/>
		<path class="st60" d="M254.1,25.6c-0.1,0.4-0.3,0.5-0.6,0.7C253.6,25.9,253.7,25.7,254.1,25.6z"/>
		<path class="st61" d="M303.6,67.3c0,0.2,0,0.6-0.2,0.5c-0.3-0.1-0.1-0.5-0.1-0.8C303.4,67.1,303.5,67.2,303.6,67.3z"/>
		<path class="st62" d="M298.9,45.5c-0.4-0.2-0.3-0.5-0.1-0.8c0.1-0.1,0.1,0,0.2,0.1c0.1,0.2,0.1,0.3,0.2,0.5
			C299.1,45.4,299,45.5,298.9,45.5z"/>
		<path class="st11" d="M301,49.1c-0.2-0.3-0.4-0.7-0.6-1C301,48.3,301,48.7,301,49.1z"/>
		<path class="st53" d="M302.3,65.6c0,0.4,0,0.8,0,1.1C302,66.4,302,66,302.3,65.6z"/>
		<path class="st11" d="M299.1,43.7c0.2,0.3,0.4,0.5,0.4,0.9C299.2,44.4,299.1,44,299.1,43.7z"/>
		<path class="st63" d="M302.7,64.3c0.7-0.2,0.3,0.3,0.3,0.5c-0.1-0.1-0.2-0.1-0.3-0.2C302.7,64.6,302.7,64.5,302.7,64.3z"/>
		<path class="st64" d="M301.6,39.5c0.1,0.1,0.3,0.1,0.4,0.2c0,0.1,0,0.4-0.2,0.3C301.5,39.9,301.5,39.7,301.6,39.5z"/>
		<path class="st65" d="M302.5,36.3c0,0.3,0.1,0.6-0.1,0.8c-0.1-0.2-0.1-0.5-0.2-0.7C302.2,36.3,302.4,36.3,302.5,36.3z"/>
		<path class="st11" d="M298.9,44.8c-0.1,0-0.1,0-0.2-0.1c-0.1-0.1-0.1-0.2-0.2-0.2c0-0.2-0.1-0.3-0.1-0.5
			C298.8,44.2,298.9,44.5,298.9,44.8z"/>
		<path class="st66" d="M302.1,33.7c-0.1,0-0.2,0-0.3,0c0-0.2,0-0.4,0-0.6C302,33.2,302.1,33.4,302.1,33.7z"/>
		<path class="st67" d="M296.4,30.6c0.4-0.3,0.7-0.2,1,0C297.1,30.6,296.8,30.6,296.4,30.6z"/>
		<path class="st54" d="M303.5,63.3c0.2,0.3,0.2,0.7,0.2,1C303.3,64,303.5,63.7,303.5,63.3z"/>
		<path class="st68" d="M305.1,64.7c0,0.2-0.1,0.4-0.1,0.6c-0.4-0.1-0.1-0.4-0.2-0.6C304.9,64.7,305,64.7,305.1,64.7z"/>
		<path class="st11" d="M302.3,53.5c-0.2-0.3-0.1-0.7-0.2-1C302.4,52.8,302.3,53.2,302.3,53.5z"/>
		<path class="st69" d="M262.6,23.6c0.2,0,0.4-0.1,0.5,0.1c0,0.2-0.2,0.2-0.3,0.2C262.7,23.8,262.7,23.7,262.6,23.6z"/>
		<path class="st11" d="M298.9,45.5c0.1-0.1,0.1-0.1,0.2-0.2c0.3,0.2,0.2,0.4,0.2,0.7C299.1,45.8,299,45.7,298.9,45.5z"/>
		<path class="st70" d="M293.1,111.3c-0.1-0.1-0.1-0.3-0.2-0.4c0-0.8,0.6-1.5,0.1-2.3c0-0.2,0-0.4,0.2-0.5c0.4,0.5-0.1,1.1,0.3,1.6
			C293.5,110.2,293.3,110.8,293.1,111.3z"/>
		<path class="st10" d="M245.7,38.9c0.3,0.5,0,0.7-0.4,0.7C245.4,39.4,245.4,39.1,245.7,38.9z"/>
		<path class="st71" d="M250.4,25.8c0.1,0,0.4-0.2,0.4-0.1c0,0.3,0.1,0.6-0.3,0.8C250.7,26.2,250.6,26,250.4,25.8z"/>
		<path class="st9" d="M294,35.4c0.1,0.4,0.4,0.5,0.7,0.7c0.7,0.6,0.8,1.3,0.5,2.1c-0.1,0.2-0.1,0.4-0.3,0.4c-0.2,0-0.4-0.1-0.4-0.3
			c-0.5-2.1-2.4-2.5-4.1-3.1c-1-0.4-2.1-0.5-3.2-0.3c-1.4,0.2-2.9-0.1-4.3-0.3c-1.7-0.2-3.2,0.8-4.8,0.9c-2.4,0.3-4.7,1-6.9,1.9
			c-1.8,0.7-3.7,0.5-5.6,0.3c-2.7-0.3-5.3-0.8-7.7-2.1c-0.4-0.2-0.7-0.1-1,0.1c-0.4,0.3-0.6,0.1-0.5-0.3c0-0.3,0.1-0.6,0.3-0.9
			c1.4-1.8,3.5-2.6,5.5-3.5c0.9-0.4,1.7,0,1.9,0.8c0.1,0.3,0,0.6-0.3,0.4c-0.5-0.3-1-0.1-1.4,0.1c-1.5,0.8-3.1,1.5-4.6,2.7
			c1.8,0.5,3.4,1,5.1,1.1c1.3,0.1,2.7,0.2,4,0.2c1.4,0,2.8-0.2,4.1-0.7c2.3-0.9,4.8-1.3,7.3-1.7c1.4-0.2,2.7-0.9,4.1-0.6
			c2.8,0.7,5.7,0,8.5,0.7c1,0.3,2,0.7,2.8,1.4C293.8,35.3,293.9,35.3,294,35.4z"/>
		<path class="st9" d="M282.8,87.7c-1.8,1.3-3.7,2.4-6,2.9c-2.5,0.5-4.9,0.7-7.4,0.6c-0.8-0.1-1.5-0.4-2.2-0.7c-1.7-0.6-3.4-1.2-5-2
			c-0.4-0.2-0.8-0.3-0.8-1c0-0.3-0.4-0.6-0.5-1c-0.3-0.6-0.3-1,0.5-1.1c0.6-0.1,1.3-0.3,1.9-0.5c2-0.2,4-0.1,5.9,0.1
			c0.5,0.1,1.1,0,1.4,0.5c0,0.4-0.4,0.4-0.6,0.5c-1.9,0.2-3.8,0.1-5.7,0.1c-0.6,0-1.2,0-1.8,0.2c-0.2,0-0.4,0.1-0.4,0.3
			c0,0.2,0.1,0.4,0.3,0.5c0.2,0.2,0.4,0.2,0.7,0.3c1.6,0.4,3.2,1,4.8,1.5c0.6,0.2,1.2,0.1,1.8,0.2c0.6,0.1,1.2,0.2,0.9,1
			c-0.1,0.1-0.3,0.1-0.4,0.1c-0.1,0-0.3-0.1-0.4,0.1c0.2-0.1,0.5,0,0.7-0.1c1.2-0.2,2.4,0.1,3.5-0.2c2.6-0.7,5.1-1.6,7.5-2.8
			c0.2-0.1,0.3-0.2,0.5-0.2C282.4,87.2,282.7,87.3,282.8,87.7z"/>
		<path class="st9" d="M268.6,76.7c0.7-0.1,1.2-0.5,1.8,0.2c1.2,1.5,2.7,1.8,4.4,0.9c0.6-0.3,1.2-0.6,1.7-1.1
			c0.5-0.5,1.2-0.4,1.8-0.4c0.6,0,1.2,0,1.8-0.1c0.8-0.2,1.4-1,1.4-1.8c0-0.5-0.6-0.6-0.9-0.9c-0.2-0.2-0.8-0.3-0.5-0.7
			c0.3-0.5,0.7-0.1,1,0c1.5,0.9,1.7,1.3,1.4,2.6c-0.2,1-1.3,2-2.6,1.9c-2-0.3-3.6,0.6-5.1,1.6c-1,0.6-2.1,0.2-2.9-0.2
			c-0.9-0.5-1.7-0.5-2.6-0.2c-1.2,0.4-2.8-0.4-3.1-1.5c-0.3-1.1,0.6-2.7,1.7-3.1c0.2-0.1,0.4-0.1,0.5,0.1c0.1,0.2-0.1,0.3-0.2,0.4
			c-0.6,0.2-0.8,0.7-1.1,1.2c-0.2,0.4-0.5,0.9-0.1,1.4c0.4,0.5,1,0.9,1.7,0.6c0.4-0.2,1.2-0.2,1.2-0.5
			C269.8,76.5,269,77.4,268.6,76.7z"/>
		<path class="st11" d="M246.8,66.4c0-0.3,0-0.5-0.2-0.7c0-0.4,0-0.9,0-1.3c0.1-0.5,0.1-1,0.2-1.5c0.1-1.4,0.7-2.6,1.3-3.9
			c0.7-1.6,0.9-3.3,0.6-5c-0.3-1.5-0.4-3-0.7-4.5c-0.2-0.7,0-1.4-0.2-2.2c0.2-0.8,0.3-1.7,0.7-2.5c0.1-0.2,0.2-0.4,0.4-0.2
			c0.1,0.1,0.1,0.3,0,0.4c-0.8,2.8,0.1,5.5,0.8,8.2c0.6,2.5,0.3,4.7-0.8,7c-0.9,1.9-1.3,3.9-1.5,5.9c0,0.4-0.1,0.8-0.2,1.2
			C247,67,246.9,66.7,246.8,66.4z"/>
		<path class="st9" d="M247.1,45.3c-0.4,0.6-0.5,0-0.5-0.2c0-1.1,0.1-2.1,0.5-3.1c0.9-2.7,2.5-4.9,4.4-7c0.8-0.9,1.2-2.1,2.3-2.8
			c1.4-1,2.7-2.3,4.6-2.6c0.2,0,0.3,0,0.5,0c0.5,0,1.2-0.1,1.3,0.4c0.1,0.5-0.6,0.3-0.9,0.5c-2.1,0.9-3.7,2.6-5.6,3.9
			c-0.2,0.1-0.4,0.3-0.6,0.4c-0.3,0.3-0.5,0.7-0.6,1c0,0.1-0.1,0.1-0.2,0.2c-1.2,1.1-1.9,2.5-2.7,3.9c-0.5,0.9-0.9,1.9-1.2,2.8
			c-0.2,0.5-0.4,1-0.6,1.5C247.3,44.6,247.4,45,247.1,45.3z"/>
		<path class="st11" d="M261.2,60.2c-0.7,1-1.3,1.1-2.4,0.5c-0.9-0.5-1.8-0.9-2.6-1.5c-0.2-0.1-0.4-0.2-0.2-0.5
			c0.4-0.2,0.8,0.1,1.2,0.2c0.9,0.4,1.8,0.4,2.7,0.3c0.1-0.2,0-0.2-0.1-0.3c-0.2-0.2-0.5-0.3-0.4-0.7c0.1-0.3,0.4-0.1,0.7-0.1
			c1.3,0,2.6,0.6,3.9,0.7c0.3,0,0.6,0.2,0.9,0.1c-0.3,0.1-0.5-0.1-0.7-0.3c-0.3-0.7,0.3-0.7,0.7-0.8c1.1-0.1,2.2,0,3.4,0.2
			c0.9,0.1,1,0.9,1.6,1.3c0.2,0.2-0.2,0.3-0.4,0.4c-0.6,0.5-1.4,0-2,0.4c-0.3,0.1-0.5,0.2-0.8,0.2C264.7,60.5,263,60.2,261.2,60.2z"
			/>
		<path class="st11" d="M255.3,29.3c-1.3,0.7-2.2,1.8-3.1,2.8c-0.6,0.7-1.3,1.4-1.2,2.4c0,0.1-0.1,0.3-0.2,0.3
			c-1.3-0.1-1.5,1.1-2,1.8c-0.9,1.3-1.6,2.7-2.2,4.1c-0.3,0-0.2-0.2-0.2-0.4c0.7-2.2,1.7-4.4,3.5-6c0.2-0.2,0.3-0.4,0.4-0.7
			c0.3-2,1.5-3.4,2.9-4.6c2.1-1.9,4.5-2.7,7.3-2c0.1,0.1,0.3,0.1,0.2,0.3c-1.6,0.4-3.3,0.5-4.7,1.5
			C255.9,29.2,255.6,29.4,255.3,29.3z"/>
		<path class="st11" d="M293.9,58.3c1.2,0.4,1.6,1,1.4,1.9c-0.1,0.4-0.3,0.5-0.6,0.3c-0.1-0.1-0.3-0.2-0.3-0.4
			c-0.2-0.7-0.7-0.7-1.2-0.7c-0.6-0.1-1.1-0.2-1.7-0.2c-0.7,0.1-1.4,0.1-2.2,0c-0.5,0-0.9,0.1-1.4-0.1c-0.5-0.3-0.2-0.6-0.1-1
			c-1.1,0.1-2.1,0-3,0.4c-0.1,0-0.2-0.1-0.2-0.1c-0.7-0.5-1.5,0-2.2,0c-0.4,0-0.7,0.1-1.2,0.2c0.3-0.8,0.9-0.9,1.5-0.9
			c0.9-0.1,1.8-0.3,2.6-0.7c1.1-0.5,2.3-0.2,3.4,0.2c0.5,0.2,0.9,0.2,1.4,0.2c0.9-0.1,1.9-0.3,2.8,0.1c0.3,0.1,0.7,0.1,0.4,0.6
			c0,0.1-0.3,0.1-0.1,0.2C293.3,58.3,293.6,58.1,293.9,58.3z"/>
		<path class="st11" d="M282.4,63.7c0.2-0.1,0.6,0.2,0.5-0.3c-0.3-0.3,0.3-0.9-0.4-1.2c-0.1,0.1-0.3,0.1-0.4,0.2
			c-0.5-0.1-0.9,0.1-1.3,0.2c-0.5,0.1-1,0.3-1.4,0.7c-0.1,0.1-0.2,0.2-0.4,0.1c-0.2-0.1-0.2-0.3,0-0.5c0.3-0.4,0.7-0.7,1.1-0.9
			c1-0.4,2-0.7,3-1c0.3-0.1,0.7-0.1,1-0.1c2,0.3,4,0.6,5.8,1.6c0.5,0.3,0.9,0.7,1.2,1.2c0.1,0.2,0.2,0.4,0,0.6
			c-0.2,0.1-0.4,0-0.5-0.1c-0.3-0.3-0.6-0.6-1.1-0.5c-1.1,0.2-2.2-0.1-3.3,0.2l0,0c-0.6,0.2-1.3-0.1-1.9,0.2c-0.7,0-1.4,0.2-2.1-0.2
			C282.3,63.9,282.3,63.8,282.4,63.7z"/>
		<path class="st14" d="M248.9,45c0-0.1,0-0.1,0-0.2c-0.1-0.2-0.2,0-0.2,0.1c-0.2,0.8-0.5,1.5-0.7,2.3c-0.1,0-0.1-0.1-0.1-0.1
			c0,0,0,0,0,0c0,0.3-0.1,0.5-0.3,0.7c-0.1,0.6-0.3,1.2-0.4,1.9c-0.6-1.6-0.1-2.9,0.1-4.3c0-0.3,0.1-0.7,0.3-1
			c0.2-0.5,0.3-0.9,0.5-1.4c1.1-2.6,2.4-5,4.1-7.3l0,0c0.3-0.4,0.5-0.9,1.1-0.6c0.2,0.4-0.1,0.7-0.2,0.9c-1.2,2-2.4,4-3.4,6.1
			c-0.2,0.4-0.3,0.8-0.4,1.1c-0.4,0.7,0.3,0.2,0.5,0.5C249.3,44.2,249.1,44.6,248.9,45z"/>
		<path class="st14" d="M287.7,58.9c0.5,0.1,1-0.2,1.5,0.2c-0.2,0.6-0.6,0.8-1.3,0.9c-1.7,0.3-3.4,0-5,0.5c-0.4,0.1,0-0.9-0.6-0.3
			c-0.2,0.2-0.6,0.3-0.9,0.5c-0.3,0.2-0.6,0.4-0.9,0.6c-0.2,0.1-0.4,0.1-0.5-0.1c-0.1-0.2,0-0.4,0.2-0.6c1-1.1,2.2-1.8,3.7-2.1
			c0.2,0,0.5,0.1,0.6-0.2c0.1,0,0.1,0,0.2,0C285.7,58.6,286.7,58.6,287.7,58.9z"/>
		<path class="st72" d="M270.8,85.5c-1.4-0.6-2.9-0.4-4.3-0.5c-1-0.1-2.1,0.1-3.1-0.2c0.3,0,0.4-0.3,0.6-0.4
			c0.4,0.1,0.8-0.3,1.2-0.3c0.7,0,1.3-0.2,2-0.1c3,0.2,6.1,0.4,9.1,0.5c0.5,0,1,0,1.6,0c0.3,0,0.7,0,0.8,0.4
			c-0.2,0.3-0.6,0.4-0.9,0.4c-2,0-3.9,0.5-5.9,0.5C271.5,85.8,271.1,85.9,270.8,85.5z"/>
		<path class="st73" d="M270.8,85.5c2.6,0.1,5.2-0.4,7.9-0.6c0.8-0.4,1.5-0.3,2.3,0c1,0,1.9,0,2.9,0c0.2,0,0.5,0,0.7,0
			c0.5,0.2,1.1,0.2,1.2,0.8c0.1,0.6-0.5,0.7-0.9,0.9c-0.6,0.3-1.3,0.6-1.9,0.9c-0.2-0.1-0.4-0.2-0.6-0.4c0-0.2,0.2-0.3,0.3-0.4
			c0.3-0.1,0.6-0.3,0.9-0.4c0.2-0.1,0.5-0.2,0.8-0.5c-1.1-0.3-2.2-0.1-3.3-0.1c-2.2-0.1-4.5,0-6.7,0.4c-1.2,0.2-2.4-0.1-3.5-0.1
			c-0.2,0-0.4-0.1-0.5-0.4C270.3,85.5,270.5,85.6,270.8,85.5z"/>
		<path class="st11" d="M259.6,63.6c-0.9,0.5-1.9,1-2.6,1.8c-0.3,0.3-0.8,0.2-1-0.2c-0.2-0.4-0.1-0.7,0.3-0.9
			c1.7-0.9,3.4-1.7,5.2-2.1c2.3-0.5,3.9,0.6,5.3,2.1c0.1,0.1,0.2,0.3,0,0.4c-0.1,0.1-0.3,0-0.4,0c-0.6-0.3-1-0.9-1.7-1.1
			c-0.5-0.4-1.1-0.7-1.7-0.7c-0.3,0-0.5,0-0.8,0.1c-0.3,0.1-0.6,0.1-0.9,0.2c-0.3,0.1-0.6,0.1-0.9,0.2
			C260.2,63.5,259.9,63.4,259.6,63.6z"/>
		<path class="st11" d="M285.4,76.1c3.7,3.5,5.8,9.4,4.5,12.6c-0.3-4.6-1.6-8.8-4.8-12.3C285.1,76.2,285.2,76.1,285.4,76.1z"/>
		<path class="st39" d="M279.4,93.8c0.5-0.3,0.6-1,1-1.5c0.4,0,0.2,0.2,0.2,0.4c-0.1,0.1-0.1,0.2-0.2,0.3c0.2,0.5-0.2,0.8-0.4,1.2
			c-1.1,0.7-2.4,0.8-3.6,1c-2.8,0.4-5.5-0.1-8.2-0.9c-0.3-0.1-0.6-0.1-0.8-0.7c3.2,0.8,6.4,1.1,9.6,0.9c0.5-0.1,1-0.2,1.5-0.2
			c0.3-0.1,0.4-0.3,0.6-0.4C279.1,93.9,279.2,93.8,279.4,93.8z"/>
		<path class="st14" d="M263.4,77.5c0.1,0.5-0.4,0.6-0.6,0.9c-1.7,1.6-3.1,3.4-3.9,5.7c-0.4,1.2-0.6,2.3,0.2,3.4
			c0.5,0.7,0.8,1.4,1.3,2.2c-0.3,0.2-0.4,0-0.6-0.1c-1.6-1.2-2.3-3.6-1.6-5.4c0.9-2.4,2.3-4.6,4.4-6.2
			C262.8,77.8,263,77.4,263.4,77.5L263.4,77.5z"/>
		<path class="st39" d="M276.1,84.8c-3-0.2-6-0.2-9-0.6c-0.4-0.1-0.9,0-1.3-0.1c-0.2,0-0.4,0-0.3-0.3c1.2-0.4,2.4-0.1,3.6,0
			c3.4,0.3,6.9,0.2,10.3,0.1c0.5,0,0.9,0,1.4,0.2c0.6,0.2,0.1,0.3-0.1,0.4c-0.6,0.3-1.3,0.2-2,0.1C277.8,84.7,277,84.7,276.1,84.8z"
			/>
		<path class="st74" d="M263,62.6c0.6,0.2,1.5,0,1.7,1c0.4,1.3,0.4,1.4-0.7,1.5c-0.4,0.2-0.8-0.1-1.2,0.2l-0.1,0l-0.1,0
			c-0.6,0.2-1.2-0.1-1.7,0.2l-0.1,0l-0.1,0c-0.7,0.1-1.5,0-2.2,0.1c-0.2,0-0.3-0.1-0.3-0.3c0,0,0.1-0.1,0.1,0
			c0.5-0.2,1.1,0.1,1.6-0.2c0.1-0.4-0.4-0.7,0-1.1c0.1-0.3,0.2-0.6,0.6-0.7c0.3-0.1,0.6-0.1,0.9-0.2c0.3-0.1,0.6-0.1,0.9-0.2
			C262.6,62.8,262.8,62.9,263,62.6z"/>
		<path class="st14" d="M294,35.4c-0.1,0-0.2,0-0.4,0c0-0.6,0.4-0.5,0.8-0.4c1.2,0.3,2.1,1.1,2.8,2c1.2,1.6,2.1,3.4,2.6,5.3
			c0,0.2,0.2,0.4-0.2,0.4c-1-1.7-1.7-3.5-2.9-5.1C296.1,36.6,295.3,35.6,294,35.4z"/>
		<path class="st75" d="M269.2,96.7c0.7-0.3,1.4-0.4,2.2-0.4c2.6,0,5.2,0,7.8,0c0.1,0.1,0.3,0.1,0.2,0.3c-2.6,0.2-5.2,0.2-7.8,0.2
			c-0.7,0-1.4,0-2.1,0.2C269.3,96.9,269.1,96.9,269.2,96.7z"/>
		<path class="st76" d="M261.2,60.2c1.8,0,3.6,0,5.4,0c0,0.4,0.3,0.1,0.4,0.1c0.4-0.2,0.9-0.2,1.3-0.3c0.3,0,0.6,0,0.8,0.1
			c0.4,0.1,0.4,0.3,0.1,0.6c-0.9,0.8-4,0.8-5,0c0-0.4,0.3-0.2,0.5-0.3c0.3,0.1,0.7,0.1,1,0.1c-0.3,0-0.7,0-1-0.1
			c-0.2,0-0.5,0.1-0.6-0.1C263.2,60.2,262.2,60.5,261.2,60.2z"/>
		<path class="st76" d="M283.3,65.3c1.8,0.2,3.6-0.2,5.4-0.4C287.6,65.9,285,66.1,283.3,65.3z"/>
		<path class="st77" d="M253.2,63.2c-0.6,0.4-0.9,0.2-1.1-0.4c-0.3-0.9,0-1.8,0.9-2.2c0.3,0.2,0.2,0.5,0.1,0.8c0,0.3,0,0.5,0,0.8
			C253,62.5,253.4,62.8,253.2,63.2z"/>
		<path class="st78" d="M266.7,92.8c-1.4-0.3-2.5-1-3.5-2.1C264.5,91.2,265.7,91.9,266.7,92.8z"/>
		<path class="st79" d="M278.6,94.4c-0.6,0.4-1.2,0.1-1.7,0.2c0.3-0.1,0.8,0,0.6-0.7c-0.1-0.5,0.2-1.1,0.5-1.6
			c0.1-0.2,0.2-0.4,0.5-0.3c0.2,0.1,0.1,0.3,0.1,0.5c-0.1,0.6-0.4,1.1-0.4,1.7C278.3,94.4,278.5,94.3,278.6,94.4z"/>
		<path class="st80" d="M252.7,67.2c0.8-1.1,2.3-1.4,3.5-0.8C255,66.5,253.9,67,252.7,67.2z"/>
		<path class="st81" d="M297.4,52.1c-0.2-0.2-0.2-0.4-0.2-0.6c0-0.7,0.2-1.4,0.4-2c0.2-1.1,0-2.3,0.1-3.4c0-0.3-0.2-0.6,0.3-0.7
			c0,0,0.1,0.1,0,0.1c0.2,1.4-0.1,2.8,0.2,4.2c-0.1,0.4-0.1,0.8-0.2,1.3C297.9,51.3,297.7,51.7,297.4,52.1L297.4,52.1z"/>
		<path class="st82" d="M264,66.9c-0.7,0-1.5,0-2.2,0.1c-0.5,0-1,0.3-1.4-0.2c1.2-0.2,2.5-0.6,3.8-0.2
			C264.3,66.8,264.1,66.8,264,66.9z"/>
		<path class="st80" d="M281.3,65.6c1.1,0.2,2.1,0.4,3.2,0.6c0,0.1,0,0.2,0,0.3c-1.2,0.2-2.3,0-3.3-0.7
			C281,65.7,281,65.6,281.3,65.6z"/>
		<path class="st83" d="M291.4,66.1c0.8,0.5,1.6,1,2.4,1.4c0.1,0.1,0.3,0.2,0.2,0.4c-0.1,0.2-0.3,0.2-0.4,0.1
			c-0.9-0.5-1.8-0.9-2.4-1.7C291.3,66.3,291.3,66.2,291.4,66.1z"/>
		<path class="st84" d="M291.3,59.1c0.7,0,1.3,0,2,0c0.3,0.4,0.7,0.5,1.1,0.9c0.1,0.2,0.1,0.3,0.2,0.5c-0.3,0.4-0.6,0.1-0.9-0.1
			C292.9,59.9,292.3,59.1,291.3,59.1z"/>
		<path class="st79" d="M256.1,58.7c0.1,0.2,0.1,0.3,0.2,0.5c-0.3,0.7,0.3,0.9,0.7,1.2c0.2,0.1,0.6,0.2,0.4,0.5
			c-0.1,0.2-0.5,0.1-0.7,0C255.7,60.5,255.4,59.6,256.1,58.7z"/>
		<path class="st84" d="M295.3,64.3c-1.1,0.2-2.2,0.1-3.3-0.2c1.1-0.2,2.3-0.2,3.5-0.1C295.6,64.2,295.5,64.2,295.3,64.3z"/>
		<path class="st59" d="M276.1,84.8c1.5-0.3,3-0.1,4.6-0.2c0.1,0.1,0.1,0.2,0.2,0.3c-0.8,0-1.5,0-2.3,0
			C277.8,84.6,276.9,84.9,276.1,84.8z"/>
		<path class="st85" d="M253.6,62.1c0.1,0.2,0.3,0.3,0.4,0.5c0.1,0.2,0.6,0.2,0.5,0.6c-0.1,0.3-0.5,0.1-0.8,0
			c-0.5-0.1-0.6-0.5-0.7-0.9c0-0.2,0-0.5,0-0.7c0.1-0.2,0.1-0.5,0.3-0.7c0.1,0,0.2,0,0.3,0.1C253.8,61.3,253.3,61.7,253.6,62.1z"/>
		<path class="st86" d="M253.4,60.9c0,0-0.1,0-0.1,0c-0.2-0.2,0.1-0.3,0.2-0.4c0.2-0.2,0.4-0.3,0.7-0.4c-0.2,0.8,0.2,1.2,1.1,1.5
			c-0.8,0.3-1.2,0.3-1.5-0.2C253.6,61.4,253.7,61,253.4,60.9z"/>
		<path class="st87" d="M272.4,68.5c-0.1,1-0.2,2-0.2,3c-0.5-0.2-0.2-0.5-0.2-0.8c0-1,0-2.1,0.1-3.1c0.3-0.1,0.4,0.2,0.5,0.4
			C272.6,68.1,272.6,68.3,272.4,68.5z"/>
		<path class="st88" d="M280.8,62.6c0.4-0.4,0.8-0.8,1.3-0.2c-0.6,0.4-1,0.9-1.8,1.2C280.3,63.1,280.8,63,280.8,62.6z"/>
		<path class="st89" d="M292.1,65.7c1,0,1.8,0.2,2.5,1C293.6,66.7,292.9,66.2,292.1,65.7z"/>
		<path class="st90" d="M280.1,66.9c0.9,0.3,1.9,0.4,2.9,1c-1.2,0-2.1-0.2-2.9-0.7C280,67.1,280,67,280.1,66.9z"/>
		<path class="st91" d="M252.1,65.3c0.9-0.2,1.7-0.4,2.5,0c0,0.1,0,0.2,0,0.3c-0.8,0-1.7,0-2.5,0C252,65.5,252,65.4,252.1,65.3z"/>
		<path class="st51" d="M298,45.3c-0.4,1-0.1,2.1-0.2,3.1c0,0.4,0.1,0.7-0.2,1c0-1.6,0-3.1,0-4.7c0.1-0.1,0.1-0.2,0.2-0.2
			c0.1,0,0.1,0,0.1,0.1C298,44.8,298,45.1,298,45.3z"/>
		<path class="st92" d="M279.4,93.8c-0.1,0.1-0.1,0.1-0.2,0.2c-0.2,0.1-0.4,0.2-0.6,0c0.3-0.7,0.5-1.3,0.8-2.1
			C279.8,92.7,279.4,93.2,279.4,93.8z"/>
		<path class="st93" d="M284.6,89.1c0.1,0.8-0.2,1.5-1.1,2c0.1-0.8,0.8-1.3,0.8-2C284.4,89,284.5,89,284.6,89.1z"/>
		<path class="st89" d="M285.4,76.1c-0.1,0.1-0.2,0.2-0.2,0.2c-0.5-0.4-1.1-0.8-1.4-1.4C284.5,75.1,284.9,75.6,285.4,76.1z"/>
		<path class="st94" d="M255.3,60c0.1,0.4,0.4,0.7,0.6,1c0.1,0.1,0.4,0.3,0.2,0.5c-0.2,0.2-0.4,0.1-0.6,0c-0.5-0.3-0.4-0.8-0.5-1.2
			C255,60,255.1,60,255.3,60z"/>
		<path class="st10" d="M296.7,54c0,0.1,0.1,0.1,0.1,0.2c0,0.5-0.2,0.6-0.6,0.5c-0.3-0.1-0.4-0.4-0.3-0.7
			C296.2,53.4,296.5,54,296.7,54z"/>
		<path class="st10" d="M272.4,68.5c0-0.2,0-0.4,0-0.6c-0.1-0.2-0.1-0.4,0.1-0.6c0.5,0,0.8,0.2,0.7,0.7
			C273.1,68.6,272.7,68.4,272.4,68.5z"/>
		<path class="st95" d="M277.4,70.2c0.2,1,0.1,2-0.2,3.1C276.9,72.1,277.5,71.2,277.4,70.2z"/>
		<path class="st96" d="M270.7,66.3c-0.1,0.4-0.3,0.8-0.6,1.1c-0.2,0-0.3,0-0.2-0.2c0.2-0.5,0.4-1,0.6-1.4
			C271,65.7,270.8,66,270.7,66.3z"/>
		<path class="st10" d="M255.3,29.3c0.2-0.1,0.5-0.3,0.7-0.4c0.3,0.2,0.3,0.5,0,0.8C255.6,29.9,255.4,29.8,255.3,29.3z"/>
		<path class="st97" d="M300.4,64.9c-0.2-0.7-0.2-1.4,0.1-2.1c0,0.2,0.1,0.4,0.1,0.6c0,0.2,0,0.5,0,0.7
			C300.4,64.4,300.7,64.7,300.4,64.9z"/>
		<path class="st29" d="M279.9,94.2c0.1-0.4,0.3-0.8,0.4-1.2c0.2,0.1,0.6,0.3,0.3,0.6C280.4,93.9,280.6,94.7,279.9,94.2z"/>
		<path class="st98" d="M247.6,47.8c0.1-0.3,0.2-0.7,0.2-1c0.2,0.1,0.1,0.3,0.2,0.4c0,0.8,0,1.5,0,2.3
			C247.6,49,248.1,48.3,247.6,47.8z"/>
		<path class="st99" d="M264.1,58.7c0.5,0.1,0.9,0.2,1.6,0.3c-0.7,0.5-1.3,0.2-1.8-0.1C264,58.8,264.1,58.8,264.1,58.7z"/>
		<path class="st100" d="M260.4,66.8c0.4,0.4,0.9,0.1,1.4,0.2c-0.8,0.3-1.7,0.1-2.6,0.1C259.6,66.9,259.9,66.7,260.4,66.8z"/>
		<path class="st84" d="M286.3,64c1.1-0.4,2.2-0.1,3.3-0.2C288.5,64,287.4,63.9,286.3,64z"/>
		<path class="st101" d="M246.4,40.4c0.1,0.1,0.1,0.3,0.2,0.4c-0.2,0.4-0.3,0.9-0.5,1.3C246,41.5,246.1,40.9,246.4,40.4z"/>
		<path class="st79" d="M258.3,65.3c0.8,0.4,1.7,0.1,2.5,0.2c-0.8,0.3-1.7,0.1-2.5,0.1C257.9,65.5,257.9,65.3,258.3,65.3z"/>
		<path class="st102" d="M267.7,63.6c0.3,0.4,0.4,0.8,0.2,1.4c-0.3-0.4-0.4-0.8-0.4-1.2C267.4,63.6,267.5,63.5,267.7,63.6z"/>
		<path class="st103" d="M276,71.5c0-0.4,0-0.7,0.3-1.2c0,0.9,0.2,1.5-0.2,2.2C276,72.1,276.2,71.8,276,71.5z"/>
		<path class="st104" d="M300.4,64.9c0.1-0.2-0.1-0.6,0.2-0.8c0.1,0.4,0.1,0.7,0.2,1.1c0,0,0,0.1,0,0.1c0,0.2,0,0.5-0.1,0.7
			c0,0.1-0.1,0.1-0.2,0.2C300.4,65.8,300.5,65.3,300.4,64.9z"/>
		<path class="st27" d="M265.5,83.9c0.5,0.4,1.2-0.1,1.7,0.3c-0.7,0-1.5,0-2.2,0.1c-0.2,0.1-0.2,0-0.2-0.2
			C265,84,265.2,84,265.5,83.9z"/>
		<path class="st105" d="M263.4,77.5c0.1-0.5,0.6-0.6,0.9-1c0.2-0.1,0.4-0.2,0.4,0.2C264.2,76.9,264,77.5,263.4,77.5
			C263.4,77.5,263.4,77.5,263.4,77.5z"/>
		<path class="st106" d="M270.7,66.3c0-0.2,0-0.4-0.2-0.6c0-0.3-0.1-0.7,0.3-1.2C271,65.2,271,65.7,270.7,66.3z"/>
		<path class="st107" d="M272.5,73.8c-0.5,0.2-0.9,0.7-1.6,0.4C271.5,74,271.9,73.6,272.5,73.8z"/>
		<path class="st108" d="M253.2,35.2c-0.6-0.3-0.7,0.5-1.1,0.6c0-0.5,0.3-0.8,0.8-1.1C252.9,35,253.2,35,253.2,35.2z"/>
		<path class="st109" d="M276.8,63.6c0.1-0.1,0.1-0.3,0.2-0.4c0.1,0,0.1,0,0.2,0c0,0.7,0,1.4,0,2.1c-0.1,0.1-0.2,0-0.2-0.1
			C276.7,64.7,277,64.1,276.8,63.6z"/>
		<path class="st110" d="M276.8,63.6c0.3,0.5,0.1,1.1,0.2,1.6c0,0.2,0.2,0.4-0.2,0.5C276.5,65,276.6,64.3,276.8,63.6z"/>
		<path class="st111" d="M247.6,44.4c0,0.4-0.1,0.7-0.4,0.9c-0.1,0-0.1,0-0.2,0c0.2-0.4-0.1-0.9,0.4-1.1
			C247.6,44.2,247.7,44.2,247.6,44.4z"/>
		<path class="st76" d="M300.8,65.2c0.2,0.4,0.2,0.7,0.2,1.1c0,0.3,0.3,0.6-0.2,0.8c-0.1-0.3-0.3-0.6-0.2-0.9c0,0,0-0.1,0-0.1
			C300.8,65.9,300.6,65.6,300.8,65.2L300.8,65.2z"/>
		<path class="st112" d="M270.5,64.4c-0.2-0.3-0.3-0.6-0.5-0.9c0.5,0.1,0.7,0.4,0.7,0.8C270.6,64.3,270.5,64.4,270.5,64.4z"/>
		<path class="st113" d="M269.2,96.7c0.1,0.1,0.1,0.2,0.2,0.4c-0.4,0-0.7,0.4-1.2,0.4C268.4,96.8,268.9,96.9,269.2,96.7z"/>
		<path class="st114" d="M283,99.9c-0.3-0.3-0.5-0.5-0.4-0.9c0,0,0.2-0.1,0.2-0.1C283,99.2,283.1,99.5,283,99.9z"/>
		<path class="st115" d="M290.1,67.7c0.6,0,0.8,0.3,1,0.7C290.5,68.4,290.3,68.1,290.1,67.7z"/>
		<path class="st116" d="M281.3,65.6c-0.1,0.1-0.1,0.2-0.2,0.2c-0.4-0.1-0.8-0.2-0.9-0.8C280.6,65.3,280.9,65.5,281.3,65.6z"/>
		<path class="st113" d="M267.7,63.6c-0.1,0.1-0.1,0.2-0.2,0.2c-0.2-0.3-0.4-0.5-0.8-1C267.4,62.9,267.6,63.2,267.7,63.6z"/>
		<path class="st76" d="M267.2,60c0.7-0.4,1.4-0.1,2.1-0.2c0,0.1,0,0.1-0.1,0.2c-0.3,0.2-0.6,0-0.9,0.1c-0.3,0.1-0.6,0.1-0.9,0.1
			C267.3,60.1,267.2,60.1,267.2,60z"/>
		<path class="st117" d="M273.8,73.4c-0.4,0.2-0.7,0.4-1,0.1C273.1,73.3,273.4,73.4,273.8,73.4z"/>
		<path class="st118" d="M272.4,67.3c0,0.2,0,0.4-0.1,0.6c-0.1-0.1-0.2-0.2-0.3-0.4c0-0.2-0.2-0.6,0.1-0.7
			C272.5,66.8,272.3,67.2,272.4,67.3z"/>
		<path class="st119" d="M297.8,44.5c-0.1,0.1-0.1,0.2-0.2,0.2c-0.1-0.4-0.1-0.7-0.2-1.1c0.1-0.1,0.1-0.1,0.2,0
			C297.9,43.9,297.9,44.2,297.8,44.5z"/>
		<path class="st97" d="M279.3,96.6c-0.1-0.1-0.1-0.2-0.2-0.3c0.4-0.1,0.8,0.1,1.4,0.3C280,96.6,279.7,96.6,279.3,96.6z"/>
		<path class="st84" d="M284.4,64.1c0.6-0.4,1.3-0.1,1.9-0.2C285.7,64.2,285.1,64.1,284.4,64.1z"/>
		<path class="st120" d="M253.4,60.9c0.6-0.1,0.2,0.4,0.4,0.6c-0.3,0.1-0.1,0.4-0.2,0.6C253.3,61.7,253.5,61.3,253.4,60.9z"/>
		<path class="st40" d="M293.9,58.3c-0.4,0-0.9,0-1.4,0c0.2-0.3,0.5-0.3,0.7-0.3C293.3,58.2,293.7,58,293.9,58.3z"/>
		<path class="st121" d="M280.5,92.7c-0.1-0.1-0.1-0.3-0.2-0.4c0.1-0.3,0.1-0.6,0.2-0.9C280.7,91.9,280.8,92.4,280.5,92.7z"/>
		<path class="st79" d="M260.6,63.4c-0.2,0.2-0.4,0.4-0.5,0.5c0-0.3-0.1-0.4-0.4-0.3c0.2-0.3,0.5-0.4,0.8-0.4
			C260.5,63.2,260.5,63.3,260.6,63.4z"/>
		<path class="st63" d="M253,62.3c0.2,0.3,0.4,0.6,0.6,0.9c-0.1,0-0.3,0-0.4,0c-0.2-0.3-0.5-0.5-0.4-0.9
			C252.9,62.2,253,62.2,253,62.3z"/>
		<path class="st122" d="M272,70.7c0.1,0.3,0,0.6,0.2,0.8c0,0.1,0,0.2,0,0.4c-0.1,0.1-0.1,0.3-0.3,0.2
			C271.9,71.5,271.8,71.1,272,70.7z"/>
		<path class="st79" d="M260.9,65.4c0.5-0.4,1.1-0.1,1.7-0.2C262.1,65.5,261.5,65.4,260.9,65.4z"/>
		<path class="st79" d="M260,65c-0.5,0.5-1,0.2-1.6,0.2C258.9,65,259.5,65.2,260,65z"/>
		<path class="st123" d="M276.3,70.1c-0.3-0.4,0-0.5,0.1-0.8C276.6,69.6,276.6,69.9,276.3,70.1z"/>
		<path class="st48" d="M278.6,94c0.2,0,0.4,0,0.6,0c-0.1,0.3-0.4,0.3-0.6,0.4c-0.1-0.1-0.4,0.1-0.4-0.2
			C278.4,94.2,278.5,94.2,278.6,94z"/>
		<path class="st124" d="M269.9,67.1c0.1,0.1,0.1,0.2,0.2,0.2c-0.1,0.3-0.3,0.6-0.6,0.7c-0.1,0-0.1-0.1-0.1-0.2
			C269.6,67.6,269.8,67.4,269.9,67.1z"/>
		<path class="st125" d="M276.8,65.6c0.2-0.1,0.2-0.3,0.2-0.5c0,0,0.1,0.1,0.1,0.1c0,0.3,0,0.6,0.1,0.9c0.1,0.2,0,0.3-0.2,0.2
			C276.9,66.1,276.8,65.9,276.8,65.6z"/>
		<path class="st126" d="M264.7,84.1c0.1,0.1,0.1,0.1,0.2,0.2c-0.3,0.1-0.6,0.6-1,0.2C264.2,84.3,264.5,84.2,264.7,84.1z"/>
		<path class="st68" d="M282.6,62.2c0.2-0.2,0.3-0.2,0.3,0.1c0,0.4,0,0.7,0,1.1C282.5,63.1,283,62.5,282.6,62.2z"/>
		<path class="st127" d="M245.9,42.3c0.2,0.4,0,0.6-0.1,0.8c0,0-0.1,0-0.1,0C245.7,42.8,245.6,42.6,245.9,42.3z"/>
		<path class="st128" d="M297.2,43.1c-0.2-0.2-0.3-0.4-0.3-0.8c0.4,0,0.4,0.3,0.5,0.6C297.3,43,297.3,43.1,297.2,43.1z"/>
		<path class="st129" d="M260.8,27.5c-0.1-0.1-0.1-0.2-0.2-0.3c0.3,0.1,0.7,0.1,1.1,0.2C261.3,27.6,261,27.4,260.8,27.5z"/>
		<path class="st130" d="M253.4,60.6c-0.1,0.1-0.1,0.2-0.2,0.4c-0.1,0.2-0.1,0.4-0.2,0.6c-0.1,0-0.1-0.1-0.2-0.2
			c0-0.2,0.2-0.5,0.1-0.7C253.2,60.6,253.3,60.6,253.4,60.6z"/>
		<path class="st131" d="M271.9,72c0.1-0.1,0.2-0.1,0.3-0.2c0,0.3,0,0.5-0.2,0.8C271.7,72.4,271.9,72.2,271.9,72z"/>
		<path class="st53" d="M282.6,98.6c-0.1,0.1-0.2,0.1-0.3,0.1c-0.1-0.1-0.2-0.2-0.2-0.3c0-0.1,0.1-0.2,0.1-0.2
			C282.4,98.3,282.4,98.4,282.6,98.6z"/>
		<path class="st132" d="M282,91c0,0.3,0,0.5-0.3,0.7C281.6,91.4,281.8,91.2,282,91z"/>
		<path class="st133" d="M269.5,67.9c0,0.1,0.1,0.1,0.1,0.2c-0.1,0.3-0.3,0.5-0.8,0.6C269.1,68.3,269.3,68.1,269.5,67.9z"/>
		<path class="st42" d="M255.3,60c-0.1,0.1-0.2,0.1-0.2,0.2c-0.2-0.2-0.3-0.6,0-0.7C255.3,59.4,255.3,59.8,255.3,60z"/>
		<path class="st134" d="M280.1,66.9c0,0.1,0,0.2,0,0.3c-0.2-0.2-0.5-0.4-0.6-0.7C280,66.4,280,66.7,280.1,66.9z"/>
		<path class="st135" d="M284.6,89.1c-0.1,0-0.2,0-0.3,0c0-0.2-0.1-0.5,0.2-0.5C284.7,88.7,284.6,89,284.6,89.1z"/>
		<path class="st120" d="M276.9,66.4c0.1-0.1,0.1-0.1,0.2-0.2c0.2,0.2,0.2,0.4,0.1,0.7C277,66.8,276.9,66.6,276.9,66.4z"/>
		<path class="st79" d="M262.8,65.3c0.4-0.3,0.8-0.1,1.2-0.2C263.6,65.3,263.2,65.3,262.8,65.3z"/>
		<path class="st136" d="M252.1,65.3c0,0.1,0,0.2,0,0.3c-0.2,0-0.5,0.2-0.5-0.1C251.6,65.2,251.9,65.3,252.1,65.3z"/>
		<path class="st137" d="M295.3,64.3c0.1-0.1,0.1-0.2,0.2-0.3c0.2,0,0.4,0,0.4,0.1C295.9,64.3,295.6,64.3,295.3,64.3z"/>
		<path class="st65" d="M267.9,70c-0.1,0.2-0.2,0.4-0.5,0.5c0-0.4,0.3-0.5,0.5-0.7C268,69.8,268,69.8,267.9,70
			C267.9,69.9,267.9,70,267.9,70z"/>
		<path class="st138" d="M300.8,67.1c0.3-0.2,0.1-0.5,0.2-0.8c0.2,0.2,0.2,0.5,0.1,0.7C301.1,67.3,301,67.4,300.8,67.1z"/>
		<path class="st90" d="M264,66.9c0.1-0.1,0.1-0.2,0.2-0.4c0.2,0,0.5,0,0.5,0.1C264.5,67,264.2,66.9,264,66.9z"/>
		<path class="st139" d="M272.1,65.7c0.1,0.3,0.2,0.5,0,0.7C271.9,66.2,272.1,65.9,272.1,65.7z"/>
		<path class="st15" d="M297.2,43.1c0.1-0.1,0.1-0.1,0.2-0.2c0.1,0.2,0.2,0.5,0.2,0.7c-0.1,0-0.1,0-0.2,0
			C297.2,43.5,297.2,43.3,297.2,43.1z"/>
		<path class="st140" d="M299.7,42.7c0.1-0.1,0.1-0.3,0.2-0.4c0.2,0.2,0.2,0.5,0.1,0.8C299.8,43.1,299.8,42.8,299.7,42.7z"/>
		<path class="st26" d="M264.7,76.7c-0.1-0.1-0.3-0.1-0.4-0.2c0.1-0.1,0.2-0.1,0.4-0.2c0.2,0,0.5-0.3,0.6,0.2
			C265.1,76.6,264.9,76.6,264.7,76.7z"/>
		<path class="st69" d="M264.1,60.4c0.3,0,0.5,0,0.8,0c0.1,0,0.1,0.1,0.1,0.1c0,0,0,0-0.1,0c-0.2,0.1-0.5-0.1-0.6,0.2
			C264.2,60.6,264.2,60.5,264.1,60.4z"/>
		<path class="st141" d="M300.3,43.7c0.2,0.1,0.3,0.3,0.2,0.5C300.2,44.2,300.2,44,300.3,43.7z"/>
		<path class="st142" d="M265.2,76.5c-0.1-0.2-0.4-0.1-0.6-0.2c0.2-0.2,0.5-0.3,0.7-0.1C265.5,76.4,265.4,76.5,265.2,76.5z"/>
		<path class="st143" d="M268.3,60c0.3,0,0.6,0,0.9,0c0,0.1,0,0.1,0,0.2c-0.3,0-0.6,0-0.9,0.1c0,0-0.1-0.1-0.1-0.1
			C268.2,60.1,268.3,60.1,268.3,60z"/>
		<path class="st144" d="M276,71.5c0.2,0.3,0.1,0.6,0.2,0.9C275.9,72.1,276,71.8,276,71.5z"/>
		<path class="st145" d="M267.9,70c0-0.1,0-0.1,0-0.2c0.1-0.2,0.2-0.3,0.5-0.3C268.3,69.7,268.1,69.9,267.9,70z"/>
		<path class="st106" d="M282.4,63.7c0,0.1,0,0.2,0,0.2c-0.3,0-0.6,0.1-0.9-0.1C281.8,63.6,282.1,63.7,282.4,63.7z"/>
		<path class="st13" d="M301.7,60.6c-0.7-2.7-2.1-5.2-3.4-7.7c-0.1-0.2,0-0.2,0.2-0.3c0.9,0.5,1.3,1.4,1.9,2.2
			c0.3,0.4,0.6,1,0.7,1.5c0.1,0.2,0.2,0.4,0.2,0.6c-0.1-0.3-0.2-0.5-0.3-0.8c-0.9-1.8-1.5-3.7-2.3-5.6c0-0.2,0.1-0.4,0.3-0.4
			c1.8,2.3,2.9,5,3.3,7.8c0.1,0.7-0.2,1.5,0,2.2C302.5,60.6,302.2,60.9,301.7,60.6z"/>
		<path class="st51" d="M298,49.8c0-1.5,0-2.9,0-4.4c0.3,1,0.1,2.1,0.2,3.1c0,0.4,0.2,0.8,0.5,1c0,0.1-0.1,0.1-0.2,0.2
			c-0.1,0.1-0.2,0.1-0.4,0.1C298,49.9,298,49.9,298,49.8z"/>
		<path class="st105" d="M298.3,49.7c0.1,0,0.2,0,0.3,0c0.2,0.1,0.4,0.3,0.5,0.6c-0.2,0.1-0.2,0.2-0.2,0.4
			C298.3,50.5,298.3,50.1,298.3,49.7z"/>
		<path class="st146" d="M298.5,52.7c-0.1,0.1-0.1,0.2-0.2,0.2c-0.3-0.3-0.5-0.6-0.5-1c0.1-0.1,0.2-0.1,0.2-0.1
			C298.4,52,298.6,52.2,298.5,52.7z"/>
		<path class="st51" d="M297.9,51.9L297.9,51.9c-0.1,0-0.2,0-0.2,0c-0.1,0.1-0.2,0.1-0.4,0.2c0-0.4,0.1-0.8,0.3-1.2
			c0,0,0.1,0,0.1,0.1C298,51.3,298.2,51.6,297.9,51.9z"/>
		<path class="st10" d="M282.5,87c-0.1,0.1-0.2,0.2-0.3,0.3c-2.1,1.2-4.5,1.8-6.7,2.7c-0.4,0.2-0.8,0.2-1.2,0.3
			c-1.2,0.2-2.3,0-3.5,0.1c-0.2,0-0.3-0.1-0.3-0.3c0.4-0.6-0.1-0.7-0.4-0.7c-2.7,0-4.9-1.5-7.4-2c-0.3-0.1-0.6-0.1-0.7-0.5
			c-0.3-0.6-0.3-0.9,0.5-1.1c1.9-0.3,3.8,0,5.7-0.1c0.7-0.1,1.3,0,2,0c1.3,0.4,2.6,0.4,3.9,0.3c2.4-0.3,4.8-0.6,7.3-0.4
			c1.2,0.1,2.4-0.2,3.7,0.2c-0.5,0.5-1.2,0.6-1.7,0.8C283,86.8,282.8,86.9,282.5,87z"/>
		<path class="st147" d="M270.5,90.1c0.8,0.4,1.7,0.1,2.6,0.2c0.4,0,0.8,0,1.2,0c-1.3,0.4-2.6,0.1-3.9,0.2c-0.1-0.1-0.3-0.1-0.2-0.3
			C270.3,90.1,270.4,90.1,270.5,90.1z"/>
		<path class="st23" d="M270.2,90.1c0.1,0.1,0.1,0.2,0.2,0.3c-0.2,0-0.6,0.1-0.6-0.2C269.7,90,270,90.1,270.2,90.1z"/>
		<path class="st148" d="M252.1,35.7c-0.1,0.7-0.7,1.3-1,1.9c-1.1,1.8-2,3.6-2.9,5.5c-0.3,0-0.3-0.2-0.2-0.4
			c0.7-2.5,2.1-4.7,3.8-6.8C251.8,35.8,252,35.8,252.1,35.7z"/>
		<path class="st149" d="M247.9,42.7c0.1,0.1,0.1,0.3,0.2,0.4c-0.1,0.5-0.2,0.9-0.5,1.3c0-0.1-0.1-0.1-0.1-0.2
			C247.4,43.6,247.7,43.1,247.9,42.7z"/>
		<path class="st150" d="M267.2,60c0.1,0,0.1,0,0.2,0c0.3,0.2,0.6,0,0.9,0.1c0,0,0,0,0.1,0.1c-0.6,0.1-1.1,0.2-1.7,0.3
			c-0.1,0-0.3,0.1-0.3-0.1c0-0.1,0.2-0.1,0.3-0.2C266.8,60.2,267,60.2,267.2,60z"/>
		<path class="st151" d="M287.7,58.9c-1.1,0.1-2.1,0-3-0.6c1.1-0.8,2.3-0.4,3.5-0.5C288.4,58.4,287.1,58.2,287.7,58.9z"/>
		<path class="st152" d="M294.4,59.9c-0.5,0-0.8-0.3-1.1-0.5c-0.2-0.1,0-0.2,0.1-0.3C293.9,59.1,294.4,59.2,294.4,59.9z"/>
		<path class="st153" d="M285.6,63.6L285.6,63.6l-0.2,0c-0.4,0.2-0.9,0-1.4,0.2c-0.5-0.1-0.4-0.6-0.7-0.8c0.1-0.1,0.2-0.2,0.2-0.1
			c0.6,0.3,1.2,0.3,1.9,0.1c0.3-0.1,0.7-0.2,0.9,0.2C286.3,63.5,285.9,63.5,285.6,63.6z"/>
		<path class="st154" d="M287.8,63.4c-0.2-0.2-0.8,0.3-0.7-0.4c0.1-0.6,0.5-0.5,0.9-0.4c0.3,0.1,0.6,0.3,0.9,0.4
			C288.7,63.6,288.1,63.1,287.8,63.4z"/>
		<path class="st84" d="M287.8,63.4c0.3-0.3,0.9,0.1,1.1-0.4c0.2,0,0.4,0,0.4,0.2c0,0.3-0.2,0.2-0.3,0.2
			C288.6,63.4,288.2,63.4,287.8,63.4z"/>
		<path class="st84" d="M284,63.7c0.4-0.2,0.9-0.2,1.4-0.2C285,63.9,284.5,63.7,284,63.7z"/>
		<path class="st84" d="M285.6,63.6c0.3-0.2,0.6-0.3,0.8-0.6C286.4,63.6,286,63.6,285.6,63.6z"/>
		<path class="st155" d="M283.3,62.3c0-0.1-0.1-0.2-0.1-0.2c0-0.2,0.2-0.2,0.3-0.2c0.1,0,0.1,0.1,0.2,0.1
			C283.6,62.1,283.5,62.1,283.3,62.3z"/>
		<path class="st80" d="M284.1,59.5c-0.3,0.2-0.5,0.3-0.7,0.2C283.6,59.3,283.8,59.4,284.1,59.5z"/>
		<path class="st9" d="M282.5,87c0.2-0.2,0.5-0.4,0.8-0.3C283.1,86.9,282.8,87.1,282.5,87z"/>
		<path class="st58" d="M260.6,63.4c-0.1-0.1-0.1-0.1-0.2-0.2c0.3-0.2,0.6-0.2,0.9-0.2c0.2-0.1,0.3,0,0.2,0.2
			C261.2,63.3,260.9,63.3,260.6,63.4z"/>
		<path class="st156" d="M261.5,63.2c-0.1-0.1-0.1-0.1-0.2-0.2c0.3-0.3,0.6-0.1,1-0.2c0.2-0.1,0.2,0,0.2,0.2
			C262.1,63.1,261.8,63.1,261.5,63.2z"/>
		<path class="st125" d="M262.4,63c-0.1-0.1-0.1-0.1-0.2-0.2c0.2-0.2,0.5-0.1,0.8-0.2C263,63,262.7,63,262.4,63z"/>
		<path class="st148" d="M263.3,64.9c-0.7,0-1.3-0.1-2,0.2c-0.3,0.1-0.8,0.2-0.9-0.4c-0.1-0.6,0.4-0.4,0.7-0.5
			c0.8-0.2,1.6,0.3,2.3-0.2c0.2-0.1,0.7-0.2,0.7,0.4C264.1,64.8,263.7,64.8,263.3,64.9z"/>
		<path class="st79" d="M263.3,64.9c0.3-0.1,0.7-0.1,0.8-0.5C264.2,65,263.7,64.9,263.3,64.9z"/>
		<path class="st157" d="M264.9,60.6c0-0.1,0-0.1,0-0.2c0.3,0,0.7,0,1.2-0.1C265.6,60.8,265.3,60.7,264.9,60.6z"/>
		<path class="st19" d="M252.9,61.3c0.1,0.1,0.1,0.1,0.2,0.2c0,0.2,0,0.5,0,0.7c-0.1,0-0.1,0-0.2,0
			C252.9,61.9,252.9,61.6,252.9,61.3z"/>
		<path class="st51" d="M297.7,50.9c0.1-0.4-0.1-0.8,0.2-1.1c0,0,0.1,0,0.1,0C298.2,50.3,298.4,50.7,297.7,50.9L297.7,50.9z"/>
		<path class="st158" d="M300.8,65.3c0,0.3,0.2,0.6-0.1,0.8C300.6,65.9,300.5,65.6,300.8,65.3z"/>
		<path class="st37" d="M268.2,60.1c-0.3,0-0.6,0.2-0.9-0.1c0.3,0,0.6,0,0.9,0C268.3,60.1,268.3,60.1,268.2,60.1z"/>
		<path class="st159" d="M297.8,51c0.2-0.3,0.2-0.7,0.2-1.1c0.1-0.1,0.2-0.1,0.3-0.2c0.2,0.3,0.4,0.6,0.6,0.9c1,1.8,1.6,3.7,2.2,5.7
			c0,0.1,0.1,0.1,0,0.1c-0.1,0.1-0.1,0-0.2,0c-0.6-1.4-1.6-2.5-2.5-3.7c-0.1-0.3-0.3-0.6-0.6-0.8C297.8,51.6,297.7,51.3,297.8,51z"
			/>
		<path class="st160" d="M301,56.4c0.1,0,0.1-0.1,0.2-0.1c0.3,0.3,0.3,0.6,0.5,1.1C301.2,57,301.1,56.7,301,56.4z"/>
	</g>
</g>
</svg>
