<?xml version="1.0" encoding="utf-8"?>
<!-- Generator: Adobe Illustrator 23.0.1, SVG Export Plug-In . SVG Version: 6.00 Build 0)  -->
<svg version="1.1" xmlns="http://www.w3.org/2000/svg" xmlns:xlink="http://www.w3.org/1999/xlink" x="0px" y="0px"
	 viewBox="0 0 425 179" style="enable-background:new 0 0 425 179;" xml:space="preserve">
<style type="text/css">
	.st0{fill:#FFFFFF;}
	.st1{font-family:'Roboto-Bold';}
	.st2{font-size:12px;}
	.st3{display:none;opacity:0.1;fill:#102615;enable-background:new    ;}
	.st4{fill:#24B865;stroke:#FFFFFF;stroke-width:1.25;stroke-linecap:round;stroke-linejoin:round;stroke-miterlimit:10;}
	.st5{fill:#FEFEFE;}
	.st6{fill:#21B765;}
	.st7{fill:#22B865;}
	.st8{fill:#FBFDFC;}
	.st9{fill:#23B866;}
	.st10{fill:#F9FCFB;}
	.st11{fill:#25B968;}
	.st12{fill:#25B967;}
	.st13{fill:#26B968;}
	.st14{fill:#27B969;}
	.st15{fill:#2ABA6B;}
	.st16{fill:#2EBB6D;}
	.st17{fill:#4EC684;}
	.st18{fill:#30BC6F;}
	.st19{fill:#F2FAF5;}
	.st20{fill:#D9F2E4;}
	.st21{fill:#2CBB6C;}
	.st22{fill:#F1FAF5;}
	.st23{fill:#33BD71;}
	.st24{fill:#E5F6ED;}
	.st25{fill:#EFF9F3;}
	.st26{fill:#E6F6ED;}
	.st27{fill:#21B865;}
	.st28{fill:#E1F5EA;}
	.st29{fill:#E4F6EB;}
	.st30{fill:#3ABF75;}
	.st31{fill:#46C37E;}
	.st32{fill:#3FC179;}
	.st33{fill:#34BD71;}
	.st34{fill:#16B45E;}
	.st35{fill:#92DBB2;}
	.st36{fill:#16B45D;}
	.st37{fill:#B6E7CC;}
	.st38{fill:#D8F1E3;}
	.st39{fill:#CAEDDA;}
	.st40{fill:#C8ECD8;}
	.st41{fill:#50C685;}
	.st42{fill:#C0EAD2;}
	.st43{fill:#D5F1E1;}
	.st44{fill:#C7ECD7;}
	.st45{fill:#D0EFDE;}
	.st46{fill:#D1F0DE;}
	.st47{fill:#C1EAD3;}
	.st48{fill:#8BD9AD;}
	.st49{fill:#C4EBD5;}
	.st50{fill:#68CE95;}
	.st51{fill:#31BD70;}
	.st52{fill:#39BF75;}
	.st53{fill:#59C98A;}
	.st54{fill:#AAE3C3;}
	.st55{fill:#D8F2E4;}
	.st56{fill:#C3EBD5;}
	.st57{fill:#FCFEFD;}
	.st58{fill:#CCEEDA;}
	.st59{fill:#96DDB5;}
	.st60{fill:#CBEEDA;}
	.st61{fill:#22B866;}
	.st62{fill:#20B764;}
	.st63{fill:#FAFDFB;}
	.st64{fill:#24B867;}
	.st65{fill:#24B866;}
	.st66{fill:#28B969;}
	.st67{fill:#29BA6A;}
	.st68{fill:#2BBA6B;}
	.st69{fill:#25B867;}
	.st70{fill:#29BA6B;}
	.st71{fill:#2EBB6E;}
	.st72{fill:#28BA6A;}
	.st73{fill:#2EBC6E;}
	.st74{fill:#ECF8F1;}
	.st75{fill:#2BBB6C;}
	.st76{fill:#2FBC6E;}
	.st77{fill:#3ABF76;}
	.st78{fill:#31BC70;}
	.st79{fill:#E8F7EE;}
	.st80{fill:#32BD70;}
	.st81{fill:#31BC6F;}
	.st82{fill:#DEF4E8;}
	.st83{fill:#3BC077;}
	.st84{fill:#E3F5EB;}
	.st85{fill:#35BE72;}
	.st86{fill:#3CC078;}
	.st87{fill:#55C888;}
	.st88{fill:#45C37D;}
	.st89{fill:#A6E1C0;}
	.st90{fill:#D6F1E2;}
	.st91{fill:#4FC684;}
	.st92{fill:#47C47F;}
	.st93{fill:#D3F0E0;}
	.st94{fill:#E2F5EA;}
	.st95{fill:#C8EDD8;}
	.st96{fill:#4CC582;}
	.st97{fill:#2DBB6D;}
	.st98{fill:#B2E5C8;}
	.st99{fill:#30BC6E;}
	.st100{fill:#5ECA8E;}
	.st101{fill:#47C37E;}
	.st102{fill:#3EC078;}
	.st103{fill:#85D7AA;}
	.st104{fill:#41C17A;}
	.st105{fill:#42C27B;}
	.st106{fill:#69CE96;}
	.st107{fill:#57C88A;}
	.st108{fill:#66CD94;}
	.st109{fill:#7AD4A2;}
	.st110{fill:#E1F5E9;}
	.st111{fill:#DAF2E5;}
	.st112{fill:#63CC92;}
	.st113{fill:#53C787;}
	.st114{fill:#1EB763;}
	.st115{fill:#A6E2C0;}
	.st116{fill:#8AD9AD;}
	.st117{fill:#34BE72;}
	.st118{fill:#DCF3E6;}
	.st119{fill:#48C47F;}
	.st120{fill:#67CE95;}
	.st121{fill:#44C27C;}
	.st122{fill:#E9F7EF;}
	.st123{fill:#65CD93;}
	.st124{fill:#D2F0DF;}
	.st125{fill:#78D3A0;}
	.st126{fill:#71D09B;}
	.st127{fill:#ADE4C5;}
	.st128{fill:#47C37F;}
	.st129{fill:#87D8AB;}
	.st130{fill:#B1E5C8;}
	.st131{fill:#91DBB2;}
	.st132{fill:#4CC481;}
	.st133{fill:#14B45C;}
	.st134{fill:#E0F5E9;}
	.st135{fill:#95DCB4;}
	.st136{fill:#D4F0E0;}
	.st137{fill:#58C98B;}
	.st138{fill:#84D7A9;}
	.st139{fill:#80D6A6;}
	.st140{fill:#48C37F;}
	.st141{fill:#29B96A;}
	.st142{fill:#1CB662;}
	.st143{fill:#A9E3C3;}
	.st144{fill:#D1EFDF;}
	.st145{fill:#9FDFBB;}
	.st146{fill:#3DC077;}
	.st147{fill:#BCE8D0;}
	.st148{fill:#92DBB3;}
	.st149{fill:#BAE8CE;}
	.st150{fill:#60CB90;}
	.st151{fill:#ABE3C4;}
	.st152{fill:#56C889;}
	.st153{fill:#61CB90;}
	.st154{fill:#81D6A7;}
	.st155{fill:#C7EDD8;}
	.st156{fill:#6DCF99;}
	.st157{fill:#A2E0BD;}
	.st158{fill:#95DCB5;}
	.st159{fill:#B3E6C9;}
	.st160{fill:#40C17A;}
	.st161{fill:#3CC077;}
	.st162{fill:#CBEDDA;}
	.st163{fill:#71D19B;}
	.st164{fill:#6BCF97;}
	.st165{fill:#FDFEFD;}
	.st166{fill:#F6FCF9;}
	.st167{fill:#F7FCF9;}
	.st168{fill:#F5FBF8;}
	.st169{fill:#DFF4E8;}
	.st170{fill:#EEF9F3;}
	.st171{fill:#A7E2C1;}
	.st172{fill:#9ADEB8;}
	.st173{fill:#F6FBF8;}
	.st174{fill:#F3FBF6;}
	.st175{fill:#C7ECD8;}
	.st176{fill:#77D2A0;}
	.st177{fill:#F9FDFB;}
	.st178{fill:#F9FCFA;}
	.st179{fill:#E2F5EB;}
	.st180{fill:#C1EBD3;}
	.st181{fill:#80D5A5;}
	.st182{fill:#97DDB6;}
	.st183{fill:#79D3A1;}
	.st184{fill:#EAF8F0;}
	.st185{fill:#D4F0E1;}
	.st186{fill:#4AC480;}
	.st187{fill:#F4FBF7;}
	.st188{fill:#43C17B;}
	.st189{fill:#E1F4EA;}
	.st190{fill:#BCE9D0;}
	.st191{fill:#CDEEDC;}
	.st192{fill:#B6E7CB;}
	.st193{fill:#E7F7EE;}
</style>
<g id="Layer_2">
</g>
<g id="Layer_1">
	<text transform="matrix(1 0 0 1 252.7026 155.2148)" class="st0 st1 st2">COACH:</text>
	<text transform="matrix(1 0 0 1 222.2026 169.6148)" class="st0 st1 st2">JAMIE JOSEPH (NZ)</text>
	<text transform="matrix(1 0 0 1 115.9678 155.2156)" class="st0 st1 st2">JAPAN</text>
	<rect x="225" y="13" class="st3" width="99" height="122"/>
	<g>
		<path class="st4" d="M184.5,50.4c0,0,9.1,76.1-49,88.5c-58-12.4-49-88.5-49-88.5S119.4,19.8,175,9C175,9,182.4,26.8,184.5,50.4z"
			/>
		<circle class="st0" cx="135.5" cy="78" r="25.6"/>
	</g>
	<g>
		<path class="st5" d="M337,115c0.4,1,0.7,6.1,0.7,19.2c0,0.6-0.1,0.8-0.8,0.8c-37,0-74,0-111,0c-0.6,0-0.8-0.1-0.8-0.8
			c0-3.9,0-7.9,0-11.8c0.6-0.9,1.6-1.5,2.4-2.2c3.5-2.9,7.4-5.3,11.4-7.4c4-2.1,7.9-4.5,11.5-7.2c0.2-0.2,0.4-0.4,0.7-0.3
			c0.2,0.1,0.3,0.3,0.3,0.5c-0.8,3.7-1.2,7.4-2,11.1c-0.1,0.6-0.2,1.2-0.2,1.9c-0.1,0.9,0.5,1.3,1.4,1.1c0.7-0.2,1.3-0.5,1.9-1
			c1.3-1,2.9-1.6,4.4-2.4c1-0.5,2.2-0.4,3.3-0.5c2.8-0.2,4.8,1.4,6.8,2.8c1,0.7,2.1,1.2,3.3,1.5c1.1,0.3,2.1,0.6,3,1.2
			c0,0,0.1,0.1,0.1,0.1c0,0,0,0-0.1-0.1c-1.2-0.9-2.5-1.4-3.9-2c-1.5-0.6-2.7-1.6-4-2.5c-1.5-1-3-1.5-4.7-1.4c-0.3,0-0.6,0-0.8,0
			c-0.6,0-1.1-0.2-1.7,0c-1.4,0.1-2.5,0.9-3.7,1.6c-1,0.5-2,1.2-3,1.8c-0.2,0.2-0.5,0.3-0.7,0.4c-0.9,0.4-1.5,0-1.4-1
			c0.1-1.2,0.4-2.3,0.8-3.4c0.7-2.1,0.8-4.2,1.2-6.3c0.8-4,2.4-7.7,4.1-11.3c0.2-0.4,0.4-1,0.9-0.8c0.4,0.1,0.2,0.7,0.2,1.1
			c-0.6,3.6-0.2,7.2-0.2,10.8c0,1.2-0.1,2.3,0.2,3.5c0.1,0.5,0.3,1,0.6,1.6c0.1-1.7,0-3.2,0-4.7c0.1-2.7-0.1-5.5-0.1-8.2
			c0-3.2,0.3-6.3,2.1-9.1c0.3-0.4,0.5-1.1,1.1-0.9c0.6,0.2,0.5,0.9,0.5,1.4c0.2,4.3,0.8,8.6,1.6,12.8c0.1,0.5,0.2,1,0,1.5
			c-0.1,0.1-0.1,0.3,0,0.5c0.4,2,1,3.8,2.6,5.3c5.3,4.7,11.2,8.7,16.2,13.9c0.8,0.8,1.5,1.7,2,2.7c0.4,0.8,0.7,1.6,1.2,2.3
			c0.5,0.8,1.1,0.7,1.5,0c0.5-1,1-1.9,1.4-3c0.9-3,2.5-5.5,5-7.4c2-1.5,3.8-3.2,5.4-5.1c1.9-2.2,4.1-4.2,6.1-6.4
			c1.9-2.1,2.5-4.6,2.4-7.3c-0.1-2.4-0.3-4.8-0.3-7.2c0-0.7-0.1-1.4-0.2-2.1c0-0.4-0.1-0.9,0.3-1.2c0,0-0.3-0.1-0.3-0.3
			c-0.5-1.3-0.6-2.6,0.1-3.9c1.2-2.3,2.3-4.7,2.7-7.3c0.1-0.6,0.4-1.1,1-1.2c0.4-0.1,0.8-0.4,1-0.8c0.7-1.5,1.6-2.9,2.2-4.4
			c0.7-1.6,0.8-3.4,1.1-5.1c0.4-2.2,0.3-4.4,0.3-6.6c0-1-0.4-1.9-0.9-2.8c-0.3-0.5-0.8-0.8-1.4-0.7c-0.7,0.1-1-0.2-1-0.9
			c0-2-0.6-3.9-1-5.9c-0.5-2.3-0.8-4.6-1.3-6.8c-0.5-2.2-0.9-4.6-2.4-6.5c-0.1-0.1-0.1-0.2-0.1-0.2c-0.2-0.3-0.4-0.7-0.1-1
			c0.3-0.3,0.6,0,0.9,0.2c0.5,0.2,0.9,0.6,1.6,0.7c0-0.5-0.3-0.7-0.6-0.9c-0.7-0.5-1.4-1-2.1-1.4c-0.3-0.2-0.5-0.4-0.7-0.6
			c-0.2-0.2-0.4-0.5-0.3-0.7c0.2-0.3,0.5-0.3,0.8-0.2c0.8,0.2,1.6,0.6,2.5,0.8c-0.8-0.8-2-0.9-3-1.3c-0.4-0.1-0.9-0.2-1.1-0.7
			c0.2-0.5,0.7-0.3,1-0.4c0.9,0.1,1.8,0.3,2.7,0.5c0.6,0.1,0.6-0.1,0.4-0.6c-0.5-0.9-1.5-1.2-2.5-1.3c-0.7-0.1-1.4-0.1-2.1,0
			c-0.6,0.1-0.9-0.1-1-0.7c-0.1-0.5,0.3-0.6,0.7-0.7c0.8-0.3,1.5-0.6,2.2-1.2c-0.9,0.1-1.7,0.5-2.6,0.7c-0.2,0-0.5,0.1-0.6-0.2
			c-0.1-0.3,0.2-0.5,0.4-0.7c1.1-0.8,2.2-1.6,2.6-3c0-0.1,0.1-0.1,0.1-0.2c-0.1,0.3-0.3,0.5-0.6,0.7c-0.5-0.1-0.2-0.6-0.3-0.9
			c0-0.2-0.1-0.3-0.1-0.5c0-0.2,0-0.3-0.2-0.2c-0.5,0.3-1,0.8-1.6,1c-0.3,0-0.6,0-0.8-0.1c-0.3-0.3-0.6-0.6-1-0.8
			c-0.3-0.2-0.6-0.3-0.9-0.3c-0.9-0.1-0.9-0.1-1.4-1.3c-0.1,0-0.2-0.1-0.3-0.2c-1-0.6-1-0.9,0-1.6c0.7-0.5,1.5-0.4,2.3-0.7
			c-1.3-0.3-2.2,0-3.1,0.7c-0.4,0.3-0.7,0.7-1.2,0.9c-0.2,0-0.5,0-0.6-0.2c-0.2-0.4,0.1-0.7,0.3-1c0.2-0.3,0.4-0.6,0.5-0.9
			c0.1-0.2,0.2-0.4,0-0.5c-0.2-0.1-0.3,0-0.5,0.2c-0.2,0.2-0.4,0.6-0.6,0.8c-0.4,0.6-0.6,1.2-1.2,1.7c-0.4,0.1-0.5,0.8-1.1,0.5
			c-0.7-0.3-0.9-0.9-0.7-1.6c0.2-0.7,0.2-1.5,0.4-2.2c-0.4,0.5-0.3,1.3-1,1.6c-0.8-0.2-0.3-0.9-0.4-1.3c0-0.8,0.2-1.5,0.4-2.3
			c-0.4,0.3-0.6,0.8-0.8,1.3c-0.1,0.3-0.1,0.6-0.4,0.8c-0.3,0.1-0.5,0.4-0.9,0.2c-0.1-0.1-0.1-0.3-0.3-0.4c-0.3,0.6-0.3,1.2-0.3,1.8
			c0,0.6,0.1,1.2-0.2,1.7c-0.7,0.5-0.9,0-1-0.5c-0.3-1.1-0.4-2.3-0.4-3.4c0-0.4,0.1-0.9-0.5-0.9c-0.3,0-0.2-0.4-0.5-0.4
			c-0.7,0.6-0.9,1.6-1.3,2.4c-0.4,0.6-0.3,1.4-1.1,1.7c-0.2,0.2-0.2,0.6-0.6,0.6c-0.5-0.3-0.3-0.8-0.4-1.3c-0.1-0.9,0.1-1.8-0.2-2.8
			c-0.3,0.4-0.2,0.8-0.2,1.1c0,0.7,0,1.3-0.1,2c0,0.3-0.2,0.5-0.5,0.5c-0.2,0-0.4-0.1-0.5-0.3c-1.2-1.6-1.1-3.2-0.3-4.8
			c-0.5,0.4-0.8,1-0.9,1.9c-0.1,0.5,0,1.1-0.1,1.6c-0.1,0.3-0.3,0.5-0.6,0.6c-0.2,0.1-0.4,0.2-0.6,0.1c-0.5-0.2-0.6-0.7-0.7-1.2
			c-0.1-0.8,0.4-1.5,0.7-2.2c0.1-0.3,0.3-0.6,0.3-1c-0.5,0.4-0.8,1-1,1.5c-0.1,0.3-0.1,0.7-0.5,0.8c-0.1,0-0.3,0-0.4,0
			c-0.5-0.5-0.8-1-0.6-1.7c0,0,0,0-0.1,0c-0.1,0.8,0.1,1.4,0.6,2c0.3,0.3,0.5,0.6,0.4,1c-0.2,0.5,0.2,1.2-0.4,1.7
			c-0.3,0-0.5-0.3-0.6-0.5c-0.8-1.6-1.4-3.3-1.7-5.2c-0.2,0.4-0.2,0.8-0.2,1.2c0,0.4,0.1,0.8-0.2,1.2c-0.3,0.1-0.5-0.2-0.8,0
			c-0.5-0.2-0.5-0.6-0.7-1c-0.2-0.4-0.1-0.8-0.6-1.3c0.3,2,1.3,3.5,2,5.2c0,0.1,0,0.2-0.1,0.3c-0.4,0.3-0.8,0.1-1.1-0.2
			c-0.8-0.6-1.7-1.1-2.5-1.6c-0.3-0.2-0.6-0.4-1-0.4c-0.1,0,0,0.2,0,0c0,0,0-0.1,0.1,0c1,0.5,1.9,1.3,2.7,2.1
			c0.2,0.8-0.3,0.6-0.7,0.5c-0.1,0-0.2,0-0.3-0.1c-0.3-0.2-0.8-0.1-1.1-0.4c-0.1-0.2-0.2-0.4-0.5-0.4c-1-0.7-1.9-1.6-3.1-1.9
			c-0.5-0.2-1.1-0.3-1.4,0.4c0,0.1-0.1,0.2-0.2,0.3c-0.1,0.1-0.3,0.1-0.4,0.3c0.1,0.1,0.3,0.1,0.4,0.2c1.7,0.6,2.8,2,4,3.2
			c0.4,0.4,0.8,0.7,0.8,1.3c0,0.1-0.1,0.3-0.2,0.4c-0.4,0.1-0.7-0.1-0.9-0.3c-1.2-0.9-2.7-1.2-4.1-1.5c-0.3-0.1-0.6,0-0.9,0.2
			c-0.1,0.1-0.1,0.1-0.2,0.1c-0.3,0-0.6,0.1-0.9,0.3c-0.2,0-0.4-0.2-0.6-0.2c0.4,1.1,0.8,1.4,1.5,1c0.1,0,0.2-0.1,0.3-0.1
			c1,0.6,1.8,1.5,2.3,2.6c-0.1,0.3-0.3,0.4-0.5,0.4c-0.9-0.4-1.9-0.7-3-0.5c-0.7,0.1-1.3-0.8-2-1.1c0.3,0.3,0.6,0.7,0.3,1.2
			c-0.1,0.2,0,0.5,0.1,0.7c0.4,0.8,0.2,1.5-0.5,2c-1.7,1.2-2.5,2.9-3.4,4.8c-0.9,1.9-1.5,4-2.4,5.9c-0.9,2-1.1,4.1-1.5,6.3
			c-0.6,3-0.5,6-1,9c-0.2,1.2,0.1,2.5,0.2,3.7c0,0.6,0,1.1-0.3,1.5c-0.5,0.8-0.8,1.6-1,2.5c-0.2,0.7-0.1,1.3-0.1,2
			c0,0.3,0,0.5,0,0.8c0,2,0.3,3.9,0.2,5.9c0.3,2.5,1.4,4.8,2,7.2c0.2,0.7,0.6,1.5,1.6,1.6c0.4,0,0.5,0.4,0.5,0.7
			c0.7,2.6,2,4.8,3.2,7.1c0.3,0.5,0.6,1,0.9,1.4c0.4,0.5,0.4,0.9,0,1.3c-1,1.2-1.6,2.6-2.1,4c-0.1,0.2-0.1,0.5-0.3,0.7
			c-1.5,0.7-1.9,2.3-2.6,3.7c-0.3,0.5-0.6,1.1-0.8,1.7c-0.6,2.1-2.1,3.4-3.8,4.4c-4.1,2.4-8,5-12.2,7.2c-4.1,2.1-7.6,5-11,8
			c-0.4,0.3-0.5,1.1-1.3,0.8c0-0.9,0,0,1,0.2c0,0,32.2-18.7,33.3-30c1.3-12.2,46.4-9.6,49,1.4C313,111.8,337,115,337,115"/>
		<path class="st6" d="M273.5,121.8c-1.9-1-4.1-1.2-5.9-2.3c-1.2-0.8-2.4-1.6-3.6-2.4c-0.6-0.4-1.3-0.7-2.1-0.6
			c-0.4,0.1-0.9,0-1.3-0.1c-1.8-0.4-3.4,0.2-5,1c-1.2,0.6-2.4,1.4-3.5,2.1c-0.8,0.5-1.7,1.1-2.6,0.5c-0.9-0.6-0.4-1.7-0.3-2.5
			c0.4-2.1,0.9-4.2,1.1-6.3c0.2-1.8,0.5-3.6,1.1-5.4c0.1-0.2,0.2-0.4-0.2-0.4c-3.3,2.5-6.8,4.8-10.4,6.7c-4.8,2.6-9.6,5.3-13.7,8.9
			c-0.6,0.5-1.3,1-1.9,1.4c0-0.3,0-0.6,0-0.9c1.1-1,2.1-2,3.2-2.9c2.6-2.3,5.4-4.3,8.5-5.9c2.8-1.5,5.6-3,8.2-4.8
			c2.1-1.4,4.3-2.4,6.3-3.9c0.6-0.5,1-1,1.3-1.7c0.8-1.7,1.5-3.6,2.4-5.2c0.3-0.6,0.6-1.2,1.4-1.3c0.3-0.1,0.3-0.4,0.4-0.6
			c0.6-1.6,1.2-3.2,2.4-4.5c0.3-0.3,0.1-0.5-0.1-0.7c-1.9-2.7-3.4-5.6-4.3-8.8c-0.1-0.3-0.1-0.8-0.7-0.5c-0.4,0.2-0.7-0.2-0.9-0.5
			c-0.6-0.8-0.8-1.7-1-2.6c-0.4-1.9-1.5-3.6-1.5-5.5c-0.2-0.7-0.1-1.4-0.1-2.1c0-1.4-0.1-2.7-0.3-4.1c0-0.2,0-0.5,0-0.7
			c0.2-0.7-0.1-1.4,0.2-2.1c0-0.9,0.4-1.7,1-2.4c0.7-0.1,0.9,0.2,0.7,0.8c-0.8,0.6-0.8,1.6-0.9,2.4c-0.1,1-0.2,1.9,0,2.9
			c0.1,0.3,0.1,0.5,0.1,0.8c0,1.3-0.1,2.7,0.1,4c0.3,2.1,1.5,3.9,1.9,5.9c0.1,0.5,0.2,0.9,0.3,1.4c0.1,0.3,0,0.7,0.5,0.8
			c0.2-0.5,0.1-0.9,0-1.4c0-0.1,0-0.2-0.1-0.3c0-0.3,0-0.7,0.2-1c0.2-0.2,0.3-0.4,0.6-0.2c0.1,0.1,0.1,0.2,0.1,0.3
			c0.1,0.9-0.1,1.9,0.1,2.9c0.7,3,2.4,5.5,3.7,8.2c0.6,1.1,1.6,1.8,2.5,2.6c1.8,1.7,3.9,3,5.8,4.5c0.1,0.1,0.3,0.2,0.5,0.3
			c2.8,1.1,5.3,2.8,8,4.1c1.6,0.7,3.2,1.1,4.9,1.4c0.6,0.1,1.3,0,2,0.1c0.4,0,0.8-0.1,1.1,0.2c0.1,0.5-0.3,0.5-0.5,0.6
			c-1.2,0.5-2.5,0.6-3.7,0.3c-2.2-0.5-4.3-1.2-6.2-2.3c-2.1-1.1-4.1-2.2-6.2-3.2c-1.7-0.8-3.2-2.2-4.7-3.4c-0.3-0.2-0.4-0.5-0.9-0.7
			c0.1,1.2,0.2,2.3,0.4,3.4c0.7,3.9,1.2,7.8,1.8,11.6c0.3,1.7,1.1,3.1,2.4,4.3c3,2.8,6.6,5.1,9.6,7.9c2.2,2,4.4,4,6.6,6.1
			c0.9,0.8,1.4,1.9,1.9,3c0.2,0.4,0.3,0.8,0.7,1.2c0.5-0.7,0.8-1.4,1.1-2.2c0.6-1.4,1.1-2.9,2-4.2c1.3-1.9,3-3.2,4.7-4.6
			c1.3-1,2.4-2.2,3.5-3.5c0.9-1.2,2.2-2.1,3.2-3.3c1.1-1.4,2.5-2.7,3.6-4.2c0.7-0.9,1.1-1.9,1.3-3c0.3-1.5,0.3-3,0.1-4.6
			c-0.2-1.6,0-3.2,0-4.8c0-1.6-0.2-3.2-0.2-4.8c0-0.2,0-0.4-0.1-0.5c-0.2-0.1-0.4,0.1-0.6,0.2c-2,1.5-3.8,3.3-5.7,4.8
			c-3.6,2.9-7.6,5.1-12.2,5.9c-0.4,0.1-0.8,0.1-1.2-0.1c-0.3-0.6,0-0.9,0.5-1.2c0.4-0.2,0.7-0.3,1.1-0.4c3.9-0.9,7.2-2.7,10.3-5.2
			c2.3-1.8,4.6-3.7,6.7-5.6c0.5-0.5,0.9-1,1.2-1.6c1.8-3.7,3.1-7.5,3.8-11.5c0.2-0.9,0.1-1.9,0.2-2.8c0-0.4,0-0.7,0.2-1.1
			c0.2-0.4,0.1-0.8,0.1-1.1c0-0.6,0-1.1,0.4-1.6c0.6-0.1,0.5,0.5,0.5,0.8c0.1,0.7-0.1,1.5,0.1,2.2c0.1-0.8,0.4-1.4,0.4-2.2
			c0-0.4,0-0.7-0.2-1c-0.2-0.5-0.5-0.9-0.6-1.4c-0.1-0.7,0-1.4,0.6-1.9c0.3,0,0.3,0.1,0.4,0.3c0,0.2,0,0.5-0.1,0.7
			c0,0.3-0.1,0.6,0.1,0.9c0.1,0.2,0.2,0.3,0.2,0.5c0.3,0.6,0.4,1.3,0.6,1.9c0,0.5,0.1,0.9,0,1.4c-0.3,1-0.5,2-1,3
			c-0.4,0.7-0.1,1.5-0.3,2.3c-0.1,0.5-0.4,1-0.1,1.5c0.4-0.6,0.6-1.3,0.9-1.9c1.3-2.1,2-4.5,2.1-6.9c0-0.4,0.1-0.8,0.2-1.2
			c0.2-0.7,0.1-1.5,0.1-2.3c0-1.3,0.1-2.6,0.1-3.8c0-0.7-0.1-1.3-0.4-1.9c-0.3-0.8-0.8-1-1.6-0.6c-0.7,0.3-1.2,0.9-1.5,1.6
			c-0.1,0.2-0.3,0.6-0.6,0.5c-0.4-0.1-0.3-0.5-0.2-0.8c0-0.2,0.1-0.3,0.1-0.4c1.4-2.8,0.7-5.5-0.2-8.2c-0.3-1.1-0.4-2.1-0.5-3.2
			c-0.2-1.3-1.1-2-1.7-3c-0.1-0.2-0.3-0.2-0.5-0.2c-0.5,0.2-1,0.1-1.5,0.2c-0.9,0.1-1.3-0.2-1.3-1.1c0-1.5-0.3-2.8-0.9-4.2
			c-0.4-0.8-0.7-1.5-1.5-2c-0.9-0.6-1.1-1.7-1.1-2.7c0.1-0.2,0.2-0.3,0.2-0.5c0.1-0.5,0.4-0.8,0.9-0.9c0.6-0.1,0.6,0.5,0.7,0.8
			c0.2,0.6,0.6,1.1,1,1.7c1,1.4,2,3,2.8,4.5c0.4,0.7,0.6,1.4,0.9,2.1c-0.5-1.4-0.6-2.9-1.5-4.2c-0.8-1.1-1.2-2.5-1.9-3.7
			c-0.4-0.7-0.9-1.4-1.5-2c-0.5-0.5-0.8-0.3-1,0.3c-0.1,0.3-0.2,0.7-0.4,1.1c-0.3,0.4-0.6,0.7-1,1c-0.4,0.3-0.9,0.4-1.3,0
			c-0.4-0.4-0.1-0.8,0.2-1.1c0.4-0.4,0.7-0.9,1.1-1.3c0.4-0.4,0.5-0.9,0.8-1.4c0.5-0.8,1-0.8,1.6,0c0.3,0.5,0.8,0.7,1.3,0.9
			c-0.3-0.4-0.5-1-0.6-1.5c-0.2-0.6-0.5-0.9-1.1-0.8c-0.3,0-0.6,0-0.8-0.2c-0.4-0.3-0.3-0.5,0.1-0.7c0.3-0.1,0.6-0.1,0.9-0.2
			c0.4-0.2,0.9-0.2,1.4-0.3c1.2-0.6,2.6-1,3.3-0.9c-0.9,1.2-2.2,1.4-3.3,1.9c0.1,0.6,0.4,0.9,1.1,0.8c1.2-0.2,2.3-0.3,3.5,0.3
			c0.5,0.3,1,0.5,1.2,1.1c-0.2,0.4-0.2,0.4-0.9,0.2c-0.3-0.1-0.6-0.3-0.9-0.3c-0.6-0.2-1.2-0.3-1.8-0.3c-1.1,0-1.2,0-0.7,1.1
			c0.7,0.5,1.5,0.5,2.2,0.7c1,0.3,2,0.7,2.6,1.7c-1.3-0.4-2.6-0.8-4-1.3c0.1,0.8,0.6,1.1,1.1,1.4c0.9,0.6,1.7,1.1,2.6,1.7
			c0.3,0.2,0.7,0.6,0.4,1c-0.3,0.4-0.7,0.1-1-0.2c-0.5-0.4-1.3-0.5-1.8-1c0.1,0.6,0.3,1,0.6,1.5c0.7,1,1,2.2,1.4,3.4
			c0.8,2.4,1.2,4.8,1.6,7.2c0.5,2.9,1.6,5.6,1.5,8.6c0,0.5,0.2,0.6,0.6,0.4c0.9-0.3,1.4,0.2,1.8,0.9c1.2,1.7,1,3.7,1,5.6
			c0,2.4-0.4,4.7-0.8,7c-0.3,1.9-1.2,3.5-2.1,5.1c-0.2,0.4-0.4,0.8-0.6,1.2c-0.2,0.5-0.5,1.1-1.1,1.2c-0.7,0.1-0.9,0.4-1,1
			c-0.4,2.9-1.7,5.4-3,7.9c-0.6,1.2-0.1,2.2,0.1,3.3c0.2,0.5-0.1,1,0.1,1.5c0.3,2.7,0.2,5.5,0.4,8.3c0.2,2.2,0,4.3-0.9,6.4
			c-0.6,1.4-1.7,2.4-2.8,3.5c-2.2,2.2-4.3,4.5-6.4,6.8c-1,1.1-2.2,2.1-3.4,3c-2.6,1.9-4.2,4.5-5.2,7.5c-0.4,1.1-0.9,2-1.4,3.1
			c-0.2,0.4-0.4,0.8-0.9,0.8c-0.5,0-0.9-0.4-1.1-0.8c-0.3-0.5-0.5-0.9-0.7-1.4c-0.8-1.9-2.1-3.4-3.6-4.7c-2.6-2.4-5.1-4.9-8-7
			c-2.7-1.9-5.1-4.1-7.6-6.3c-1.4-1.3-2.1-3.3-2-5.2c0.1-1.6-0.4-3-0.6-4.5c-0.4-3.3-1-6.6-1.1-9.9c0-0.1,0-0.2,0-0.3
			c-0.1-0.4,0.1-0.9-0.4-1.1c-0.4-0.1-0.5,0.5-0.7,0.8c-2.1,3.3-2.3,7-2.2,10.7c0.1,2.7,0,5.4,0,8.1c0,1.2,0,2.5,0.3,3.8
			c-1-0.5-1.2-1.3-1.3-2.2c-0.3-2.1-0.1-4.3-0.2-6.4c-0.1-3,0-5.9,0.4-9.2c-1.2,1.9-2,3.8-2.6,5.6c-0.2,0.6-0.5,1-0.8,1.6
			c-1.1,3.2-1.6,6.4-2.1,9.7c-0.3,1.7-0.9,3.2-1.1,4.9c-0.1,0.4-0.2,0.9,0.2,1.1c0.4,0.3,0.8,0,1.1-0.3c1.6-1.1,3.3-2.1,5-2.9
			c0.7-0.4,1.4-0.7,2.2-0.7c0.6,0,1.1,0.2,1.7,0c1.9,0.1,3.9-0.2,5.5,1.4c0.6,0.6,1.4,1,2.1,1.5c1,0.7,2.2,1.2,3.3,1.7
			c1,0.4,1.9,0.9,2.6,1.7C273.7,121.9,273.7,121.9,273.5,121.8z"/>
		<path class="st5" d="M251.2,67.3c0-0.2,0-0.5,0-0.7c-0.1-1-0.2-2,0-3c0.1-0.9,0.1-1.8,0.9-2.4c0.4,0.2,0.5,0.6,0.6,1
			c0,1-0.3,2-0.5,2.9c-0.3,2.1,0,4.1,0.5,6.1c0.1,0.5,0.1,0.9,0.3,1.4c0,0,0,0.1,0.1,0.2c0,0,0-0.1,0-0.1c-0.1-0.2-0.2-0.3-0.2-0.5
			c-0.5-3-0.7-6-0.3-9c0-0.2,0.1-0.3,0.1-0.4c0.1-0.2,0.2-0.3,0.1-0.5c-0.6-1.9-0.9-3.9-0.8-5.8c0.1-1.7,0.3-3.4,0.5-5.1
			c0.2-0.5,0.7-0.4,1.1-0.6c0.2,0,0.5,0,0.7,0c-0.3-0.1-0.6-0.1-0.8,0c-0.3,0-0.7,0.3-1,0c-0.3-0.6-0.3-1.3-0.1-1.9
			c0.3-1.3,0.5-2.6,1-3.8c0.1-0.2,0.3-0.3,0.4-0.4c0.8-0.1,1.4-0.4,2.1-0.7c0.6-0.3,0.6-0.6,0.2-1c0-1,0.4-1.6,1.6-1.8
			c-0.9-0.3-1-0.4-0.5-1c0.4-0.5,1-0.9,1.5-1.4c-1,0.1-1.8,0.6-2.2,1.4c-0.4,0.8-1.2,1.3-1.5,2.1c0,0.1,0,0.2-0.1,0.3
			c-0.1,0.1-0.2,0.2-0.3,0.3c-0.6,0.2-0.7-0.2-0.6-0.6c0-0.5,0.2-1.1,0.4-1.5c0.5-0.8,0.7-1.7,1.4-2.3c0.1,0,0.3,0,0.4-0.1
			c1.5-1.4,3.3-2.4,5.3-3c-0.8-0.2-1.6-0.1-2.3,0.3c-0.4,0.2-0.9,0.5-1.4,0.6c-0.2,0-0.4,0-0.5-0.1c-0.3-0.5,0-0.8,0.4-1
			c1-0.5,2-1,3.2-1.2c0.6-0.1,1.1,0,1.6,0.3c0.2,0.1,0.4,0.3,0.6,0.3c0.3,0.1,0.7,0.5,0.9,0.1c0.2-0.3-0.3-0.4-0.6-0.6
			c-0.3-0.3-0.7-0.5-0.9-0.9c0-0.2,0.1-0.3,0.2-0.3c0.6-0.1,1.1,0.1,1.7,0.1c0.5,0,0.6-0.3,0.5-0.7c0-0.2,0.2-0.3,0.4-0.4
			c0.2,0,0.4,0,0.5-0.1c0.6-0.6,1.1-0.5,1.7,0.1c0.3,0.3,0.7,0.1,1-0.1c0.3-0.2,0.6-0.4,1-0.4c0.5,0,0.9,0,1.4-0.1
			c0.1,0,0.3-0.1,0.4-0.1c0.4,0,0.8,0,1.1-0.1c0.2-0.1,0.5-0.1,0.7-0.1c0.4,0,0.9,0.1,1.3-0.1c-1.2-1.5-2-3.2-2.7-5
			c-0.1-0.3-0.2-0.6-0.4-0.7c-0.7-0.8-1.3-1.6-2.1-2.4c-0.3-0.3-0.5-0.6-0.4-1c0.1-0.1,0.2-0.2,0.3-0.3c0.5,0,1.1,0,1.6,0
			c0.9,0.9,1.5,2,2.2,3c1.4,2,2.3,4.3,3.8,6.5c-0.4-1.3-0.5-2.5-0.8-3.7c0-0.1,0-0.3,0-0.4c0-0.3,0-0.7,0.1-1
			c0.1-0.1,0.1-0.1,0.2-0.1c0.7,0.4,0.8,1.1,1.1,1.8c0.3,0.8,0.3,1.6,0.7,2.4c0.5-0.6,0.3-1.2,0.2-1.8c-0.6-2.3-2-4.2-3.8-5.8
			c-0.5-0.4-0.9-0.9-0.9-1.6l0,0c0.2-0.4,0.1-0.7,0-1c-0.2-0.7-0.7-1.3-0.5-2.1c0.3-0.1,0.6,0,0.8,0.2c0.5,0.2,0.5,0.7,0.6,1.1
			c0.4,1.3,1.1,2.3,2.3,3.2c1.3,0.9,2,2.4,2.3,4c0.2,1.5,0.7,3,1,4.6c0,0.1,0,0.3,0.3,0.4c0.2-0.9-0.1-1.9,0.2-2.9
			c0.1-0.1,0.2-0.2,0.3-0.3c0.8,0.3,0.8,1.1,1.2,1.7c0.4,0.6,0.7,1.3,1.7,1.5c-0.7-1.2-1.2-2.2-1.6-3.4c-0.7-1.8-1.1-3.6-1.3-5.5
			c-0.1-0.7,0.1-0.8,0.9-0.5c0.2,0.2,0.4,0.5,0.5,0.8c0.1,0.3,0.2,0.6,0.4,0.8c0.5,1.3,0.7,2.6,1.1,3.9c0.4,1.3,1.1,2.4,1.8,3.5
			c0.2,0.3,0.5,0.6,0.7,0c0.1-0.1,0.2-0.2,0.3-0.2c0.6,0,0.7,0.7,1.1,1.1c0.1-0.9,0.2-1.7,0.4-2.4c0.1-0.3,0.2-0.7,0.6-0.9
			c0.4,0.2,0.3,0.5,0.4,0.8c0,0.2,0,0.4-0.1,0.6c-0.1,0.6,0,1.2,0.5,1.7c0.6,0.5,1.1,0.1,1.6-0.1c0.1,0,0.2,0,0.2,0.1
			c0.3,0.9,1.3,1,2,1.3c0.7,0.3,0.7,0.5,0.3,1c0,0.1-0.1,0.1-0.1,0.2c-0.1,0.3-0.7,0.6-0.3,1c0.4,0.4,0.8-0.1,1.2-0.4
			c0.5-0.4,0.7-0.9,1.3-1.2c0.1,0,0.2,0.1,0.3,0.2c0,0.3-0.2,0.5-0.3,0.8c-0.1,0.2-0.2,0.4,0,0.5c0.2,0.1,0.4,0.1,0.5,0
			c0.4-0.2,0.7-0.6,1-1c0.2-0.3,0.4-0.6,0.5-0.9c0.4-0.6,0.7-0.7,1.1-0.1c0.1,0.2,0.1,0.3,0,0.5c-0.3,0.5-0.7,0.9-1.1,1.3
			c-0.3,0.2-0.6,0.5-0.2,0.9c0.3,0.3,0.7,0.3,1.1,0.1c0.4-0.3,0.7-0.6,1-1c0.6,0.2,0.3,0.6,0.2,0.9c0.2,1.2,0.3,2.4,1.7,2.9
			c0.1,0,0.3,0.2,0.3,0.3c0.8,1.6,1.7,3.2,1.5,5.1c0,0.3,0,0.6,0,0.9c0,0.3,0.1,0.6,0.4,0.6c0.7,0,1.5,0.1,2-0.2
			c0.6-0.3,0.7,0,0.9,0.3c0.3,0.4,0.4,1.1,1.1,1.2c0.1,0,0.1,0.2,0.2,0.3c0.2,1.1,0.6,2.3,0.7,3.4c0.1,0.5,0.1,1,0.3,1.5
			c0.7,1.7,0.7,3.4,0.8,5.2c0,1,0,1.9-0.6,2.7c-0.3,0.4-0.4,0.8-0.3,1.4c0.3-0.5,0.5-0.9,0.7-1.3c0.1-0.2,0.2-0.4,0.4-0.5
			c1.6-1.2,2.4-1.1,2.9,0.8c0.5,1.7,0.2,3.4,0.2,5.2c-0.1,0.8-0.1,1.6-0.2,2.4c-0.4,2.7-0.6,5.4-2.1,7.8c-0.1,0.2-0.2,0.3-0.3,0.4
			c-0.4,0.4-0.4,1.2-1.1,1.3c-0.2-0.3-0.1-0.7,0-1c-0.3-2,0.9-3.6,1.3-5.4c0.2-0.5,0.1-1,0-1.6c-0.2-0.6-0.4-1.2-0.6-1.8
			c-0.1-0.3,0.2-0.4,0.2-0.7c0-0.1,0.1-0.2,0.1-0.4c0.1-0.4,0.1-0.9-0.1-1.3c-0.1-0.5-0.2-1.1-0.2-1.6c0-0.5,0-0.9,0-1.4
			c0-0.5-0.1-1,0.5-1.1c0.7-0.1,0.9,0.5,1,1c0.2,1,0.4,2.1,0.5,3c0.1-0.9,0.2-2-0.2-3.1c-0.4-0.9-0.8-1.3-1.6-1.2
			c-0.3,0.7-0.1,1.4-0.2,2.2c0,0.8,0.1,1.6-0.4,2.4c-0.9,1.1-0.4,2.2,0.1,3.2c0.3,0.3,0,0.8,0.2,1.2c0,0.9-0.4,1.8-0.6,2.7
			c-0.4,0-0.2-0.4-0.2-0.6c0-1,0-1.9-0.1-2.9c0-0.1,0,0-0.1-0.1c0-0.1-0.1,0-0.2,0c-0.2,0.5-0.3,1.1-0.2,1.6c-0.2,0.4,0,0.8-0.2,1.2
			c-0.1,1.4-0.1,2.9-0.4,4.3c-0.6,3.1-1.3,6.1-2.7,9c-0.4,0.8-0.6,1.7-1.1,2.4c-0.7,1.3-1.9,2.1-3,3.1c-1.6,1.5-3.4,2.6-5,4
			c-2,1.6-4.1,3.1-6.5,4c-1.6,0.7-3.2,1.1-4.9,1.6c-0.5,0.2-0.7,0.5-0.5,1c-0.1,0.1-0.3,0.2-0.5,0.1c-0.7-0.4-1.5-0.1-2.3-0.2
			c-0.4,0-0.8,0.1-1.2-0.1c-2.6-0.3-4.9-1.1-7.2-2.5c-1.1-0.7-2.3-1.4-3.5-1.9c-3.5-1.5-6.3-3.8-9.1-6.3c-3-2.7-4.4-6.4-5.6-10.2
			c0-0.1-0.1-0.1-0.1-0.2c-0.2-1.1,0.1-2.2-0.2-3.2c0-0.1,0-0.1,0-0.1c-0.4-0.2-0.6-0.6-0.6-1c0-1.3-0.1-2.6,0.2-3.8
			c0-1.2,0-2.5-0.3-3.7c-0.1-0.5-0.1-0.9,0-1.4c0.3-0.9,0.1-1.8,0.2-2.5c0,0,0,0.1,0,0.2c-0.3,2.1-0.5,4.1,0,6.2
			c0.2,0.7-0.1,1.5-0.1,2.2c-0.1,1-0.1,2,0,3.1c0,0.4,0,0.7,0,1.1c-0.1,0.3-0.1,0.6,0,1c0,0.1,0,0.1,0,0.2c0.1,0.6,0.1,1.1,0,1.7
			c-0.4,0.6-0.5,0.1-0.7-0.1c-0.4-0.7-0.4-1.6-0.5-2.4c-0.2-1.4-1-2.5-1.4-3.7c-0.2-0.6-0.2-1.2-0.4-1.7c-0.2-1.1,0-2.2-0.1-3.2
			C251.2,68.1,251.4,67.7,251.2,67.3z"/>
		<path class="st6" d="M252.5,62.1c-0.3-0.3-0.2-0.6-0.4-0.9c0.2-0.5-0.2-0.6-0.5-0.8c0.3-0.4,0.3-0.8,0.3-1.3
			c-0.2-2.3-0.4-4.7,0.2-7c0.1-0.5,0.1-1.1,0.1-1.6c0.3-3.5,0.8-7,1.9-10.3c0.4-1.3,0.9-2.5,1.4-3.8c0.7-1.7,1.5-3.4,2.4-5
			c0.6-1.1,1.7-1.7,2.6-2.5c0.3-0.3,0.4-0.5,0.3-0.9c-0.1-0.6-1-1.2,0-1.8c-0.1-0.1-0.2-0.3-0.3-0.4c-0.3-0.3-0.6-0.6-0.8-1.1
			c0.9,0.2,1.4,0.8,2.1,1.2c0.4,0.2,0.6,0.4,1.2,0.2c1-0.3,1.8,0.2,2.6,0.7c0.9,0.2,1.4,1.1,2.1,1.6c0.2,0.2,0.1,0.5,0.1,0.7
			c0,0.5,0,1,0.3,1.4c0.5,0.2,1.1,0.1,1.6,0c0.2-0.1,0.5-0.1,0.7-0.1c0.4,0,0.9,0,1.3-0.1c0.3-0.1,0.5-0.1,0.8-0.1
			c0.2-0.1,0.6,0.3,0.7-0.2c-0.2-0.2-0.3-0.5-0.3-0.8c0-0.2-0.1-0.4-0.2-0.6c-0.3-0.8-0.8-1.4-1.7-1.6c-0.5-0.1-0.8-0.6-1.2-1
			c-1.2-1.2-2.4-2.3-4.2-2.7c-0.2-0.1-0.4-0.1-0.6-0.2c-0.3-0.2-0.4,0-0.4,0.2c-0.2,0.2-0.4,0-0.6,0c-0.3-0.2-0.5-0.4-0.5-0.7
			c-0.2-0.9,0.6-0.6,0.9-0.6c1.8,0.3,3.6,0.8,5.1,2.1c0.3-0.1,0.4,0.2,0.7,0.3c0.1,0.1,0.2,0.3,0.3,0.4c-0.1-0.2-0.2-0.4-0.4-0.5
			c-0.2-0.2-0.4-0.4-0.5-0.7c-1.3-1.7-2.8-3.2-4.7-4.2c-0.1-0.4-0.7,0.1-0.7-0.4c0.1-0.4,0.5-0.1,0.7-0.2c0.7-0.2,1.1,0.2,1.7,0.4
			c1,0.6,2,1.2,2.6,2.2c0.7,1.2,2,2,2.6,3.2c0.2,0.2,0.2,0.5,0.4,0.7c0.8,0.9,0.8,2.1,1.5,3c0.6,0.7,1,1.6,1.6,2.2
			c-0.6,0.2-1.2-0.1-1.8,0.2c-0.2,0-0.4,0-0.7,0c-0.4,0.2-0.8,0-1.2,0.2c-0.1,0-0.2,0-0.3,0c-0.5,0.2-1.1-0.1-1.6,0.2
			c-0.2,0-0.3,0-0.5,0.1c-1.2,0.8-1.4,0.8-2.5-0.2c-0.1,0.8-0.6,0.7-1.2,0.7c-0.6-0.1-1.1-0.5-1.5-1c-0.4-0.5-0.7-1-1.4-1.5
			c0.9,1,1.8,1.8,2.6,2.6c0.2,0.2,0.6,0.4,0.4,0.8c-0.2,0.3-0.5,0.2-0.8,0.2c-0.6,0-1.2,0-1.8-0.2c-0.1,0-0.2-0.1-0.3,0
			c-0.1,0.1,0.1,0.1,0.1,0.2c0.5,0.4,1,0.7,1.5,1.1c0.2,0.2,0.5,0.3,0.3,0.7c-0.2,0.3-0.5,0.3-0.8,0.2c-0.3-0.1-0.6-0.2-0.8-0.4
			c-0.7-0.8-1.6-0.7-2.5-0.4c-0.9,0.3-1.7,0.6-2.5,1c-0.3,0.2-0.5,0.4-0.5,0.8c-0.6,0.2-0.8,0.8-1,1.3c-0.2,0.3-0.3,0.6-0.2,0.9
			c0,0.1,0,0.2-0.1,0.2c-0.8,1.1-1.5,2.3-1.7,3.7c-0.1,0.6,0.2,0.5,0.6,0.5c0.1,0,0.1,0.1,0.1,0.2c-0.8,0.4-1,1.3-1.4,2
			c-0.3,1.9-1.2,3.8-0.9,5.8c0.1,0.2-0.2,0.4,0,0.6c0.1,1.4-0.2,2.8-0.3,4.3c-0.1,1.2,0,2.4,0,3.6c0,0.6,0.7,1.2,0.1,2
			c-0.2,0.3,0.5,0.7,0.7,1.2c0.2,0.4,0,0.4-0.3,0.4C252.4,62.8,252.7,62.2,252.5,62.1z"/>
		<path class="st6" d="M298.7,32.9c-0.1-0.2-0.2-0.3-0.4-0.6c-0.6,0.8-0.9,1.6-1.6,2.3c-0.2,0.2-0.5,0.5-0.9,0.4
			c-0.5-0.1-0.9-0.3-0.5-0.9c0.2-0.3,0.3-0.5,0.5-0.8c0.2-0.6,0.8-0.7,1.2-1.2c1.1-1.2,1.3-2.6,1.7-4.1c-0.5,0.5-0.9,0.9-1.4,1.3
			c-0.4,0.3-0.7,0.6-1.1,0c-0.2-0.5,0.1-0.8,0.4-1.2c0,0,0.1-0.1,0.1-0.1c0,0,0,0,0,0c-0.1,0,0.1,0,0,0.1c-0.2,0.3-0.4,0.5-0.5,0.8
			c-0.1,0.3-0.2,0.5-0.3,0.8c-0.1,0.1-0.2,0.3-0.2,0.3c1.1,1-0.3,1.4-0.4,2.1c-0.3,0.2-0.6,0.4-0.8,0.7c-0.1,0-0.1,0.1,0,0.1
			c0-0.1,0-0.1,0.1-0.1c0.2-0.2,0.5-0.4,0.7-0.6c0.4-0.4,0.6-1.1,1.3-1.1c0.1,0,0.1,0.1,0.2,0.2c-0.1,0.8-0.4,1.3-1,1.8
			c-0.5,0.5-1,1.1-1.6,1.6c-0.4,0.3-0.9,0.5-1.3,0.1c-0.4-0.4,0-0.7,0.2-1c0.1-0.2,0.2-0.4,0.4-0.5c0.1-0.1,0.4-0.2,0.2-0.4
			c-0.1-0.3-0.3-0.2-0.5,0c-0.1,0.1-0.4,0.1-0.4,0c-0.2-0.9-1.3-0.3-1.5-1.1c0-0.2,0-0.4,0-0.6c0.1-0.2,0.3-0.4,0.4-0.6
			c-0.1,0,0,0.1-0.1,0.2c-0.1,0.2-0.2,0.3-0.3,0.5c-0.5,0.5-0.9,0.9-1.7,0.4c-0.8-0.5-0.8-1.1-0.8-1.9c0-0.2,0.1-0.4,0.1-0.6
			c0.2-0.4,0.1-0.7,0-1.1c0-0.3,0.1-0.5,0.2-0.8c0.8-1.3,1.6-2.6,2.7-3.7c0.2-0.1,0.4-0.2,0.7-0.2c0.1,0,0.2,0.1,0.3,0.3
			c0,0.5-0.5,0.8-0.7,1.3c-0.6,1.1-1.2,2.3-1.4,3.6c0.8-1.2,1.7-2.5,2.5-3.8c0.7-1.2,1.7-2.1,2.6-3.1c0.7-0.6,1.3-1.3,2.1-1.6
			c0.9-0.3,1.8-0.3,2.7,0.2c-1.3,0.4-2.7,0.4-3.6,1.6c0.1,0.5,1-0.3,0.9,0.6c-0.5,0.6-1.2,0.9-1.8,1.4c-0.7,0.8-1.6,1.6-1.8,2.8
			c0,0.2-0.3,0.4-0.5,0.4c-0.8-0.3-0.9,0.3-1.1,0.8c-0.1,0.2-0.2,0.4-0.2,0.6c1.5-1,2.6-2.5,3.8-3.9c0.3-0.4-0.1-0.4,0-0.6
			c0.7-0.3,1.2-1,1.9-1.3c0.2-0.1,0.3-0.2,0.5-0.2c0.1,0,0.1,0.2,0.1,0.3c-0.7,1.3,0.4,0.9,0.9,1c-0.1,0.5-0.5,0.3-0.8,0.4
			c-0.5,0-0.8,0.2-1,0.6c-0.2,0.4-0.4,0.8-0.8,1.1c0,0-0.1,0.1-0.1,0.1c0,0,0.1-0.1,0.1-0.1c0.3-0.3,0.6-0.6,1-0.8
			c0.3-0.2,0.7-0.3,0.9-0.1c0.7,0.9,1.3,0.4,1.9-0.1c0.1,0,0.3,0,0.4,0c0.3,0.4,0.6,0.2,1,0.1c0.7-0.5,1.3-1,2.1-1.4
			c0.2,0.2-0.1,0.4-0.1,0.6c-0.2,0.6-0.5,1-1,1.4c-0.9,0.6-1.8,1.2-2.2,2.3c-0.1,0.2-0.2,0.3-0.4,0.4c-0.6,0.5-0.7,1.2-0.8,2
			C299.4,31.2,299.6,32.3,298.7,32.9z"/>
		<path class="st6" d="M286.4,30.7c0,0.3,0.2,0.6-0.2,0.7c-0.3,0.1-0.5-0.2-0.7-0.4c-0.8-1.2-1.5-2.4-1.9-3.7
			c-0.4-1.4-0.8-2.7-1.1-4.1c-0.1-0.3-0.2-0.5-0.3-0.8c-0.1-0.3-0.3-0.5-0.5-0.7c-0.6-0.4-0.8-0.4-0.6,0.5c0.4,2.6,1.1,5.1,2.2,7.5
			c0.2,0.4,0.4,0.7,0.7,1c0.1,0.1,0.4,0.2,0.2,0.4c-0.1,0.2-0.3,0.1-0.5,0.1c-0.9-0.1-1.3-0.8-1.7-1.6c-0.3-0.6-0.6-1.2-0.9-1.8
			c-0.4-0.4-0.3-0.9-0.5-1.3c-0.1-0.3-0.2-0.6-0.3-0.8c0-0.1-0.1-0.2-0.1-0.3c-0.1-0.8-0.3-1.5-0.2-2.3c-0.1-0.7,0.2-1.5-0.3-2.2
			c-0.1-0.2-0.2-0.4-0.2-0.6c0-0.1,0-0.3,0-0.4c0-0.2,0-0.3,0-0.5c-0.2-1.1,0-2.2,0.4-3.2c0.2-0.7,0.5-0.8,1.4-0.9
			c-1.2,1.1-1,2.5-1,3.8c0,0.8,0.3,0.6,0.7,0.3c0.2,0.5-0.4,1.3,0.4,1.3c0.4,0,0.3-0.8,0.3-1.2c0-0.7,0-1.4,0-2.1
			c0-0.3,0-0.5,0.3-0.6c0.4-0.1,0.5,0.2,0.6,0.5c0.2,0.8,0.1,1.5,0.1,2.3c0,0.5-0.3,1.1,0.2,1.6c0.1,0.1,0.3,0,0.5,0.1
			c0.1,0,0.1,0.1,0.1,0.2c0,0.2-0.2,0.3-0.1,0.5c0.5,0.8,0.8,1.7,1.1,2.7c0.3-1.2,0.5-2.2,1.2-3.1c0.5-0.6-0.1-1.2,0-1.8
			c0.1-0.9,0.1-1.9,0.4-2.8c0,0,0.1-0.1,0.1-0.1c0.3,0,0.4-0.5,0.7-0.3c0.3,0.2,0.3,0.5,0.2,0.8c-0.1,1.3,0.1,2.6,0.4,4
			c0.1,0.4,0.2,0.7,0.7,0.3c0.1,0.1,0.2,0.2,0.2,0.4c0,0.4-0.2,0.8-0.3,1.2c-0.7,1.6-0.6,3.3-0.7,4.9c0.3-1.8,1.5-3.3,1.9-5.1
			c0-1.2-0.1-2.3,0.2-3.5c0.1-0.4,0.1-0.9,0.5-1.2c0.3-0.8,0.5-1.6,1-2.2c0.1-0.2,0.2-0.4,0.5-0.3c0.2,0.1,0.2,0.4,0,0.6
			c-0.4,0.6-0.4,1.3-0.5,2.1c-0.3,1.1,0,2.2-0.3,3.2c0.3-0.6,0-1.4,0.6-1.8c0.4-0.7,0.5-1.6,1.3-2.3c-0.1,1.2-0.4,2.1-0.5,3.1
			c-0.1,0.7,0,1.1,0.6,1.4c0,0.2-0.3,0.4-0.4,0.6c-0.1,0.2-0.2,0.4-0.3,0.5c-0.1,0.1-0.2,0.1-0.3,0.1c-1.1,1-1.6,2.4-2.2,3.7
			c-0.2,0.2-0.2,0.5-0.4,0.8c-0.1,0.1-0.1,0.3-0.3,0.4c-0.4,1.1-0.9,2.2-0.6,3.4c0,0.2,0,0.3-0.2,0.4c-0.2,0-0.5-0.1-0.5-0.3
			c-0.2-0.5-0.4-0.9-0.8-1.2c-0.3-0.1-0.5-0.4-0.5-0.7c0-0.3-0.1-0.5-0.3-0.7c0-0.3-0.2-0.6-0.3-0.9c0-0.4-0.1-0.9,0-1.3
			c0.1-1.2,0.4-2.2,1-3.3c0.2-0.3,0.4-0.6,0-1c-0.6,1.3-0.9,2.6-1,3.9c-0.1,0.7-0.1,1.3,0.1,1.9c0.1,0.2,0.1,0.5,0.2,0.7
			c0.2,0.2,0.2,0.5,0.2,0.7C286.2,30.2,286.3,30.4,286.4,30.7z"/>
		<path class="st6" d="M300.6,119.6c-1.5,0.5-3,1-4.2,2.1c-0.1,0.1-0.3,0.1-0.4,0c-0.1-0.2,0.1-0.3,0.1-0.4c1.5-1.3,3.4-1.9,5.2-2.4
			c0.9-0.2,1.7-0.4,2.6-0.6c0.4-0.2,0.9,0,1.3-0.1c0.6-0.1,1.2,0,1.7-0.1c2.2,0.3,3.8,1.6,5.3,3.1c0.5,0.5,0.9,1,1.6,0.9
			c0-1.9,0-3.7,0-5.6c0-0.8,0.1-1.6,0.1-2.4c-0.1-4.8-0.9-9.4-2.7-13.8c-0.2-0.2-0.3-0.5-0.3-0.8c-1.1-2.1-1.7-4.3-2.5-6.5
			c-0.1-0.2-0.2-0.4,0-0.6c0.3-0.1,0.4,0.1,0.5,0.2c0.7,0.6,1,1.4,1.2,2.3c0.7,2.6,2.2,5,2.8,7.6c0.2,0.7,1.1,1,1.7,1.4
			c3.5,2.2,7,4.4,10.6,6.5c1.4,0.9,2.9,1.5,4.5,2c1.8,0.5,3.5,1.2,5.3,1.9c0.6,0.2,1.2,0.4,1.9,0.6c0.6,0.2,0.5,0.7,0.4,1
			c-0.1,0.5-0.5,0.2-0.8,0.1c-2.9-1-5.7-2.1-8.5-3c-2.1-0.7-3.9-2.1-5.8-3.2c-2.9-1.7-5.7-3.7-8.4-5.7c-0.1,0-0.2-0.1-0.3-0.1
			c1,2.9,1.1,5.9,1.4,8.8c0.2,1.7,0,3.3,0,5c0,1,0.1,2,0.2,3.1c0,0.7,0.1,1.5-0.5,2c-0.7,0.5-1.4,0-2-0.2c-0.6-0.3-1-0.7-1.5-1.2
			c-1.1-1.3-2.5-2.2-4.1-2.7c-0.6-0.1-1.2-0.1-1.9,0c-0.7,0.1-1.5,0.3-2.2,0.4c-0.3,0.2-0.7,0-1,0.2c-0.1,0-0.2,0-0.3,0
			C301.3,119.6,300.9,119.4,300.6,119.6z"/>
		<path class="st7" d="M279.2,19.4c0.2,0.1,0.2,0.3,0.2,0.4c-0.3,0.4-0.2,0.8,0,1.1c0,0.2,0.1,0.3,0.1,0.5c0,0.4,0,0.7,0.1,1.1
			c0.1,1,0.2,2,0.6,3l0,0c0.1,0.2,0.1,0.5,0.3,0.8c0.1,0.5,0.3,1.1,0.3,1.7c0,1,0.1,1.9,0,2.9c0,0.2,0.1,0.6-0.2,0.6
			c-0.3,0-0.4-0.3-0.4-0.5c-0.3-1-0.5-2.1-0.8-3.1c-0.4-1.2-0.2-2.6-1-3.8c-0.6-0.9-1.2-1.9-2.3-2.5c-1.2-0.6-1.5-2-1.9-3.2
			c-0.1-0.3,0-0.6-0.2-0.8c-0.1-0.7-0.1-1.4,0-2c0-0.4,0.1-0.7,0.5-0.9c0.2-0.1,0.5-0.1,0.4,0.2c-0.5,1.5,0.5,2.7,0.8,4
			c0.2,0.7,0.5,1.3,0.9,1.9c0.1,0.1,0.3,0.2,0.4,0.3c0.2,0.3,0.4,0.5,0.6,0.7c0.2,0.1,0.4,0.4,0.7,0.4c0.3-0.8-0.3-1.8,0.5-2.5
			C278.9,19.7,279.1,19.5,279.2,19.4z"/>
		<path class="st7" d="M273.6,20.6c1.1,1.7,2.8,2.8,3.7,4.5c0.7,1.2,1.2,2.5,1.3,3.9c0,0.4,0.1,0.9-0.4,1c-0.5,0.1-0.5-0.5-0.6-0.8
			c-0.3-1.3-0.5-2.6-1.3-3.6c-0.2-0.1-0.4-0.2-0.5-0.4c-1.1-1.8-2.4-3.4-4.1-4.5c-0.9-0.8-1.9-1.5-2.9-2.4c0.7-0.1,1.2,0.3,1.6,0.6
			c0.8,0.5,1.6,1.1,2.4,1.6C273.2,20.8,273.4,20.7,273.6,20.6z"/>
		<path class="st8" d="M298.7,32.9c0.1,0,0.2-0.1,0.2-0.3c0-0.9,0.4-1.7,0.4-2.6c0-0.7-0.1-1.7,1-1.9c0.1,0,0.1-0.1,0.1-0.2
			c0.2-1.4,1.4-1.8,2.3-2.5c0.5-0.3,0.7-0.9,1.1-1.2c0.1,0.1,0.1,0.3,0.2,0.4c-0.3,0.4-0.2,0.9-0.4,1.3c-0.5,0.9-1.2,1.6-2.1,2.2
			c-0.5,0.3-0.7,0.8-1.1,1.2c-0.1,0.2-0.3,0.2-0.5,0.3c-0.1,0.1-0.3,0.1-0.2,0.3c0.1,0.1,0.3,0.1,0.4,0.1c0.5,0.2,1.2-0.3,1.4,0.1
			c0.4,0.7,0.6,1.5,0.9,2.3c0.1,0.4-0.1,0.5-0.4,0.4c-0.5-0.2-1-0.5-1.3-1c-0.4-0.7-0.6-0.7-1-0.1c-0.4,0.5-0.4,1.1-0.9,1.5
			C298.9,33.2,298.8,33.1,298.7,32.9z"/>
		<path class="st7" d="M307.6,93.9c1.4,1.2,1.8,2.9,2.1,4.6c0.6,3.1,0.8,6.2,0.3,9.3c-0.2,0.3,0,0.7-0.2,1c0,0.2,0,0.3,0,0.5
			c-0.2,0.3,0,0.7-0.2,1c0,0.2,0,0.3,0,0.5c-0.2,0.3,0,0.7-0.2,1c0,0.1,0,0.2,0,0.3c-0.2,0.3,0,0.7-0.2,1c0,0.1,0,0.2,0,0.3
			c-0.2,0.4,0,0.8-0.2,1.2c-0.4,0.4,0,1-0.2,1.4c-0.5-0.3-0.2-0.8-0.2-1.2c0-0.6-0.1-1.2,0.2-1.8c0.2-0.4,0-0.8,0.2-1.2
			c0-0.4,0-0.9,0.2-1.3c0.2-0.4,0-0.8,0.2-1.2c0-0.2,0-0.3,0-0.5c0.2-0.4,0-0.8,0.2-1.2c-0.1-2.3,0-4.6-0.3-6.9
			c-0.4-2.3-0.6-4.6-1.9-6.6C307.3,94,307.4,93.9,307.6,93.9z"/>
		<path class="st9" d="M276.3,27.1c0.3,1.4,0.7,2.8,0.7,4.2c-2.1-3.2-3.8-6.7-6.1-9.8c-0.2-0.1-0.4-0.3-0.2-0.5
			c0.1-0.2,0.2-0.2,0.4,0c0.1,0,0.1,0,0.2,0c1.5,1.1,2.5,2.6,3.6,4.1c0.5,0.6,0.9,1.2,1.1,2C275.9,27.5,276.2,26.9,276.3,27.1z"/>
		<path class="st9" d="M264,23.4c0.2,0.1,0.3,0.1,0.5,0.2c0.2,0.3,0.5,0.5,0.7,0.8c0.5,0.5,0.9,1,1.8,0.6c0.4-0.2,0.9,0.2,0.8,0.7
			c-0.1,0.8,0.3,1.3,0.9,1.7c0.8,0.6,0.8,1,0.1,1.7c-0.4,0.2-0.7,0-1-0.3c-0.6-0.8-1.5-1.3-2-2.2c-0.7-0.8-1.5-1.7-2.2-2.5
			c-0.3-0.1-0.6-0.3-0.8-0.4c-0.1-0.1-0.4-0.2-0.3-0.5c-0.1-0.7,0.3-0.5,0.7-0.4C263.5,22.9,263.6,23.3,264,23.4z"/>
		<path class="st8" d="M275.7,27.1c-1.1-2.3-2.9-4.2-4.6-6.1c0.1-0.3,0.7,0.6,0.6-0.2c2.4,0.8,3.4,3,4.6,4.9c0,0-0.1,0-0.1,0
			c-0.4,0.3-0.2,0.8-0.3,1.1C276,26.9,276,27.1,275.7,27.1z"/>
		<path class="st10" d="M295.5,21.7c0,0.3-0.3,0.6-0.5,0.8c-1.8,1.8-2.9,4.2-4.4,6.2c-0.1,0.2-0.2,0.3-0.4,0.4
			c-0.1,0.1-0.2,0.1-0.3,0.1c0.6-2,1.2-3.9,2.6-5.5c0.7-0.3,1.2-0.8,1.6-1.5c0.2-0.3,0.4-0.7,0.9-0.8
			C295.1,21.7,295.3,21.7,295.5,21.7z"/>
		<path class="st11" d="M271,20.9c-0.5,0.1-0.2,0.4-0.2,0.6c-0.6,0.1-1.1,0.3-1.7-0.1c-1-0.4-1.5-1.5-2.4-2.1
			c-0.5-0.7-1.4-0.4-2.1-0.7c0.2-0.9,0.9-0.7,1.5-0.6c1.3,0.3,2.3,1.3,3.4,2.1c0.2,0.1,0.3,0.2,0.4,0.4
			C270.2,20.9,270.7,20.5,271,20.9z"/>
		<path class="st12" d="M295,21.4c-0.6,0.5-0.8,1.3-1.3,1.8c-0.3,0.3-0.6,0.6-1.1,0.5c-0.1-0.1-0.1-0.1-0.2-0.2
			c0.2-0.7,0.6-1.3,1-1.8c0.5-0.8,1-1.7,1.6-2.5c0.2-0.3,0.5-0.6,0.9-0.4c0.4,0.3,0.1,0.7,0,1C295.6,20.4,295.3,20.9,295,21.4z"/>
		<path class="st13" d="M282.9,22c-0.4-0.5,0.3-0.3,0.3-0.5c0.6-0.3,0.5-1,0.6-1.5c0.1-0.4,0.1-0.8,0.3-1.1c0.4-0.9,0.7-1.9,1.5-2.6
			c0.5,0.1,0.2,0.5,0.3,0.7c-0.1,1-0.3,2-0.6,2.9c-0.1,0.4-0.2,0.9-0.4,1.3c-0.3,1-0.5,1.1-1.5,0.9C283.2,22.1,283,22,282.9,22z"/>
		<path class="st14" d="M277.2,22c-0.2-0.3-0.4-0.5-0.6-0.8c0.2-0.6,0.1-1.2,0.1-1.8c0.2-0.3,0.2-0.7,0.1-1c0-0.2,0-0.4,0.2-0.6
			c0.4-1.1,0.7-2.3,2-2.8c-0.2,1.3-1.1,2.4-1.3,3.7c-0.1,0.3,0.1,0.6,0,0.8c-0.2,0.6,0,1.3-0.2,1.9C277.5,21.8,277.4,21.9,277.2,22z
			"/>
		<path class="st15" d="M300.4,29.3c0.4-0.5,0.6-1.1,1.3-1.4c0.8-0.4,1.3-1.2,1.9-2c0.2-0.1,0.4-0.3,0.6-0.4
			c0.3-0.4,0.6-0.9,0.8-1.3c0,1.1-0.4,2.1-1.3,2.9c-0.5,0.5-1.1,0.9-1.7,1.3c-0.1,0.1-0.4,0.2-0.3,0.4c0.1,0.2,0.3,0.1,0.5,0.1
			c-0.5,0.1-0.8,0.5-1.3,0.6C300.9,29.3,300.6,29.5,300.4,29.3z"/>
		<path class="st16" d="M273.1,17.6c0.3,0.8,0.6,1.7,1,2.5c0.3,0.6,0,0.6-0.4,0.6c-0.9-1.4-1.5-3.1-2.1-4.6
			c-0.1-0.2-0.1-0.4-0.1-0.6c0-0.2,0.2-0.4,0.4-0.4c0.3,0,0.2,0.2,0.3,0.4C272.5,16.1,272.6,16.9,273.1,17.6z"/>
		<path class="st17" d="M288.1,22.2c0-0.2,0-0.3,0-0.5c0.1-0.9-0.1-1.9,0.1-2.8c0-0.2,0-0.4,0.1-0.5c0.1-0.2,0.2-0.6,0.5-0.6
			c0.4,0.1,0.2,0.4,0.2,0.7c0,0.1,0,0.2,0,0.3c0.2,1.2,0.1,2.4,0.1,3.6C288.7,23,288.4,22.3,288.1,22.2z"/>
		<path class="st18" d="M306.9,32.1c0.3-0.1,0.7,0.2,1,0c0.1,0.3,0.3,0.5,0.5,0.9c-1.3,0.3-2.4-0.4-3.7-0.5c-0.5-0.3-0.2-0.5,0-0.7
			c0.2-0.2,0.5-0.1,0.8-0.1C306,32,306.5,31.9,306.9,32.1z"/>
		<path class="st19" d="M305.6,32c-0.2,0.2-1.1-0.5-0.9,0.5c-0.4,0.1-0.8-0.1-1.2,0.2c-0.7-0.2-0.5-0.8-1-1.3c1.4,0,2.5-0.1,3.6,0.4
			C306.2,32.2,305.9,32,305.6,32z"/>
		<path class="st20" d="M289,22.6c0.2-0.9-0.1-1.8-0.1-2.8c0-0.3,0-0.7,0.1-1c0.2-0.2,0.4-0.4,0.7-0.4c-0.3,1.6-0.4,3.2-0.4,4.9
			C288.9,23.3,289,22.9,289,22.6z"/>
		<path class="st21" d="M262.4,23.2c0.1,0.1,0.2,0.2,0.4,0.4c0.2,0.2,0.5,0.3,0.6,0.6c0.1,0.6-0.2,0.8-0.7,0.5
			c-0.4-0.3-0.8-0.6-1.1-1.1c-0.1-0.2-0.4-0.5,0-0.7c0.3-0.2,0.5,0.1,0.7,0.3C262.3,23,262.4,23.1,262.4,23.2z"/>
		<path class="st22" d="M277.6,19.5c0-0.3,0-0.5,0.2-0.7c0.2,0.4,0.4,0.8,0.6,1.1c0.2,0.5,0.1,1,0.1,1.6c0,0.2,0.1,0.6-0.1,0.7
			c-0.4,0.1-0.5-0.2-0.7-0.5C277.5,21,277.4,20.3,277.6,19.5z"/>
		<path class="st23" d="M277,18.5c0,0.3,0.1,0.7-0.1,1c-0.1,0-0.1-0.1-0.1-0.2c0.1-0.4-0.2-0.5-0.4-0.7c-0.8-0.8-0.9-1.7-0.4-2.7
			c0.2,0.7,0.2,1.5,0.7,2.1C276.8,18.1,276.9,18.3,277,18.5z"/>
		<path class="st24" d="M291.1,20c-0.3,2.1-0.3,2.1-1,2.7c0.4-1.4,0.3-2.8,0.8-4C291.1,19.1,290.6,19.6,291.1,20z"/>
		<path class="st25" d="M265.8,26.6c0.8,0.6,1.4,1.3,2,2c-0.1,0.1-0.2,0.1-0.4,0c-0.9-0.3-1.4-1.1-2-1.7
			C265.5,26.8,265.6,26.7,265.8,26.6z"/>
		<path class="st6" d="M250.4,65.7c0.5,1.3,0.5,2.6,0.4,4c0,0.7,0,1.5-0.1,2.2C250.5,69.8,250.5,67.8,250.4,65.7z"/>
		<path class="st26" d="M264.7,18.6c0.8-0.1,1.6-0.1,2.2,0.6c0,0.4-0.2,0.5-0.6,0.4c-0.6-0.2-1.1-0.4-1.7-0.6
			C264.7,18.9,264.7,18.7,264.7,18.6z"/>
		<path class="st8" d="M284.2,18.9c-0.2,0.7-0.3,1.3-0.2,2.1c0.2,0.7-0.2,0.8-0.8,0.6c0,0,0-0.1,0-0.1c-0.4-0.2-0.3-0.6-0.2-0.9
			c0.4-0.2,0.8-0.4,0.8-1C283.8,19.3,283.9,19,284.2,18.9z"/>
		<path class="st27" d="M296.1,121.3c-0.1,0.3-0.1,0.5,0.3,0.5c-0.7,0.5-1.4,1-2.1,1.5c-0.2,0.1-0.3,0-0.2-0.2
			C294.7,122.3,295.4,121.8,296.1,121.3z"/>
		<path class="st28" d="M293.4,21.7c-0.2,0.7-0.5,1.3-1,1.8c-0.2,0.1-0.3,0.1-0.5,0.2c-0.3-0.1-0.5-0.2-0.4-0.6c0.1,0,0.2,0,0.4-0.1
			c0.3-0.1,0.2-0.4,0.2-0.6c0.1-0.2,0.3-0.3,0.6-0.4C292.9,22.2,293,21.6,293.4,21.7z"/>
		<path class="st26" d="M277.8,21.7c0.1,0.2,0.2,0.4,0.6,0.5c0-0.8,0-1.5,0-2.2c0.1-0.1,0.3-0.1,0.4-0.2c-0.4,1-0.2,2-0.2,3.2
			c-0.5-0.4-0.9-0.7-1.3-1c0-0.2-0.1-0.3,0.2-0.4C277.5,21.6,277.6,21.6,277.8,21.7z"/>
		<path class="st29" d="M295.7,23.7c0.6-0.5,1.2-1,1.9-1.3c0.1,0,0.1,0.1,0.2,0.1c-0.5,0.6-1,1.3-1.8,1.4
			C295.8,23.9,295.8,23.9,295.7,23.7z"/>
		<path class="st30" d="M294.1,123c0.1,0.1,0.2,0.2,0.2,0.2c-0.3,0.4-0.7,0.7-1.1,0.9c-0.2,0.1-0.3,0-0.2-0.2
			C293.3,123.6,293.6,123.2,294.1,123z"/>
		<path class="st31" d="M292.9,123.9c0.1,0.1,0.2,0.1,0.2,0.2c-0.3,0.4-0.6,0.7-0.9,1.1C292,124.4,292.5,124.2,292.9,123.9z"/>
		<path class="st32" d="M301,25c-0.1,0-0.3,0-0.4,0c-0.3-0.2-0.7-0.3-0.8-0.7c0.1-0.2,0.3-0.1,0.4-0.2c0.4,0.2,1,0.3,0.9,0.9
			C301.1,25.1,301.1,25.1,301,25z"/>
		<path class="st33" d="M300.2,24.1c-0.1,0.2-0.3,0.2-0.4,0.2c-0.6,0.1-1.1,0.2-1.5-0.4c0.3-0.1,0.7,0.1,1-0.2
			C299.7,23.7,300,23.9,300.2,24.1z"/>
		<path class="st34" d="M307,118.1c-0.5,0.4-1.1,0.1-1.7,0.2c-0.1,0-0.1-0.1-0.1-0.1c0,0,0-0.1,0.1-0.1
			C305.9,117.9,306.4,118,307,118.1z"/>
		<path class="st11" d="M308.7,114.9c0.1,0.4-0.1,0.8,0.2,1.2c0,0.3,0,0.5-0.3,0.8C308.5,116.1,308.5,115.5,308.7,114.9z"/>
		<path class="st35" d="M276.8,19.2c0,0.1,0,0.1,0.1,0.2c-0.1,0.6,0.1,1.3-0.2,1.8c-0.1-0.1-0.1-0.2-0.2-0.4
			C276.9,20.4,276.4,19.7,276.8,19.2z"/>
		<path class="st36" d="M260,115.5c-0.6,0.3-1.1,0.3-1.7,0C258.8,115.3,259.4,115.4,260,115.5z"/>
		<path class="st6" d="M250.6,62.8c-0.1,0.7,0.2,1.4-0.2,2.1C250.4,64.2,250.3,63.5,250.6,62.8z"/>
		<path class="st37" d="M301,25c0.1,0,0.1,0,0.2,0c0.2-0.2,0.5,0,0.7,0C301.1,25.7,301.1,25.7,301,25z"/>
		<path class="st38" d="M304.2,25.6c-0.1,0.2-0.3,0.4-0.6,0.4c0.2-0.4,0.2-0.9,0.6-1.3C304.3,25,303.8,25.3,304.2,25.6z"/>
		<path class="st39" d="M310.9,99.6c0.3,0.2,0.4,0.5,0.3,0.8c-0.1,0.1-0.2,0.1-0.3,0.2C311,100.2,310.6,99.9,310.9,99.6z"/>
		<path class="st27" d="M305.1,118.9c0.6-0.3,1.2-0.3,1.9,0C306.4,118.9,305.7,118.9,305.1,118.9z"/>
		<path class="st40" d="M305.8,92.7c-0.2-0.5-0.1-1-0.1-1.5c0.2,0.1,0.6,0.1,0.2,0.6C305.8,91.9,305.9,92.3,305.8,92.7z"/>
		<path class="st41" d="M307.6,93.9c-0.1,0.1-0.2,0.2-0.2,0.2c-0.2-0.1-0.5-0.1-0.5-0.5C307.1,93.6,307.4,93.7,307.6,93.9z"/>
		<path class="st42" d="M264,23.4c-0.4,0.1-0.6-0.3-0.8-0.5c0.1,0,0.2,0,0.2,0C263.6,22.9,263.8,23.1,264,23.4z"/>
		<path class="st27" d="M305.3,118.1c0,0.1,0,0.1,0,0.2c-0.4,0-0.9,0-1.3,0C304.4,118,304.8,118.1,305.3,118.1z"/>
		<path class="st43" d="M283,20.5c0,0.3,0,0.6,0.2,0.9c-0.2,0-0.4,0-0.5-0.2C282.9,21.1,282.7,20.7,283,20.5z"/>
		<path class="st44" d="M269.4,23.9c0.2,0.2,0.4,0.4,0.6,0.6c0,0.1,0,0.1,0,0.2c-0.2-0.1-0.4-0.2-0.6-0.3
			C269.3,24.2,269.3,24,269.4,23.9z"/>
		<path class="st7" d="M263.9,19.2c0.1,0.3,0.6,0.1,0.7,0.4C264.4,19.4,263.8,20,263.9,19.2z"/>
		<path class="st11" d="M309.1,114.6c0-0.4-0.2-0.8,0.2-1.2C309.2,113.8,309.2,114.2,309.1,114.6z"/>
		<path class="st11" d="M309,111.9c0,0.4,0.2,0.8-0.2,1.2C308.9,112.7,308.8,112.3,309,111.9z"/>
		<path class="st11" d="M309.4,109.4c0,0.4,0.2,0.8-0.2,1.2C309.3,110.2,309.2,109.8,309.4,109.4z"/>
		<path class="st11" d="M309.6,107.7c0,0.4,0.2,0.8-0.2,1.2C309.4,108.5,309.3,108.1,309.6,107.7z"/>
		<path class="st45" d="M263.3,24.1c-0.2-0.1-0.5-0.3-0.6-0.6c0.4,0,0.6,0.3,0.8,0.5C263.5,24.1,263.4,24.1,263.3,24.1z"/>
		<path class="st46" d="M285.8,17c-0.1-0.2,0.2-0.6-0.2-0.7c0.4-0.1,0.4-0.1,0.4,0.7c0,0,0,0,0,0C286,17.1,285.9,17.1,285.8,17z"/>
		<path class="st47" d="M277,18.5c-0.3-0.1-0.3-0.3-0.3-0.6c0.1,0,0.2,0,0.4,0C277,18.1,277,18.3,277,18.5z"/>
		<path class="st48" d="M251.2,105.4c0.1-0.1,0.2-0.3,0.3-0.2c0.2,0.2,0.1,0.4-0.1,0.6C251.3,105.6,251.4,105.4,251.2,105.4z"/>
		<path class="st11" d="M309.8,108.8c0-0.3-0.1-0.7,0.2-1C310,108.2,310,108.5,309.8,108.8z"/>
		<path class="st11" d="M309.6,110.3c0-0.3-0.1-0.7,0.2-1C309.8,109.7,309.8,110,309.6,110.3z"/>
		<path class="st11" d="M309.4,111.8c0-0.3-0.1-0.7,0.2-1C309.6,111.2,309.6,111.5,309.4,111.8z"/>
		<path class="st11" d="M309.3,113.1c0-0.3-0.1-0.7,0.2-1C309.4,112.5,309.4,112.8,309.3,113.1z"/>
		<path class="st49" d="M269.9,20.5c-0.2-0.1-0.3-0.2-0.4-0.4c0.1,0,0.3-0.1,0.3,0C270.1,20.2,270,20.4,269.9,20.5z"/>
		<path class="st27" d="M301.9,119.4c0.3-0.3,0.6-0.1,1-0.2C302.6,119.5,302.3,119.4,301.9,119.4z"/>
		<path class="st27" d="M300.6,119.6c0.3-0.3,0.6-0.1,1-0.2C301.3,119.7,301,119.6,300.6,119.6z"/>
		<path class="st50" d="M273.5,121.8c0,0,0.1-0.1,0.1-0.1c0.2,0,0.3,0.1,0.4,0.3c0,0,0,0.1-0.1,0.1
			C273.7,122.2,273.6,122.1,273.5,121.8z"/>
		<path class="st5" d="M284.1,101.1c0.1,0,0.3,0,0.4,0c1.8,0,3.4-0.6,5.1-1.1c3.1-1.1,5.8-3,8.4-5.1c1.9-1.6,3.7-3.2,5.6-4.7
			c0.2-0.2,0.5-0.3,0.9-0.5c0.1,1.9,0.2,3.8,0.2,5.6c0.1,2.2-0.1,4.4,0.2,6.6c0.1,1.2-0.1,2.4-0.3,3.5c-0.3,1.7-1.4,2.9-2.4,4
			c-1.8,2-3.6,3.9-5.4,5.8c-1.6,1.7-3.1,3.4-5,4.9c-1.2,1-2.3,2.1-3.3,3.3c-1.1,1.4-1.6,3-2.3,4.6c-0.4,0.8-0.8,1.7-1.2,2.6
			c-0.8-1.3-1.4-2.7-2.2-3.8c-0.6-0.8-1.2-1.5-1.9-2.1c-1.5-1.3-2.9-2.7-4.4-4c-2.5-2.4-5.4-4.3-8.1-6.5c-1.2-1-2.4-1.9-3.4-3.1
			c-1.1-1.3-1.6-2.9-1.8-4.6c-0.7-4.8-1.5-9.7-2.2-14.7c0.9,0.8,1.7,1.4,2.5,2.1c2.7,2.3,5.9,3.5,8.9,5.2c2.1,1.2,4.2,2.1,6.6,2.6
			c1.6,0.4,3.1,0.3,4.6-0.4C283.8,101.1,283.9,101,284.1,101.1z"/>
		<path class="st8" d="M299.9,35.5c0-0.3,0.1-0.7-0.2-0.9c0-0.8,0.4-1.7,0.9-1.9c0.5-0.2,1.2,0.7,1.6,1.2c0.9,1.1,1.4,2.5,2.1,3.7
			c0.3,0.5,0.5,1.1,0.8,1.6c1,1.4,0.9,3.1,1.7,4.5c-0.7,0.1-0.8-0.3-1-0.7c-0.5-1.6-1-3.2-2.3-4.3c0,0-0.1,0-0.1-0.1
			c-0.3-1.4-1.4-2.3-2-3.5c0-0.1-0.1-0.2-0.1-0.2c-0.2-0.2,0.2-0.8-0.3-0.7c-0.5,0.1-0.9,0.3-0.9,0.9
			C300,35.3,299.9,35.4,299.9,35.5z"/>
		<path class="st51" d="M310.3,63.6c0.1,0.6,0.2,1.1,0.2,1.7c0.1,0.5,0.1,0.9,0,1.4c0,0.1,0,0.2,0,0.3c-0.4,0-0.3-0.3-0.4-0.6
			c-0.1-0.2,0.1-0.5-0.2-0.7c0-0.2,0-0.3-0.2-0.4c0.1-0.8,0.2-1.6,0.2-2.4C310.5,63,310.1,63.4,310.3,63.6z"/>
		<path class="st52" d="M254.7,71.7c-0.4,1.4-0.1,2.8-0.2,4.2c0,0.3,0.5,0.3,0.4,0.7c-0.1,0.1-0.2,0.2-0.4,0.4
			c-0.1,0.1-0.2,0-0.3-0.1c-0.1-1.5-0.1-3,0-4.4C254.3,72.1,254,71.5,254.7,71.7z"/>
		<path class="st15" d="M309.1,68.9c0-0.2,0.1-0.4,0.1-0.5c0.1,0,0.2,0,0.2,0c0,1.1,0,2.1,0,3.2c0,0.3-0.1,0.6,0.1,0.8
			c0,0.1,0,0.3-0.1,0.3c-0.2,0.1-0.2-0.1-0.2-0.3c0-0.8,0-1.7,0-2.5C309.2,69.5,309.3,69.2,309.1,68.9z"/>
		<path class="st6" d="M251.2,67.3c0.3,1.4,0.1,2.9,0.2,4.3c-0.4-0.7-0.1-1.5-0.2-2.2C251.1,68.7,251.2,68,251.2,67.3z"/>
		<path class="st53" d="M284.1,101.1c-0.1,0.1-0.3,0.1-0.4,0.2c-0.6-0.3-1.3-0.1-2-0.2c-0.4,0-0.8,0.1-1.2-0.2
			C281.8,101,282.9,100.7,284.1,101.1z"/>
		<path class="st54" d="M310,65.7c0.3-0.2,0.3,0,0.3,0.3c0,0.3-0.2,0.7,0.2,1c0,0.3-0.3,0.4-0.4,0.6c-0.2,0-0.2-0.2-0.2-0.4
			c0-0.3,0.1-0.7-0.2-0.9C309.9,66.1,309.9,65.9,310,65.7z"/>
		<path class="st55" d="M309.6,77.3c0.3-0.5,0.5-1,1-1.3c-0.4,0.6-0.4,1.4-1,2C309.4,77.8,309.4,77.5,309.6,77.3z"/>
		<path class="st56" d="M313,67.8c-0.3-0.8,0-1.6,0.2-2.4C313.1,66.1,313.3,67,313,67.8z"/>
		<path class="st16" d="M254.9,76.7c0.3,1.1,0,2.2,0.2,3.2C254.7,78.9,255,77.8,254.9,76.7z"/>
		<path class="st5" d="M309.6,77.3c0,0.2,0,0.5,0,0.7c-0.3,0.2-0.6,0.4-0.5-0.2c0.1-0.5,0.2-1,0.3-1.5
			C309.5,76.6,309.3,77,309.6,77.3z"/>
		<path class="st6" d="M251.2,63.6c0,1,0,2,0,3C250.9,65.6,250.9,64.6,251.2,63.6z"/>
		<path class="st57" d="M309.8,66.3c0.6,0.2,0.4,0.6,0.2,0.9C309.8,66.9,309.9,66.6,309.8,66.3z"/>
		<path class="st58" d="M305.6,32c0.2-0.1,0.5,0,0.6-0.2c0.3,0,0.6,0.1,0.7,0.4C306.5,32.2,306,32.2,305.6,32z"/>
		<path class="st16" d="M254.4,79.7c0-0.6,0-1.1,0-1.7C254.6,78.6,254.6,79.2,254.4,79.7z"/>
		<path class="st12" d="M310.8,69.3c0.2,0.5,0.2,1,0,1.6C310.7,70.4,310.7,69.9,310.8,69.3z"/>
		<path class="st59" d="M307.7,44.8c-0.2-0.2-0.3-0.3-0.2-0.6c0,0,0.2-0.1,0.2-0.1C307.8,44.3,307.8,44.5,307.7,44.8z"/>
		<path class="st60" d="M300.4,29.3c0.1,0.2,0.6-0.5,0.6,0.2c-0.3,0-0.6,0.1-0.9,0.1C300.2,29.6,300.3,29.5,300.4,29.3z"/>
		<path class="st21" d="M254.4,76.9c0.1,0,0.1,0,0.2,0c-0.2,0.3-0.2,0.6-0.2,1c-0.2-0.3-0.2-0.6-0.2-1
			C254.2,76.8,254.3,76.8,254.4,76.9z"/>
		<path class="st15" d="M308.7,71.7c0-0.4-0.1-0.8,0.2-1.2C308.8,70.9,309,71.3,308.7,71.7z"/>
		<path class="st12" d="M310.2,69.7c-0.1-0.4-0.1-0.8-0.2-1.2C310.4,68.8,310.1,69.3,310.2,69.7z"/>
		<path class="st6" d="M279.5,83.7c-0.7,0.1-1.5,0.3-2.2,0.4c-0.3,0.1-0.7,0.1-1,0l-0.1,0l-0.1,0c-1.1-0.2-2.2-0.1-3.4,0
			c-0.7,0.1-1.4,0.2-1.9-0.4c-0.2-0.3,0.2-0.7-0.2-1c-0.1-0.1-0.2-0.2-0.3-0.3c-0.2-0.3-0.4-0.7-0.2-1.1c0.2-0.3,0.6-0.1,0.9-0.1
			c0.3,0.2,0.7,0,1,0.1c2.1-1.1,4.4-1,6.7-0.8c1.9,0.2,3.9,0.1,5.8,0.2c1.3,0,2.7,0.2,4-0.1c0.7-0.1,1.4-0.4,2-0.7
			c0.4-0.1,0.8-0.4,1.1,0c0.3,0.4-0.3,0.7-0.5,0.9c-1.1,1.1-2.2,2.3-3.8,2.7c-1,0.2-2.1,0.3-3.1,0c-1.1-0.1-2.1-0.1-3.2,0
			c-0.1,0-0.2,0-0.3,0C280.3,83.7,279.8,83.4,279.5,83.7z"/>
		<path class="st27" d="M272.7,73.9c-1-0.3-2-1.8-1.8-2.9c0.1-0.6,0.3-1.3,0.5-1.9c0.1-0.2,0.3-0.5,0.6-0.3c0.3,0.2,0,0.4,0,0.5
			c-0.1,0.6-0.2,1.1-0.3,1.7c0,1.4,0.8,2.2,2.2,2.2c1,0,1.7,0.5,2.6,0.8c1.4,0.5,2.7,0.6,4-0.5c0.5-0.4,1.2-0.6,1.9-0.5
			c1.3,0,2.5-0.1,3.7-0.6c0.6-0.3,0.9-0.6,1-1.2c0.1-0.5,0.1-1,0.4-1.4c0.1-0.1,0-0.5,0.3-0.4c0.9,2.7-0.6,3.7-2.5,4.4
			c-0.2,0.1-0.5,0.1-0.7,0.1c-1.6,0-3.1,0.1-4.5,1.2c-1,0.8-2.3,0.3-3.4,0c-1-0.3-2-0.8-3-1C273.3,73.8,273,73.8,272.7,73.9z"/>
		<path class="st7" d="M284.3,58.6c1.5-2,3.6-2.6,6-2.8c2.9-0.2,5.2,0.8,7.2,2.7c0.2,0.2,0.5,0.4,0.3,0.7c-0.2,0.4-0.6,0.3-0.8,0.1
			c-0.9-0.5-1.7-1-2.7-1.3c-0.1,0-0.3-0.1-0.3-0.3c0-0.3,0.4-0.1,0.5-0.4c-0.5-0.3-1.2-0.4-1.7-0.6c-0.2,0-0.5-0.3-0.4,0.2
			c0.1,0.4,0.2,0.7,0.3,1.1c0.1,0.6,0,1.2,1,1c-0.5,0.4-0.9,0.3-1.3,0.3c-0.9-0.1-1.7-0.2-2.6,0c-0.7,0-1.5,0.3-2.2-0.2
			c0.3-0.3,0.8-0.2,1.1-0.4c0.4-0.1,0.8-0.1,1.2-0.1c0.6-0.1,1.2,0.2,1.7-0.1c0-0.3,0-0.5-0.1-0.7c-0.1-0.4-0.3-0.6-0.6-0.2
			c-0.5,0.6-0.9,0.4-1.3,0c-0.2-0.2-0.4-0.3-0.6,0c-0.1,0.3-0.2,0.7-0.6,0.6c-0.4-0.1-0.5-0.5-0.6-0.9c-0.1-0.3,0-0.5,0.2-0.7
			c0.2-0.1,0.5,0,0.6-0.1c0.2,0,0.1-0.1,0.1-0.1c-0.2,0.2-0.6-0.1-0.8,0.2c-0.1,0.1-0.2,0.2-0.4,0.3c-1,0.6-1,0.6-0.6,1.7
			c-0.2,0.2-0.4,0.2-0.6,0.1l0,0c-0.4-0.2-0.8-0.4-1.3-0.2c-0.1,0.1-0.2,0.3-0.4,0.4c-0.1,0.1-0.2,0.1-0.2,0.1
			C284.1,59,283.9,58.9,284.3,58.6z"/>
		<path class="st6" d="M271,53.7c0.1,0.3,0.6,0.6,0.2,1c-0.3,0.3-0.6,0-0.8-0.2c-0.1-0.1-0.2-0.3-0.3,0c-0.4,0.7-0.9,0.7-1.5,0.2
			c-0.1-0.1-0.5,0-0.7-0.1c-0.4-0.1-0.7-0.1-1.1-0.4c-0.4-0.2-0.7-0.6-1.2-0.7c-0.1,0-0.2,0.1-0.3,0.2c-0.3,0.4,0,0.5,0.3,0.6
			c0.4,0.3,0.9,0.4,1.2,0.9c0.1,0.3,0.1,0.7-0.3,0.5c-0.7-0.3-1.5-0.3-2-1.1c-0.1-0.2-0.5,0-0.4-0.4c0.6-1,1.5-1.8,2.7-2
			c0.6-0.1,1.1-0.3,1.6-0.5c0.2,0.1,0.4,0.3,0.6,0.4c0.4,0.2,0.8,0.5,1.3,0.8c0.1,0.1,0.2,0.1,0.3,0.2C270.8,53.2,271,53.4,271,53.7
			z"/>
		<path class="st61" d="M304.8,46.6c0.7,2.5,0.5,5,0.2,7.5c-0.1,0.8-0.1,1.5,0.1,2.3c0.4,1.7,0.8,3.3,1.1,5.1
			c-0.7-0.1-0.9-0.7-1.1-1.2c-1.5-3.4-1.2-6.8-0.7-10.4c0.1-0.8,0.1-1.5,0.1-2.3C304.5,47.2,304.4,46.8,304.8,46.6z"/>
		<path class="st7" d="M290.5,52.6c1,0.3,1.8,0.9,2.5,1.7c0.2,0.2,0.4,0.4,0.2,0.6c-0.3,0.3-0.5,0-0.7-0.1c-0.5-0.4-1-0.8-1.6-1.1
			c-0.6-0.1-1-0.6-1.6-0.8c0.5,0.3,1,0.5,1.4,1c0.1,0.1,0.2,0.2,0.3,0.3c0.2,0.2,0.3,0.4,0.1,0.6c-0.1,0.2-0.4,0.2-0.6,0.1
			c-0.5-0.2-1-0.5-1.6-0.8c-0.2,0.2,0.2,0.5-0.1,0.7c-0.3,0.2-0.5-0.1-0.8-0.2c-0.7-0.4-1.4-0.8-2.2-1.3c-0.3,0-0.6-0.1-0.9-0.4
			c-0.1-0.3,0.1-0.4,0.4-0.4c0.4,0.1,0.8,0,1.1-0.1c0.7-0.2,1.5,0.1,2.2-0.6c0.2-0.3,0.8,0,1.1,0.3
			C290.1,52.3,290.4,52.3,290.5,52.6z"/>
		<path class="st7" d="M273.6,58.5c-0.6-0.1-1.2-0.2-1.8-0.4c-0.3,0.1-0.9-0.2-1,0.5c-0.1,0-0.2,0-0.3,0.1c-0.5,0.5-1,1-1.7,0.1
			c-0.1-0.2-0.5,0-0.6,0.3c-0.1,0.2-0.1,0.6-0.4,0.7c-0.1,0-0.3,0-0.4-0.1c-0.2-0.5-0.1-1,0.1-1.6c-1.7,0.4-2.6,2-4.1,2.3
			c-0.2-0.4,0.1-0.8,0.4-0.9c0.8-0.4,1.4-1.1,2-1.6c1.3-1,2.7-1,4.2-0.7c1,0.2,2.1,0.4,3.1,0.7C273.6,58,273.9,58.1,273.6,58.5z"/>
		<path class="st62" d="M271.8,79.3c-0.3,0.1-0.6,0.3-0.9,0.2c-0.3,0.1-0.6,0.3-0.8-0.2c0.5-0.1,1.1-0.3,1.6-0.4
			c1.1-0.2,2.2,0,3.3-0.1c0.3,0,0.7,0.1,1-0.1c1-0.1,2-0.1,3,0.1c0.6,0.1,1.2,0,1.8,0c3.2-0.3,6.4-0.7,9.6-0.6
			c0.3,0,0.5,0.1,0.8,0.3c-5.1,0.6-10.2,1.1-15.4,0.6C274.4,79.4,273.1,79.1,271.8,79.3z"/>
		<path class="st63" d="M296.7,31.4c-0.7,0.1-0.8,0.8-1.3,1.1c-0.1,0-0.2-0.1-0.2-0.2c0.2-0.3,0.4-0.7,0.6-1
			c0.1-0.2,0.4-0.5,0.2-0.8c-0.2-0.3-0.5,0.2-0.8,0c0.3-0.5,0.6-1,0.9-1.6c0.5-0.1,0.1,0.4,0.4,0.5c1,0.3,1.2-0.7,1.7-1.1
			c0.3-0.3,0.6-0.6,1.1-0.8c-0.7,2.3-1.1,4.6-3.4,5.9c-0.1-0.1-0.1-0.1-0.2-0.2C296,32.6,296.6,32.1,296.7,31.4L296.7,31.4
			L296.7,31.4z"/>
		<path class="st61" d="M266.3,81c-0.6-0.4-0.7-0.9-0.6-1.4c0.2-2.4,1.4-4.4,2.7-6.3c0.4-0.6,0.9-1.1,1.5-1.6c0.3-0.2,0.5-0.3,0.7,0
			c0.3,0.3-0.1,0.4-0.3,0.6c-1.8,1.4-2.5,3.4-3.2,5.5C266.8,78.8,266.6,79.8,266.3,81z"/>
		<path class="st61" d="M287.8,86.1c-4.3,0.7-8.5,0.7-12.8,0.3c0-0.1,0-0.2,0-0.3c4.3-0.1,8.7-0.2,13-0.3
			C288.2,86,288,86,287.8,86.1z"/>
		<path class="st11" d="M254.9,42.8c0,0,0-0.1-0.1-0.1c-0.1-0.1,0-0.2,0.1-0.2c0.1,0,0.1-0.1,0.1-0.1c0,0,0,0-0.1,0
			c-0.4-0.3-0.2-0.6,0.1-0.7c0.8-0.3,1-1.1,1.4-1.7c0.7-1,1.9-1.7,3.2-1.4c-1,0.7-1.9,1.3-2.5,2.2c0.3,0.3,0.7-0.1,1,0.1
			c-0.3,0.8-1.3,0.6-1.8,1.1c0.2,0.3,0.4,0.1,0.6,0.2c-0.1,0.4-0.5,0.3-0.7,0.6c0,0.1,0,0.2,0,0.3C255.8,43.2,255.3,43.1,254.9,42.8
			z"/>
		<path class="st64" d="M252.5,62.1c0.1,0.2,0.3,0.4,0.4,0.6c-0.6,3.2-0.2,6.5,0.2,9.7c0,0.2,0.2,0.4-0.2,0.4
			c-1.1-3.2-1.5-6.4-0.5-9.8C252.4,62.7,252.5,62.5,252.5,62.1z"/>
		<path class="st9" d="M273.5,52c0.2,0.2,0.5,0.4,0.7,0.5c0.2,0.1,0.3,0.4,0.6,0.2c0.8,0,0.9,0.8,1.3,1.2c0.3-0.2,0.3-0.7,0.9-0.6
			c-0.3,0.9-0.6,1.8-0.5,2.8c0.1,0.3-0.4,0.7-0.6,0.3c-0.2-0.6-0.9-0.4-1.2-0.9c-0.2-0.2-0.2-0.4-0.3-0.7c-0.1-0.3-0.2-0.5-0.4-0.8
			c-0.2-0.5-0.4-0.9-0.7-1.3C273.2,52.5,273.1,52.2,273.5,52z"/>
		<path class="st64" d="M256,38.5c0-0.1,0-0.1,0-0.2c-0.1-0.3,0.1-0.6,0.3-0.8c0.4-0.6,0.9-1.2,1.6-1.4c0.9-0.6,1.9-1.1,3-1.1
			c0.5,0,1,0,1.3,0.6c-1.9,0.1-3.3,1.1-4.8,2c-0.4,0.3-0.8,0.5-1.1,1C256.3,38.9,256.3,38.8,256,38.5z"/>
		<path class="st9" d="M268.6,85c0.6,1,0.9,2.1,1.1,3.1c0.6,2.2,1.3,4.2,2.6,6c0.1,0.2,0.3,0.4,0.1,0.8c-1.6-1.5-2.4-3.3-2.9-5.3
			c-0.4-1.4-0.6-2.9-1.1-4.2C268.3,85.2,268.2,85,268.6,85z"/>
		<path class="st65" d="M294.1,51.7c1.3,0,1.9,1,2.7,1.8c0.2,0.2,0.2,0.6,0.6,0.7c0.2-0.4-0.2-0.7-0.2-1.1c1,0.8,1.6,2.8,1,4.2
			c-0.1-0.9-0.7-1.4-1.1-1.9c-0.2-0.1-0.3-0.3-0.5-0.5c-0.1-0.2-0.3-0.4-0.4-0.6c-0.2-0.3-0.3-0.6-0.6-0.7c-0.1-0.1-0.1-0.2-0.2-0.3
			c-0.1-0.3-0.3-0.4-0.6-0.6c-0.2-0.1-0.4-0.3-0.6-0.4C294.1,52.1,294,51.9,294.1,51.7z"/>
		<path class="st14" d="M254.4,76.9c-0.1,0-0.1,0-0.2,0c-0.1-0.3-0.2-0.6,0-0.9c-0.1-1.1-0.1-2.2,0-3.3c-0.2-0.1-0.2-0.3-0.1-0.5
			c0.2-0.6,0.2-1.3,0-1.9c-0.5-2.1-0.4-4.1,0.1-6.1c0.5,0.1,0.2,0.5,0.2,0.7c0,0.5,0.1,1-0.1,1.5c0,1.7,0.5,3.5,0.4,5.2
			c-0.5,0.1-0.4,0.5-0.4,0.8C254.3,74,254.4,75.4,254.4,76.9z"/>
		<path class="st13" d="M268.8,52.2c-0.2-0.1-0.3-0.3-0.4-0.5c1.1-0.1,2.2-0.1,3.3,0c0,0,0.1,0,0.1,0c0,0.1,0,0.2-0.1,0.2
			c-0.1,0.7,0.5,1,0.9,1.5c0.5,0.5,0.7,1.1,0.4,1.8c-1,0-1.3-0.9-1.9-1.5c-0.2-0.2-0.5-0.4-0.7-0.6c-0.1-0.1-0.1-0.1-0.2-0.2
			C269.8,52.6,269.5,52.1,268.8,52.2z"/>
		<path class="st66" d="M285.1,52.9c0.3,0,0.6,0.1,0.9,0.4c-0.1,0.7,0.7,0.9,1,1.5c0.1,0.3,0.6,0.4,0.3,0.8c-0.3,0.3-0.6,0-0.8-0.2
			c-0.5-0.3-1-0.7-1.5-1c-0.3,0.4-0.2,0.9-0.3,1.3c-0.1,0.2-0.2,0.4-0.4,0.4c-0.2,0-0.2-0.3-0.3-0.5c-0.1-0.8,0.3-1.5,0.4-2.2
			c0.1-0.6,0.6,0.2,1,0C285.3,53.3,285.2,53.1,285.1,52.9z"/>
		<path class="st13" d="M310.2,60.4c0.9-0.3,1.5,0.2,1.8,0.8c0.8,1.6,0.6,3.3,0.1,4.9c-0.1-1-0.3-2.1-0.4-3.1c0-0.3-0.1-0.6-0.2-0.9
			c-0.1-0.5-0.3-0.9-0.8-0.9c-0.5,0-0.2,0.6-0.4,0.9C309.8,61.6,310.1,61,310.2,60.4z"/>
		<path class="st13" d="M268.5,33c2-1.8,4.4-1.1,6.7-0.9C273.1,33,270.7,32.2,268.5,33z"/>
		<path class="st67" d="M289,60.8c2,0.5,3.9,0.4,6-0.2c-1.4,1.6-3.8,1.6-6.6,0.3C288.5,60.5,288.8,60.8,289,60.8z"/>
		<path class="st64" d="M290.5,52.6c-0.2-0.1-0.5-0.1-0.6-0.4c1-0.8,1.9-0.4,2.8,0.3c0.7,0.6,1.3,1.1,1.9,1.7
			c0.3,0.3,0.7,0.7,0.5,1.3c-0.6-0.2-0.8-0.7-1.2-1.1c-0.7-0.6-1.4-1.2-2.1-1.8C291.4,52.3,291,52.3,290.5,52.6z"/>
		<path class="st12" d="M264.5,62.3c2.5,0.6,4.9,0.1,7.3-0.6C270.7,63.3,266.8,63.6,264.5,62.3z"/>
		<path class="st9" d="M294.6,74.1c1.5,1.6,2,3.5,1.8,5.7C295.6,78,295.3,76,294.6,74.1z"/>
		<path class="st15" d="M273.1,55.2c-0.1-0.6-0.1-1.2-0.5-1.6c-0.3-0.6-0.9-1-0.8-1.7l0,0c0.3-0.2,0.6-0.1,0.8,0.1
			c0.3,0.2,0.6,0.5,0.8,0.9c0.3,0.4,0.5,0.8,0.7,1.2c0.2,0.3,0.3,0.6,0.4,0.9c0,0.2,0.3,0.4,0,0.6c-0.3,0.4-0.6,0.2-0.9-0.1
			C273.5,55.3,273.4,55,273.1,55.2z"/>
		<path class="st68" d="M269.5,60.4c-0.3,0.1-0.5,0.1-0.8,0c-0.4-0.2-0.9,0-1.4-0.2c-0.2,0-0.5,0.2-0.5-0.2c0.3-0.1,0.7-0.1,1-0.2
			c0.6-0.1,1.3-0.2,1.9-0.2c0.5-0.1,0.8-0.2,1-0.7c0.3-0.3,0.2-1.1,0.9-0.6c0,0.8,0.3,1.1,1.1,0.9c-0.7,0.7-1.6,0.8-2.4,1
			C270.2,60.4,269.8,60.2,269.5,60.4z"/>
		<path class="st69" d="M257.7,45.1c-0.6,0.5-1.2,0.5-1.7,0.6c-0.5,0.1-1,0.1-1.4,0.6c-0.2,0.2-0.4,0.3-0.6,0.1
			c-0.2-0.2-0.2-0.5-0.1-0.7c0.1-0.3,0.4-0.4,0.6-0.5C255.5,44.8,256.5,44.8,257.7,45.1z"/>
		<path class="st70" d="M294.6,81c-0.1,0.3,0,0.9-0.4,1c-0.4,0-0.4-0.6-0.5-0.9c-0.1-0.8-0.2-1.6-0.4-2.4c0-0.2-0.1-0.4,0.1-0.5
			c0.3-0.1,0.3,0.2,0.4,0.3C294.3,79.3,294.6,80.1,294.6,81z"/>
		<path class="st13" d="M261.5,58c0-0.5,0.3-1,0.6-1.2c0.6-0.4,0.7-1.1,1.3-1.4c0.1,0,0.1,0,0.2,0c0,0.3,0.4,0.3,0.5,0.5
			c0,0.1,0,0.2,0,0.2c-0.2,0.4-0.6,0.7-1,0.9c-0.6,0.4-0.9,0.9-1.2,1.5C261.3,58.6,261.7,58.1,261.5,58z"/>
		<path class="st71" d="M306.4,57.4c0.5,1.6,0.9,3.3,1.4,4.9c-0.1,0-0.2,0-0.2,0.1c-0.8-1.3-1.1-2.8-1.4-4.3
			C306.2,57.9,305.9,57.5,306.4,57.4z"/>
		<path class="st72" d="M256.2,43.1c0-0.1,0-0.2,0.1-0.3c0.9,0.8,0.9,0.8-0.2,1.3c-0.7,0.3-1.3,0.8-2.1,0.7c-0.4-0.6,0.1-0.8,0.5-1
			C255,43.3,255.6,43.3,256.2,43.1z"/>
		<path class="st73" d="M294.2,52.2c0.3,0,0.5,0.1,0.6,0.4c0.3,0.2,0.5,0.4,0.7,0.6c0,0.1,0,0.1,0,0.2c0.2,0.3,0.5,0.5,0.6,0.8
			c0.1,0.2,0.3,0.5,0.4,0.7c0.1,0.2,0.1,0.4-0.1,0.5c-1.1-0.9-1.7-2.3-2.8-3.2C293.8,51.8,293.9,51.8,294.2,52.2z"/>
		<path class="st22" d="M265,32.1c-1.3-0.7-2.2-1.7-3.1-3.1c0.8,0.3,1.3,0.6,1.7,1.1c0.5,0.7,1,1.4,1.8,1.8
			C265.3,32,265.2,32.1,265,32.1z"/>
		<path class="st18" d="M292.8,82.1c-0.7-1.2-0.8-2.4-0.7-3.8C292.7,79.5,293,80.7,292.8,82.1z"/>
		<path class="st74" d="M256.2,43.1c-0.1,0.5-0.6,0.3-1,0.5c-0.5,0.3-1.3,0.2-1.2,1.1c-0.1,0.1-0.3,0.1-0.4,0.2
			c0.1-0.3,0.1-0.5,0.1-0.8c0-0.8,0.4-1.2,1.2-1.3C255.4,42.8,255.8,42.8,256.2,43.1z"/>
		<path class="st75" d="M265.2,53.5c0.1-0.1,0.1-0.1,0.2-0.2c0.5,0.2,0.8,0.6,1.3,0.8c0.3,0.2,0.6,0.2,0.8,0.5
			c0.1,0.8-0.5,0.5-0.8,0.6c-0.5-0.1-0.9-0.6-1.4-0.8C265.1,54.2,264.9,53.9,265.2,53.5z"/>
		<path class="st28" d="M266.3,19.6c0.3,0,0.5-0.1,0.6-0.4c0.9,0.6,1.6,1.4,2.3,2.2c-0.1,0.1-0.1,0.2-0.2,0.2
			C268.1,21,267.2,20.3,266.3,19.6z"/>
		<path class="st76" d="M292,72.1c1.3,0.7,1.6,2.1,2.1,3.3c0.1,0.2,0,0.3-0.2,0.2C293.3,74.4,292.5,73.3,292,72.1L292,72.1z"/>
		<path class="st77" d="M275.3,66.9c0,1.3,0,2.6,0,3.9c-0.7-1.3-0.4-2.6-0.3-3.9C275.1,66.9,275.2,66.9,275.3,66.9z"/>
		<path class="st78" d="M287.7,69.2c-0.1,0.1-0.2,0.2-0.3,0.4c-0.1-0.9-0.5-1.8-1.2-2.4c-0.1-0.1-0.3-0.1-0.2-0.3
			c0.1-0.2,0.3-0.2,0.5-0.1c0.7,0.2,1,0.9,1.2,1.5C287.5,68.7,287.5,69,287.7,69.2z"/>
		<path class="st79" d="M257.9,36.1c-0.5,0.5-1,1-1.5,1.5c-0.2,0-0.3,0-0.2-0.2c0.1-0.4,0.3-0.8,0.4-1.2c0.2-0.4,0.5-0.2,0.7-0.1
			C257.5,36.1,257.7,36.1,257.9,36.1z"/>
		<path class="st80" d="M254,49.4c0.3-0.7,0.6-1.4,1.1-2c0.3,0,0.3,0.2,0.2,0.4c-0.2,0.7-0.7,1.3-1.2,1.8
			C254,49.6,253.9,49.6,254,49.4z"/>
		<path class="st81" d="M263.5,55.4C263.5,55.4,263.4,55.4,263.5,55.4c0-0.4,0.3-0.8,0.6-1.2c0,0.2,0.5,0,0.4,0.4
			c-0.2,0-0.4,0.1-0.2,0.3c0.9,0.6,0.4,0.9-0.2,1.3c0-0.1,0-0.2,0-0.3C263.9,55.7,263.7,55.5,263.5,55.4z"/>
		<path class="st82" d="M284.5,59c0.1,0,0.1,0,0.2,0c0.3,0.4-0.1,0.6-0.2,0.9c-0.1,0.2-0.1,0.5-0.3,0.6c-0.1,0.1-0.1,0.1-0.2,0.1
			c-0.1,0-0.1,0-0.2,0c-0.5-0.5-0.2-1,0.1-1.4C284,58.9,284.3,59.1,284.5,59z"/>
		<path class="st83" d="M282.7,56.8c-0.4-0.8,0-1.5,0.4-2.2c-0.2,0.7,0.3,1.5-0.2,2.2C282.8,57,282.7,57,282.7,56.8z"/>
		<path class="st84" d="M290.7,53.8c-0.7-0.4-1.4-0.7-2.1-1.1c1-0.3,1.6,0.4,2.3,0.9C290.8,53.7,290.8,53.8,290.7,53.8z"/>
		<path class="st78" d="M270.1,79.4c0.2,0.3,0.5,0.1,0.8,0.2c-0.8,0.3-1.6,0.5-2.3,0.8C268.8,79.6,269.5,79.5,270.1,79.4z"/>
		<path class="st85" d="M284,59.2c-0.2,0.5-0.2,1-0.2,1.5c-0.1,0.2-0.1,0.6-0.4,0.5c-0.3-0.1-0.2-0.5-0.2-0.7c-0.1-0.4,0-0.7,0.3-1
			c0.1-0.2,0.2-0.4,0.2-0.5C283.9,58.9,284,59,284,59.2z"/>
		<path class="st86" d="M276.1,78.8c-1.4,0.4-2.9,0.1-4.4,0.1C273.2,78.6,274.6,78.9,276.1,78.8z"/>
		<path class="st52" d="M254.4,66.5c-0.1-0.8,0.2-1.5-0.2-2.3c0-0.3,0-0.7,0.5-1.2C254.5,64.3,254.6,65.4,254.4,66.5z"/>
		<path class="st87" d="M255.6,57.1c0,0.7,0.3,1.3,0,2c-0.2-0.7-0.4-1.5-0.3-2.2c0-0.1,0.1-0.1,0.2-0.1
			C255.6,56.9,255.6,57,255.6,57.1z"/>
		<path class="st86" d="M271.8,79.3c1.3-0.4,2.7-0.1,4-0.2C274.4,79.5,273.1,79.2,271.8,79.3z"/>
		<path class="st88" d="M310.2,60.4c0.1,0.6-0.1,1.2,0.2,1.7c0,0.5,0,1,0,1.5c-0.1-0.2-0.2-0.5-0.3-0.7
			C310.1,62.1,309.8,61.2,310.2,60.4z"/>
		<path class="st89" d="M281.9,64.4c0-0.4,0-0.9,0-1.3c0.2-0.3-0.1-0.7,0.2-1c0.5,0.7,0.1,1.4,0.2,2.1
			C282.2,64.3,282.1,64.5,281.9,64.4z"/>
		<path class="st84" d="M282.1,62.1c0,0.3,0.1,0.7-0.2,1c-0.6-0.6-0.3-1.1,0-1.7c0.1-0.1,0.1-0.1,0.2,0
			C282.1,61.6,281.7,61.9,282.1,62.1z"/>
		<path class="st7" d="M272.7,84c1.1-0.3,2.2-0.3,3.4,0C275,84,273.8,84,272.7,84z"/>
		<path class="st90" d="M271.8,58.4c-0.7-0.3-0.4,0.4-0.7,0.6c-0.2-0.1-0.3-0.3-0.3-0.5c0.1-0.3-0.2-0.4-0.3-0.8
			c0.5,0.2,0.9,0.3,1.3,0.4C271.8,58.2,271.8,58.3,271.8,58.4z"/>
		<path class="st14" d="M281,83.5c1.1-0.3,2.1-0.3,3.2,0C283.1,83.5,282,83.5,281,83.5z"/>
		<path class="st52" d="M254.1,72.7c0,1.1,0,2.2,0,3.3C253.9,74.9,253.9,73.8,254.1,72.7z"/>
		<path class="st91" d="M283.3,58.2c0,0.2,0,0.5,0,0.7c-0.1,0.2-0.1,0.4,0,0.6c0,0.3-0.1,0.5-0.5,0.4c0-0.6,0.1-1.2,0.4-1.7
			C283.3,58.1,283.3,58.1,283.3,58.2z"/>
		<path class="st92" d="M255.3,47.7c0-0.2,0-0.3-0.2-0.4c0.3-0.3,0.2-1,1-0.9C255.8,46.9,255.5,47.3,255.3,47.7z"/>
		<path class="st93" d="M280.7,28.1c-0.2-0.6-0.3-1.1-0.4-1.7c0.1-0.1,0.1-0.1,0.2,0c0.2,0.5,0.4,1,0.4,1.5
			C280.9,27.9,280.8,28,280.7,28.1z"/>
		<path class="st94" d="M273.3,52.9c-0.2-0.3-0.5-0.5-0.7-0.8c0-0.5,0.4-0.1,0.5-0.3c0.1,0.1,0.3,0.1,0.4,0.2c-0.2,0.2,0,0.5,0,0.7
			C273.5,52.9,273.5,53,273.3,52.9z"/>
		<path class="st95" d="M282.8,59.9c0.7-0.1,0.2-0.7,0.5-1c0.1,0.2,0,0.4,0.2,0.6c0,0.3-0.1,0.7-0.3,1c-0.1,0-0.1,0-0.2,0
			c-0.1,0-0.1-0.1-0.2-0.2C282.8,60.1,282.8,60,282.8,59.9z"/>
		<path class="st96" d="M285.1,58.5c0.6-0.9,0.9-0.1,1.3,0.2C285.9,58.7,285.5,58.8,285.1,58.5z"/>
		<path class="st97" d="M252.7,51.3c-0.2-0.2-0.2-0.4,0-0.6c0.4,0.2,0.6-0.3,0.9-0.2c0.1,0.1,0.3,0.1,0.2,0.3
			C253.4,51,252.9,50.9,252.7,51.3z"/>
		<path class="st92" d="M273.1,68.5c0,0.4-0.1,0.7-0.4,1.2c-0.1-0.6,0-1,0.2-1.4C273,68.2,273.1,68.3,273.1,68.5z"/>
		<path class="st21" d="M289.8,59.3c0.9-0.3,1.7-0.3,2.6,0C291.5,59.3,290.6,59.3,289.8,59.3z"/>
		<path class="st96" d="M286.4,58.8c0.2,0,0.4,0,0.6-0.2c0.6-0.1,1.2,0,1.7,0.4c-0.3,0.3-0.7,0.1-1.1,0.2
			C287.2,58.9,286.7,59.1,286.4,58.8z"/>
		<path class="st98" d="M294.8,77.8c0.3,0.5,0.2,1.1,0.2,1.6c-0.4-0.4-0.2-1-0.4-1.4C294.7,78,294.7,77.9,294.8,77.8z"/>
		<path class="st99" d="M306.4,57.4c-0.2,0.2-0.2,0.4-0.2,0.6c-0.1-0.6-0.5-1.2-0.2-1.8l0,0C306.3,56.7,306.3,57.1,306.4,57.4z"/>
		<path class="st100" d="M261.5,58c0.1,0.2,0.2,0.4,0.4,0.6c-0.2,0.3-0.1,0.7-0.5,0.9C261.1,58.9,261.7,58.5,261.5,58z"/>
		<path class="st101" d="M275,61c0.3-0.4-0.5-0.7,0-1c0.1,0,0.2,0,0.2,0C275.4,60.3,275.2,60.7,275,61z"/>
		<path class="st102" d="M291.3,71.1c0.3,0.2,0.7,0.5,0.7,1c0,0,0,0,0,0c-0.6-0.1-0.7-0.5-1-0.9C291.1,71,291.2,71,291.3,71.1z"/>
		<path class="st103" d="M275.9,26.7c0.1-0.4-0.3-1,0.4-1.1c0,0.4-0.1,0.8-0.1,1.1C276.1,26.8,276,26.8,275.9,26.7z"/>
		<path class="st104" d="M289,60.8c-0.2,0-0.4,0-0.6,0.2c-0.3-0.1-0.6-0.3-1-0.5C288.1,60.4,288.6,60.6,289,60.8z"/>
		<path class="st48" d="M275.9,26.7c0.1,0,0.2,0,0.3,0c0,0.1,0,0.3,0,0.4c-0.3,0.1-0.1,0.4-0.2,0.6c-0.4-0.1-0.3-0.4-0.3-0.7
			C275.8,27,275.9,26.8,275.9,26.7z"/>
		<path class="st77" d="M294.2,52.2c-0.2-0.1-0.4-0.3-0.6,0c-0.2-0.1-0.4-0.1-0.6-0.2c0.2-0.5,0.7,0,1-0.3
			C294.1,51.9,294.2,52,294.2,52.2z"/>
		<path class="st105" d="M273.6,61.4c0.2-0.4,0.5-0.7,0.9-0.9c-0.1,0.4-0.4,0.8-0.8,1C273.7,61.5,273.7,61.4,273.6,61.4z"/>
		<path class="st106" d="M284,59.2c-0.1-0.1-0.1-0.1-0.2-0.2c0.1-0.3,0.1-0.5,0.2-0.8c0.3,0,0.1,0.4,0.4,0.4
			c-0.1,0.2-0.1,0.4,0.2,0.4C284.4,59.2,284.2,59.1,284,59.2z"/>
		<path class="st107" d="M273.1,68.5c-0.1-0.1-0.1-0.1-0.2-0.2c0-0.3,0.1-0.7,0.4-0.9c0.1-0.1,0.1-0.1,0.2,0
			C273.4,67.8,273.4,68.2,273.1,68.5z"/>
		<path class="st108" d="M254.2,54.9c-0.3,0.4-0.6,0.5-1.1,0.3C253.4,54.9,253.7,54.7,254.2,54.9z"/>
		<path class="st109" d="M283.3,58.2L283.3,58.2c-0.1,0-0.1,0-0.1,0c-0.1-0.5,0.2-0.8,0.2-1.3c0.3,0,0.3,0.2,0.2,0.3
			C283.6,57.6,283.6,57.9,283.3,58.2z"/>
		<path class="st110" d="M296.5,55.4c0-0.2,0-0.4,0-0.6c0.1-0.1,0.1-0.1,0.2,0c0.1,0.2,0.2,0.4,0.3,0.6
			C296.8,55.6,296.7,56,296.5,55.4z"/>
		<path class="st13" d="M273.3,31c0.6-0.3,1.2-0.1,1.8-0.2C274.5,31.2,273.9,30.9,273.3,31z"/>
		<path class="st111" d="M273.1,51.8c-0.2,0.1-0.4,0.2-0.5,0.3c-0.2-0.2-0.4-0.5-0.8-0.3c0-0.1,0-0.1,0-0.2
			C272.2,51.5,272.6,51.7,273.1,51.8z"/>
		<path class="st112" d="M255.6,57.1c-0.1-0.1-0.1-0.1-0.2-0.2c-0.2-0.3,0-0.8-0.2-1.1c0-0.1,0-0.5,0.2-0.2
			C255.8,56,255.7,56.6,255.6,57.1z"/>
		<path class="st113" d="M306.1,56.3c-0.7-0.2-0.2-0.8-0.6-1.1c0.1,0,0.2-0.1,0.3-0.1C305.8,55.5,305.9,55.9,306.1,56.3
			C306,56.3,306.1,56.3,306.1,56.3z"/>
		<path class="st114" d="M308.3,53.9c0.2,0.2,0.2,0.5,0.2,0.7c0.1,0.2,0,0.3-0.2,0.2c-0.1-0.3-0.3-0.6-0.2-0.9
			C308.1,53.8,308.2,53.8,308.3,53.9z"/>
		<path class="st115" d="M274.6,59.1c-0.1-0.2-0.2-0.3,0-0.5c0.1-0.1,0.3-0.1,0.3,0.1c0.2,0.3-0.1,0.5-0.3,0.7
			C274.5,59.2,274.5,59.2,274.6,59.1z"/>
		<path class="st116" d="M276.5,63.3c0.2,0.5,0,0.7-0.2,1.1C276.1,64,276.2,63.7,276.5,63.3z"/>
		<path class="st117" d="M308.3,53.9c-0.1,0-0.2,0-0.2,0c-0.2-0.3-0.2-0.6-0.2-0.9c-0.1-0.2,0-0.2,0.2-0.2
			C308.2,53.1,308.2,53.5,308.3,53.9z"/>
		<path class="st118" d="M274.1,66.2c0-0.6,0.3-0.7,0.5-1C274.6,65.5,274.5,65.8,274.1,66.2z"/>
		<path class="st119" d="M308.3,54.8c0.1-0.1,0.2-0.2,0.2-0.2c0.2,0.3,0.3,0.7,0.1,1C308.3,55.4,308.3,55.1,308.3,54.8z"/>
		<path class="st120" d="M252.9,72.8c0.1-0.1,0.1-0.3,0.2-0.4c0.2,0.3,0.2,0.7,0.1,1.1C252.8,73.4,252.9,73.1,252.9,72.8z"/>
		<path class="st121" d="M276.8,72.2c0.3,0.3,0.5,0.5,0.7,1c-0.6-0.1-0.7-0.5-0.9-0.8C276.7,72.3,276.8,72.3,276.8,72.2z"/>
		<path class="st43" d="M276,61.7c-0.2-0.4,0-0.7,0.2-0.9C276.1,61.1,276.1,61.4,276,61.7z"/>
		<path class="st122" d="M281.7,21.7c0.6-0.1,0.6,0.4,0.6,0.7c-0.1,0.1-0.2,0.1-0.2,0C282,22.2,281.7,22,281.7,21.7z"/>
		<path class="st123" d="M253.8,50.9c-0.1-0.1-0.1-0.2-0.2-0.3c0.3,0,0.7-0.1,1,0.3C254.3,50.9,254,50.9,253.8,50.9z"/>
		<path class="st124" d="M282.1,22.4c0.1,0,0.2,0,0.2,0c0.1,0.2,0.4,0.5,0.2,0.8C282.1,23,282.1,22.8,282.1,22.4z"/>
		<path class="st125" d="M307.7,52.2c-0.2-0.3-0.2-0.7-0.2-1.1c0.4,0.2,0.3,0.5,0.4,0.7C307.8,52,307.9,52.2,307.7,52.2z"/>
		<path class="st126" d="M273.6,58.5c0.1-0.4-0.2-0.5-0.4-0.7c0.3,0,0.5-0.1,0.7-0.3C273.8,57.9,274,58.3,273.6,58.5z"/>
		<path class="st127" d="M308,58.3c0.1,0.3,0.1,0.5,0,0.7c0,0-0.2,0-0.2-0.1C307.7,58.7,307.8,58.5,308,58.3z"/>
		<path class="st128" d="M268.1,60c-0.4,0-0.8,0-1.2,0c0.1-0.3,0.6,0,0.7-0.4c0.1,0,0.2,0,0.3,0C268,59.8,268.1,59.9,268.1,60z"/>
		<path class="st129" d="M307.7,56.9c0,0.3,0.3,0.5,0.1,0.9c-0.4-0.3-0.2-0.6-0.3-0.9C307.6,56.8,307.7,56.8,307.7,56.9z"/>
		<path class="st130" d="M282.7,56.8c0.1,0,0.1,0,0.2,0.1c-0.1,0.3,0.1,0.6-0.2,0.9C282.3,57.4,282.7,57.1,282.7,56.8z"/>
		<path class="st131" d="M283.3,66.7c0.2,0.2,0.4,0.4,0.2,0.8C283.1,67.3,283.2,67,283.3,66.7z"/>
		<path class="st132" d="M273.5,67.4c-0.1,0-0.1,0-0.2,0c0-0.4,0.2-0.6,0.5-1.1C273.8,66.8,273.7,67.1,273.5,67.4z"/>
		<path class="st133" d="M272.7,73.9c0.3-0.3,0.7-0.2,1-0.1c0.3,0.1-0.1,0.1-0.1,0.2C273.3,74,273,74,272.7,73.9z"/>
		<path class="st106" d="M307.7,52.2c0.1-0.1,0.1-0.3,0.2-0.4c0.1,0.3,0.1,0.6,0.2,0.9c-0.1,0.1-0.1,0.1-0.2,0.2
			C307.7,52.8,307.7,52.5,307.7,52.2z"/>
		<path class="st13" d="M269.5,31.4c0.5-0.4,1-0.1,1.6-0.2C270.6,31.4,270.1,31.4,269.5,31.4z"/>
		<path class="st134" d="M288.6,28.2c0.1-0.1,0.1-0.3,0.2-0.4c0.1,0,0.1,0.1,0.2,0.2c0,0.4,0.1,0.8-0.2,1.1
			C288.7,28.9,288.9,28.5,288.6,28.2z"/>
		<path class="st43" d="M267.6,54.7c-0.3-0.1-0.6-0.3-0.9-0.4c0-0.1,0.1-0.1,0.2-0.2c0.4,0.1,0.7,0.3,1,0.5
			C267.8,54.6,267.7,54.6,267.6,54.7z"/>
		<path class="st135" d="M281.9,64.4c0.1-0.1,0.2-0.1,0.3-0.2c0,0.2,0,0.4,0,0.5c-0.2,0.1,0,0.5-0.3,0.4
			C281.9,64.9,281.9,64.6,281.9,64.4z"/>
		<path class="st136" d="M281.9,65.1c0.1-0.1,0.2-0.2,0.3-0.4c0,0.2,0,0.4,0,0.5c0,0.1-0.1,0.3-0.3,0.2
			C281.9,65.5,281.9,65.2,281.9,65.1z"/>
		<path class="st137" d="M310.6,66.7c0-0.5,0-0.9,0-1.4C310.7,65.7,310.8,66.2,310.6,66.7z"/>
		<path class="st138" d="M274.8,52.8c0,0.1,0.1,0.3,0.1,0.3c-0.1,0.2-0.2,0-0.3-0.1c-0.1-0.1-0.3-0.3-0.4-0.5
			C274.5,52.5,274.6,52.7,274.8,52.8z"/>
		<path class="st139" d="M275.4,62.7c0.1-0.2,0.1-0.5,0.4-0.8c-0.1,0.4,0,0.7-0.2,1C275.4,62.9,275.4,62.8,275.4,62.7z"/>
		<path class="st140" d="M254,49.4c0.1,0.1,0.1,0.1,0.2,0.2c-0.1,0.3-0.1,0.5-0.5,0.6C253.5,49.8,253.8,49.6,254,49.4z"/>
		<path class="st141" d="M273.6,61.4c0.1,0,0.1,0.1,0.2,0.1c-0.1,0.2-0.2,0.5-0.4,0.3C273.2,61.6,273.5,61.5,273.6,61.4z"/>
		<path class="st142" d="M284,60.6c0-0.1,0.1-0.1,0.1-0.2c0.4,0,0.2,0.2,0.2,0.4c0,0.1-0.1,0.3-0.2,0.2C283.9,61,284,60.8,284,60.6z
			"/>
		<path class="st47" d="M307.3,56.2c-0.2-0.2-0.3-0.5-0.2-0.9c0.3,0.2,0.2,0.5,0.4,0.7C307.5,56,307.4,56.1,307.3,56.2z"/>
		<path class="st143" d="M307.3,56.2c0.1-0.1,0.1-0.1,0.2-0.2c0.1,0.3,0.1,0.6,0.2,0.9c-0.1,0-0.1,0-0.2,0
			C307.3,56.7,307.4,56.4,307.3,56.2z"/>
		<path class="st121" d="M268.6,85c-0.2,0.1-0.2,0.3-0.2,0.4c-0.1-0.2-0.1-0.4-0.2-0.6c-0.1-0.2-0.2-0.4,0.2-0.4
			C268.4,84.6,268.5,84.8,268.6,85z"/>
		<path class="st144" d="M286.4,30.7c-0.2-0.2-0.3-0.5-0.4-0.8c-0.1-0.2,0-0.2,0.2-0.2c0.1,0.2,0.3,0.5,0.4,0.7
			C286.5,30.5,286.4,30.6,286.4,30.7z"/>
		<path class="st111" d="M274.2,57.2c0-0.5,0.2-0.7,0.5-0.8C274.7,56.8,274.5,56.9,274.2,57.2z"/>
		<path class="st123" d="M276.1,57.8c0,0.3,0,0.6-0.2,0.8c-0.1,0-0.1-0.1-0.2-0.2c-0.2-0.3,0-0.4,0.1-0.6
			C276,57.7,276,57.8,276.1,57.8z"/>
		<path class="st145" d="M282.3,59.5c0-0.4,0-0.7,0.3-1c0.1,0.4-0.1,0.7-0.1,1C282.4,59.6,282.3,59.6,282.3,59.5z"/>
		<path class="st75" d="M267.4,60.3c0.5,0,1-0.2,1.4,0.2C268.3,60.4,267.8,60.5,267.4,60.3z"/>
		<path class="st146" d="M276.8,72.2c0,0.1-0.1,0.1-0.1,0.2c-0.2-0.2-0.4-0.4-0.7-0.7C276.6,71.6,276.7,72,276.8,72.2z"/>
		<path class="st131" d="M274.6,59.1c0,0.1,0,0.2,0,0.2c-0.2,0.2-0.3,0.5-0.7,0.6C274,59.5,274.3,59.3,274.6,59.1z"/>
		<path class="st147" d="M282.3,59.5c0.1,0,0.1,0,0.2,0c-0.1,0.3-0.1,0.6-0.2,0.9c0,0.1-0.1,0.1-0.1,0
			C282,60.1,282.1,59.8,282.3,59.5z"/>
		<path class="st148" d="M266.2,60c-0.1,0-0.2-0.1-0.3-0.2c0-0.2,0.2-0.1,0.3-0.1c0.1,0,0.3,0,0.3,0.1C266.4,60,266.3,60,266.2,60z"
			/>
		<path class="st149" d="M256.1,59.7c-0.1,0.1-0.1,0.2-0.2,0.3c-0.1,0.1-0.2,0-0.2-0.1c0-0.1,0.1-0.2,0.2-0.4
			C256,59.5,256,59.6,256.1,59.7z"/>
		<path class="st150" d="M284.4,60.9c-0.1-0.1-0.1-0.3-0.2-0.4c0-0.2,0.1-0.4,0.3-0.6C284.5,60.2,284.6,60.6,284.4,60.9z"/>
		<path class="st151" d="M262.6,33.1c-0.2-0.1-0.4-0.1-0.5-0.4c0.3,0,0.5,0,0.7,0.2C262.7,32.9,262.7,33,262.6,33.1z"/>
		<path class="st41" d="M293.9,75.6c0.1-0.1,0.2-0.2,0.2-0.2c0.1,0.1,0.1,0.3,0.2,0.4c0,0.2,0.2,0.4-0.2,0.4
			C294,76,293.9,75.8,293.9,75.6z"/>
		<path class="st152" d="M294.1,76.2c0.1-0.1,0.1-0.3,0.2-0.4c0.2,0.2,0.2,0.5,0.2,0.7c0.1,0.2,0,0.3-0.2,0.2
			C294.2,76.5,294.2,76.3,294.1,76.2z"/>
		<path class="st81" d="M275.7,59.1c0,0.2-0.1,0.6-0.2,0.5c-0.4-0.2,0.1-0.4,0.1-0.7C275.7,58.9,275.8,58.9,275.7,59.1z"/>
		<path class="st35" d="M294.8,77.8c-0.1,0.1-0.1,0.1-0.2,0.2c-0.1-0.2-0.1-0.5-0.2-0.7c0.1-0.1,0.1-0.2,0.2-0.2
			C294.9,77.3,294.8,77.6,294.8,77.8z"/>
		<path class="st111" d="M270.5,53.1c0.4,0,0.6,0.2,0.7,0.6c-0.1,0-0.2,0-0.2,0C270.7,53.6,270.6,53.4,270.5,53.1z"/>
		<path class="st13" d="M271.4,31.2c0.4-0.3,0.8-0.1,1.2-0.2C272.2,31.3,271.8,31.2,271.4,31.2z"/>
		<path class="st153" d="M282.8,60.3c0.1,0.1,0.1,0.1,0.2,0.2c-0.1,0.3,0,0.7-0.2,0.9c-0.2-0.3-0.1-0.6,0-1
			C282.8,60.4,282.8,60.3,282.8,60.3z"/>
		<path class="st154" d="M275.4,57.3c0,0.2,0,0.6-0.3,0.5c-0.3-0.1,0.1-0.4,0.1-0.6C275.3,57,275.4,57.1,275.4,57.3z"/>
		<path class="st124" d="M292.4,56.9c-0.1-0.1-0.3-0.2-0.6-0.3c0.5-0.1,0.8-0.1,1,0.1C292.6,56.7,292.4,56.7,292.4,56.9z"/>
		<path class="st7" d="M270.6,82.6c0.6,0.2,0.3,0.6,0.2,1C270.5,83.3,270.8,82.9,270.6,82.6z"/>
		<path class="st44" d="M283.6,57.3c-0.1-0.1-0.1-0.2-0.2-0.3c0-0.2,0.1-0.3,0.3-0.5C283.8,56.8,283.8,57,283.6,57.3z"/>
		<path class="st7" d="M279.5,83.7c0.4-0.4,0.8-0.1,1.2-0.2C280.3,83.7,279.9,83.7,279.5,83.7z"/>
		<path class="st12" d="M282.8,60.4c0,0.3,0,0.6,0,1C282.5,61.2,282.5,61,282.8,60.4z"/>
		<path class="st101" d="M255.3,55.8c0.3,0.3,0.1,0.7,0.2,1.1c-0.1,0-0.1,0-0.2,0C255.2,56.5,255.3,56.1,255.3,55.8z"/>
		<path class="st155" d="M282.1,60.4c0,0,0.1,0,0.1,0c-0.1,0.3-0.1,0.6-0.2,0.9c-0.1,0-0.1,0-0.2,0C281.9,61,281.9,60.7,282.1,60.4z
			"/>
		<path class="st7" d="M276.2,84.1c0.3,0,0.7,0,1,0C276.9,84.3,276.6,84.2,276.2,84.1z"/>
		<path class="st130" d="M287.8,86.1c0.1-0.1,0.1-0.2,0.2-0.3c0.1,0,0.3,0,0.4,0C288.3,86,288.1,86.1,287.8,86.1z"/>
		<path class="st91" d="M283.4,67.7c0.4,0.1,0.3,0.4,0.3,0.6C283.4,68.3,283.5,68,283.4,67.7z"/>
		<path class="st156" d="M268.4,84.4c-0.2,0.1-0.2,0.2-0.2,0.4c-0.2-0.2-0.2-0.4-0.2-0.6c0-0.2,0-0.3,0.2-0.2
			C268.3,84.2,268.3,84.3,268.4,84.4z"/>
		<path class="st157" d="M268.2,84c-0.1,0.1-0.2,0.1-0.2,0.2c-0.1-0.2-0.3-0.4,0-0.6C268,83.6,268.2,83.9,268.2,84z"/>
		<path class="st158" d="M274.6,55.5c0-0.2-0.1-0.4-0.1-0.6c0-0.1,0.1-0.2,0.2-0.2c0.2,0.2,0.2,0.5,0.2,0.8
			C274.7,55.5,274.6,55.5,274.6,55.5z"/>
		<path class="st159" d="M275.4,57.3c-0.1-0.1-0.1-0.1-0.2-0.2c0.1-0.2,0.1-0.3,0.2-0.5C275.6,56.9,275.5,57.1,275.4,57.3z"/>
		<path class="st160" d="M272,81.2c-0.3,0-0.7,0.1-1-0.1C271.4,81.1,271.7,81,272,81.2z"/>
		<path class="st54" d="M276.1,57.8c-0.1,0-0.2,0-0.2,0c0-0.2,0.1-0.5,0.3-0.4C276.4,57.4,276.3,57.7,276.1,57.8z"/>
		<path class="st96" d="M291.3,71.1c-0.1,0-0.2,0-0.3,0c-0.1-0.1-0.4-0.3-0.3-0.4C291,70.5,291.1,70.9,291.3,71.1z"/>
		<path class="st161" d="M275.7,59.1c-0.1-0.1-0.1-0.1-0.2-0.2c0.1-0.2,0.1-0.4,0.2-0.6c0.1,0.1,0.1,0.1,0.2,0.2
			C275.8,58.8,275.8,59,275.7,59.1z"/>
		<path class="st162" d="M254.9,42.3c0.2,0,0.4-0.4,0.5,0c0.1,0.2-0.3,0.2-0.5,0.2C254.9,42.4,254.9,42.3,254.9,42.3z"/>
		<path class="st7" d="M272,25.6c-0.2-0.2-0.3-0.4-0.4-0.7C271.9,25,272,25.3,272,25.6z"/>
		<path class="st75" d="M269.5,60.4c0.3-0.3,0.7-0.1,1-0.2C270.2,60.5,269.9,60.4,269.5,60.4z"/>
		<path class="st163" d="M294.7,77.1c-0.1,0.1-0.1,0.1-0.2,0.2c-0.1-0.2-0.1-0.4-0.2-0.6c0.1-0.1,0.1-0.1,0.2-0.2
			C294.6,76.6,294.6,76.9,294.7,77.1z"/>
		<path class="st164" d="M275.4,62.7c0.1,0.1,0.1,0.1,0.2,0.2c0,0.2,0,0.4-0.4,0.5C275.3,63.1,275.3,62.9,275.4,62.7z"/>
		<path class="st165" d="M268.7,28.9c0.5-0.6,0.3-1-0.2-1.4c-0.6-0.5-1.2-1-1-2c0.1-0.5-0.5-0.6-0.7-0.4c-1.1,0.7-1.4-0.3-1.9-0.8
			c0.1-0.2,0.3-0.4,0.1-0.8c-0.1-0.3,0.1-0.3,0.3-0.2c1.2,0.1,2.1,0.8,3,1.5c0.5,0.4,1.1,0.9,1.5,1.4c0.3,0.4,0.7,0.8,1.4,0.9
			c0.8,0.1,1.1,0.8,1.3,1.6c-1,0.5-2.2,0.6-3.2,1.1c-0.5,0.3-1,0.5-1.2,1c-0.2,0-0.4,0.1-0.5-0.1c-0.3-0.5-0.5-1-0.2-1.6
			c0-0.4,0.2-0.3,0.5-0.3C268.2,29,268.5,29.2,268.7,28.9z"/>
		<path class="st8" d="M264.5,27.4c0.6,0.5,1.2,1,1.8,1.5c0.6,0.6-0.2,1.2,0,1.8c-0.8-0.9-2.3-1.1-2.6-2.5
			C263.7,27.7,264,27.5,264.5,27.4z"/>
		<path class="st166" d="M260,30.8c0.1-0.1,0.1-0.2,0.1-0.2c0.4-0.3,0.8-0.8,1.3-0.9c0.6-0.1,0.6,0.7,1,1c0.5,0.4,0.9,0.9,1.3,1.4
			C262.3,31.9,261.2,31.3,260,30.8z"/>
		<path class="st167" d="M272.5,30.6c-0.3,0-0.6,0-0.9,0c-0.4,0.2-0.9,0-1.4,0.2c-0.2-0.1-0.5-0.1-0.7,0c-0.3,0.1-0.6,0.2-0.8-0.1
			c0-0.3,0.3-0.4,0.5-0.5c0.9-0.3,1.8-0.7,2.7-1c0.3-0.1,0.7-0.3,1,0.1c0.1,0.3,0.2,0.5,0.3,0.8c0.3,0.2,0.1,0.4-0.1,0.4
			C272.9,30.6,272.7,30.5,272.5,30.6z"/>
		<path class="st7" d="M272.9,29.4c-0.6-0.2-1.1,0.2-1.6,0.3c-0.8,0.3-1.7,0.6-2.5,1c-0.1,0.2-0.3,0.4-0.5,0.2
			c-0.1-0.4-0.1-0.6,0.3-0.8c1.3-0.7,2.6-1.3,4.1-1.3C272.9,28.9,272.9,29.1,272.9,29.4z"/>
		<path class="st168" d="M259.6,32c0.3,0.3,0.7,0.6,1.1,1c-1,0.3-1.9,0.4-2.7,1c-0.3,0.2-0.1-0.2-0.1-0.3c0.2-0.4,0.4-0.9,0.7-1.3
			C258.9,32.1,259.1,31.7,259.6,32z"/>
		<path class="st169" d="M259.6,32c-0.6,0.1-0.8,0.5-1,1c-0.1,0.3-0.4,0.5-0.7,0.7c0-0.6,0.3-1.2,0.6-1.7
			C259,31.2,259.3,31.4,259.6,32z"/>
		<path class="st170" d="M265.4,23.4c-0.1,0-0.1,0.1-0.2,0.1c0.8,0.5,0.3,0.7-0.3,0.9c-0.3-0.1-0.7-0.3-0.5-0.8
			C264.6,22.4,265.1,23.4,265.4,23.4z"/>
		<path class="st26" d="M264.5,27.4c-0.3,0.3-0.7,0.5-0.8,0.8c-0.3-0.3-0.7-0.6-0.3-1C263.7,26.8,264.2,27.1,264.5,27.4z"/>
		<path class="st7" d="M269.9,24.7c0-0.1,0-0.1,0-0.2c0.5,0.2,0.6,0.6,0.9,1.1C270.2,25.4,270.1,25,269.9,24.7z"/>
		<path class="st171" d="M268.7,28.9c-0.3,0.6-1-0.2-1.3,0.2c-0.3-0.2-0.1-0.4,0-0.6c0.1,0,0.2,0,0.4,0
			C268.1,28.9,268.4,29,268.7,28.9z"/>
		<path class="st13" d="M268.2,30.9c0.2-0.1,0.4-0.1,0.5-0.2c0.2,0.3,0.5,0.1,0.8,0.2c-0.6,0.3-1.3,0.3-1.9,0
			C267.9,30.8,268,30.8,268.2,30.9z"/>
		<path class="st13" d="M272.5,30.6c0.1-0.3,0.9,0.2,0.7-0.5c0.2,0,0.4,0.1,0.3,0.3c0,0.2-0.2,0.2-0.4,0.2
			C273,30.7,272.7,30.6,272.5,30.6z"/>
		<path class="st172" d="M256.2,37.4c0.1,0.1,0.1,0.1,0.2,0.2c-0.1,0.3-0.2,0.5-0.4,0.8C255.7,38,255.8,37.7,256.2,37.4z"/>
		<path class="st13" d="M270.2,30.8c0.4-0.2,0.9-0.2,1.4-0.2C271.2,31,270.7,30.8,270.2,30.8z"/>
		<path class="st173" d="M295.7,23.7c0.1,0.1,0.1,0.2,0.2,0.2c0,0.2,0.6,0.1,0.3,0.4c-1.3,1.6-2.6,3.3-4.3,4.5c0,0-0.1,0-0.2,0.1
			c0.2-0.9,0.7-1.6,1-2.5c0.9,0.6,0.9,0.6,1.2-0.4C294.2,25.1,295,24.4,295.7,23.7z"/>
		<path class="st166" d="M298.3,23.9c0.5,0.1,1,0.3,1.5,0.4c0.2,0.3,0.8,0.2,0.8,0.7c-0.3,0.7-1.1,0.5-1.5,1c-0.3-1-0.5-1.1-1.3-0.6
			c-0.3,0.2-0.7,0.4-1,0.5c0,0,0,0,0,0C297.1,25.2,297.2,24.1,298.3,23.9z"/>
		<path class="st174" d="M291.4,23.2c0.1,0.2,0.3,0.4,0.4,0.6c-0.9,1.2-1.7,2.4-2.6,3.6c-0.1-0.1-0.1-0.2,0-0.3
			c0.3-1.5,1.2-2.6,2-3.9C291.2,23,291.3,23.1,291.4,23.2z"/>
		<path class="st23" d="M296.5,29.5c-0.3-0.1-0.1-0.5-0.4-0.5c0.2-0.3,0.3-0.7,0.7-0.8l0,0C296.8,28.7,296.3,29,296.5,29.5z"/>
		<path class="st175" d="M295.2,32.3c0.1,0.1,0.1,0.1,0.2,0.2c-0.2,0.2-0.5,0.4-0.7,0.6c-0.1,0-0.1,0-0.2-0.1
			C294.6,32.7,294.8,32.5,295.2,32.3z"/>
		<path class="st139" d="M291.2,31.2c0.1-0.2,0.1-0.4,0.2-0.6c0.1-0.2,0.1-0.7,0.6-0.4C291.8,30.6,291.7,31.1,291.2,31.2
			C291.2,31.2,291.2,31.2,291.2,31.2z"/>
		<path class="st80" d="M294.6,28.6c-0.2,0.2-0.3,0.4-0.5,0.8C294,28.9,294.2,28.7,294.6,28.6z"/>
		<path class="st5" d="M289.2,27c0,0.1,0,0.2,0,0.3c0.1,0.3,0,0.5-0.2,0.7c-0.1-0.1-0.1-0.1-0.2-0.2C288.8,27.5,289,27.3,289.2,27z"
			/>
		<path class="st152" d="M296.7,25.9c0,0.3-0.2,0.4-0.5,0.5C296.2,26.1,296.4,26,296.7,25.9C296.7,26,296.7,25.9,296.7,25.9z"/>
		<path class="st78" d="M292,30.3c-0.3-0.1-0.4,0.2-0.6,0.4c-0.1-0.2-0.2-0.3,0-0.5C291.7,30.1,291.9,30.1,292,30.3z"/>
		<path class="st52" d="M294.5,33.1c0.1,0,0.1,0,0.2,0.1c0,0.2-0.2,0.5-0.4,0.4C294,33.4,294.3,33.2,294.5,33.1z"/>
		<path class="st23" d="M296.9,28.2c0-0.2,0.1-0.5,0.4-0.5C297.3,28,297.1,28.1,296.9,28.2C296.9,28.2,296.9,28.2,296.9,28.2z"/>
		<path class="st176" d="M290.1,29.7c0,0.1-0.1,0.1-0.1,0.2c-0.1,0.1-0.2,0-0.2-0.1c0-0.1,0-0.2,0.1-0.2
			C290,29.6,290.1,29.6,290.1,29.7z"/>
		<path class="st177" d="M289,22.6c0.3,0.2,0.1,0.6,0.4,0.8c-0.2,0.6-0.4,1.2-0.7,1.8c-0.5,1.2-1.1,2.4-1.4,3.7
			c-0.6-2.3,0-4.5,0.8-6.6C288.6,21.8,288.6,22.7,289,22.6z"/>
		<path class="st178" d="M282.9,22c0.3-0.4,0.7-0.1,1-0.1c0.5,0.1,0.7,0,0.8-0.5c0.1-0.6,0.3-1.1,0.5-1.7c0.1-0.2,0.3-0.3,0.5-0.2
			c0.2,0.1,0.1,0.3,0.1,0.5c0.3,0.8,0.4,1.5-0.3,2.3c-0.7,0.8-0.8,1.9-0.9,3.2C283.8,24.3,283.6,23,282.9,22z"/>
		<path class="st174" d="M285.3,26.5c0-1.6,0.5-3,1.1-4.5c0.7,0.5,1,0.8,0.4,1.6c-0.7,0.9-0.9,2-1.1,3
			C285.4,26.8,285.4,26.7,285.3,26.5z"/>
		<path class="st179" d="M280.2,25.6c-0.8-0.8-0.7-1.9-0.8-2.9c-0.2-0.4,0.1-0.8-0.1-1.2c0-0.2,0-0.3-0.1-0.5c0-0.3-0.3-0.7,0.2-0.8
			c0.1,0.2,0,0.5,0.2,0.6c0.4,0.8,0.1,1.6,0.4,2.4C280.1,24,280.1,24.8,280.2,25.6z"/>
		<path class="st169" d="M285.7,20c0-0.4-0.3-0.4-0.6-0.2c0.2-1,0.4-1.9,0.8-2.8c0.1,0,0.1,0,0.2,0C285.9,18,285.8,19,285.7,20z"/>
		<path class="st110" d="M285.3,26.5c0.1,0.1,0.2,0.1,0.4,0.2c0,0.5,0,1,0,1.5c0.1,0.2,0.2,0.4-0.2,0.4
			C285,27.9,285.1,27.2,285.3,26.5z"/>
		<path class="st90" d="M280,23.2c-0.4-0.8-0.2-1.6-0.4-2.4C280.4,21.5,279.8,22.4,280,23.2z"/>
		<path class="st165" d="M292,22.6c0.2,0.2,0.3,0.4,0.2,0.6c-0.1,0.2-0.2,0.1-0.3-0.1C291.7,22.9,291.7,22.7,292,22.6z"/>
		<path class="st90" d="M279.4,20.2c-0.3,0.2-0.1,0.5-0.2,0.8c-0.1-0.4-0.5-0.9,0.2-1.1C279.4,20,279.4,20.1,279.4,20.2z"/>
		<path class="st180" d="M285.5,28.6c0.1-0.1,0.1-0.3,0.2-0.4c0.2,0.3,0.2,0.6,0.2,1l0,0C285.5,29.1,285.6,28.8,285.5,28.6z"/>
		<path class="st149" d="M280.6,26.4c-0.1,0-0.1,0-0.2,0c-0.2-0.2-0.2-0.5-0.2-0.8C280.5,25.8,280.5,26.1,280.6,26.4z"/>
		<path class="st181" d="M286.2,29.8c-0.1,0.1-0.1,0.1-0.2,0.2c-0.2-0.2-0.2-0.5-0.2-0.7c0,0,0,0,0,0
			C286.1,29.3,286.2,29.5,286.2,29.8z"/>
		<path class="st90" d="M279.3,21.5c0.4,0.3,0.1,0.8,0.1,1.2C279.2,22.3,279.3,21.9,279.3,21.5z"/>
		<path class="st110" d="M277.8,21.7c-0.1,0-0.3,0-0.4,0c0.1-0.7-0.2-1.4,0.2-2.1C277.5,20.3,277.6,21,277.8,21.7z"/>
		<path class="st165" d="M288.7,81.6c-1.2,1-2.6,1-4,1c-0.2,0-0.5,0-0.7,0.1c-0.9,0.2-1.8-0.1-2.7,0.1c-0.2-0.1-0.5-0.1-0.7,0
			c-1,0.2-2-0.1-3,0.2l0,0c-0.5,0.2-1,0.1-1.5,0l-0.1,0l-0.1,0c-1.1-0.2-2.2-0.1-3.4-0.1c-0.5,0-0.8-0.1-0.8-0.6
			c-0.2-0.1-0.5-0.2-0.6-0.4c0.1-0.5,0.6-0.2,0.8-0.4c2.1-0.3,4.2-0.4,6.3-0.4c2,0.1,3.9,0.2,5.9,0.3c1.3,0,2.6-0.1,3.9-0.1
			C288.3,81.4,288.6,81.1,288.7,81.6z"/>
		<path class="st7" d="M271.8,82.4c0.2,0.4,0.6,0.5,1.1,0.5c1,0,2.1-0.2,3.1,0.1c-1.2,0-2.3,0-3.5,0
			C271.9,83.1,271.7,82.9,271.8,82.4z"/>
		<path class="st14" d="M277.6,83.1c1-0.3,2,0,3-0.2C279.6,83.3,278.6,83,277.6,83.1z"/>
		<path class="st14" d="M281.2,82.9c0.9-0.3,1.8-0.1,2.7-0.1C283.1,83.1,282.1,82.9,281.2,82.9z"/>
		<path class="st182" d="M272,81.6c-0.2,0.3-0.6,0-0.8,0.4c-0.2,0-0.3-0.1-0.4-0.2c0-0.2,0.1-0.2,0.2-0.2
			C271.4,81.6,271.7,81.6,272,81.6z"/>
		<path class="st7" d="M276.1,83.1c0.5,0,1,0,1.5,0C277.1,83.4,276.6,83.4,276.1,83.1z"/>
		<path class="st124" d="M288.7,81.6c-0.1-0.3-0.4-0.2-0.6-0.2c0.2-0.1,0.4-0.1,0.6-0.2c0.1,0,0.3-0.1,0.3,0.1
			C288.9,81.5,288.8,81.6,288.7,81.6z"/>
		<path class="st8" d="M288.6,59c-0.6,0-1.2-0.1-1.7-0.4c-0.6-0.3-0.8-1-0.2-1.4c0.3-0.2,0.8-0.4,1.1-0.6c0.1-0.1,0.1,0,0.2,0
			c-0.2,0.5,0.2,0.9,0.3,1.4c0,0.1,0.2,0.2,0.3,0.1c0.2-0.1,0.2-0.3,0.1-0.4c0-0.3-0.2-0.6,0.3-0.7c0.4-0.1,0.6-0.1,0.7,0.4
			c0,0.3,0.3,0.4,0.6,0.4c0.2,0,0.3-0.2,0.3-0.4c0-0.3,0.1-0.6,0.5-0.4c0.3,0.1,0.7,0.2,0.6,0.7c0,0.3,0,0.7,0,1
			c-0.6,0.2-1.3,0-1.9,0.2C289.4,58.9,289,58.9,288.6,59z"/>
		<path class="st21" d="M289.9,58.9c0.6-0.3,1.3-0.1,1.9-0.2C291.2,59.2,290.5,58.9,289.9,58.9z"/>
		<path class="st183" d="M288,56.7L288,56.7c-0.1,0-0.2,0-0.2,0c0.4-0.2,0.9-0.2,1.5-0.4C288.9,56.9,288.5,56.7,288,56.7z"/>
		<path class="st184" d="M268.8,52.2c0.8-0.4,1-0.2,1.5,0.7C269.6,52.9,269.3,52.4,268.8,52.2z"/>
		<path class="st74" d="M266.9,54.1c-0.1,0.1-0.1,0.1-0.2,0.2c-0.6-0.1-1-0.4-1.3-1C266.1,53.1,266.4,53.9,266.9,54.1z"/>
		<path class="st28" d="M267,52.7c0.4-0.3,0.6-0.4,0.8-0.1c0.1,0.1,0,0.3,0,0.3C267.5,53.1,267.3,52.8,267,52.7z"/>
		<path class="st185" d="M265.2,53.5c0.1,0.3,0.1,0.6,0.2,0.9C264.7,54.3,264.6,54,265.2,53.5z"/>
		<path class="st186" d="M287.4,53.2c0.3-0.1,0.5,0,0.5,0.1c0.1,0.3-0.1,0.1-0.2,0.1C287.6,53.4,287.5,53.3,287.4,53.2z"/>
		<path class="st187" d="M268.1,60c-0.1-0.1-0.1-0.2-0.2-0.3c0.3-0.3,0-0.7,0.2-1c0.2-0.3,0.6-0.2,0.8-0.3c0.3-0.1,0.3,0.2,0.4,0.4
			c0,0.2,0.1,0.4,0.4,0.4c0.2,0,0.3-0.2,0.3-0.3c-0.1-0.9,0.5-0.4,0.8-0.4c0.2,0.1,0.2,0.3,0.3,0.5c0,0.6-0.4,0.8-1,0.9
			C269.4,59.9,268.7,60,268.1,60z"/>
		<path class="st188" d="M296.7,31.4c0-0.3,0.1-0.5,0.5-0.5C297.1,31.2,297,31.4,296.7,31.4C296.7,31.4,296.7,31.4,296.7,31.4z"/>
		<path class="st20" d="M273.3,52.9c0.1-0.1,0.1-0.2,0.2-0.2c0.4,0.4,0.5,0.9,0.8,1.3c-0.1,0.1-0.1,0.1-0.2,0
			C273.7,53.8,273.5,53.3,273.3,52.9z"/>
		<path class="st189" d="M274,54.1c0.1,0,0.1,0,0.2,0c0.2,0.2,0.3,0.5,0.4,0.7c-0.1,0.1-0.1,0.1-0.2,0.2
			C274.2,54.7,274,54.4,274,54.1z"/>
		<path class="st190" d="M296.2,54.2c-0.3-0.2-0.5-0.5-0.6-0.8c0.6,0,0.6,0.4,0.7,0.9C296.2,54.3,296.2,54.3,296.2,54.2z"/>
		<path class="st191" d="M295.6,53.2c-0.4-0.1-0.6-0.3-0.7-0.6C295.3,52.5,295.4,52.9,295.6,53.2z"/>
		<path class="st192" d="M296.2,54.2c0,0,0.1,0,0.1,0c0.1,0.2,0.3,0.4,0.4,0.6c-0.1,0-0.1,0-0.2,0C296.3,54.7,296.2,54.5,296.2,54.2
			z"/>
		<path class="st111" d="M271.8,51.8c0.2,0.6,0.8,1,0.8,1.7c-0.6-0.3-0.8-0.8-1.2-1.3C271.2,51.9,271.4,51.7,271.8,51.8z"/>
		<path class="st5" d="M270.8,52.1c0,0.2-0.1,0.2-0.2,0.1c-0.1-0.1-0.2-0.2-0.3-0.2c0.1,0,0.2-0.1,0.2-0.1
			C270.6,51.9,270.7,52,270.8,52.1z"/>
		<path class="st193" d="M263.5,55.4c0.2,0,0.4-0.3,0.5,0c0.1,0.2,0.3,0.3,0,0.5C263.6,56.1,263.2,56.1,263.5,55.4z"/>
		<path class="st5" d="M298.5,24.5c0.2,0,0.3,0,0.3,0.2c0,0.2-0.1,0.2-0.2,0.2c-0.1,0-0.3-0.1-0.2-0.2
			C298.3,24.5,298.5,24.5,298.5,24.5z"/>
	</g>
</g>
</svg>
